<svg xmlns="http://www.w3.org/2000/svg" xmlns:xlink="http://www.w3.org/1999/xlink" width="1167" zoomAndPan="magnify" viewBox="0 0 875.25 1349.999965" height="1800" preserveAspectRatio="xMidYMid meet" version="1.0"><defs><g/><clipPath id="9948902d32"><path d="M 0 0.578125 L 874.5 0.578125 L 874.5 1349.421875 L 0 1349.421875 Z M 0 0.578125 " clip-rule="nonzero"/></clipPath><clipPath id="e293c39bf3"><rect x="0" width="47" y="0" height="17"/></clipPath><clipPath id="5db4b90143"><rect x="0" width="113" y="0" height="17"/></clipPath><clipPath id="ed029f61c1"><rect x="0" width="67" y="0" height="17"/></clipPath><clipPath id="be82d997fe"><path d="M 17 3 L 23.996094 3 L 23.996094 14 L 17 14 Z M 17 3 " clip-rule="nonzero"/></clipPath><clipPath id="9d4ade6f7c"><rect x="0" width="24" y="0" height="17"/></clipPath><clipPath id="81b85f1057"><rect x="0" width="44" y="0" height="17"/></clipPath><clipPath id="85d2d95188"><path d="M 58 3 L 66.933594 3 L 66.933594 14 L 58 14 Z M 58 3 " clip-rule="nonzero"/></clipPath><clipPath id="db7ddf5748"><rect x="0" width="67" y="0" height="17"/></clipPath><clipPath id="cf6f4e31c0"><path d="M 5.675781 117 L 862.941406 117 L 862.941406 1296.804688 L 5.675781 1296.804688 Z M 5.675781 117 " clip-rule="nonzero"/></clipPath><clipPath id="67ee338784"><path d="M 5.675781 116.566406 L 862.941406 116.566406 L 862.941406 1296.804688 L 5.675781 1296.804688 Z M 5.675781 116.566406 " clip-rule="nonzero"/></clipPath><clipPath id="da978c76fb"><rect x="0" width="381" y="0" height="58"/></clipPath></defs><g clip-path="url(#9948902d32)"><path fill="#ffffff" d="M 0 0.578125 L 874.5 0.578125 L 874.5 1349.421875 L 0 1349.421875 Z M 0 0.578125 " fill-opacity="1" fill-rule="nonzero"/><path fill="#ffffff" d="M 0 0.578125 L 874.5 0.578125 L 874.5 1349.421875 L 0 1349.421875 Z M 0 0.578125 " fill-opacity="1" fill-rule="nonzero"/></g><g transform="matrix(1, 0, 0, 1, 54, 141)"><g clip-path="url(#e293c39bf3)"><g fill="#000000" fill-opacity="1"><g transform="translate(1.097668, 13.195271)"><g><path d="M 8.109375 -8.6875 C 8.210938 -8.613281 8.273438 -8.519531 8.296875 -8.40625 C 8.316406 -8.300781 8.289062 -8.191406 8.21875 -8.078125 C 8.15625 -8.003906 8.070312 -7.960938 7.96875 -7.953125 C 7.875 -7.941406 7.78125 -7.957031 7.6875 -8 C 7.351562 -8.226562 6.988281 -8.40625 6.59375 -8.53125 C 6.207031 -8.65625 5.789062 -8.71875 5.34375 -8.71875 C 4.800781 -8.71875 4.296875 -8.617188 3.828125 -8.421875 C 3.359375 -8.234375 2.945312 -7.957031 2.59375 -7.59375 C 2.25 -7.226562 1.976562 -6.800781 1.78125 -6.3125 C 1.59375 -5.820312 1.5 -5.28125 1.5 -4.6875 C 1.5 -4.082031 1.597656 -3.53125 1.796875 -3.03125 C 1.992188 -2.539062 2.269531 -2.113281 2.625 -1.75 C 2.976562 -1.394531 3.382812 -1.125 3.84375 -0.9375 C 4.3125 -0.75 4.8125 -0.65625 5.34375 -0.65625 C 5.78125 -0.65625 6.191406 -0.71875 6.578125 -0.84375 C 6.972656 -0.96875 7.34375 -1.140625 7.6875 -1.359375 C 7.769531 -1.410156 7.863281 -1.425781 7.96875 -1.40625 C 8.070312 -1.394531 8.15625 -1.347656 8.21875 -1.265625 C 8.300781 -1.160156 8.328125 -1.050781 8.296875 -0.9375 C 8.273438 -0.832031 8.21875 -0.75 8.125 -0.6875 C 7.894531 -0.539062 7.628906 -0.40625 7.328125 -0.28125 C 7.023438 -0.15625 6.703125 -0.0546875 6.359375 0.015625 C 6.023438 0.0976562 5.6875 0.140625 5.34375 0.140625 C 4.707031 0.140625 4.101562 0.0234375 3.53125 -0.203125 C 2.96875 -0.441406 2.46875 -0.773438 2.03125 -1.203125 C 1.59375 -1.628906 1.25 -2.132812 1 -2.71875 C 0.757812 -3.3125 0.640625 -3.96875 0.640625 -4.6875 C 0.640625 -5.382812 0.757812 -6.023438 1 -6.609375 C 1.25 -7.203125 1.585938 -7.710938 2.015625 -8.140625 C 2.441406 -8.566406 2.941406 -8.898438 3.515625 -9.140625 C 4.085938 -9.378906 4.695312 -9.5 5.34375 -9.5 C 5.851562 -9.5 6.34375 -9.425781 6.8125 -9.28125 C 7.289062 -9.144531 7.722656 -8.945312 8.109375 -8.6875 Z M 8.109375 -8.6875 "/></g></g></g><g fill="#000000" fill-opacity="1"><g transform="translate(9.850134, 13.195271)"><g><path d="M 6.453125 -0.796875 C 6.554688 -0.796875 6.644531 -0.753906 6.71875 -0.671875 C 6.800781 -0.597656 6.84375 -0.507812 6.84375 -0.40625 C 6.84375 -0.289062 6.800781 -0.191406 6.71875 -0.109375 C 6.644531 -0.0351562 6.554688 0 6.453125 0 L 1.65625 0 C 1.539062 0 1.445312 -0.0351562 1.375 -0.109375 C 1.300781 -0.191406 1.265625 -0.289062 1.265625 -0.40625 L 1.265625 -8.984375 C 1.265625 -9.085938 1.300781 -9.179688 1.375 -9.265625 C 1.457031 -9.347656 1.5625 -9.390625 1.6875 -9.390625 C 1.789062 -9.390625 1.882812 -9.347656 1.96875 -9.265625 C 2.0625 -9.179688 2.109375 -9.085938 2.109375 -8.984375 L 2.109375 -0.5625 L 1.84375 -0.796875 Z M 6.453125 -0.796875 "/></g></g></g><g fill="#000000" fill-opacity="1"><g transform="translate(16.980782, 13.195271)"><g><path d="M 2.109375 -0.421875 C 2.097656 -0.296875 2.050781 -0.191406 1.96875 -0.109375 C 1.882812 -0.0351562 1.785156 0 1.671875 0 C 1.546875 0 1.445312 -0.0351562 1.375 -0.109375 C 1.300781 -0.191406 1.265625 -0.296875 1.265625 -0.421875 L 1.265625 -8.96875 C 1.265625 -9.082031 1.300781 -9.179688 1.375 -9.265625 C 1.457031 -9.347656 1.5625 -9.390625 1.6875 -9.390625 C 1.789062 -9.390625 1.882812 -9.347656 1.96875 -9.265625 C 2.0625 -9.179688 2.109375 -9.082031 2.109375 -8.96875 Z M 2.109375 -0.421875 "/></g></g></g><g fill="#000000" fill-opacity="1"><g transform="translate(20.331649, 13.195271)"><g><path d="M 1.65625 -9.390625 L 6.578125 -9.390625 C 6.691406 -9.390625 6.785156 -9.347656 6.859375 -9.265625 C 6.941406 -9.191406 6.984375 -9.097656 6.984375 -8.984375 C 6.984375 -8.867188 6.941406 -8.773438 6.859375 -8.703125 C 6.785156 -8.628906 6.691406 -8.59375 6.578125 -8.59375 L 1.96875 -8.59375 L 2.109375 -8.828125 L 2.109375 -5.046875 L 1.953125 -5.234375 L 5.984375 -5.234375 C 6.085938 -5.234375 6.175781 -5.191406 6.25 -5.109375 C 6.332031 -5.023438 6.375 -4.929688 6.375 -4.828125 C 6.375 -4.710938 6.332031 -4.617188 6.25 -4.546875 C 6.175781 -4.472656 6.085938 -4.4375 5.984375 -4.4375 L 1.984375 -4.4375 L 2.109375 -4.578125 L 2.109375 -0.703125 L 2.03125 -0.796875 L 6.578125 -0.796875 C 6.691406 -0.796875 6.785156 -0.753906 6.859375 -0.671875 C 6.941406 -0.585938 6.984375 -0.492188 6.984375 -0.390625 C 6.984375 -0.273438 6.941406 -0.179688 6.859375 -0.109375 C 6.785156 -0.0351562 6.691406 0 6.578125 0 L 1.65625 0 C 1.550781 0 1.457031 -0.0351562 1.375 -0.109375 C 1.300781 -0.191406 1.265625 -0.289062 1.265625 -0.40625 L 1.265625 -8.984375 C 1.265625 -9.085938 1.300781 -9.179688 1.375 -9.265625 C 1.457031 -9.347656 1.550781 -9.390625 1.65625 -9.390625 Z M 1.65625 -9.390625 "/></g></g></g><g fill="#000000" fill-opacity="1"><g transform="translate(27.94482, 13.195271)"><g><path d="M 8.125 -9.390625 C 8.238281 -9.390625 8.328125 -9.351562 8.390625 -9.28125 C 8.460938 -9.207031 8.5 -9.117188 8.5 -9.015625 L 8.5 -0.421875 C 8.5 -0.296875 8.457031 -0.191406 8.375 -0.109375 C 8.289062 -0.0351562 8.191406 0 8.078125 0 C 8.023438 0 7.96875 -0.0078125 7.90625 -0.03125 C 7.84375 -0.0507812 7.796875 -0.0859375 7.765625 -0.140625 L 1.78125 -8.1875 L 2.015625 -8.3125 L 2.015625 -0.359375 C 2.015625 -0.265625 1.976562 -0.179688 1.90625 -0.109375 C 1.832031 -0.0351562 1.742188 0 1.640625 0 C 1.523438 0 1.429688 -0.0351562 1.359375 -0.109375 C 1.296875 -0.179688 1.265625 -0.265625 1.265625 -0.359375 L 1.265625 -8.984375 C 1.265625 -9.117188 1.300781 -9.21875 1.375 -9.28125 C 1.457031 -9.351562 1.550781 -9.390625 1.65625 -9.390625 C 1.707031 -9.390625 1.765625 -9.375 1.828125 -9.34375 C 1.890625 -9.320312 1.9375 -9.285156 1.96875 -9.234375 L 7.890625 -1.28125 L 7.75 -1.03125 L 7.75 -9.015625 C 7.75 -9.117188 7.785156 -9.207031 7.859375 -9.28125 C 7.941406 -9.351562 8.03125 -9.390625 8.125 -9.390625 Z M 8.125 -9.390625 "/></g></g></g><g fill="#000000" fill-opacity="1"><g transform="translate(37.70255, 13.195271)"><g><path d="M 4.046875 0 C 3.921875 0 3.820312 -0.0351562 3.75 -0.109375 C 3.675781 -0.191406 3.640625 -0.289062 3.640625 -0.40625 L 3.640625 -8.9375 L 4.46875 -8.9375 L 4.46875 -0.40625 C 4.46875 -0.289062 4.425781 -0.191406 4.34375 -0.109375 C 4.257812 -0.0351562 4.160156 0 4.046875 0 Z M 0.859375 -8.625 C 0.753906 -8.625 0.660156 -8.65625 0.578125 -8.71875 C 0.492188 -8.789062 0.453125 -8.890625 0.453125 -9.015625 C 0.453125 -9.117188 0.492188 -9.207031 0.578125 -9.28125 C 0.660156 -9.351562 0.753906 -9.390625 0.859375 -9.390625 L 7.234375 -9.390625 C 7.347656 -9.390625 7.441406 -9.351562 7.515625 -9.28125 C 7.597656 -9.207031 7.640625 -9.113281 7.640625 -9 C 7.640625 -8.882812 7.597656 -8.789062 7.515625 -8.71875 C 7.441406 -8.65625 7.347656 -8.625 7.234375 -8.625 Z M 0.859375 -8.625 "/></g></g></g></g></g><g transform="matrix(1, 0, 0, 1, 164, 141)"><g clip-path="url(#5db4b90143)"><g fill="#000000" fill-opacity="1"><g transform="translate(0.604875, 13.195271)"><g><path d="M 5.078125 -9.390625 C 5.742188 -9.390625 6.320312 -9.265625 6.8125 -9.015625 C 7.3125 -8.765625 7.722656 -8.414062 8.046875 -7.96875 C 8.367188 -7.53125 8.609375 -7.03125 8.765625 -6.46875 C 8.921875 -5.90625 9 -5.3125 9 -4.6875 C 9 -3.832031 8.859375 -3.050781 8.578125 -2.34375 C 8.296875 -1.632812 7.863281 -1.066406 7.28125 -0.640625 C 6.707031 -0.210938 5.972656 0 5.078125 0 L 1.65625 0 C 1.550781 0 1.457031 -0.0351562 1.375 -0.109375 C 1.300781 -0.191406 1.265625 -0.289062 1.265625 -0.40625 L 1.265625 -8.984375 C 1.265625 -9.085938 1.300781 -9.179688 1.375 -9.265625 C 1.457031 -9.347656 1.550781 -9.390625 1.65625 -9.390625 Z M 4.953125 -0.796875 C 5.710938 -0.796875 6.320312 -0.96875 6.78125 -1.3125 C 7.25 -1.664062 7.59375 -2.140625 7.8125 -2.734375 C 8.03125 -3.328125 8.140625 -3.976562 8.140625 -4.6875 C 8.140625 -5.207031 8.078125 -5.703125 7.953125 -6.171875 C 7.835938 -6.640625 7.648438 -7.054688 7.390625 -7.421875 C 7.140625 -7.785156 6.8125 -8.070312 6.40625 -8.28125 C 6 -8.488281 5.515625 -8.59375 4.953125 -8.59375 L 2.015625 -8.59375 L 2.109375 -8.71875 L 2.109375 -0.65625 L 2.03125 -0.796875 Z M 4.953125 -0.796875 "/></g></g></g><g fill="#000000" fill-opacity="1"><g transform="translate(10.174939, 13.195271)"><g><path d="M 4.390625 -8.359375 L 1.140625 -0.25 C 1.097656 -0.164062 1.046875 -0.0976562 0.984375 -0.046875 C 0.921875 -0.00390625 0.851562 0.015625 0.78125 0.015625 C 0.65625 0.015625 0.5625 -0.015625 0.5 -0.078125 C 0.4375 -0.148438 0.398438 -0.234375 0.390625 -0.328125 C 0.378906 -0.378906 0.382812 -0.4375 0.40625 -0.5 L 3.9375 -9.15625 C 3.988281 -9.25 4.046875 -9.316406 4.109375 -9.359375 C 4.171875 -9.398438 4.25 -9.421875 4.34375 -9.421875 C 4.4375 -9.421875 4.515625 -9.394531 4.578125 -9.34375 C 4.640625 -9.300781 4.691406 -9.238281 4.734375 -9.15625 L 8.265625 -0.53125 C 8.273438 -0.476562 8.28125 -0.425781 8.28125 -0.375 C 8.28125 -0.25 8.238281 -0.148438 8.15625 -0.078125 C 8.082031 -0.015625 7.992188 0.015625 7.890625 0.015625 C 7.796875 0.015625 7.710938 -0.0078125 7.640625 -0.0625 C 7.578125 -0.113281 7.53125 -0.175781 7.5 -0.25 L 4.15625 -8.40625 Z M 1.921875 -2.703125 L 2.25 -3.5 L 6.40625 -3.5 L 6.5625 -2.703125 Z M 1.921875 -2.703125 "/></g></g></g><g fill="#000000" fill-opacity="1"><g transform="translate(18.176628, 13.195271)"><g><path d="M 4.046875 0 C 3.921875 0 3.820312 -0.0351562 3.75 -0.109375 C 3.675781 -0.191406 3.640625 -0.289062 3.640625 -0.40625 L 3.640625 -8.9375 L 4.46875 -8.9375 L 4.46875 -0.40625 C 4.46875 -0.289062 4.425781 -0.191406 4.34375 -0.109375 C 4.257812 -0.0351562 4.160156 0 4.046875 0 Z M 0.859375 -8.625 C 0.753906 -8.625 0.660156 -8.65625 0.578125 -8.71875 C 0.492188 -8.789062 0.453125 -8.890625 0.453125 -9.015625 C 0.453125 -9.117188 0.492188 -9.207031 0.578125 -9.28125 C 0.660156 -9.351562 0.753906 -9.390625 0.859375 -9.390625 L 7.234375 -9.390625 C 7.347656 -9.390625 7.441406 -9.351562 7.515625 -9.28125 C 7.597656 -9.207031 7.640625 -9.113281 7.640625 -9 C 7.640625 -8.882812 7.597656 -8.789062 7.515625 -8.71875 C 7.441406 -8.65625 7.347656 -8.625 7.234375 -8.625 Z M 0.859375 -8.625 "/></g></g></g><g fill="#000000" fill-opacity="1"><g transform="translate(26.272329, 13.195271)"><g><path d="M 1.65625 -9.390625 L 6.578125 -9.390625 C 6.691406 -9.390625 6.785156 -9.347656 6.859375 -9.265625 C 6.941406 -9.191406 6.984375 -9.097656 6.984375 -8.984375 C 6.984375 -8.867188 6.941406 -8.773438 6.859375 -8.703125 C 6.785156 -8.628906 6.691406 -8.59375 6.578125 -8.59375 L 1.96875 -8.59375 L 2.109375 -8.828125 L 2.109375 -5.046875 L 1.953125 -5.234375 L 5.984375 -5.234375 C 6.085938 -5.234375 6.175781 -5.191406 6.25 -5.109375 C 6.332031 -5.023438 6.375 -4.929688 6.375 -4.828125 C 6.375 -4.710938 6.332031 -4.617188 6.25 -4.546875 C 6.175781 -4.472656 6.085938 -4.4375 5.984375 -4.4375 L 1.984375 -4.4375 L 2.109375 -4.578125 L 2.109375 -0.703125 L 2.03125 -0.796875 L 6.578125 -0.796875 C 6.691406 -0.796875 6.785156 -0.753906 6.859375 -0.671875 C 6.941406 -0.585938 6.984375 -0.492188 6.984375 -0.390625 C 6.984375 -0.273438 6.941406 -0.179688 6.859375 -0.109375 C 6.785156 -0.0351562 6.691406 0 6.578125 0 L 1.65625 0 C 1.550781 0 1.457031 -0.0351562 1.375 -0.109375 C 1.300781 -0.191406 1.265625 -0.289062 1.265625 -0.40625 L 1.265625 -8.984375 C 1.265625 -9.085938 1.300781 -9.179688 1.375 -9.265625 C 1.457031 -9.347656 1.550781 -9.390625 1.65625 -9.390625 Z M 1.65625 -9.390625 "/></g></g></g><g fill="#000000" fill-opacity="1"><g transform="translate(33.8855, 13.195271)"><g/></g></g><g fill="#000000" fill-opacity="1"><g transform="translate(37.544647, 13.195271)"><g><path d="M 9.625 -4.6875 C 9.625 -3.988281 9.515625 -3.34375 9.296875 -2.75 C 9.078125 -2.164062 8.765625 -1.65625 8.359375 -1.21875 C 7.960938 -0.789062 7.488281 -0.457031 6.9375 -0.21875 C 6.382812 0.0195312 5.785156 0.140625 5.140625 0.140625 C 4.484375 0.140625 3.878906 0.0195312 3.328125 -0.21875 C 2.773438 -0.457031 2.296875 -0.789062 1.890625 -1.21875 C 1.492188 -1.65625 1.1875 -2.164062 0.96875 -2.75 C 0.75 -3.34375 0.640625 -3.988281 0.640625 -4.6875 C 0.640625 -5.394531 0.75 -6.039062 0.96875 -6.625 C 1.1875 -7.207031 1.492188 -7.71875 1.890625 -8.15625 C 2.296875 -8.59375 2.773438 -8.925781 3.328125 -9.15625 C 3.878906 -9.394531 4.484375 -9.515625 5.140625 -9.515625 C 5.785156 -9.515625 6.382812 -9.394531 6.9375 -9.15625 C 7.488281 -8.925781 7.960938 -8.59375 8.359375 -8.15625 C 8.765625 -7.71875 9.078125 -7.207031 9.296875 -6.625 C 9.515625 -6.039062 9.625 -5.394531 9.625 -4.6875 Z M 8.765625 -4.6875 C 8.765625 -5.488281 8.609375 -6.1875 8.296875 -6.78125 C 7.992188 -7.382812 7.566406 -7.859375 7.015625 -8.203125 C 6.472656 -8.546875 5.847656 -8.71875 5.140625 -8.71875 C 4.429688 -8.71875 3.800781 -8.546875 3.25 -8.203125 C 2.695312 -7.859375 2.265625 -7.382812 1.953125 -6.78125 C 1.648438 -6.1875 1.5 -5.488281 1.5 -4.6875 C 1.5 -3.894531 1.648438 -3.195312 1.953125 -2.59375 C 2.265625 -1.988281 2.695312 -1.515625 3.25 -1.171875 C 3.800781 -0.835938 4.429688 -0.671875 5.140625 -0.671875 C 5.847656 -0.671875 6.472656 -0.835938 7.015625 -1.171875 C 7.566406 -1.515625 7.992188 -1.988281 8.296875 -2.59375 C 8.609375 -3.195312 8.765625 -3.894531 8.765625 -4.6875 Z M 8.765625 -4.6875 "/></g></g></g><g fill="#000000" fill-opacity="1"><g transform="translate(47.811708, 13.195271)"><g><path d="M 1.671875 0 C 1.546875 0 1.445312 -0.0351562 1.375 -0.109375 C 1.300781 -0.191406 1.265625 -0.289062 1.265625 -0.40625 L 1.265625 -8.984375 C 1.265625 -9.085938 1.300781 -9.179688 1.375 -9.265625 C 1.457031 -9.347656 1.550781 -9.390625 1.65625 -9.390625 L 6.546875 -9.390625 C 6.660156 -9.390625 6.753906 -9.347656 6.828125 -9.265625 C 6.898438 -9.191406 6.9375 -9.097656 6.9375 -8.984375 C 6.9375 -8.878906 6.898438 -8.785156 6.828125 -8.703125 C 6.753906 -8.628906 6.660156 -8.59375 6.546875 -8.59375 L 2.03125 -8.59375 L 2.078125 -8.671875 L 2.078125 -5.109375 L 2.015625 -5.234375 L 5.9375 -5.234375 C 6.050781 -5.234375 6.144531 -5.191406 6.21875 -5.109375 C 6.300781 -5.035156 6.34375 -4.945312 6.34375 -4.84375 C 6.34375 -4.726562 6.300781 -4.632812 6.21875 -4.5625 C 6.144531 -4.488281 6.050781 -4.453125 5.9375 -4.453125 L 1.984375 -4.453125 L 2.078125 -4.5625 L 2.078125 -0.40625 C 2.078125 -0.289062 2.035156 -0.191406 1.953125 -0.109375 C 1.878906 -0.0351562 1.785156 0 1.671875 0 Z M 1.671875 0 "/></g></g></g><g fill="#000000" fill-opacity="1"><g transform="translate(55.398071, 13.195271)"><g/></g></g><g fill="#000000" fill-opacity="1"><g transform="translate(59.057218, 13.195271)"><g><path d="M 3.84375 0.140625 C 3.164062 0.140625 2.578125 0.03125 2.078125 -0.1875 C 1.578125 -0.40625 1.097656 -0.738281 0.640625 -1.1875 C 0.597656 -1.226562 0.5625 -1.273438 0.53125 -1.328125 C 0.5 -1.378906 0.484375 -1.441406 0.484375 -1.515625 C 0.484375 -1.617188 0.523438 -1.710938 0.609375 -1.796875 C 0.691406 -1.890625 0.785156 -1.9375 0.890625 -1.9375 C 1.003906 -1.9375 1.101562 -1.894531 1.1875 -1.8125 C 1.539062 -1.4375 1.9375 -1.148438 2.375 -0.953125 C 2.820312 -0.753906 3.300781 -0.65625 3.8125 -0.65625 C 4.238281 -0.65625 4.617188 -0.722656 4.953125 -0.859375 C 5.285156 -0.992188 5.550781 -1.1875 5.75 -1.4375 C 5.945312 -1.6875 6.046875 -1.976562 6.046875 -2.3125 C 6.046875 -2.71875 5.929688 -3.046875 5.703125 -3.296875 C 5.484375 -3.554688 5.191406 -3.769531 4.828125 -3.9375 C 4.460938 -4.101562 4.054688 -4.253906 3.609375 -4.390625 C 3.242188 -4.492188 2.894531 -4.613281 2.5625 -4.75 C 2.226562 -4.882812 1.929688 -5.050781 1.671875 -5.25 C 1.410156 -5.457031 1.207031 -5.707031 1.0625 -6 C 0.925781 -6.300781 0.859375 -6.660156 0.859375 -7.078125 C 0.859375 -7.546875 0.984375 -7.960938 1.234375 -8.328125 C 1.484375 -8.703125 1.835938 -8.992188 2.296875 -9.203125 C 2.753906 -9.410156 3.289062 -9.515625 3.90625 -9.515625 C 4.425781 -9.515625 4.929688 -9.425781 5.421875 -9.25 C 5.910156 -9.070312 6.296875 -8.804688 6.578125 -8.453125 C 6.710938 -8.316406 6.78125 -8.191406 6.78125 -8.078125 C 6.78125 -7.984375 6.734375 -7.890625 6.640625 -7.796875 C 6.554688 -7.710938 6.460938 -7.671875 6.359375 -7.671875 C 6.265625 -7.671875 6.1875 -7.703125 6.125 -7.765625 C 5.976562 -7.953125 5.785156 -8.117188 5.546875 -8.265625 C 5.316406 -8.410156 5.0625 -8.523438 4.78125 -8.609375 C 4.5 -8.691406 4.207031 -8.734375 3.90625 -8.734375 C 3.476562 -8.734375 3.097656 -8.664062 2.765625 -8.53125 C 2.429688 -8.40625 2.164062 -8.21875 1.96875 -7.96875 C 1.78125 -7.726562 1.6875 -7.441406 1.6875 -7.109375 C 1.6875 -6.734375 1.789062 -6.421875 2 -6.171875 C 2.21875 -5.929688 2.5 -5.734375 2.84375 -5.578125 C 3.195312 -5.421875 3.570312 -5.273438 3.96875 -5.140625 C 4.351562 -5.035156 4.722656 -4.914062 5.078125 -4.78125 C 5.429688 -4.644531 5.742188 -4.472656 6.015625 -4.265625 C 6.285156 -4.054688 6.5 -3.796875 6.65625 -3.484375 C 6.8125 -3.171875 6.890625 -2.78125 6.890625 -2.3125 C 6.890625 -1.851562 6.757812 -1.4375 6.5 -1.0625 C 6.238281 -0.695312 5.882812 -0.40625 5.4375 -0.1875 C 4.988281 0.0195312 4.457031 0.128906 3.84375 0.140625 Z M 3.84375 0.140625 "/></g></g></g><g fill="#000000" fill-opacity="1"><g transform="translate(66.589973, 13.195271)"><g><path d="M 1.65625 -9.390625 L 6.578125 -9.390625 C 6.691406 -9.390625 6.785156 -9.347656 6.859375 -9.265625 C 6.941406 -9.191406 6.984375 -9.097656 6.984375 -8.984375 C 6.984375 -8.867188 6.941406 -8.773438 6.859375 -8.703125 C 6.785156 -8.628906 6.691406 -8.59375 6.578125 -8.59375 L 1.96875 -8.59375 L 2.109375 -8.828125 L 2.109375 -5.046875 L 1.953125 -5.234375 L 5.984375 -5.234375 C 6.085938 -5.234375 6.175781 -5.191406 6.25 -5.109375 C 6.332031 -5.023438 6.375 -4.929688 6.375 -4.828125 C 6.375 -4.710938 6.332031 -4.617188 6.25 -4.546875 C 6.175781 -4.472656 6.085938 -4.4375 5.984375 -4.4375 L 1.984375 -4.4375 L 2.109375 -4.578125 L 2.109375 -0.703125 L 2.03125 -0.796875 L 6.578125 -0.796875 C 6.691406 -0.796875 6.785156 -0.753906 6.859375 -0.671875 C 6.941406 -0.585938 6.984375 -0.492188 6.984375 -0.390625 C 6.984375 -0.273438 6.941406 -0.179688 6.859375 -0.109375 C 6.785156 -0.0351562 6.691406 0 6.578125 0 L 1.65625 0 C 1.550781 0 1.457031 -0.0351562 1.375 -0.109375 C 1.300781 -0.191406 1.265625 -0.289062 1.265625 -0.40625 L 1.265625 -8.984375 C 1.265625 -9.085938 1.300781 -9.179688 1.375 -9.265625 C 1.457031 -9.347656 1.550781 -9.390625 1.65625 -9.390625 Z M 1.65625 -9.390625 "/></g></g></g><g fill="#000000" fill-opacity="1"><g transform="translate(74.203144, 13.195271)"><g><path d="M 1.71875 0 C 1.582031 0 1.472656 -0.0351562 1.390625 -0.109375 C 1.304688 -0.191406 1.265625 -0.289062 1.265625 -0.40625 L 1.265625 -8.984375 C 1.265625 -9.085938 1.300781 -9.179688 1.375 -9.265625 C 1.457031 -9.347656 1.550781 -9.390625 1.65625 -9.390625 L 5.28125 -9.390625 C 5.789062 -9.390625 6.242188 -9.28125 6.640625 -9.0625 C 7.046875 -8.84375 7.363281 -8.539062 7.59375 -8.15625 C 7.820312 -7.769531 7.9375 -7.332031 7.9375 -6.84375 C 7.9375 -6.457031 7.863281 -6.097656 7.71875 -5.765625 C 7.570312 -5.429688 7.367188 -5.148438 7.109375 -4.921875 C 6.859375 -4.691406 6.570312 -4.523438 6.25 -4.421875 L 5.78125 -4.578125 C 6.113281 -4.546875 6.421875 -4.4375 6.703125 -4.25 C 6.984375 -4.070312 7.210938 -3.820312 7.390625 -3.5 C 7.566406 -3.1875 7.660156 -2.804688 7.671875 -2.359375 C 7.679688 -1.972656 7.703125 -1.671875 7.734375 -1.453125 C 7.765625 -1.242188 7.8125 -1.082031 7.875 -0.96875 C 7.9375 -0.863281 8.015625 -0.78125 8.109375 -0.71875 C 8.203125 -0.664062 8.265625 -0.585938 8.296875 -0.484375 C 8.328125 -0.390625 8.316406 -0.300781 8.265625 -0.21875 C 8.222656 -0.144531 8.164062 -0.09375 8.09375 -0.0625 C 8.03125 -0.03125 7.960938 -0.015625 7.890625 -0.015625 C 7.816406 -0.015625 7.75 -0.03125 7.6875 -0.0625 C 7.5625 -0.132812 7.429688 -0.242188 7.296875 -0.390625 C 7.171875 -0.546875 7.0625 -0.769531 6.96875 -1.0625 C 6.882812 -1.363281 6.84375 -1.78125 6.84375 -2.3125 C 6.84375 -2.65625 6.785156 -2.9375 6.671875 -3.15625 C 6.566406 -3.382812 6.425781 -3.554688 6.25 -3.671875 C 6.082031 -3.796875 5.890625 -3.882812 5.671875 -3.9375 C 5.460938 -3.988281 5.265625 -4.015625 5.078125 -4.015625 L 1.953125 -4.015625 L 2.109375 -4.203125 L 2.109375 -0.40625 C 2.109375 -0.289062 2.070312 -0.191406 2 -0.109375 C 1.925781 -0.0351562 1.832031 0 1.71875 0 Z M 1.953125 -4.75 L 5.328125 -4.75 C 5.628906 -4.769531 5.910156 -4.867188 6.171875 -5.046875 C 6.441406 -5.222656 6.660156 -5.460938 6.828125 -5.765625 C 6.992188 -6.066406 7.078125 -6.421875 7.078125 -6.828125 C 7.078125 -7.335938 6.90625 -7.757812 6.5625 -8.09375 C 6.21875 -8.425781 5.769531 -8.59375 5.21875 -8.59375 L 2.015625 -8.59375 L 2.109375 -8.78125 L 2.109375 -4.5625 Z M 1.953125 -4.75 "/></g></g></g><g fill="#000000" fill-opacity="1"><g transform="translate(82.98237, 13.195271)"><g><path d="M 8.046875 -9.390625 C 8.171875 -9.390625 8.269531 -9.351562 8.34375 -9.28125 C 8.414062 -9.21875 8.453125 -9.128906 8.453125 -9.015625 C 8.453125 -8.953125 8.441406 -8.890625 8.421875 -8.828125 L 4.84375 -0.265625 C 4.789062 -0.179688 4.726562 -0.113281 4.65625 -0.0625 C 4.59375 -0.0195312 4.523438 0 4.453125 0 C 4.367188 0 4.289062 -0.0195312 4.21875 -0.0625 C 4.144531 -0.113281 4.097656 -0.175781 4.078125 -0.25 L 0.515625 -8.796875 C 0.503906 -8.816406 0.492188 -8.84375 0.484375 -8.875 C 0.472656 -8.914062 0.46875 -8.960938 0.46875 -9.015625 C 0.46875 -9.128906 0.507812 -9.21875 0.59375 -9.28125 C 0.675781 -9.351562 0.765625 -9.390625 0.859375 -9.390625 C 1.046875 -9.390625 1.179688 -9.296875 1.265625 -9.109375 L 4.609375 -1.078125 L 4.375 -1.078125 L 7.671875 -9.125 C 7.753906 -9.300781 7.878906 -9.390625 8.046875 -9.390625 Z M 8.046875 -9.390625 "/></g></g></g><g fill="#000000" fill-opacity="1"><g transform="translate(91.895681, 13.195271)"><g><path d="M 2.109375 -0.421875 C 2.097656 -0.296875 2.050781 -0.191406 1.96875 -0.109375 C 1.882812 -0.0351562 1.785156 0 1.671875 0 C 1.546875 0 1.445312 -0.0351562 1.375 -0.109375 C 1.300781 -0.191406 1.265625 -0.296875 1.265625 -0.421875 L 1.265625 -8.96875 C 1.265625 -9.082031 1.300781 -9.179688 1.375 -9.265625 C 1.457031 -9.347656 1.5625 -9.390625 1.6875 -9.390625 C 1.789062 -9.390625 1.882812 -9.347656 1.96875 -9.265625 C 2.0625 -9.179688 2.109375 -9.082031 2.109375 -8.96875 Z M 2.109375 -0.421875 "/></g></g></g><g fill="#000000" fill-opacity="1"><g transform="translate(95.246548, 13.195271)"><g><path d="M 8.109375 -8.6875 C 8.210938 -8.613281 8.273438 -8.519531 8.296875 -8.40625 C 8.316406 -8.300781 8.289062 -8.191406 8.21875 -8.078125 C 8.15625 -8.003906 8.070312 -7.960938 7.96875 -7.953125 C 7.875 -7.941406 7.78125 -7.957031 7.6875 -8 C 7.351562 -8.226562 6.988281 -8.40625 6.59375 -8.53125 C 6.207031 -8.65625 5.789062 -8.71875 5.34375 -8.71875 C 4.800781 -8.71875 4.296875 -8.617188 3.828125 -8.421875 C 3.359375 -8.234375 2.945312 -7.957031 2.59375 -7.59375 C 2.25 -7.226562 1.976562 -6.800781 1.78125 -6.3125 C 1.59375 -5.820312 1.5 -5.28125 1.5 -4.6875 C 1.5 -4.082031 1.597656 -3.53125 1.796875 -3.03125 C 1.992188 -2.539062 2.269531 -2.113281 2.625 -1.75 C 2.976562 -1.394531 3.382812 -1.125 3.84375 -0.9375 C 4.3125 -0.75 4.8125 -0.65625 5.34375 -0.65625 C 5.78125 -0.65625 6.191406 -0.71875 6.578125 -0.84375 C 6.972656 -0.96875 7.34375 -1.140625 7.6875 -1.359375 C 7.769531 -1.410156 7.863281 -1.425781 7.96875 -1.40625 C 8.070312 -1.394531 8.15625 -1.347656 8.21875 -1.265625 C 8.300781 -1.160156 8.328125 -1.050781 8.296875 -0.9375 C 8.273438 -0.832031 8.21875 -0.75 8.125 -0.6875 C 7.894531 -0.539062 7.628906 -0.40625 7.328125 -0.28125 C 7.023438 -0.15625 6.703125 -0.0546875 6.359375 0.015625 C 6.023438 0.0976562 5.6875 0.140625 5.34375 0.140625 C 4.707031 0.140625 4.101562 0.0234375 3.53125 -0.203125 C 2.96875 -0.441406 2.46875 -0.773438 2.03125 -1.203125 C 1.59375 -1.628906 1.25 -2.132812 1 -2.71875 C 0.757812 -3.3125 0.640625 -3.96875 0.640625 -4.6875 C 0.640625 -5.382812 0.757812 -6.023438 1 -6.609375 C 1.25 -7.203125 1.585938 -7.710938 2.015625 -8.140625 C 2.441406 -8.566406 2.941406 -8.898438 3.515625 -9.140625 C 4.085938 -9.378906 4.695312 -9.5 5.34375 -9.5 C 5.851562 -9.5 6.34375 -9.425781 6.8125 -9.28125 C 7.289062 -9.144531 7.722656 -8.945312 8.109375 -8.6875 Z M 8.109375 -8.6875 "/></g></g></g><g fill="#000000" fill-opacity="1"><g transform="translate(103.999014, 13.195271)"><g><path d="M 1.65625 -9.390625 L 6.578125 -9.390625 C 6.691406 -9.390625 6.785156 -9.347656 6.859375 -9.265625 C 6.941406 -9.191406 6.984375 -9.097656 6.984375 -8.984375 C 6.984375 -8.867188 6.941406 -8.773438 6.859375 -8.703125 C 6.785156 -8.628906 6.691406 -8.59375 6.578125 -8.59375 L 1.96875 -8.59375 L 2.109375 -8.828125 L 2.109375 -5.046875 L 1.953125 -5.234375 L 5.984375 -5.234375 C 6.085938 -5.234375 6.175781 -5.191406 6.25 -5.109375 C 6.332031 -5.023438 6.375 -4.929688 6.375 -4.828125 C 6.375 -4.710938 6.332031 -4.617188 6.25 -4.546875 C 6.175781 -4.472656 6.085938 -4.4375 5.984375 -4.4375 L 1.984375 -4.4375 L 2.109375 -4.578125 L 2.109375 -0.703125 L 2.03125 -0.796875 L 6.578125 -0.796875 C 6.691406 -0.796875 6.785156 -0.753906 6.859375 -0.671875 C 6.941406 -0.585938 6.984375 -0.492188 6.984375 -0.390625 C 6.984375 -0.273438 6.941406 -0.179688 6.859375 -0.109375 C 6.785156 -0.0351562 6.691406 0 6.578125 0 L 1.65625 0 C 1.550781 0 1.457031 -0.0351562 1.375 -0.109375 C 1.300781 -0.191406 1.265625 -0.289062 1.265625 -0.40625 L 1.265625 -8.984375 C 1.265625 -9.085938 1.300781 -9.179688 1.375 -9.265625 C 1.457031 -9.347656 1.550781 -9.390625 1.65625 -9.390625 Z M 1.65625 -9.390625 "/></g></g></g></g></g><g transform="matrix(1, 0, 0, 1, 329, 141)"><g clip-path="url(#ed029f61c1)"><g fill="#000000" fill-opacity="1"><g transform="translate(1.385881, 13.195271)"><g><path d="M 8.109375 -8.6875 C 8.210938 -8.613281 8.273438 -8.519531 8.296875 -8.40625 C 8.316406 -8.300781 8.289062 -8.191406 8.21875 -8.078125 C 8.15625 -8.003906 8.070312 -7.960938 7.96875 -7.953125 C 7.875 -7.941406 7.78125 -7.957031 7.6875 -8 C 7.351562 -8.226562 6.988281 -8.40625 6.59375 -8.53125 C 6.207031 -8.65625 5.789062 -8.71875 5.34375 -8.71875 C 4.800781 -8.71875 4.296875 -8.617188 3.828125 -8.421875 C 3.359375 -8.234375 2.945312 -7.957031 2.59375 -7.59375 C 2.25 -7.226562 1.976562 -6.800781 1.78125 -6.3125 C 1.59375 -5.820312 1.5 -5.28125 1.5 -4.6875 C 1.5 -4.082031 1.597656 -3.53125 1.796875 -3.03125 C 1.992188 -2.539062 2.269531 -2.113281 2.625 -1.75 C 2.976562 -1.394531 3.382812 -1.125 3.84375 -0.9375 C 4.3125 -0.75 4.8125 -0.65625 5.34375 -0.65625 C 5.78125 -0.65625 6.191406 -0.71875 6.578125 -0.84375 C 6.972656 -0.96875 7.34375 -1.140625 7.6875 -1.359375 C 7.769531 -1.410156 7.863281 -1.425781 7.96875 -1.40625 C 8.070312 -1.394531 8.15625 -1.347656 8.21875 -1.265625 C 8.300781 -1.160156 8.328125 -1.050781 8.296875 -0.9375 C 8.273438 -0.832031 8.21875 -0.75 8.125 -0.6875 C 7.894531 -0.539062 7.628906 -0.40625 7.328125 -0.28125 C 7.023438 -0.15625 6.703125 -0.0546875 6.359375 0.015625 C 6.023438 0.0976562 5.6875 0.140625 5.34375 0.140625 C 4.707031 0.140625 4.101562 0.0234375 3.53125 -0.203125 C 2.96875 -0.441406 2.46875 -0.773438 2.03125 -1.203125 C 1.59375 -1.628906 1.25 -2.132812 1 -2.71875 C 0.757812 -3.3125 0.640625 -3.96875 0.640625 -4.6875 C 0.640625 -5.382812 0.757812 -6.023438 1 -6.609375 C 1.25 -7.203125 1.585938 -7.710938 2.015625 -8.140625 C 2.441406 -8.566406 2.941406 -8.898438 3.515625 -9.140625 C 4.085938 -9.378906 4.695312 -9.5 5.34375 -9.5 C 5.851562 -9.5 6.34375 -9.425781 6.8125 -9.28125 C 7.289062 -9.144531 7.722656 -8.945312 8.109375 -8.6875 Z M 8.109375 -8.6875 "/></g></g></g><g fill="#000000" fill-opacity="1"><g transform="translate(10.138347, 13.195271)"><g><path d="M 4.84375 -9.390625 C 5.34375 -9.390625 5.785156 -9.273438 6.171875 -9.046875 C 6.554688 -8.816406 6.859375 -8.5 7.078125 -8.09375 C 7.296875 -7.695312 7.40625 -7.238281 7.40625 -6.71875 C 7.40625 -6.195312 7.296875 -5.726562 7.078125 -5.3125 C 6.859375 -4.894531 6.554688 -4.566406 6.171875 -4.328125 C 5.785156 -4.085938 5.34375 -3.96875 4.84375 -3.96875 L 2 -3.96875 L 2.0625 -4.109375 L 2.0625 -0.40625 C 2.0625 -0.289062 2.019531 -0.191406 1.9375 -0.109375 C 1.863281 -0.0351562 1.769531 0 1.65625 0 C 1.53125 0 1.429688 -0.0351562 1.359375 -0.109375 C 1.296875 -0.191406 1.265625 -0.289062 1.265625 -0.40625 L 1.265625 -8.984375 C 1.265625 -9.085938 1.300781 -9.179688 1.375 -9.265625 C 1.457031 -9.347656 1.550781 -9.390625 1.65625 -9.390625 Z M 4.84375 -4.75 C 5.1875 -4.75 5.488281 -4.832031 5.75 -5 C 6.007812 -5.175781 6.210938 -5.414062 6.359375 -5.71875 C 6.503906 -6.019531 6.578125 -6.351562 6.578125 -6.71875 C 6.578125 -7.082031 6.503906 -7.40625 6.359375 -7.6875 C 6.210938 -7.96875 6.007812 -8.1875 5.75 -8.34375 C 5.488281 -8.507812 5.1875 -8.59375 4.84375 -8.59375 L 2 -8.59375 L 2.0625 -8.71875 L 2.0625 -4.671875 L 1.984375 -4.75 Z M 4.84375 -4.75 "/></g></g></g><g fill="#000000" fill-opacity="1"><g transform="translate(18.126817, 13.195271)"><g><path d="M 4.046875 0 C 3.921875 0 3.820312 -0.0351562 3.75 -0.109375 C 3.675781 -0.191406 3.640625 -0.289062 3.640625 -0.40625 L 3.640625 -8.9375 L 4.46875 -8.9375 L 4.46875 -0.40625 C 4.46875 -0.289062 4.425781 -0.191406 4.34375 -0.109375 C 4.257812 -0.0351562 4.160156 0 4.046875 0 Z M 0.859375 -8.625 C 0.753906 -8.625 0.660156 -8.65625 0.578125 -8.71875 C 0.492188 -8.789062 0.453125 -8.890625 0.453125 -9.015625 C 0.453125 -9.117188 0.492188 -9.207031 0.578125 -9.28125 C 0.660156 -9.351562 0.753906 -9.390625 0.859375 -9.390625 L 7.234375 -9.390625 C 7.347656 -9.390625 7.441406 -9.351562 7.515625 -9.28125 C 7.597656 -9.207031 7.640625 -9.113281 7.640625 -9 C 7.640625 -8.882812 7.597656 -8.789062 7.515625 -8.71875 C 7.441406 -8.65625 7.347656 -8.625 7.234375 -8.625 Z M 0.859375 -8.625 "/></g></g></g><g fill="#000000" fill-opacity="1"><g transform="translate(26.222518, 13.195271)"><g/></g></g><g fill="#000000" fill-opacity="1"><g transform="translate(29.881665, 13.195271)"><g><path d="M 8.109375 -8.6875 C 8.210938 -8.613281 8.273438 -8.519531 8.296875 -8.40625 C 8.316406 -8.300781 8.289062 -8.191406 8.21875 -8.078125 C 8.15625 -8.003906 8.070312 -7.960938 7.96875 -7.953125 C 7.875 -7.941406 7.78125 -7.957031 7.6875 -8 C 7.351562 -8.226562 6.988281 -8.40625 6.59375 -8.53125 C 6.207031 -8.65625 5.789062 -8.71875 5.34375 -8.71875 C 4.800781 -8.71875 4.296875 -8.617188 3.828125 -8.421875 C 3.359375 -8.234375 2.945312 -7.957031 2.59375 -7.59375 C 2.25 -7.226562 1.976562 -6.800781 1.78125 -6.3125 C 1.59375 -5.820312 1.5 -5.28125 1.5 -4.6875 C 1.5 -4.082031 1.597656 -3.53125 1.796875 -3.03125 C 1.992188 -2.539062 2.269531 -2.113281 2.625 -1.75 C 2.976562 -1.394531 3.382812 -1.125 3.84375 -0.9375 C 4.3125 -0.75 4.8125 -0.65625 5.34375 -0.65625 C 5.78125 -0.65625 6.191406 -0.71875 6.578125 -0.84375 C 6.972656 -0.96875 7.34375 -1.140625 7.6875 -1.359375 C 7.769531 -1.410156 7.863281 -1.425781 7.96875 -1.40625 C 8.070312 -1.394531 8.15625 -1.347656 8.21875 -1.265625 C 8.300781 -1.160156 8.328125 -1.050781 8.296875 -0.9375 C 8.273438 -0.832031 8.21875 -0.75 8.125 -0.6875 C 7.894531 -0.539062 7.628906 -0.40625 7.328125 -0.28125 C 7.023438 -0.15625 6.703125 -0.0546875 6.359375 0.015625 C 6.023438 0.0976562 5.6875 0.140625 5.34375 0.140625 C 4.707031 0.140625 4.101562 0.0234375 3.53125 -0.203125 C 2.96875 -0.441406 2.46875 -0.773438 2.03125 -1.203125 C 1.59375 -1.628906 1.25 -2.132812 1 -2.71875 C 0.757812 -3.3125 0.640625 -3.96875 0.640625 -4.6875 C 0.640625 -5.382812 0.757812 -6.023438 1 -6.609375 C 1.25 -7.203125 1.585938 -7.710938 2.015625 -8.140625 C 2.441406 -8.566406 2.941406 -8.898438 3.515625 -9.140625 C 4.085938 -9.378906 4.695312 -9.5 5.34375 -9.5 C 5.851562 -9.5 6.34375 -9.425781 6.8125 -9.28125 C 7.289062 -9.144531 7.722656 -8.945312 8.109375 -8.6875 Z M 8.109375 -8.6875 "/></g></g></g><g fill="#000000" fill-opacity="1"><g transform="translate(38.634131, 13.195271)"><g><path d="M 9.625 -4.6875 C 9.625 -3.988281 9.515625 -3.34375 9.296875 -2.75 C 9.078125 -2.164062 8.765625 -1.65625 8.359375 -1.21875 C 7.960938 -0.789062 7.488281 -0.457031 6.9375 -0.21875 C 6.382812 0.0195312 5.785156 0.140625 5.140625 0.140625 C 4.484375 0.140625 3.878906 0.0195312 3.328125 -0.21875 C 2.773438 -0.457031 2.296875 -0.789062 1.890625 -1.21875 C 1.492188 -1.65625 1.1875 -2.164062 0.96875 -2.75 C 0.75 -3.34375 0.640625 -3.988281 0.640625 -4.6875 C 0.640625 -5.394531 0.75 -6.039062 0.96875 -6.625 C 1.1875 -7.207031 1.492188 -7.71875 1.890625 -8.15625 C 2.296875 -8.59375 2.773438 -8.925781 3.328125 -9.15625 C 3.878906 -9.394531 4.484375 -9.515625 5.140625 -9.515625 C 5.785156 -9.515625 6.382812 -9.394531 6.9375 -9.15625 C 7.488281 -8.925781 7.960938 -8.59375 8.359375 -8.15625 C 8.765625 -7.71875 9.078125 -7.207031 9.296875 -6.625 C 9.515625 -6.039062 9.625 -5.394531 9.625 -4.6875 Z M 8.765625 -4.6875 C 8.765625 -5.488281 8.609375 -6.1875 8.296875 -6.78125 C 7.992188 -7.382812 7.566406 -7.859375 7.015625 -8.203125 C 6.472656 -8.546875 5.847656 -8.71875 5.140625 -8.71875 C 4.429688 -8.71875 3.800781 -8.546875 3.25 -8.203125 C 2.695312 -7.859375 2.265625 -7.382812 1.953125 -6.78125 C 1.648438 -6.1875 1.5 -5.488281 1.5 -4.6875 C 1.5 -3.894531 1.648438 -3.195312 1.953125 -2.59375 C 2.265625 -1.988281 2.695312 -1.515625 3.25 -1.171875 C 3.800781 -0.835938 4.429688 -0.671875 5.140625 -0.671875 C 5.847656 -0.671875 6.472656 -0.835938 7.015625 -1.171875 C 7.566406 -1.515625 7.992188 -1.988281 8.296875 -2.59375 C 8.609375 -3.195312 8.765625 -3.894531 8.765625 -4.6875 Z M 8.765625 -4.6875 "/></g></g></g><g fill="#000000" fill-opacity="1"><g transform="translate(48.901192, 13.195271)"><g><path d="M 5.078125 -9.390625 C 5.742188 -9.390625 6.320312 -9.265625 6.8125 -9.015625 C 7.3125 -8.765625 7.722656 -8.414062 8.046875 -7.96875 C 8.367188 -7.53125 8.609375 -7.03125 8.765625 -6.46875 C 8.921875 -5.90625 9 -5.3125 9 -4.6875 C 9 -3.832031 8.859375 -3.050781 8.578125 -2.34375 C 8.296875 -1.632812 7.863281 -1.066406 7.28125 -0.640625 C 6.707031 -0.210938 5.972656 0 5.078125 0 L 1.65625 0 C 1.550781 0 1.457031 -0.0351562 1.375 -0.109375 C 1.300781 -0.191406 1.265625 -0.289062 1.265625 -0.40625 L 1.265625 -8.984375 C 1.265625 -9.085938 1.300781 -9.179688 1.375 -9.265625 C 1.457031 -9.347656 1.550781 -9.390625 1.65625 -9.390625 Z M 4.953125 -0.796875 C 5.710938 -0.796875 6.320312 -0.96875 6.78125 -1.3125 C 7.25 -1.664062 7.59375 -2.140625 7.8125 -2.734375 C 8.03125 -3.328125 8.140625 -3.976562 8.140625 -4.6875 C 8.140625 -5.207031 8.078125 -5.703125 7.953125 -6.171875 C 7.835938 -6.640625 7.648438 -7.054688 7.390625 -7.421875 C 7.140625 -7.785156 6.8125 -8.070312 6.40625 -8.28125 C 6 -8.488281 5.515625 -8.59375 4.953125 -8.59375 L 2.015625 -8.59375 L 2.109375 -8.71875 L 2.109375 -0.65625 L 2.03125 -0.796875 Z M 4.953125 -0.796875 "/></g></g></g><g fill="#000000" fill-opacity="1"><g transform="translate(58.538288, 13.195271)"><g><path d="M 1.65625 -9.390625 L 6.578125 -9.390625 C 6.691406 -9.390625 6.785156 -9.347656 6.859375 -9.265625 C 6.941406 -9.191406 6.984375 -9.097656 6.984375 -8.984375 C 6.984375 -8.867188 6.941406 -8.773438 6.859375 -8.703125 C 6.785156 -8.628906 6.691406 -8.59375 6.578125 -8.59375 L 1.96875 -8.59375 L 2.109375 -8.828125 L 2.109375 -5.046875 L 1.953125 -5.234375 L 5.984375 -5.234375 C 6.085938 -5.234375 6.175781 -5.191406 6.25 -5.109375 C 6.332031 -5.023438 6.375 -4.929688 6.375 -4.828125 C 6.375 -4.710938 6.332031 -4.617188 6.25 -4.546875 C 6.175781 -4.472656 6.085938 -4.4375 5.984375 -4.4375 L 1.984375 -4.4375 L 2.109375 -4.578125 L 2.109375 -0.703125 L 2.03125 -0.796875 L 6.578125 -0.796875 C 6.691406 -0.796875 6.785156 -0.753906 6.859375 -0.671875 C 6.941406 -0.585938 6.984375 -0.492188 6.984375 -0.390625 C 6.984375 -0.273438 6.941406 -0.179688 6.859375 -0.109375 C 6.785156 -0.0351562 6.691406 0 6.578125 0 L 1.65625 0 C 1.550781 0 1.457031 -0.0351562 1.375 -0.109375 C 1.300781 -0.191406 1.265625 -0.289062 1.265625 -0.40625 L 1.265625 -8.984375 C 1.265625 -9.085938 1.300781 -9.179688 1.375 -9.265625 C 1.457031 -9.347656 1.550781 -9.390625 1.65625 -9.390625 Z M 1.65625 -9.390625 "/></g></g></g></g></g><g transform="matrix(1, 0, 0, 1, 493, 141)"><g clip-path="url(#9d4ade6f7c)"><g fill="#000000" fill-opacity="1"><g transform="translate(1.025109, 13.195271)"><g><path d="M 1.671875 0 C 1.546875 0 1.445312 -0.0351562 1.375 -0.109375 C 1.300781 -0.191406 1.265625 -0.289062 1.265625 -0.40625 L 1.265625 -8.984375 C 1.265625 -9.085938 1.300781 -9.179688 1.375 -9.265625 C 1.457031 -9.347656 1.550781 -9.390625 1.65625 -9.390625 L 6.546875 -9.390625 C 6.660156 -9.390625 6.753906 -9.347656 6.828125 -9.265625 C 6.898438 -9.191406 6.9375 -9.097656 6.9375 -8.984375 C 6.9375 -8.878906 6.898438 -8.785156 6.828125 -8.703125 C 6.753906 -8.628906 6.660156 -8.59375 6.546875 -8.59375 L 2.03125 -8.59375 L 2.078125 -8.671875 L 2.078125 -5.109375 L 2.015625 -5.234375 L 5.9375 -5.234375 C 6.050781 -5.234375 6.144531 -5.191406 6.21875 -5.109375 C 6.300781 -5.035156 6.34375 -4.945312 6.34375 -4.84375 C 6.34375 -4.726562 6.300781 -4.632812 6.21875 -4.5625 C 6.144531 -4.488281 6.050781 -4.453125 5.9375 -4.453125 L 1.984375 -4.453125 L 2.078125 -4.5625 L 2.078125 -0.40625 C 2.078125 -0.289062 2.035156 -0.191406 1.953125 -0.109375 C 1.878906 -0.0351562 1.785156 0 1.671875 0 Z M 1.671875 0 "/></g></g></g><g fill="#000000" fill-opacity="1"><g transform="translate(8.611472, 13.195271)"><g><path d="M 1.65625 -9.390625 L 6.578125 -9.390625 C 6.691406 -9.390625 6.785156 -9.347656 6.859375 -9.265625 C 6.941406 -9.191406 6.984375 -9.097656 6.984375 -8.984375 C 6.984375 -8.867188 6.941406 -8.773438 6.859375 -8.703125 C 6.785156 -8.628906 6.691406 -8.59375 6.578125 -8.59375 L 1.96875 -8.59375 L 2.109375 -8.828125 L 2.109375 -5.046875 L 1.953125 -5.234375 L 5.984375 -5.234375 C 6.085938 -5.234375 6.175781 -5.191406 6.25 -5.109375 C 6.332031 -5.023438 6.375 -4.929688 6.375 -4.828125 C 6.375 -4.710938 6.332031 -4.617188 6.25 -4.546875 C 6.175781 -4.472656 6.085938 -4.4375 5.984375 -4.4375 L 1.984375 -4.4375 L 2.109375 -4.578125 L 2.109375 -0.703125 L 2.03125 -0.796875 L 6.578125 -0.796875 C 6.691406 -0.796875 6.785156 -0.753906 6.859375 -0.671875 C 6.941406 -0.585938 6.984375 -0.492188 6.984375 -0.390625 C 6.984375 -0.273438 6.941406 -0.179688 6.859375 -0.109375 C 6.785156 -0.0351562 6.691406 0 6.578125 0 L 1.65625 0 C 1.550781 0 1.457031 -0.0351562 1.375 -0.109375 C 1.300781 -0.191406 1.265625 -0.289062 1.265625 -0.40625 L 1.265625 -8.984375 C 1.265625 -9.085938 1.300781 -9.179688 1.375 -9.265625 C 1.457031 -9.347656 1.550781 -9.390625 1.65625 -9.390625 Z M 1.65625 -9.390625 "/></g></g></g><g clip-path="url(#be82d997fe)"><g fill="#000000" fill-opacity="1"><g transform="translate(16.224643, 13.195271)"><g><path d="M 1.65625 -9.390625 L 6.578125 -9.390625 C 6.691406 -9.390625 6.785156 -9.347656 6.859375 -9.265625 C 6.941406 -9.191406 6.984375 -9.097656 6.984375 -8.984375 C 6.984375 -8.867188 6.941406 -8.773438 6.859375 -8.703125 C 6.785156 -8.628906 6.691406 -8.59375 6.578125 -8.59375 L 1.96875 -8.59375 L 2.109375 -8.828125 L 2.109375 -5.046875 L 1.953125 -5.234375 L 5.984375 -5.234375 C 6.085938 -5.234375 6.175781 -5.191406 6.25 -5.109375 C 6.332031 -5.023438 6.375 -4.929688 6.375 -4.828125 C 6.375 -4.710938 6.332031 -4.617188 6.25 -4.546875 C 6.175781 -4.472656 6.085938 -4.4375 5.984375 -4.4375 L 1.984375 -4.4375 L 2.109375 -4.578125 L 2.109375 -0.703125 L 2.03125 -0.796875 L 6.578125 -0.796875 C 6.691406 -0.796875 6.785156 -0.753906 6.859375 -0.671875 C 6.941406 -0.585938 6.984375 -0.492188 6.984375 -0.390625 C 6.984375 -0.273438 6.941406 -0.179688 6.859375 -0.109375 C 6.785156 -0.0351562 6.691406 0 6.578125 0 L 1.65625 0 C 1.550781 0 1.457031 -0.0351562 1.375 -0.109375 C 1.300781 -0.191406 1.265625 -0.289062 1.265625 -0.40625 L 1.265625 -8.984375 C 1.265625 -9.085938 1.300781 -9.179688 1.375 -9.265625 C 1.457031 -9.347656 1.550781 -9.390625 1.65625 -9.390625 Z M 1.65625 -9.390625 "/></g></g></g></g></g></g><g transform="matrix(1, 0, 0, 1, 626, 141)"><g clip-path="url(#81b85f1057)"><g fill="#000000" fill-opacity="1"><g transform="translate(1.063771, 13.195271)"><g><path d="M 8.109375 -8.6875 C 8.210938 -8.613281 8.273438 -8.519531 8.296875 -8.40625 C 8.316406 -8.300781 8.289062 -8.191406 8.21875 -8.078125 C 8.15625 -8.003906 8.070312 -7.960938 7.96875 -7.953125 C 7.875 -7.941406 7.78125 -7.957031 7.6875 -8 C 7.351562 -8.226562 6.988281 -8.40625 6.59375 -8.53125 C 6.207031 -8.65625 5.789062 -8.71875 5.34375 -8.71875 C 4.800781 -8.71875 4.296875 -8.617188 3.828125 -8.421875 C 3.359375 -8.234375 2.945312 -7.957031 2.59375 -7.59375 C 2.25 -7.226562 1.976562 -6.800781 1.78125 -6.3125 C 1.59375 -5.820312 1.5 -5.28125 1.5 -4.6875 C 1.5 -4.082031 1.597656 -3.53125 1.796875 -3.03125 C 1.992188 -2.539062 2.269531 -2.113281 2.625 -1.75 C 2.976562 -1.394531 3.382812 -1.125 3.84375 -0.9375 C 4.3125 -0.75 4.8125 -0.65625 5.34375 -0.65625 C 5.78125 -0.65625 6.191406 -0.71875 6.578125 -0.84375 C 6.972656 -0.96875 7.34375 -1.140625 7.6875 -1.359375 C 7.769531 -1.410156 7.863281 -1.425781 7.96875 -1.40625 C 8.070312 -1.394531 8.15625 -1.347656 8.21875 -1.265625 C 8.300781 -1.160156 8.328125 -1.050781 8.296875 -0.9375 C 8.273438 -0.832031 8.21875 -0.75 8.125 -0.6875 C 7.894531 -0.539062 7.628906 -0.40625 7.328125 -0.28125 C 7.023438 -0.15625 6.703125 -0.0546875 6.359375 0.015625 C 6.023438 0.0976562 5.6875 0.140625 5.34375 0.140625 C 4.707031 0.140625 4.101562 0.0234375 3.53125 -0.203125 C 2.96875 -0.441406 2.46875 -0.773438 2.03125 -1.203125 C 1.59375 -1.628906 1.25 -2.132812 1 -2.71875 C 0.757812 -3.3125 0.640625 -3.96875 0.640625 -4.6875 C 0.640625 -5.382812 0.757812 -6.023438 1 -6.609375 C 1.25 -7.203125 1.585938 -7.710938 2.015625 -8.140625 C 2.441406 -8.566406 2.941406 -8.898438 3.515625 -9.140625 C 4.085938 -9.378906 4.695312 -9.5 5.34375 -9.5 C 5.851562 -9.5 6.34375 -9.425781 6.8125 -9.28125 C 7.289062 -9.144531 7.722656 -8.945312 8.109375 -8.6875 Z M 8.109375 -8.6875 "/></g></g></g><g fill="#000000" fill-opacity="1"><g transform="translate(9.816237, 13.195271)"><g><path d="M 9.625 -4.6875 C 9.625 -3.988281 9.515625 -3.34375 9.296875 -2.75 C 9.078125 -2.164062 8.765625 -1.65625 8.359375 -1.21875 C 7.960938 -0.789062 7.488281 -0.457031 6.9375 -0.21875 C 6.382812 0.0195312 5.785156 0.140625 5.140625 0.140625 C 4.484375 0.140625 3.878906 0.0195312 3.328125 -0.21875 C 2.773438 -0.457031 2.296875 -0.789062 1.890625 -1.21875 C 1.492188 -1.65625 1.1875 -2.164062 0.96875 -2.75 C 0.75 -3.34375 0.640625 -3.988281 0.640625 -4.6875 C 0.640625 -5.394531 0.75 -6.039062 0.96875 -6.625 C 1.1875 -7.207031 1.492188 -7.71875 1.890625 -8.15625 C 2.296875 -8.59375 2.773438 -8.925781 3.328125 -9.15625 C 3.878906 -9.394531 4.484375 -9.515625 5.140625 -9.515625 C 5.785156 -9.515625 6.382812 -9.394531 6.9375 -9.15625 C 7.488281 -8.925781 7.960938 -8.59375 8.359375 -8.15625 C 8.765625 -7.71875 9.078125 -7.207031 9.296875 -6.625 C 9.515625 -6.039062 9.625 -5.394531 9.625 -4.6875 Z M 8.765625 -4.6875 C 8.765625 -5.488281 8.609375 -6.1875 8.296875 -6.78125 C 7.992188 -7.382812 7.566406 -7.859375 7.015625 -8.203125 C 6.472656 -8.546875 5.847656 -8.71875 5.140625 -8.71875 C 4.429688 -8.71875 3.800781 -8.546875 3.25 -8.203125 C 2.695312 -7.859375 2.265625 -7.382812 1.953125 -6.78125 C 1.648438 -6.1875 1.5 -5.488281 1.5 -4.6875 C 1.5 -3.894531 1.648438 -3.195312 1.953125 -2.59375 C 2.265625 -1.988281 2.695312 -1.515625 3.25 -1.171875 C 3.800781 -0.835938 4.429688 -0.671875 5.140625 -0.671875 C 5.847656 -0.671875 6.472656 -0.835938 7.015625 -1.171875 C 7.566406 -1.515625 7.992188 -1.988281 8.296875 -2.59375 C 8.609375 -3.195312 8.765625 -3.894531 8.765625 -4.6875 Z M 8.765625 -4.6875 "/></g></g></g><g fill="#000000" fill-opacity="1"><g transform="translate(20.083298, 13.195271)"><g><path d="M 4.84375 -9.390625 C 5.34375 -9.390625 5.785156 -9.273438 6.171875 -9.046875 C 6.554688 -8.816406 6.859375 -8.5 7.078125 -8.09375 C 7.296875 -7.695312 7.40625 -7.238281 7.40625 -6.71875 C 7.40625 -6.195312 7.296875 -5.726562 7.078125 -5.3125 C 6.859375 -4.894531 6.554688 -4.566406 6.171875 -4.328125 C 5.785156 -4.085938 5.34375 -3.96875 4.84375 -3.96875 L 2 -3.96875 L 2.0625 -4.109375 L 2.0625 -0.40625 C 2.0625 -0.289062 2.019531 -0.191406 1.9375 -0.109375 C 1.863281 -0.0351562 1.769531 0 1.65625 0 C 1.53125 0 1.429688 -0.0351562 1.359375 -0.109375 C 1.296875 -0.191406 1.265625 -0.289062 1.265625 -0.40625 L 1.265625 -8.984375 C 1.265625 -9.085938 1.300781 -9.179688 1.375 -9.265625 C 1.457031 -9.347656 1.550781 -9.390625 1.65625 -9.390625 Z M 4.84375 -4.75 C 5.1875 -4.75 5.488281 -4.832031 5.75 -5 C 6.007812 -5.175781 6.210938 -5.414062 6.359375 -5.71875 C 6.503906 -6.019531 6.578125 -6.351562 6.578125 -6.71875 C 6.578125 -7.082031 6.503906 -7.40625 6.359375 -7.6875 C 6.210938 -7.96875 6.007812 -8.1875 5.75 -8.34375 C 5.488281 -8.507812 5.1875 -8.59375 4.84375 -8.59375 L 2 -8.59375 L 2.0625 -8.71875 L 2.0625 -4.671875 L 1.984375 -4.75 Z M 4.84375 -4.75 "/></g></g></g><g fill="#000000" fill-opacity="1"><g transform="translate(27.535479, 13.195271)"><g><path d="M 4.390625 -8.359375 L 1.140625 -0.25 C 1.097656 -0.164062 1.046875 -0.0976562 0.984375 -0.046875 C 0.921875 -0.00390625 0.851562 0.015625 0.78125 0.015625 C 0.65625 0.015625 0.5625 -0.015625 0.5 -0.078125 C 0.4375 -0.148438 0.398438 -0.234375 0.390625 -0.328125 C 0.378906 -0.378906 0.382812 -0.4375 0.40625 -0.5 L 3.9375 -9.15625 C 3.988281 -9.25 4.046875 -9.316406 4.109375 -9.359375 C 4.171875 -9.398438 4.25 -9.421875 4.34375 -9.421875 C 4.4375 -9.421875 4.515625 -9.394531 4.578125 -9.34375 C 4.640625 -9.300781 4.691406 -9.238281 4.734375 -9.15625 L 8.265625 -0.53125 C 8.273438 -0.476562 8.28125 -0.425781 8.28125 -0.375 C 8.28125 -0.25 8.238281 -0.148438 8.15625 -0.078125 C 8.082031 -0.015625 7.992188 0.015625 7.890625 0.015625 C 7.796875 0.015625 7.710938 -0.0078125 7.640625 -0.0625 C 7.578125 -0.113281 7.53125 -0.175781 7.5 -0.25 L 4.15625 -8.40625 Z M 1.921875 -2.703125 L 2.25 -3.5 L 6.40625 -3.5 L 6.5625 -2.703125 Z M 1.921875 -2.703125 "/></g></g></g><g fill="#000000" fill-opacity="1"><g transform="translate(35.631023, 13.195271)"><g><path d="M 6.84375 -9.4375 C 6.96875 -9.4375 7.066406 -9.394531 7.140625 -9.3125 C 7.210938 -9.226562 7.25 -9.132812 7.25 -9.03125 C 7.25 -8.988281 7.242188 -8.945312 7.234375 -8.90625 C 7.222656 -8.863281 7.203125 -8.820312 7.171875 -8.78125 L 4.015625 -4.453125 L 4.1875 -4.96875 L 4.1875 -0.40625 C 4.1875 -0.289062 4.144531 -0.191406 4.0625 -0.109375 C 3.976562 -0.0351562 3.878906 0 3.765625 0 C 3.648438 0 3.550781 -0.0351562 3.46875 -0.109375 C 3.394531 -0.191406 3.359375 -0.289062 3.359375 -0.40625 L 3.359375 -4.875 L 3.4375 -4.5625 L 0.359375 -8.75 C 0.328125 -8.800781 0.300781 -8.847656 0.28125 -8.890625 C 0.257812 -8.941406 0.25 -8.988281 0.25 -9.03125 C 0.25 -9.144531 0.296875 -9.238281 0.390625 -9.3125 C 0.484375 -9.394531 0.582031 -9.4375 0.6875 -9.4375 C 0.820312 -9.4375 0.929688 -9.375 1.015625 -9.25 L 3.90625 -5.328125 L 3.703125 -5.34375 L 6.5 -9.25 C 6.59375 -9.375 6.707031 -9.4375 6.84375 -9.4375 Z M 6.84375 -9.4375 "/></g></g></g></g></g><g transform="matrix(1, 0, 0, 1, 757, 141)"><g clip-path="url(#db7ddf5748)"><g fill="#000000" fill-opacity="1"><g transform="translate(0.729607, 13.195271)"><g><path d="M 5.078125 -9.390625 C 5.742188 -9.390625 6.320312 -9.265625 6.8125 -9.015625 C 7.3125 -8.765625 7.722656 -8.414062 8.046875 -7.96875 C 8.367188 -7.53125 8.609375 -7.03125 8.765625 -6.46875 C 8.921875 -5.90625 9 -5.3125 9 -4.6875 C 9 -3.832031 8.859375 -3.050781 8.578125 -2.34375 C 8.296875 -1.632812 7.863281 -1.066406 7.28125 -0.640625 C 6.707031 -0.210938 5.972656 0 5.078125 0 L 1.65625 0 C 1.550781 0 1.457031 -0.0351562 1.375 -0.109375 C 1.300781 -0.191406 1.265625 -0.289062 1.265625 -0.40625 L 1.265625 -8.984375 C 1.265625 -9.085938 1.300781 -9.179688 1.375 -9.265625 C 1.457031 -9.347656 1.550781 -9.390625 1.65625 -9.390625 Z M 4.953125 -0.796875 C 5.710938 -0.796875 6.320312 -0.96875 6.78125 -1.3125 C 7.25 -1.664062 7.59375 -2.140625 7.8125 -2.734375 C 8.03125 -3.328125 8.140625 -3.976562 8.140625 -4.6875 C 8.140625 -5.207031 8.078125 -5.703125 7.953125 -6.171875 C 7.835938 -6.640625 7.648438 -7.054688 7.390625 -7.421875 C 7.140625 -7.785156 6.8125 -8.070312 6.40625 -8.28125 C 6 -8.488281 5.515625 -8.59375 4.953125 -8.59375 L 2.015625 -8.59375 L 2.109375 -8.71875 L 2.109375 -0.65625 L 2.03125 -0.796875 Z M 4.953125 -0.796875 "/></g></g></g><g fill="#000000" fill-opacity="1"><g transform="translate(10.29967, 13.195271)"><g><path d="M 4.390625 -8.359375 L 1.140625 -0.25 C 1.097656 -0.164062 1.046875 -0.0976562 0.984375 -0.046875 C 0.921875 -0.00390625 0.851562 0.015625 0.78125 0.015625 C 0.65625 0.015625 0.5625 -0.015625 0.5 -0.078125 C 0.4375 -0.148438 0.398438 -0.234375 0.390625 -0.328125 C 0.378906 -0.378906 0.382812 -0.4375 0.40625 -0.5 L 3.9375 -9.15625 C 3.988281 -9.25 4.046875 -9.316406 4.109375 -9.359375 C 4.171875 -9.398438 4.25 -9.421875 4.34375 -9.421875 C 4.4375 -9.421875 4.515625 -9.394531 4.578125 -9.34375 C 4.640625 -9.300781 4.691406 -9.238281 4.734375 -9.15625 L 8.265625 -0.53125 C 8.273438 -0.476562 8.28125 -0.425781 8.28125 -0.375 C 8.28125 -0.25 8.238281 -0.148438 8.15625 -0.078125 C 8.082031 -0.015625 7.992188 0.015625 7.890625 0.015625 C 7.796875 0.015625 7.710938 -0.0078125 7.640625 -0.0625 C 7.578125 -0.113281 7.53125 -0.175781 7.5 -0.25 L 4.15625 -8.40625 Z M 1.921875 -2.703125 L 2.25 -3.5 L 6.40625 -3.5 L 6.5625 -2.703125 Z M 1.921875 -2.703125 "/></g></g></g><g fill="#000000" fill-opacity="1"><g transform="translate(18.30136, 13.195271)"><g><path d="M 4.046875 0 C 3.921875 0 3.820312 -0.0351562 3.75 -0.109375 C 3.675781 -0.191406 3.640625 -0.289062 3.640625 -0.40625 L 3.640625 -8.9375 L 4.46875 -8.9375 L 4.46875 -0.40625 C 4.46875 -0.289062 4.425781 -0.191406 4.34375 -0.109375 C 4.257812 -0.0351562 4.160156 0 4.046875 0 Z M 0.859375 -8.625 C 0.753906 -8.625 0.660156 -8.65625 0.578125 -8.71875 C 0.492188 -8.789062 0.453125 -8.890625 0.453125 -9.015625 C 0.453125 -9.117188 0.492188 -9.207031 0.578125 -9.28125 C 0.660156 -9.351562 0.753906 -9.390625 0.859375 -9.390625 L 7.234375 -9.390625 C 7.347656 -9.390625 7.441406 -9.351562 7.515625 -9.28125 C 7.597656 -9.207031 7.640625 -9.113281 7.640625 -9 C 7.640625 -8.882812 7.597656 -8.789062 7.515625 -8.71875 C 7.441406 -8.65625 7.347656 -8.625 7.234375 -8.625 Z M 0.859375 -8.625 "/></g></g></g><g fill="#000000" fill-opacity="1"><g transform="translate(26.39706, 13.195271)"><g><path d="M 1.65625 -9.390625 L 6.578125 -9.390625 C 6.691406 -9.390625 6.785156 -9.347656 6.859375 -9.265625 C 6.941406 -9.191406 6.984375 -9.097656 6.984375 -8.984375 C 6.984375 -8.867188 6.941406 -8.773438 6.859375 -8.703125 C 6.785156 -8.628906 6.691406 -8.59375 6.578125 -8.59375 L 1.96875 -8.59375 L 2.109375 -8.828125 L 2.109375 -5.046875 L 1.953125 -5.234375 L 5.984375 -5.234375 C 6.085938 -5.234375 6.175781 -5.191406 6.25 -5.109375 C 6.332031 -5.023438 6.375 -4.929688 6.375 -4.828125 C 6.375 -4.710938 6.332031 -4.617188 6.25 -4.546875 C 6.175781 -4.472656 6.085938 -4.4375 5.984375 -4.4375 L 1.984375 -4.4375 L 2.109375 -4.578125 L 2.109375 -0.703125 L 2.03125 -0.796875 L 6.578125 -0.796875 C 6.691406 -0.796875 6.785156 -0.753906 6.859375 -0.671875 C 6.941406 -0.585938 6.984375 -0.492188 6.984375 -0.390625 C 6.984375 -0.273438 6.941406 -0.179688 6.859375 -0.109375 C 6.785156 -0.0351562 6.691406 0 6.578125 0 L 1.65625 0 C 1.550781 0 1.457031 -0.0351562 1.375 -0.109375 C 1.300781 -0.191406 1.265625 -0.289062 1.265625 -0.40625 L 1.265625 -8.984375 C 1.265625 -9.085938 1.300781 -9.179688 1.375 -9.265625 C 1.457031 -9.347656 1.550781 -9.390625 1.65625 -9.390625 Z M 1.65625 -9.390625 "/></g></g></g><g fill="#000000" fill-opacity="1"><g transform="translate(34.010231, 13.195271)"><g/></g></g><g fill="#000000" fill-opacity="1"><g transform="translate(37.669378, 13.195271)"><g><path d="M 4.84375 -9.390625 C 5.34375 -9.390625 5.785156 -9.273438 6.171875 -9.046875 C 6.554688 -8.816406 6.859375 -8.5 7.078125 -8.09375 C 7.296875 -7.695312 7.40625 -7.238281 7.40625 -6.71875 C 7.40625 -6.195312 7.296875 -5.726562 7.078125 -5.3125 C 6.859375 -4.894531 6.554688 -4.566406 6.171875 -4.328125 C 5.785156 -4.085938 5.34375 -3.96875 4.84375 -3.96875 L 2 -3.96875 L 2.0625 -4.109375 L 2.0625 -0.40625 C 2.0625 -0.289062 2.019531 -0.191406 1.9375 -0.109375 C 1.863281 -0.0351562 1.769531 0 1.65625 0 C 1.53125 0 1.429688 -0.0351562 1.359375 -0.109375 C 1.296875 -0.191406 1.265625 -0.289062 1.265625 -0.40625 L 1.265625 -8.984375 C 1.265625 -9.085938 1.300781 -9.179688 1.375 -9.265625 C 1.457031 -9.347656 1.550781 -9.390625 1.65625 -9.390625 Z M 4.84375 -4.75 C 5.1875 -4.75 5.488281 -4.832031 5.75 -5 C 6.007812 -5.175781 6.210938 -5.414062 6.359375 -5.71875 C 6.503906 -6.019531 6.578125 -6.351562 6.578125 -6.71875 C 6.578125 -7.082031 6.503906 -7.40625 6.359375 -7.6875 C 6.210938 -7.96875 6.007812 -8.1875 5.75 -8.34375 C 5.488281 -8.507812 5.1875 -8.59375 4.84375 -8.59375 L 2 -8.59375 L 2.0625 -8.71875 L 2.0625 -4.671875 L 1.984375 -4.75 Z M 4.84375 -4.75 "/></g></g></g><g fill="#000000" fill-opacity="1"><g transform="translate(45.12156, 13.195271)"><g><path d="M 4.390625 -8.359375 L 1.140625 -0.25 C 1.097656 -0.164062 1.046875 -0.0976562 0.984375 -0.046875 C 0.921875 -0.00390625 0.851562 0.015625 0.78125 0.015625 C 0.65625 0.015625 0.5625 -0.015625 0.5 -0.078125 C 0.4375 -0.148438 0.398438 -0.234375 0.390625 -0.328125 C 0.378906 -0.378906 0.382812 -0.4375 0.40625 -0.5 L 3.9375 -9.15625 C 3.988281 -9.25 4.046875 -9.316406 4.109375 -9.359375 C 4.171875 -9.398438 4.25 -9.421875 4.34375 -9.421875 C 4.4375 -9.421875 4.515625 -9.394531 4.578125 -9.34375 C 4.640625 -9.300781 4.691406 -9.238281 4.734375 -9.15625 L 8.265625 -0.53125 C 8.273438 -0.476562 8.28125 -0.425781 8.28125 -0.375 C 8.28125 -0.25 8.238281 -0.148438 8.15625 -0.078125 C 8.082031 -0.015625 7.992188 0.015625 7.890625 0.015625 C 7.796875 0.015625 7.710938 -0.0078125 7.640625 -0.0625 C 7.578125 -0.113281 7.53125 -0.175781 7.5 -0.25 L 4.15625 -8.40625 Z M 1.921875 -2.703125 L 2.25 -3.5 L 6.40625 -3.5 L 6.5625 -2.703125 Z M 1.921875 -2.703125 "/></g></g></g><g fill="#000000" fill-opacity="1"><g transform="translate(53.79361, 13.195271)"><g><path d="M 2.109375 -0.421875 C 2.097656 -0.296875 2.050781 -0.191406 1.96875 -0.109375 C 1.882812 -0.0351562 1.785156 0 1.671875 0 C 1.546875 0 1.445312 -0.0351562 1.375 -0.109375 C 1.300781 -0.191406 1.265625 -0.296875 1.265625 -0.421875 L 1.265625 -8.96875 C 1.265625 -9.082031 1.300781 -9.179688 1.375 -9.265625 C 1.457031 -9.347656 1.5625 -9.390625 1.6875 -9.390625 C 1.789062 -9.390625 1.882812 -9.347656 1.96875 -9.265625 C 2.0625 -9.179688 2.109375 -9.082031 2.109375 -8.96875 Z M 2.109375 -0.421875 "/></g></g></g><g clip-path="url(#85d2d95188)"><g fill="#000000" fill-opacity="1"><g transform="translate(57.144477, 13.195271)"><g><path d="M 5.078125 -9.390625 C 5.742188 -9.390625 6.320312 -9.265625 6.8125 -9.015625 C 7.3125 -8.765625 7.722656 -8.414062 8.046875 -7.96875 C 8.367188 -7.53125 8.609375 -7.03125 8.765625 -6.46875 C 8.921875 -5.90625 9 -5.3125 9 -4.6875 C 9 -3.832031 8.859375 -3.050781 8.578125 -2.34375 C 8.296875 -1.632812 7.863281 -1.066406 7.28125 -0.640625 C 6.707031 -0.210938 5.972656 0 5.078125 0 L 1.65625 0 C 1.550781 0 1.457031 -0.0351562 1.375 -0.109375 C 1.300781 -0.191406 1.265625 -0.289062 1.265625 -0.40625 L 1.265625 -8.984375 C 1.265625 -9.085938 1.300781 -9.179688 1.375 -9.265625 C 1.457031 -9.347656 1.550781 -9.390625 1.65625 -9.390625 Z M 4.953125 -0.796875 C 5.710938 -0.796875 6.320312 -0.96875 6.78125 -1.3125 C 7.25 -1.664062 7.59375 -2.140625 7.8125 -2.734375 C 8.03125 -3.328125 8.140625 -3.976562 8.140625 -4.6875 C 8.140625 -5.207031 8.078125 -5.703125 7.953125 -6.171875 C 7.835938 -6.640625 7.648438 -7.054688 7.390625 -7.421875 C 7.140625 -7.785156 6.8125 -8.070312 6.40625 -8.28125 C 6 -8.488281 5.515625 -8.59375 4.953125 -8.59375 L 2.015625 -8.59375 L 2.109375 -8.71875 L 2.109375 -0.65625 L 2.03125 -0.796875 Z M 4.953125 -0.796875 "/></g></g></g></g></g></g><g clip-path="url(#cf6f4e31c0)"><path fill="#000000" d="M 6.125 117.464844 L 6.125 1295.59375 M 148.785156 117.464844 L 148.785156 1295.59375 M 291.449219 117.464844 L 291.449219 1295.59375 M 434.113281 117.464844 L 434.113281 1295.59375 M 576.773438 117.464844 L 576.773438 1295.59375 M 719.4375 117.464844 L 719.4375 1295.59375 M 862.097656 117.464844 L 862.097656 1295.59375 M 5.675781 117.015625 L 862.546875 117.015625 M 5.675781 182.085938 L 862.546875 182.085938 M 5.675781 237.785156 L 862.546875 237.785156 M 5.675781 293.480469 L 862.546875 293.480469 M 5.675781 349.179688 L 862.546875 349.179688 M 5.675781 404.878906 L 862.546875 404.878906 M 5.675781 460.574219 L 862.546875 460.574219 M 5.675781 516.273438 L 862.546875 516.273438 M 5.675781 571.96875 L 862.546875 571.96875 M 5.675781 627.667969 L 862.546875 627.667969 M 5.675781 683.367188 L 862.546875 683.367188 M 5.675781 739.0625 L 862.546875 739.0625 M 5.675781 794.761719 L 862.546875 794.761719 M 5.675781 850.460938 L 862.546875 850.460938 M 5.675781 906.15625 L 862.546875 906.15625 M 5.675781 961.855469 L 862.546875 961.855469 M 5.675781 1017.550781 L 862.546875 1017.550781 M 5.675781 1073.25 L 862.546875 1073.25 M 5.675781 1128.949219 L 862.546875 1128.949219 M 5.675781 1184.644531 L 862.546875 1184.644531 M 5.675781 1240.34375 L 862.546875 1240.34375 M 5.675781 1296.042969 L 862.546875 1296.042969 " fill-opacity="1" fill-rule="nonzero"/></g><g clip-path="url(#67ee338784)"><path stroke-linecap="butt" transform="matrix(0.749358, 0, 0, 0.749358, 5.676122, 116.567424)" fill="none" stroke-linejoin="miter" d="M 0.599017 1.197585 L 0.599017 1573.382241 M 190.97556 1.197585 L 190.97556 1573.382241 M 381.357316 1.197585 L 381.357316 1573.382241 M 571.739072 1.197585 L 571.739072 1573.382241 M 762.115615 1.197585 L 762.115615 1573.382241 M 952.497371 1.197585 L 952.497371 1573.382241 M 1142.873914 1.197585 L 1142.873914 1573.382241 M -0.000454917 0.598114 L 1143.473386 0.598114 M -0.000454917 87.432879 L 1143.473386 87.432879 M -0.000454917 161.762145 L 1143.473386 161.762145 M -0.000454917 236.086198 L 1143.473386 236.086198 M -0.000454917 310.415464 L 1143.473386 310.415464 M -0.000454917 384.744731 L 1143.473386 384.744731 M -0.000454917 459.068784 L 1143.473386 459.068784 M -0.000454917 533.39805 L 1143.473386 533.39805 M -0.000454917 607.722104 L 1143.473386 607.722104 M -0.000454917 682.05137 L 1143.473386 682.05137 M -0.000454917 756.380636 L 1143.473386 756.380636 M -0.000454917 830.704689 L 1143.473386 830.704689 M -0.000454917 905.033955 L 1143.473386 905.033955 M -0.000454917 979.363222 L 1143.473386 979.363222 M -0.000454917 1053.687275 L 1143.473386 1053.687275 M -0.000454917 1128.016541 L 1143.473386 1128.016541 M -0.000454917 1202.340594 L 1143.473386 1202.340594 M -0.000454917 1276.669861 L 1143.473386 1276.669861 M -0.000454917 1350.999127 L 1143.473386 1350.999127 M -0.000454917 1425.32318 L 1143.473386 1425.32318 M -0.000454917 1499.652446 L 1143.473386 1499.652446 M -0.000454917 1573.981713 L 1143.473386 1573.981713 " stroke="#000000" stroke-width="1.195559" stroke-opacity="1" stroke-miterlimit="4"/></g><g transform="matrix(1, 0, 0, 1, 20, 37)"><g clip-path="url(#da978c76fb)"><g fill="#23120b" fill-opacity="1"><g transform="translate(1.478402, 46.168877)"><g><path d="M 17.546875 -31.59375 C 20.078125 -31.59375 22.054688 -30.90625 23.484375 -29.53125 C 24.910156 -28.164062 25.625 -26.265625 25.625 -23.828125 C 25.625 -22.566406 25.351562 -21.363281 24.8125 -20.21875 C 24.269531 -19.070312 23.472656 -18.144531 22.421875 -17.4375 C 21.367188 -16.726562 20.0625 -16.332031 18.5 -16.25 L 18.328125 -17.140625 C 19.429688 -17.140625 20.515625 -16.984375 21.578125 -16.671875 C 22.648438 -16.359375 23.609375 -15.851562 24.453125 -15.15625 C 25.296875 -14.46875 25.972656 -13.601562 26.484375 -12.5625 C 26.992188 -11.53125 27.25 -10.273438 27.25 -8.796875 C 27.25 -7.234375 26.984375 -5.882812 26.453125 -4.75 C 25.929688 -3.625 25.226562 -2.71875 24.34375 -2.03125 C 23.457031 -1.34375 22.441406 -0.832031 21.296875 -0.5 C 20.148438 -0.164062 18.960938 0 17.734375 0 L 5.59375 0 C 5.226562 0 4.910156 -0.132812 4.640625 -0.40625 C 4.367188 -0.675781 4.234375 -0.992188 4.234375 -1.359375 L 4.234375 -30.234375 C 4.234375 -30.597656 4.367188 -30.914062 4.640625 -31.1875 C 4.910156 -31.457031 5.226562 -31.59375 5.59375 -31.59375 Z M 17.1875 -28.921875 L 6.59375 -28.921875 L 7.125 -29.734375 L 7.125 -16.96875 L 6.640625 -17.640625 L 17.1875 -17.640625 C 18.757812 -17.671875 20.078125 -18.179688 21.140625 -19.171875 C 22.210938 -20.171875 22.75 -21.644531 22.75 -23.59375 C 22.75 -25.25 22.265625 -26.550781 21.296875 -27.5 C 20.335938 -28.445312 18.96875 -28.921875 17.1875 -28.921875 Z M 17.515625 -14.9375 L 6.90625 -14.9375 L 7.125 -15.203125 L 7.125 -2.25 L 6.859375 -2.65625 L 17.59375 -2.65625 C 19.519531 -2.65625 21.128906 -3.144531 22.421875 -4.125 C 23.722656 -5.101562 24.375 -6.660156 24.375 -8.796875 C 24.375 -10.304688 24.054688 -11.507812 23.421875 -12.40625 C 22.785156 -13.3125 21.941406 -13.957031 20.890625 -14.34375 C 19.835938 -14.738281 18.710938 -14.9375 17.515625 -14.9375 Z M 17.515625 -14.9375 "/></g></g></g><g fill="#23120b" fill-opacity="1"><g transform="translate(30.859212, 46.168877)"><g><path d="M 7.078125 -1.40625 C 7.054688 -1.007812 6.898438 -0.675781 6.609375 -0.40625 C 6.328125 -0.132812 6.003906 0 5.640625 0 C 5.222656 0 4.882812 -0.132812 4.625 -0.40625 C 4.363281 -0.675781 4.234375 -1.007812 4.234375 -1.40625 L 4.234375 -30.1875 C 4.234375 -30.582031 4.367188 -30.914062 4.640625 -31.1875 C 4.910156 -31.457031 5.257812 -31.59375 5.6875 -31.59375 C 6.050781 -31.59375 6.375 -31.457031 6.65625 -31.1875 C 6.9375 -30.914062 7.078125 -30.582031 7.078125 -30.1875 Z M 7.078125 -1.40625 "/></g></g></g><g fill="#23120b" fill-opacity="1"><g transform="translate(42.142162, 46.168877)"><g><path d="M 21.703125 -2.65625 C 22.066406 -2.65625 22.382812 -2.523438 22.65625 -2.265625 C 22.925781 -2.015625 23.0625 -1.710938 23.0625 -1.359375 C 23.0625 -0.960938 22.925781 -0.632812 22.65625 -0.375 C 22.382812 -0.125 22.066406 0 21.703125 0 L 5.59375 0 C 5.207031 0 4.882812 -0.132812 4.625 -0.40625 C 4.363281 -0.675781 4.234375 -0.992188 4.234375 -1.359375 L 4.234375 -30.234375 C 4.234375 -30.597656 4.367188 -30.914062 4.640625 -31.1875 C 4.910156 -31.457031 5.257812 -31.59375 5.6875 -31.59375 C 6.050781 -31.59375 6.375 -31.457031 6.65625 -31.1875 C 6.9375 -30.914062 7.078125 -30.597656 7.078125 -30.234375 L 7.078125 -1.890625 L 6.234375 -2.65625 Z M 21.703125 -2.65625 "/></g></g></g><g fill="#23120b" fill-opacity="1"><g transform="translate(66.152282, 46.168877)"><g><path d="M 21.703125 -2.65625 C 22.066406 -2.65625 22.382812 -2.523438 22.65625 -2.265625 C 22.925781 -2.015625 23.0625 -1.710938 23.0625 -1.359375 C 23.0625 -0.960938 22.925781 -0.632812 22.65625 -0.375 C 22.382812 -0.125 22.066406 0 21.703125 0 L 5.59375 0 C 5.207031 0 4.882812 -0.132812 4.625 -0.40625 C 4.363281 -0.675781 4.234375 -0.992188 4.234375 -1.359375 L 4.234375 -30.234375 C 4.234375 -30.597656 4.367188 -30.914062 4.640625 -31.1875 C 4.910156 -31.457031 5.257812 -31.59375 5.6875 -31.59375 C 6.050781 -31.59375 6.375 -31.457031 6.65625 -31.1875 C 6.9375 -30.914062 7.078125 -30.597656 7.078125 -30.234375 L 7.078125 -1.890625 L 6.234375 -2.65625 Z M 21.703125 -2.65625 "/></g></g></g><g fill="#23120b" fill-opacity="1"><g transform="translate(90.162402, 46.168877)"><g><path d="M 7.078125 -1.40625 C 7.054688 -1.007812 6.898438 -0.675781 6.609375 -0.40625 C 6.328125 -0.132812 6.003906 0 5.640625 0 C 5.222656 0 4.882812 -0.132812 4.625 -0.40625 C 4.363281 -0.675781 4.234375 -1.007812 4.234375 -1.40625 L 4.234375 -30.1875 C 4.234375 -30.582031 4.367188 -30.914062 4.640625 -31.1875 C 4.910156 -31.457031 5.257812 -31.59375 5.6875 -31.59375 C 6.050781 -31.59375 6.375 -31.457031 6.65625 -31.1875 C 6.9375 -30.914062 7.078125 -30.582031 7.078125 -30.1875 Z M 7.078125 -1.40625 "/></g></g></g><g fill="#23120b" fill-opacity="1"><g transform="translate(101.445353, 46.168877)"><g><path d="M 27.34375 -31.59375 C 27.738281 -31.59375 28.046875 -31.46875 28.265625 -31.21875 C 28.492188 -30.976562 28.609375 -30.679688 28.609375 -30.328125 L 28.609375 -1.4375 C 28.609375 -0.988281 28.460938 -0.632812 28.171875 -0.375 C 27.890625 -0.125 27.566406 0 27.203125 0 C 27.023438 0 26.832031 -0.0351562 26.625 -0.109375 C 26.414062 -0.179688 26.25 -0.296875 26.125 -0.453125 L 6 -27.578125 L 6.765625 -27.984375 L 6.765625 -1.21875 C 6.765625 -0.882812 6.644531 -0.597656 6.40625 -0.359375 C 6.164062 -0.117188 5.863281 0 5.5 0 C 5.113281 0 4.804688 -0.117188 4.578125 -0.359375 C 4.347656 -0.597656 4.234375 -0.882812 4.234375 -1.21875 L 4.234375 -30.234375 C 4.234375 -30.679688 4.367188 -31.019531 4.640625 -31.25 C 4.910156 -31.476562 5.210938 -31.59375 5.546875 -31.59375 C 5.734375 -31.59375 5.929688 -31.550781 6.140625 -31.46875 C 6.347656 -31.394531 6.515625 -31.269531 6.640625 -31.09375 L 26.53125 -4.28125 L 26.078125 -3.46875 L 26.078125 -30.328125 C 26.078125 -30.679688 26.203125 -30.976562 26.453125 -31.21875 C 26.710938 -31.46875 27.007812 -31.59375 27.34375 -31.59375 Z M 27.34375 -31.59375 "/></g></g></g><g fill="#23120b" fill-opacity="1"><g transform="translate(134.301311, 46.168877)"><g><path d="M 18.40625 0.453125 C 16.09375 0.453125 13.941406 0.046875 11.953125 -0.765625 C 9.972656 -1.578125 8.253906 -2.710938 6.796875 -4.171875 C 5.335938 -5.628906 4.203125 -7.347656 3.390625 -9.328125 C 2.578125 -11.316406 2.171875 -13.472656 2.171875 -15.796875 C 2.171875 -18.109375 2.578125 -20.253906 3.390625 -22.234375 C 4.203125 -24.222656 5.335938 -25.945312 6.796875 -27.40625 C 8.253906 -28.875 9.972656 -30.007812 11.953125 -30.8125 C 13.941406 -31.625 16.09375 -32.03125 18.40625 -32.03125 C 20 -32.03125 21.539062 -31.84375 23.03125 -31.46875 C 24.519531 -31.09375 25.851562 -30.53125 27.03125 -29.78125 C 27.238281 -29.632812 27.394531 -29.460938 27.5 -29.265625 C 27.601562 -29.066406 27.65625 -28.863281 27.65625 -28.65625 C 27.65625 -28.226562 27.519531 -27.882812 27.25 -27.625 C 26.976562 -27.375 26.691406 -27.25 26.390625 -27.25 C 26.242188 -27.25 26.101562 -27.269531 25.96875 -27.3125 C 25.832031 -27.363281 25.703125 -27.421875 25.578125 -27.484375 C 24.554688 -28.054688 23.441406 -28.503906 22.234375 -28.828125 C 21.035156 -29.160156 19.757812 -29.328125 18.40625 -29.328125 C 15.820312 -29.328125 13.519531 -28.738281 11.5 -27.5625 C 9.488281 -26.394531 7.910156 -24.785156 6.765625 -22.734375 C 5.617188 -20.691406 5.046875 -18.378906 5.046875 -15.796875 C 5.046875 -13.203125 5.617188 -10.882812 6.765625 -8.84375 C 7.910156 -6.800781 9.488281 -5.191406 11.5 -4.015625 C 13.519531 -2.835938 15.820312 -2.25 18.40625 -2.25 C 19.757812 -2.25 21.117188 -2.441406 22.484375 -2.828125 C 23.859375 -3.222656 25.039062 -3.753906 26.03125 -4.421875 L 25.8125 -3.46875 L 25.8125 -13.859375 L 26.484375 -13.21875 L 18.6875 -13.21875 C 18.289062 -13.21875 17.957031 -13.351562 17.6875 -13.625 C 17.414062 -13.894531 17.28125 -14.210938 17.28125 -14.578125 C 17.28125 -14.992188 17.414062 -15.320312 17.6875 -15.5625 C 17.957031 -15.800781 18.289062 -15.921875 18.6875 -15.921875 L 27.296875 -15.921875 C 27.691406 -15.921875 28.015625 -15.789062 28.265625 -15.53125 C 28.523438 -15.28125 28.65625 -14.960938 28.65625 -14.578125 L 28.65625 -3.703125 C 28.65625 -3.460938 28.59375 -3.234375 28.46875 -3.015625 C 28.351562 -2.804688 28.191406 -2.628906 27.984375 -2.484375 C 26.648438 -1.578125 25.164062 -0.859375 23.53125 -0.328125 C 21.894531 0.191406 20.1875 0.453125 18.40625 0.453125 Z M 18.40625 0.453125 "/></g></g></g><g fill="#23120b" fill-opacity="1"><g transform="translate(165.667921, 46.168877)"><g/></g></g><g fill="#23120b" fill-opacity="1"><g transform="translate(177.988908, 46.168877)"><g><path d="M 13.625 0 C 13.207031 0 12.867188 -0.132812 12.609375 -0.40625 C 12.359375 -0.675781 12.234375 -0.992188 12.234375 -1.359375 L 12.234375 -30.09375 L 15.03125 -30.09375 L 15.03125 -1.359375 C 15.03125 -0.992188 14.894531 -0.675781 14.625 -0.40625 C 14.351562 -0.132812 14.019531 0 13.625 0 Z M 2.890625 -29.015625 C 2.523438 -29.015625 2.207031 -29.132812 1.9375 -29.375 C 1.664062 -29.613281 1.53125 -29.929688 1.53125 -30.328125 C 1.53125 -30.679688 1.664062 -30.976562 1.9375 -31.21875 C 2.207031 -31.46875 2.523438 -31.59375 2.890625 -31.59375 L 24.375 -31.59375 C 24.726562 -31.59375 25.039062 -31.46875 25.3125 -31.21875 C 25.582031 -30.976562 25.71875 -30.664062 25.71875 -30.28125 C 25.71875 -29.882812 25.582031 -29.570312 25.3125 -29.34375 C 25.039062 -29.125 24.726562 -29.015625 24.375 -29.015625 Z M 2.890625 -29.015625 "/></g></g></g><g fill="#23120b" fill-opacity="1"><g transform="translate(205.248515, 46.168877)"><g><path d="M 5.78125 0 C 5.320312 0 4.945312 -0.132812 4.65625 -0.40625 C 4.375 -0.675781 4.234375 -0.992188 4.234375 -1.359375 L 4.234375 -30.234375 C 4.234375 -30.597656 4.367188 -30.914062 4.640625 -31.1875 C 4.910156 -31.457031 5.226562 -31.59375 5.59375 -31.59375 L 17.78125 -31.59375 C 19.488281 -31.59375 21.019531 -31.222656 22.375 -30.484375 C 23.726562 -29.742188 24.789062 -28.726562 25.5625 -27.4375 C 26.332031 -26.144531 26.71875 -24.6875 26.71875 -23.0625 C 26.71875 -21.738281 26.472656 -20.519531 25.984375 -19.40625 C 25.503906 -18.289062 24.828125 -17.347656 23.953125 -16.578125 C 23.085938 -15.816406 22.113281 -15.253906 21.03125 -14.890625 L 19.453125 -15.390625 C 20.566406 -15.296875 21.601562 -14.941406 22.5625 -14.328125 C 23.519531 -13.710938 24.289062 -12.867188 24.875 -11.796875 C 25.46875 -10.734375 25.78125 -9.445312 25.8125 -7.9375 C 25.84375 -6.644531 25.910156 -5.632812 26.015625 -4.90625 C 26.117188 -4.1875 26.273438 -3.644531 26.484375 -3.28125 C 26.691406 -2.925781 26.960938 -2.644531 27.296875 -2.4375 C 27.597656 -2.257812 27.800781 -2.003906 27.90625 -1.671875 C 28.007812 -1.335938 27.972656 -1.019531 27.796875 -0.71875 C 27.671875 -0.476562 27.492188 -0.304688 27.265625 -0.203125 C 27.046875 -0.0976562 26.816406 -0.046875 26.578125 -0.046875 C 26.335938 -0.046875 26.097656 -0.101562 25.859375 -0.21875 C 25.429688 -0.46875 25 -0.847656 24.5625 -1.359375 C 24.132812 -1.867188 23.773438 -2.617188 23.484375 -3.609375 C 23.203125 -4.597656 23.0625 -5.984375 23.0625 -7.765625 C 23.0625 -8.929688 22.875 -9.890625 22.5 -10.640625 C 22.125 -11.398438 21.640625 -11.984375 21.046875 -12.390625 C 20.460938 -12.796875 19.816406 -13.082031 19.109375 -13.25 C 18.398438 -13.414062 17.734375 -13.5 17.109375 -13.5 L 6.59375 -13.5 L 7.078125 -14.125 L 7.078125 -1.359375 C 7.078125 -0.992188 6.957031 -0.675781 6.71875 -0.40625 C 6.476562 -0.132812 6.164062 0 5.78125 0 Z M 6.59375 -15.96875 L 17.921875 -15.96875 C 18.941406 -16.0625 19.898438 -16.398438 20.796875 -16.984375 C 21.703125 -17.578125 22.429688 -18.382812 22.984375 -19.40625 C 23.546875 -20.425781 23.828125 -21.613281 23.828125 -22.96875 C 23.828125 -24.6875 23.242188 -26.109375 22.078125 -27.234375 C 20.921875 -28.359375 19.410156 -28.921875 17.546875 -28.921875 L 6.765625 -28.921875 L 7.078125 -29.5625 L 7.078125 -15.34375 Z M 6.59375 -15.96875 "/></g></g></g><g fill="#23120b" fill-opacity="1"><g transform="translate(235.486841, 46.168877)"><g><path d="M 14.796875 -28.109375 L 3.828125 -0.859375 C 3.710938 -0.554688 3.546875 -0.328125 3.328125 -0.171875 C 3.117188 -0.0234375 2.882812 0.046875 2.625 0.046875 C 2.195312 0.046875 1.878906 -0.0625 1.671875 -0.28125 C 1.460938 -0.507812 1.34375 -0.789062 1.3125 -1.125 C 1.28125 -1.28125 1.296875 -1.460938 1.359375 -1.671875 L 13.265625 -30.828125 C 13.421875 -31.148438 13.609375 -31.378906 13.828125 -31.515625 C 14.054688 -31.648438 14.320312 -31.71875 14.625 -31.71875 C 14.925781 -31.71875 15.1875 -31.632812 15.40625 -31.46875 C 15.632812 -31.300781 15.804688 -31.085938 15.921875 -30.828125 L 27.796875 -1.8125 C 27.859375 -1.625 27.890625 -1.441406 27.890625 -1.265625 C 27.890625 -0.835938 27.753906 -0.507812 27.484375 -0.28125 C 27.210938 -0.0625 26.894531 0.046875 26.53125 0.046875 C 26.226562 0.046875 25.960938 -0.0351562 25.734375 -0.203125 C 25.515625 -0.367188 25.34375 -0.585938 25.21875 -0.859375 L 13.984375 -28.296875 Z M 6.453125 -9.109375 L 7.578125 -11.78125 L 21.5625 -11.78125 L 22.109375 -9.109375 Z M 6.453125 -9.109375 "/></g></g></g><g fill="#23120b" fill-opacity="1"><g transform="translate(264.687107, 46.168877)"><g><path d="M 27.296875 -29.234375 C 27.660156 -28.992188 27.867188 -28.6875 27.921875 -28.3125 C 27.984375 -27.9375 27.894531 -27.566406 27.65625 -27.203125 C 27.445312 -26.929688 27.175781 -26.78125 26.84375 -26.75 C 26.519531 -26.726562 26.207031 -26.789062 25.90625 -26.9375 C 24.757812 -27.6875 23.53125 -28.269531 22.21875 -28.6875 C 20.914062 -29.113281 19.507812 -29.328125 18 -29.328125 C 16.164062 -29.328125 14.457031 -29.003906 12.875 -28.359375 C 11.300781 -27.710938 9.925781 -26.78125 8.75 -25.5625 C 7.582031 -24.34375 6.671875 -22.90625 6.015625 -21.25 C 5.367188 -19.59375 5.046875 -17.773438 5.046875 -15.796875 C 5.046875 -13.742188 5.378906 -11.882812 6.046875 -10.21875 C 6.710938 -8.550781 7.640625 -7.113281 8.828125 -5.90625 C 10.015625 -4.707031 11.390625 -3.789062 12.953125 -3.15625 C 14.515625 -2.53125 16.195312 -2.21875 18 -2.21875 C 19.476562 -2.21875 20.867188 -2.425781 22.171875 -2.84375 C 23.484375 -3.257812 24.710938 -3.832031 25.859375 -4.5625 C 26.160156 -4.738281 26.484375 -4.800781 26.828125 -4.75 C 27.171875 -4.707031 27.445312 -4.535156 27.65625 -4.234375 C 27.925781 -3.910156 28.023438 -3.5625 27.953125 -3.1875 C 27.878906 -2.8125 27.675781 -2.515625 27.34375 -2.296875 C 26.59375 -1.816406 25.707031 -1.363281 24.6875 -0.9375 C 23.664062 -0.519531 22.582031 -0.1875 21.4375 0.0625 C 20.289062 0.320312 19.144531 0.453125 18 0.453125 C 15.832031 0.453125 13.800781 0.0625 11.90625 -0.71875 C 10.007812 -1.5 8.320312 -2.601562 6.84375 -4.03125 C 5.375 -5.46875 4.226562 -7.175781 3.40625 -9.15625 C 2.582031 -11.144531 2.171875 -13.359375 2.171875 -15.796875 C 2.171875 -18.140625 2.578125 -20.296875 3.390625 -22.265625 C 4.203125 -24.234375 5.328125 -25.941406 6.765625 -27.390625 C 8.210938 -28.835938 9.894531 -29.96875 11.8125 -30.78125 C 13.738281 -31.59375 15.800781 -32 18 -32 C 19.71875 -32 21.375 -31.753906 22.96875 -31.265625 C 24.5625 -30.785156 26.003906 -30.109375 27.296875 -29.234375 Z M 27.296875 -29.234375 "/></g></g></g><g fill="#23120b" fill-opacity="1"><g transform="translate(294.158176, 46.168877)"><g><path d="M 26.796875 0.1875 C 26.410156 0.1875 26.082031 0.0195312 25.8125 -0.3125 L 13 -16.421875 L 15.109375 -18.546875 L 28.015625 -2.21875 C 28.234375 -1.914062 28.34375 -1.597656 28.34375 -1.265625 C 28.34375 -0.785156 28.164062 -0.421875 27.8125 -0.171875 C 27.46875 0.0664062 27.128906 0.1875 26.796875 0.1875 Z M 26.3125 -31.5 C 26.664062 -31.5 26.96875 -31.363281 27.21875 -31.09375 C 27.476562 -30.820312 27.609375 -30.519531 27.609375 -30.1875 C 27.609375 -29.820312 27.472656 -29.503906 27.203125 -29.234375 L 6.71875 -10.0625 L 6.359375 -13.125 L 25.3125 -31.046875 C 25.613281 -31.347656 25.945312 -31.5 26.3125 -31.5 Z M 5.640625 0 C 5.222656 0 4.882812 -0.132812 4.625 -0.40625 C 4.363281 -0.675781 4.234375 -1.007812 4.234375 -1.40625 L 4.234375 -30.1875 C 4.234375 -30.582031 4.367188 -30.914062 4.640625 -31.1875 C 4.910156 -31.457031 5.257812 -31.59375 5.6875 -31.59375 C 6.070312 -31.59375 6.398438 -31.457031 6.671875 -31.1875 C 6.941406 -30.914062 7.078125 -30.582031 7.078125 -30.1875 L 7.078125 -1.40625 C 7.054688 -1.007812 6.910156 -0.675781 6.640625 -0.40625 C 6.367188 -0.132812 6.035156 0 5.640625 0 Z M 5.640625 0 "/></g></g></g><g fill="#23120b" fill-opacity="1"><g transform="translate(324.622151, 46.168877)"><g><path d="M 5.59375 -31.59375 L 22.15625 -31.59375 C 22.519531 -31.59375 22.835938 -31.460938 23.109375 -31.203125 C 23.378906 -30.953125 23.515625 -30.628906 23.515625 -30.234375 C 23.515625 -29.835938 23.378906 -29.519531 23.109375 -29.28125 C 22.835938 -29.039062 22.519531 -28.921875 22.15625 -28.921875 L 6.640625 -28.921875 L 7.078125 -29.6875 L 7.078125 -17.015625 L 6.59375 -17.59375 L 20.125 -17.59375 C 20.488281 -17.59375 20.804688 -17.457031 21.078125 -17.1875 C 21.347656 -16.914062 21.484375 -16.601562 21.484375 -16.25 C 21.484375 -15.851562 21.347656 -15.535156 21.078125 -15.296875 C 20.804688 -15.054688 20.488281 -14.9375 20.125 -14.9375 L 6.671875 -14.9375 L 7.078125 -15.390625 L 7.078125 -2.390625 L 6.859375 -2.65625 L 22.15625 -2.65625 C 22.519531 -2.65625 22.835938 -2.519531 23.109375 -2.25 C 23.378906 -1.976562 23.515625 -1.664062 23.515625 -1.3125 C 23.515625 -0.914062 23.378906 -0.597656 23.109375 -0.359375 C 22.835938 -0.117188 22.519531 0 22.15625 0 L 5.59375 0 C 5.226562 0 4.910156 -0.132812 4.640625 -0.40625 C 4.367188 -0.675781 4.234375 -0.992188 4.234375 -1.359375 L 4.234375 -30.234375 C 4.234375 -30.597656 4.367188 -30.914062 4.640625 -31.1875 C 4.910156 -31.457031 5.226562 -31.59375 5.59375 -31.59375 Z M 5.59375 -31.59375 "/></g></g></g><g fill="#23120b" fill-opacity="1"><g transform="translate(350.257008, 46.168877)"><g><path d="M 5.78125 0 C 5.320312 0 4.945312 -0.132812 4.65625 -0.40625 C 4.375 -0.675781 4.234375 -0.992188 4.234375 -1.359375 L 4.234375 -30.234375 C 4.234375 -30.597656 4.367188 -30.914062 4.640625 -31.1875 C 4.910156 -31.457031 5.226562 -31.59375 5.59375 -31.59375 L 17.78125 -31.59375 C 19.488281 -31.59375 21.019531 -31.222656 22.375 -30.484375 C 23.726562 -29.742188 24.789062 -28.726562 25.5625 -27.4375 C 26.332031 -26.144531 26.71875 -24.6875 26.71875 -23.0625 C 26.71875 -21.738281 26.472656 -20.519531 25.984375 -19.40625 C 25.503906 -18.289062 24.828125 -17.347656 23.953125 -16.578125 C 23.085938 -15.816406 22.113281 -15.253906 21.03125 -14.890625 L 19.453125 -15.390625 C 20.566406 -15.296875 21.601562 -14.941406 22.5625 -14.328125 C 23.519531 -13.710938 24.289062 -12.867188 24.875 -11.796875 C 25.46875 -10.734375 25.78125 -9.445312 25.8125 -7.9375 C 25.84375 -6.644531 25.910156 -5.632812 26.015625 -4.90625 C 26.117188 -4.1875 26.273438 -3.644531 26.484375 -3.28125 C 26.691406 -2.925781 26.960938 -2.644531 27.296875 -2.4375 C 27.597656 -2.257812 27.800781 -2.003906 27.90625 -1.671875 C 28.007812 -1.335938 27.972656 -1.019531 27.796875 -0.71875 C 27.671875 -0.476562 27.492188 -0.304688 27.265625 -0.203125 C 27.046875 -0.0976562 26.816406 -0.046875 26.578125 -0.046875 C 26.335938 -0.046875 26.097656 -0.101562 25.859375 -0.21875 C 25.429688 -0.46875 25 -0.847656 24.5625 -1.359375 C 24.132812 -1.867188 23.773438 -2.617188 23.484375 -3.609375 C 23.203125 -4.597656 23.0625 -5.984375 23.0625 -7.765625 C 23.0625 -8.929688 22.875 -9.890625 22.5 -10.640625 C 22.125 -11.398438 21.640625 -11.984375 21.046875 -12.390625 C 20.460938 -12.796875 19.816406 -13.082031 19.109375 -13.25 C 18.398438 -13.414062 17.734375 -13.5 17.109375 -13.5 L 6.59375 -13.5 L 7.078125 -14.125 L 7.078125 -1.359375 C 7.078125 -0.992188 6.957031 -0.675781 6.71875 -0.40625 C 6.476562 -0.132812 6.164062 0 5.78125 0 Z M 6.59375 -15.96875 L 17.921875 -15.96875 C 18.941406 -16.0625 19.898438 -16.398438 20.796875 -16.984375 C 21.703125 -17.578125 22.429688 -18.382812 22.984375 -19.40625 C 23.546875 -20.425781 23.828125 -21.613281 23.828125 -22.96875 C 23.828125 -24.6875 23.242188 -26.109375 22.078125 -27.234375 C 20.921875 -28.359375 19.410156 -28.921875 17.546875 -28.921875 L 6.765625 -28.921875 L 7.078125 -29.5625 L 7.078125 -15.34375 Z M 6.59375 -15.96875 "/></g></g></g></g></g></svg>