<svg xmlns="http://www.w3.org/2000/svg" xmlns:xlink="http://www.w3.org/1999/xlink" width="1167" zoomAndPan="magnify" viewBox="0 0 875.25 675.000002" height="900" preserveAspectRatio="xMidYMid meet" version="1.0"><defs><g/><clipPath id="42437325c8"><path d="M 8.0625 9.019531 L 425.195312 9.019531 L 425.195312 661.304688 L 8.0625 661.304688 Z M 8.0625 9.019531 " clip-rule="nonzero"/></clipPath><clipPath id="686082f75d"><path d="M 447.121094 9.019531 L 864.253906 9.019531 L 864.253906 661.304688 L 447.121094 661.304688 Z M 447.121094 9.019531 " clip-rule="nonzero"/></clipPath><clipPath id="ed34c7624c"><rect x="0" width="59" y="0" height="22"/></clipPath><clipPath id="fc8ac91cd3"><rect x="0" width="102" y="0" height="22"/></clipPath></defs><g clip-path="url(#42437325c8)"><path stroke-linecap="butt" transform="matrix(0.74889, 0, 0, 0.74889, 8.064201, 9.019934)" fill="none" stroke-linejoin="miter" d="M -0.00227127 -0.000538416 L 557.124021 -0.000538416 L 557.124021 871.361465 L -0.00227127 871.361465 Z M -0.00227127 -0.000538416 " stroke="#000000" stroke-width="4" stroke-opacity="1" stroke-miterlimit="4"/></g><g clip-path="url(#686082f75d)"><path stroke-linecap="butt" transform="matrix(0.74889, 0, 0, 0.74889, 447.122878, 9.019934)" fill="none" stroke-linejoin="miter" d="M -0.00238313 -0.000538416 L 557.123909 -0.000538416 L 557.123909 871.361465 L -0.00238313 871.361465 Z M -0.00238313 -0.000538416 " stroke="#000000" stroke-width="4" stroke-opacity="1" stroke-miterlimit="4"/></g><path stroke-linecap="butt" transform="matrix(0.748891, 0, 0, 0.748891, 8.06314, 52.147379)" fill="none" stroke-linejoin="miter" d="M -0.000853986 0.997678 L 557.130618 0.997678 " stroke="#000000" stroke-width="2" stroke-opacity="1" stroke-miterlimit="4"/><path stroke-linecap="butt" transform="matrix(0.748891, 0, 0, 0.748891, 450.500986, 52.147379)" fill="none" stroke-linejoin="miter" d="M -0.00131624 0.997678 L 550.312779 0.997678 " stroke="#000000" stroke-width="2" stroke-opacity="1" stroke-miterlimit="4"/><g transform="matrix(1, 0, 0, 1, 188, 21)"><g clip-path="url(#ed34c7624c)"><g fill="#000000" fill-opacity="1"><g transform="translate(0.648376, 16.576849)"><g><path d="M 5.140625 0 C 4.984375 0 4.851562 -0.0507812 4.75 -0.15625 C 4.65625 -0.257812 4.609375 -0.378906 4.609375 -0.515625 L 4.609375 -11.34375 L 5.671875 -11.34375 L 5.671875 -0.515625 C 5.671875 -0.378906 5.617188 -0.257812 5.515625 -0.15625 C 5.410156 -0.0507812 5.285156 0 5.140625 0 Z M 1.09375 -10.9375 C 0.957031 -10.9375 0.835938 -10.984375 0.734375 -11.078125 C 0.628906 -11.171875 0.578125 -11.289062 0.578125 -11.4375 C 0.578125 -11.570312 0.628906 -11.679688 0.734375 -11.765625 C 0.835938 -11.859375 0.957031 -11.90625 1.09375 -11.90625 L 9.1875 -11.90625 C 9.320312 -11.90625 9.441406 -11.859375 9.546875 -11.765625 C 9.648438 -11.679688 9.703125 -11.566406 9.703125 -11.421875 C 9.703125 -11.273438 9.648438 -11.15625 9.546875 -11.0625 C 9.441406 -10.976562 9.320312 -10.9375 9.1875 -10.9375 Z M 1.09375 -10.9375 "/></g></g></g><g fill="#000000" fill-opacity="1"><g transform="translate(10.918366, 16.576849)"><g><path d="M 12.21875 -5.953125 C 12.21875 -5.054688 12.078125 -4.234375 11.796875 -3.484375 C 11.523438 -2.742188 11.132812 -2.097656 10.625 -1.546875 C 10.113281 -1.003906 9.507812 -0.582031 8.8125 -0.28125 C 8.113281 0.0195312 7.347656 0.171875 6.515625 0.171875 C 5.691406 0.171875 4.929688 0.0195312 4.234375 -0.28125 C 3.535156 -0.582031 2.929688 -1.003906 2.421875 -1.546875 C 1.910156 -2.097656 1.515625 -2.742188 1.234375 -3.484375 C 0.953125 -4.234375 0.8125 -5.054688 0.8125 -5.953125 C 0.8125 -6.847656 0.953125 -7.664062 1.234375 -8.40625 C 1.515625 -9.15625 1.910156 -9.800781 2.421875 -10.34375 C 2.929688 -10.894531 3.535156 -11.320312 4.234375 -11.625 C 4.929688 -11.925781 5.691406 -12.078125 6.515625 -12.078125 C 7.347656 -12.078125 8.113281 -11.925781 8.8125 -11.625 C 9.507812 -11.320312 10.113281 -10.894531 10.625 -10.34375 C 11.132812 -9.800781 11.523438 -9.15625 11.796875 -8.40625 C 12.078125 -7.664062 12.21875 -6.847656 12.21875 -5.953125 Z M 11.125 -5.953125 C 11.125 -6.960938 10.925781 -7.847656 10.53125 -8.609375 C 10.144531 -9.378906 9.601562 -9.976562 8.90625 -10.40625 C 8.21875 -10.84375 7.421875 -11.0625 6.515625 -11.0625 C 5.617188 -11.0625 4.820312 -10.84375 4.125 -10.40625 C 3.425781 -9.976562 2.878906 -9.378906 2.484375 -8.609375 C 2.097656 -7.847656 1.90625 -6.960938 1.90625 -5.953125 C 1.90625 -4.941406 2.097656 -4.050781 2.484375 -3.28125 C 2.878906 -2.519531 3.425781 -1.921875 4.125 -1.484375 C 4.820312 -1.054688 5.617188 -0.84375 6.515625 -0.84375 C 7.421875 -0.84375 8.21875 -1.054688 8.90625 -1.484375 C 9.601562 -1.921875 10.144531 -2.519531 10.53125 -3.28125 C 10.925781 -4.050781 11.125 -4.941406 11.125 -5.953125 Z M 11.125 -5.953125 "/></g></g></g><g fill="#000000" fill-opacity="1"><g transform="translate(23.942889, 16.576849)"><g><path d="M 6.453125 -11.90625 C 7.285156 -11.90625 8.015625 -11.742188 8.640625 -11.421875 C 9.273438 -11.109375 9.796875 -10.671875 10.203125 -10.109375 C 10.617188 -9.554688 10.925781 -8.921875 11.125 -8.203125 C 11.320312 -7.484375 11.421875 -6.734375 11.421875 -5.953125 C 11.421875 -4.867188 11.238281 -3.875 10.875 -2.96875 C 10.519531 -2.0625 9.976562 -1.335938 9.25 -0.796875 C 8.519531 -0.265625 7.585938 0 6.453125 0 L 2.109375 0 C 1.972656 0 1.851562 -0.0507812 1.75 -0.15625 C 1.644531 -0.257812 1.59375 -0.378906 1.59375 -0.515625 L 1.59375 -11.40625 C 1.59375 -11.539062 1.644531 -11.65625 1.75 -11.75 C 1.851562 -11.851562 1.972656 -11.90625 2.109375 -11.90625 Z M 6.28125 -1 C 7.238281 -1 8.015625 -1.21875 8.609375 -1.65625 C 9.203125 -2.101562 9.632812 -2.703125 9.90625 -3.453125 C 10.1875 -4.210938 10.328125 -5.046875 10.328125 -5.953125 C 10.328125 -6.609375 10.25 -7.234375 10.09375 -7.828125 C 9.945312 -8.429688 9.710938 -8.960938 9.390625 -9.421875 C 9.066406 -9.878906 8.644531 -10.238281 8.125 -10.5 C 7.601562 -10.769531 6.988281 -10.90625 6.28125 -10.90625 L 2.546875 -10.90625 L 2.671875 -11.0625 L 2.671875 -0.828125 L 2.5625 -1 Z M 6.28125 -1 "/></g></g></g><g fill="#000000" fill-opacity="1"><g transform="translate(36.168249, 16.576849)"><g><path d="M 5.578125 -10.59375 L 1.453125 -0.328125 C 1.398438 -0.210938 1.332031 -0.125 1.25 -0.0625 C 1.175781 -0.0078125 1.085938 0.015625 0.984375 0.015625 C 0.828125 0.015625 0.707031 -0.0234375 0.625 -0.109375 C 0.550781 -0.191406 0.507812 -0.296875 0.5 -0.421875 C 0.476562 -0.484375 0.484375 -0.550781 0.515625 -0.625 L 5 -11.625 C 5.0625 -11.75 5.132812 -11.835938 5.21875 -11.890625 C 5.300781 -11.941406 5.398438 -11.96875 5.515625 -11.96875 C 5.628906 -11.96875 5.726562 -11.9375 5.8125 -11.875 C 5.894531 -11.8125 5.957031 -11.726562 6 -11.625 L 10.484375 -0.6875 C 10.503906 -0.613281 10.515625 -0.539062 10.515625 -0.46875 C 10.515625 -0.3125 10.460938 -0.191406 10.359375 -0.109375 C 10.253906 -0.0234375 10.132812 0.015625 10 0.015625 C 9.882812 0.015625 9.785156 -0.015625 9.703125 -0.078125 C 9.617188 -0.140625 9.554688 -0.222656 9.515625 -0.328125 L 5.28125 -10.671875 Z M 2.4375 -3.4375 L 2.859375 -4.4375 L 8.140625 -4.4375 L 8.34375 -3.4375 Z M 2.4375 -3.4375 "/></g></g></g><g fill="#000000" fill-opacity="1"><g transform="translate(47.169371, 16.576849)"><g><path d="M 8.6875 -11.984375 C 8.84375 -11.984375 8.96875 -11.925781 9.0625 -11.8125 C 9.15625 -11.707031 9.203125 -11.59375 9.203125 -11.46875 C 9.203125 -11.414062 9.191406 -11.363281 9.171875 -11.3125 C 9.160156 -11.257812 9.140625 -11.203125 9.109375 -11.140625 L 5.109375 -5.65625 L 5.3125 -6.3125 L 5.3125 -0.515625 C 5.3125 -0.378906 5.257812 -0.257812 5.15625 -0.15625 C 5.050781 -0.0507812 4.925781 0 4.78125 0 C 4.632812 0 4.507812 -0.0507812 4.40625 -0.15625 C 4.3125 -0.257812 4.265625 -0.378906 4.265625 -0.515625 L 4.265625 -6.1875 L 4.359375 -5.78125 L 0.453125 -11.109375 C 0.410156 -11.171875 0.378906 -11.234375 0.359375 -11.296875 C 0.335938 -11.359375 0.328125 -11.414062 0.328125 -11.46875 C 0.328125 -11.613281 0.382812 -11.734375 0.5 -11.828125 C 0.625 -11.929688 0.75 -11.984375 0.875 -11.984375 C 1.039062 -11.984375 1.179688 -11.898438 1.296875 -11.734375 L 4.953125 -6.75 L 4.703125 -6.796875 L 8.25 -11.734375 C 8.363281 -11.898438 8.507812 -11.984375 8.6875 -11.984375 Z M 8.6875 -11.984375 "/></g></g></g></g></g><g transform="matrix(1, 0, 0, 1, 605, 21)"><g clip-path="url(#fc8ac91cd3)"><g fill="#000000" fill-opacity="1"><g transform="translate(1.231841, 16.576849)"><g><path d="M 10.296875 -11.03125 C 10.429688 -10.9375 10.507812 -10.816406 10.53125 -10.671875 C 10.550781 -10.535156 10.519531 -10.398438 10.4375 -10.265625 C 10.351562 -10.160156 10.25 -10.101562 10.125 -10.09375 C 10 -10.082031 9.878906 -10.101562 9.765625 -10.15625 C 9.335938 -10.4375 8.875 -10.65625 8.375 -10.8125 C 7.882812 -10.976562 7.359375 -11.0625 6.796875 -11.0625 C 6.097656 -11.0625 5.453125 -10.9375 4.859375 -10.6875 C 4.265625 -10.445312 3.742188 -10.097656 3.296875 -9.640625 C 2.859375 -9.179688 2.515625 -8.640625 2.265625 -8.015625 C 2.023438 -7.390625 1.90625 -6.703125 1.90625 -5.953125 C 1.90625 -5.179688 2.03125 -4.476562 2.28125 -3.84375 C 2.53125 -3.21875 2.878906 -2.675781 3.328125 -2.21875 C 3.773438 -1.769531 4.289062 -1.425781 4.875 -1.1875 C 5.46875 -0.945312 6.109375 -0.828125 6.796875 -0.828125 C 7.347656 -0.828125 7.867188 -0.90625 8.359375 -1.0625 C 8.859375 -1.226562 9.320312 -1.445312 9.75 -1.71875 C 9.863281 -1.789062 9.984375 -1.816406 10.109375 -1.796875 C 10.242188 -1.773438 10.351562 -1.707031 10.4375 -1.59375 C 10.53125 -1.46875 10.5625 -1.332031 10.53125 -1.1875 C 10.507812 -1.050781 10.4375 -0.945312 10.3125 -0.875 C 10.03125 -0.6875 9.695312 -0.515625 9.3125 -0.359375 C 8.925781 -0.203125 8.515625 -0.078125 8.078125 0.015625 C 7.648438 0.117188 7.222656 0.171875 6.796875 0.171875 C 5.972656 0.171875 5.203125 0.0234375 4.484375 -0.265625 C 3.773438 -0.566406 3.140625 -0.984375 2.578125 -1.515625 C 2.023438 -2.054688 1.59375 -2.703125 1.28125 -3.453125 C 0.96875 -4.203125 0.8125 -5.035156 0.8125 -5.953125 C 0.8125 -6.835938 0.960938 -7.648438 1.265625 -8.390625 C 1.578125 -9.140625 2.003906 -9.785156 2.546875 -10.328125 C 3.097656 -10.867188 3.734375 -11.289062 4.453125 -11.59375 C 5.179688 -11.90625 5.960938 -12.0625 6.796875 -12.0625 C 7.441406 -12.0625 8.0625 -11.96875 8.65625 -11.78125 C 9.257812 -11.601562 9.804688 -11.351562 10.296875 -11.03125 Z M 10.296875 -11.03125 "/></g></g></g><g fill="#000000" fill-opacity="1"><g transform="translate(12.334991, 16.576849)"><g><path d="M 12.21875 -5.953125 C 12.21875 -5.054688 12.078125 -4.234375 11.796875 -3.484375 C 11.523438 -2.742188 11.132812 -2.097656 10.625 -1.546875 C 10.113281 -1.003906 9.507812 -0.582031 8.8125 -0.28125 C 8.113281 0.0195312 7.347656 0.171875 6.515625 0.171875 C 5.691406 0.171875 4.929688 0.0195312 4.234375 -0.28125 C 3.535156 -0.582031 2.929688 -1.003906 2.421875 -1.546875 C 1.910156 -2.097656 1.515625 -2.742188 1.234375 -3.484375 C 0.953125 -4.234375 0.8125 -5.054688 0.8125 -5.953125 C 0.8125 -6.847656 0.953125 -7.664062 1.234375 -8.40625 C 1.515625 -9.15625 1.910156 -9.800781 2.421875 -10.34375 C 2.929688 -10.894531 3.535156 -11.320312 4.234375 -11.625 C 4.929688 -11.925781 5.691406 -12.078125 6.515625 -12.078125 C 7.347656 -12.078125 8.113281 -11.925781 8.8125 -11.625 C 9.507812 -11.320312 10.113281 -10.894531 10.625 -10.34375 C 11.132812 -9.800781 11.523438 -9.15625 11.796875 -8.40625 C 12.078125 -7.664062 12.21875 -6.847656 12.21875 -5.953125 Z M 11.125 -5.953125 C 11.125 -6.960938 10.925781 -7.847656 10.53125 -8.609375 C 10.144531 -9.378906 9.601562 -9.976562 8.90625 -10.40625 C 8.21875 -10.84375 7.421875 -11.0625 6.515625 -11.0625 C 5.617188 -11.0625 4.820312 -10.84375 4.125 -10.40625 C 3.425781 -9.976562 2.878906 -9.378906 2.484375 -8.609375 C 2.097656 -7.847656 1.90625 -6.960938 1.90625 -5.953125 C 1.90625 -4.941406 2.097656 -4.050781 2.484375 -3.28125 C 2.878906 -2.519531 3.425781 -1.921875 4.125 -1.484375 C 4.820312 -1.054688 5.617188 -0.84375 6.515625 -0.84375 C 7.421875 -0.84375 8.21875 -1.054688 8.90625 -1.484375 C 9.601562 -1.921875 10.144531 -2.519531 10.53125 -3.28125 C 10.925781 -4.050781 11.125 -4.941406 11.125 -5.953125 Z M 11.125 -5.953125 "/></g></g></g><g fill="#000000" fill-opacity="1"><g transform="translate(25.359514, 16.576849)"><g><path d="M 2.109375 -11.90625 C 2.191406 -11.90625 2.273438 -11.890625 2.359375 -11.859375 C 2.441406 -11.828125 2.507812 -11.769531 2.5625 -11.6875 L 7.265625 -4.640625 L 6.8125 -4.65625 L 11.515625 -11.6875 C 11.640625 -11.851562 11.796875 -11.925781 11.984375 -11.90625 C 12.117188 -11.90625 12.234375 -11.859375 12.328125 -11.765625 C 12.421875 -11.671875 12.46875 -11.550781 12.46875 -11.40625 L 12.46875 -0.515625 C 12.46875 -0.378906 12.414062 -0.257812 12.3125 -0.15625 C 12.21875 -0.0507812 12.09375 0 11.9375 0 C 11.78125 0 11.648438 -0.0507812 11.546875 -0.15625 C 11.453125 -0.257812 11.40625 -0.378906 11.40625 -0.515625 L 11.40625 -10.359375 L 11.703125 -10.328125 L 7.40625 -3.8125 C 7.363281 -3.738281 7.304688 -3.679688 7.234375 -3.640625 C 7.171875 -3.609375 7.097656 -3.597656 7.015625 -3.609375 C 6.929688 -3.597656 6.851562 -3.609375 6.78125 -3.640625 C 6.707031 -3.679688 6.648438 -3.738281 6.609375 -3.8125 L 2.28125 -10.390625 L 2.609375 -10.625 L 2.609375 -0.515625 C 2.609375 -0.378906 2.554688 -0.257812 2.453125 -0.15625 C 2.359375 -0.0507812 2.238281 0 2.09375 0 C 1.945312 0 1.828125 -0.0507812 1.734375 -0.15625 C 1.640625 -0.257812 1.59375 -0.378906 1.59375 -0.515625 L 1.59375 -11.40625 C 1.59375 -11.539062 1.640625 -11.65625 1.734375 -11.75 C 1.835938 -11.851562 1.960938 -11.90625 2.109375 -11.90625 Z M 2.109375 -11.90625 "/></g></g></g><g fill="#000000" fill-opacity="1"><g transform="translate(39.421224, 16.576849)"><g><path d="M 6.140625 -11.90625 C 6.773438 -11.90625 7.335938 -11.757812 7.828125 -11.46875 C 8.316406 -11.1875 8.703125 -10.789062 8.984375 -10.28125 C 9.265625 -9.769531 9.40625 -9.1875 9.40625 -8.53125 C 9.40625 -7.863281 9.265625 -7.265625 8.984375 -6.734375 C 8.703125 -6.210938 8.316406 -5.796875 7.828125 -5.484375 C 7.335938 -5.179688 6.773438 -5.03125 6.140625 -5.03125 L 2.53125 -5.03125 L 2.625 -5.203125 L 2.625 -0.515625 C 2.625 -0.378906 2.570312 -0.257812 2.46875 -0.15625 C 2.363281 -0.0507812 2.242188 0 2.109375 0 C 1.953125 0 1.828125 -0.0507812 1.734375 -0.15625 C 1.640625 -0.257812 1.59375 -0.378906 1.59375 -0.515625 L 1.59375 -11.40625 C 1.59375 -11.539062 1.644531 -11.65625 1.75 -11.75 C 1.851562 -11.851562 1.972656 -11.90625 2.109375 -11.90625 Z M 6.140625 -6.03125 C 6.585938 -6.03125 6.972656 -6.140625 7.296875 -6.359375 C 7.628906 -6.578125 7.890625 -6.875 8.078125 -7.25 C 8.265625 -7.632812 8.359375 -8.0625 8.359375 -8.53125 C 8.359375 -8.988281 8.265625 -9.394531 8.078125 -9.75 C 7.890625 -10.113281 7.628906 -10.394531 7.296875 -10.59375 C 6.972656 -10.800781 6.585938 -10.90625 6.140625 -10.90625 L 2.53125 -10.90625 L 2.625 -11.0625 L 2.625 -5.921875 L 2.515625 -6.03125 Z M 6.140625 -6.03125 "/></g></g></g><g fill="#000000" fill-opacity="1"><g transform="translate(49.555186, 16.576849)"><g><path d="M 8.1875 -1 C 8.320312 -1 8.4375 -0.953125 8.53125 -0.859375 C 8.632812 -0.765625 8.6875 -0.648438 8.6875 -0.515625 C 8.6875 -0.367188 8.632812 -0.242188 8.53125 -0.140625 C 8.4375 -0.046875 8.320312 0 8.1875 0 L 2.109375 0 C 1.960938 0 1.835938 -0.0507812 1.734375 -0.15625 C 1.640625 -0.257812 1.59375 -0.378906 1.59375 -0.515625 L 1.59375 -11.40625 C 1.59375 -11.539062 1.644531 -11.65625 1.75 -11.75 C 1.851562 -11.851562 1.984375 -11.90625 2.140625 -11.90625 C 2.273438 -11.90625 2.394531 -11.851562 2.5 -11.75 C 2.613281 -11.65625 2.671875 -11.539062 2.671875 -11.40625 L 2.671875 -0.71875 L 2.34375 -1 Z M 8.1875 -1 "/></g></g></g><g fill="#000000" fill-opacity="1"><g transform="translate(58.600937, 16.576849)"><g><path d="M 2.109375 -11.90625 L 8.359375 -11.90625 C 8.492188 -11.90625 8.609375 -11.859375 8.703125 -11.765625 C 8.804688 -11.671875 8.859375 -11.550781 8.859375 -11.40625 C 8.859375 -11.25 8.804688 -11.125 8.703125 -11.03125 C 8.609375 -10.945312 8.492188 -10.90625 8.359375 -10.90625 L 2.5 -10.90625 L 2.671875 -11.203125 L 2.671875 -6.421875 L 2.484375 -6.640625 L 7.59375 -6.640625 C 7.726562 -6.640625 7.84375 -6.585938 7.9375 -6.484375 C 8.039062 -6.378906 8.09375 -6.257812 8.09375 -6.125 C 8.09375 -5.976562 8.039062 -5.859375 7.9375 -5.765625 C 7.84375 -5.671875 7.726562 -5.625 7.59375 -5.625 L 2.515625 -5.625 L 2.671875 -5.796875 L 2.671875 -0.90625 L 2.59375 -1 L 8.359375 -1 C 8.492188 -1 8.609375 -0.945312 8.703125 -0.84375 C 8.804688 -0.75 8.859375 -0.632812 8.859375 -0.5 C 8.859375 -0.34375 8.804688 -0.21875 8.703125 -0.125 C 8.609375 -0.0390625 8.492188 0 8.359375 0 L 2.109375 0 C 1.972656 0 1.851562 -0.0507812 1.75 -0.15625 C 1.644531 -0.257812 1.59375 -0.378906 1.59375 -0.515625 L 1.59375 -11.40625 C 1.59375 -11.539062 1.644531 -11.65625 1.75 -11.75 C 1.851562 -11.851562 1.972656 -11.90625 2.109375 -11.90625 Z M 2.109375 -11.90625 "/></g></g></g><g fill="#000000" fill-opacity="1"><g transform="translate(68.2588, 16.576849)"><g><path d="M 5.140625 0 C 4.984375 0 4.851562 -0.0507812 4.75 -0.15625 C 4.65625 -0.257812 4.609375 -0.378906 4.609375 -0.515625 L 4.609375 -11.34375 L 5.671875 -11.34375 L 5.671875 -0.515625 C 5.671875 -0.378906 5.617188 -0.257812 5.515625 -0.15625 C 5.410156 -0.0507812 5.285156 0 5.140625 0 Z M 1.09375 -10.9375 C 0.957031 -10.9375 0.835938 -10.984375 0.734375 -11.078125 C 0.628906 -11.171875 0.578125 -11.289062 0.578125 -11.4375 C 0.578125 -11.570312 0.628906 -11.679688 0.734375 -11.765625 C 0.835938 -11.859375 0.957031 -11.90625 1.09375 -11.90625 L 9.1875 -11.90625 C 9.320312 -11.90625 9.441406 -11.859375 9.546875 -11.765625 C 9.648438 -11.679688 9.703125 -11.566406 9.703125 -11.421875 C 9.703125 -11.273438 9.648438 -11.15625 9.546875 -11.0625 C 9.441406 -10.976562 9.320312 -10.9375 9.1875 -10.9375 Z M 1.09375 -10.9375 "/></g></g></g><g fill="#000000" fill-opacity="1"><g transform="translate(78.52879, 16.576849)"><g><path d="M 2.109375 -11.90625 L 8.359375 -11.90625 C 8.492188 -11.90625 8.609375 -11.859375 8.703125 -11.765625 C 8.804688 -11.671875 8.859375 -11.550781 8.859375 -11.40625 C 8.859375 -11.25 8.804688 -11.125 8.703125 -11.03125 C 8.609375 -10.945312 8.492188 -10.90625 8.359375 -10.90625 L 2.5 -10.90625 L 2.671875 -11.203125 L 2.671875 -6.421875 L 2.484375 -6.640625 L 7.59375 -6.640625 C 7.726562 -6.640625 7.84375 -6.585938 7.9375 -6.484375 C 8.039062 -6.378906 8.09375 -6.257812 8.09375 -6.125 C 8.09375 -5.976562 8.039062 -5.859375 7.9375 -5.765625 C 7.84375 -5.671875 7.726562 -5.625 7.59375 -5.625 L 2.515625 -5.625 L 2.671875 -5.796875 L 2.671875 -0.90625 L 2.59375 -1 L 8.359375 -1 C 8.492188 -1 8.609375 -0.945312 8.703125 -0.84375 C 8.804688 -0.75 8.859375 -0.632812 8.859375 -0.5 C 8.859375 -0.34375 8.804688 -0.21875 8.703125 -0.125 C 8.609375 -0.0390625 8.492188 0 8.359375 0 L 2.109375 0 C 1.972656 0 1.851562 -0.0507812 1.75 -0.15625 C 1.644531 -0.257812 1.59375 -0.378906 1.59375 -0.515625 L 1.59375 -11.40625 C 1.59375 -11.539062 1.644531 -11.65625 1.75 -11.75 C 1.851562 -11.851562 1.972656 -11.90625 2.109375 -11.90625 Z M 2.109375 -11.90625 "/></g></g></g><g fill="#000000" fill-opacity="1"><g transform="translate(88.186653, 16.576849)"><g><path d="M 6.453125 -11.90625 C 7.285156 -11.90625 8.015625 -11.742188 8.640625 -11.421875 C 9.273438 -11.109375 9.796875 -10.671875 10.203125 -10.109375 C 10.617188 -9.554688 10.925781 -8.921875 11.125 -8.203125 C 11.320312 -7.484375 11.421875 -6.734375 11.421875 -5.953125 C 11.421875 -4.867188 11.238281 -3.875 10.875 -2.96875 C 10.519531 -2.0625 9.976562 -1.335938 9.25 -0.796875 C 8.519531 -0.265625 7.585938 0 6.453125 0 L 2.109375 0 C 1.972656 0 1.851562 -0.0507812 1.75 -0.15625 C 1.644531 -0.257812 1.59375 -0.378906 1.59375 -0.515625 L 1.59375 -11.40625 C 1.59375 -11.539062 1.644531 -11.65625 1.75 -11.75 C 1.851562 -11.851562 1.972656 -11.90625 2.109375 -11.90625 Z M 6.28125 -1 C 7.238281 -1 8.015625 -1.21875 8.609375 -1.65625 C 9.203125 -2.101562 9.632812 -2.703125 9.90625 -3.453125 C 10.1875 -4.210938 10.328125 -5.046875 10.328125 -5.953125 C 10.328125 -6.609375 10.25 -7.234375 10.09375 -7.828125 C 9.945312 -8.429688 9.710938 -8.960938 9.390625 -9.421875 C 9.066406 -9.878906 8.644531 -10.238281 8.125 -10.5 C 7.601562 -10.769531 6.988281 -10.90625 6.28125 -10.90625 L 2.546875 -10.90625 L 2.671875 -11.0625 L 2.671875 -0.828125 L 2.5625 -1 Z M 6.28125 -1 "/></g></g></g></g></g></svg>