<svg xmlns="http://www.w3.org/2000/svg" xmlns:xlink="http://www.w3.org/1999/xlink" width="583" zoomAndPan="magnify" viewBox="0 0 438 300.000006" height="450" preserveAspectRatio="xMidYMid meet" version="1.0"><defs><g/><clipPath id="ad077b80be"><path d="M 50.601562 20.285156 L 386.648438 20.285156 L 386.648438 279.449219 L 50.601562 279.449219 Z M 50.601562 20.285156 " clip-rule="nonzero"/></clipPath><clipPath id="7fa0298a0f"><rect x="0" width="183" y="0" height="38"/></clipPath></defs><g clip-path="url(#ad077b80be)"><path stroke-linecap="butt" transform="matrix(0.747508, 0, 0, 0.747508, 50.60117, 20.284377)" fill="none" stroke-linejoin="miter" d="M 0.000524586 0.00104186 L 449.556576 0.00104186 L 449.556576 346.704973 L 0.000524586 346.704973 Z M 0.000524586 0.00104186 " stroke="#000000" stroke-width="4" stroke-opacity="1" stroke-miterlimit="4"/></g><path stroke-linecap="butt" transform="matrix(0.747508, 0.000000000000000142, -0.000000000000000142, 0.747508, 50.599637, 62.273816)" fill="none" stroke-linejoin="miter" d="M 0.00257579 0.997602 L 449.563853 0.997602 " stroke="#000000" stroke-width="2" stroke-opacity="1" stroke-miterlimit="4"/><g transform="matrix(1, 0, 0, 1, 55, 22)"><g clip-path="url(#7fa0298a0f)"><g fill="#000000" fill-opacity="1"><g transform="translate(1.089399, 28.744013)"><g><path d="M 2.109375 0 L 2.109375 -19.21875 L 4.234375 -19.21875 L 4.234375 -10.625 L 15.40625 -10.625 L 15.40625 -19.21875 L 17.515625 -19.21875 L 17.515625 0 L 15.40625 0 L 15.40625 -8.734375 L 4.234375 -8.734375 L 4.234375 0 Z M 2.109375 0 "/></g></g></g><g fill="#000000" fill-opacity="1"><g transform="translate(20.711139, 28.744013)"><g><path d="M 21 -9.609375 C 21 -8.234375 20.742188 -6.9375 20.234375 -5.71875 C 19.722656 -4.5 19.019531 -3.445312 18.125 -2.5625 C 17.238281 -1.675781 16.191406 -0.976562 14.984375 -0.46875 C 13.773438 0.0390625 12.488281 0.296875 11.125 0.296875 C 9.75 0.296875 8.453125 0.0390625 7.234375 -0.46875 C 6.015625 -0.976562 4.960938 -1.675781 4.078125 -2.5625 C 3.191406 -3.445312 2.488281 -4.5 1.96875 -5.71875 C 1.457031 -6.9375 1.203125 -8.234375 1.203125 -9.609375 C 1.203125 -10.984375 1.457031 -12.273438 1.96875 -13.484375 C 2.488281 -14.703125 3.191406 -15.753906 4.078125 -16.640625 C 4.960938 -17.535156 6.015625 -18.238281 7.234375 -18.75 C 8.453125 -19.257812 9.75 -19.515625 11.125 -19.515625 C 12.488281 -19.515625 13.773438 -19.257812 14.984375 -18.75 C 16.191406 -18.238281 17.238281 -17.535156 18.125 -16.640625 C 19.019531 -15.753906 19.722656 -14.703125 20.234375 -13.484375 C 20.742188 -12.273438 21 -10.984375 21 -9.609375 Z M 18.859375 -9.609375 C 18.859375 -10.722656 18.65625 -11.769531 18.25 -12.75 C 17.851562 -13.726562 17.3125 -14.566406 16.625 -15.265625 C 15.9375 -15.972656 15.113281 -16.53125 14.15625 -16.9375 C 13.207031 -17.351562 12.195312 -17.5625 11.125 -17.5625 C 10.019531 -17.5625 8.988281 -17.351562 8.03125 -16.9375 C 7.082031 -16.53125 6.265625 -15.972656 5.578125 -15.265625 C 4.898438 -14.566406 4.359375 -13.726562 3.953125 -12.75 C 3.546875 -11.769531 3.34375 -10.722656 3.34375 -9.609375 C 3.34375 -8.492188 3.546875 -7.453125 3.953125 -6.484375 C 4.359375 -5.515625 4.898438 -4.671875 5.578125 -3.953125 C 6.265625 -3.234375 7.082031 -2.664062 8.03125 -2.25 C 8.988281 -1.84375 10.019531 -1.640625 11.125 -1.640625 C 12.195312 -1.640625 13.207031 -1.84375 14.15625 -2.25 C 15.113281 -2.664062 15.9375 -3.234375 16.625 -3.953125 C 17.3125 -4.671875 17.851562 -5.515625 18.25 -6.484375 C 18.65625 -7.453125 18.859375 -8.492188 18.859375 -9.609375 Z M 18.859375 -9.609375 "/></g></g></g><g fill="#000000" fill-opacity="1"><g transform="translate(42.912522, 28.744013)"><g><path d="M 11.609375 -1.375 L 4.09375 -16.78125 L 4.09375 0 L 2.109375 0 L 2.109375 -19.21875 L 5.078125 -19.21875 L 11.640625 -5.578125 L 18.171875 -19.21875 L 21.140625 -19.21875 L 21.140625 0 L 19.140625 0 L 19.140625 -16.796875 Z M 11.609375 -1.375 "/></g></g></g><g fill="#000000" fill-opacity="1"><g transform="translate(66.156742, 28.744013)"><g><path d="M 2.109375 0 L 2.109375 -19.21875 L 15.875 -19.21875 L 15.875 -17.34375 L 4.234375 -17.34375 L 4.234375 -10.625 L 11.828125 -10.625 L 11.828125 -8.78125 L 4.234375 -8.78125 L 4.234375 -1.859375 L 15.984375 -1.859375 L 15.984375 0 Z M 2.109375 0 "/></g></g></g><g fill="#000000" fill-opacity="1"><g transform="translate(83.061628, 28.744013)"><g/></g></g><g fill="#000000" fill-opacity="1"><g transform="translate(88.961874, 28.744013)"><g><path d="M 0.46875 -17.328125 L 0.46875 -19.21875 L 16.46875 -19.21875 L 16.46875 -17.328125 L 9.53125 -17.328125 L 9.53125 0 L 7.40625 0 L 7.40625 -17.328125 Z M 0.46875 -17.328125 "/></g></g></g><g fill="#000000" fill-opacity="1"><g transform="translate(105.894202, 28.744013)"><g><path d="M 21 -9.609375 C 21 -8.234375 20.742188 -6.9375 20.234375 -5.71875 C 19.722656 -4.5 19.019531 -3.445312 18.125 -2.5625 C 17.238281 -1.675781 16.191406 -0.976562 14.984375 -0.46875 C 13.773438 0.0390625 12.488281 0.296875 11.125 0.296875 C 9.75 0.296875 8.453125 0.0390625 7.234375 -0.46875 C 6.015625 -0.976562 4.960938 -1.675781 4.078125 -2.5625 C 3.191406 -3.445312 2.488281 -4.5 1.96875 -5.71875 C 1.457031 -6.9375 1.203125 -8.234375 1.203125 -9.609375 C 1.203125 -10.984375 1.457031 -12.273438 1.96875 -13.484375 C 2.488281 -14.703125 3.191406 -15.753906 4.078125 -16.640625 C 4.960938 -17.535156 6.015625 -18.238281 7.234375 -18.75 C 8.453125 -19.257812 9.75 -19.515625 11.125 -19.515625 C 12.488281 -19.515625 13.773438 -19.257812 14.984375 -18.75 C 16.191406 -18.238281 17.238281 -17.535156 18.125 -16.640625 C 19.019531 -15.753906 19.722656 -14.703125 20.234375 -13.484375 C 20.742188 -12.273438 21 -10.984375 21 -9.609375 Z M 18.859375 -9.609375 C 18.859375 -10.722656 18.65625 -11.769531 18.25 -12.75 C 17.851562 -13.726562 17.3125 -14.566406 16.625 -15.265625 C 15.9375 -15.972656 15.113281 -16.53125 14.15625 -16.9375 C 13.207031 -17.351562 12.195312 -17.5625 11.125 -17.5625 C 10.019531 -17.5625 8.988281 -17.351562 8.03125 -16.9375 C 7.082031 -16.53125 6.265625 -15.972656 5.578125 -15.265625 C 4.898438 -14.566406 4.359375 -13.726562 3.953125 -12.75 C 3.546875 -11.769531 3.34375 -10.722656 3.34375 -9.609375 C 3.34375 -8.492188 3.546875 -7.453125 3.953125 -6.484375 C 4.359375 -5.515625 4.898438 -4.671875 5.578125 -3.953125 C 6.265625 -3.234375 7.082031 -2.664062 8.03125 -2.25 C 8.988281 -1.84375 10.019531 -1.640625 11.125 -1.640625 C 12.195312 -1.640625 13.207031 -1.84375 14.15625 -2.25 C 15.113281 -2.664062 15.9375 -3.234375 16.625 -3.953125 C 17.3125 -4.671875 17.851562 -5.515625 18.25 -6.484375 C 18.65625 -7.453125 18.859375 -8.492188 18.859375 -9.609375 Z M 18.859375 -9.609375 "/></g></g></g><g fill="#000000" fill-opacity="1"><g transform="translate(128.095585, 28.744013)"><g><path d="M 1.34375 -8.625 L 10.921875 -8.625 L 10.921875 -6.8125 L 1.34375 -6.8125 Z M 1.34375 -8.625 "/></g></g></g><g fill="#000000" fill-opacity="1"><g transform="translate(140.362606, 28.744013)"><g><path d="M 2.109375 0 L 2.109375 -19.21875 L 8.453125 -19.21875 C 9.898438 -19.21875 11.242188 -18.972656 12.484375 -18.484375 C 13.734375 -18.003906 14.804688 -17.34375 15.703125 -16.5 C 16.597656 -15.65625 17.296875 -14.640625 17.796875 -13.453125 C 18.304688 -12.273438 18.5625 -10.992188 18.5625 -9.609375 C 18.5625 -8.210938 18.304688 -6.925781 17.796875 -5.75 C 17.296875 -4.570312 16.601562 -3.5625 15.71875 -2.71875 C 14.832031 -1.875 13.765625 -1.207031 12.515625 -0.71875 C 11.273438 -0.238281 9.921875 0 8.453125 0 Z M 8.5625 -17.296875 L 4.234375 -17.296875 L 4.234375 -1.921875 L 8.5625 -1.921875 C 9.664062 -1.921875 10.703125 -2.117188 11.671875 -2.515625 C 12.640625 -2.910156 13.46875 -3.445312 14.15625 -4.125 C 14.851562 -4.8125 15.40625 -5.625 15.8125 -6.5625 C 16.21875 -7.507812 16.421875 -8.523438 16.421875 -9.609375 C 16.421875 -10.691406 16.21875 -11.703125 15.8125 -12.640625 C 15.40625 -13.585938 14.851562 -14.398438 14.15625 -15.078125 C 13.46875 -15.765625 12.640625 -16.304688 11.671875 -16.703125 C 10.703125 -17.097656 9.664062 -17.296875 8.5625 -17.296875 Z M 8.5625 -17.296875 "/></g></g></g><g fill="#000000" fill-opacity="1"><g transform="translate(160.121564, 28.744013)"><g><path d="M 21 -9.609375 C 21 -8.234375 20.742188 -6.9375 20.234375 -5.71875 C 19.722656 -4.5 19.019531 -3.445312 18.125 -2.5625 C 17.238281 -1.675781 16.191406 -0.976562 14.984375 -0.46875 C 13.773438 0.0390625 12.488281 0.296875 11.125 0.296875 C 9.75 0.296875 8.453125 0.0390625 7.234375 -0.46875 C 6.015625 -0.976562 4.960938 -1.675781 4.078125 -2.5625 C 3.191406 -3.445312 2.488281 -4.5 1.96875 -5.71875 C 1.457031 -6.9375 1.203125 -8.234375 1.203125 -9.609375 C 1.203125 -10.984375 1.457031 -12.273438 1.96875 -13.484375 C 2.488281 -14.703125 3.191406 -15.753906 4.078125 -16.640625 C 4.960938 -17.535156 6.015625 -18.238281 7.234375 -18.75 C 8.453125 -19.257812 9.75 -19.515625 11.125 -19.515625 C 12.488281 -19.515625 13.773438 -19.257812 14.984375 -18.75 C 16.191406 -18.238281 17.238281 -17.535156 18.125 -16.640625 C 19.019531 -15.753906 19.722656 -14.703125 20.234375 -13.484375 C 20.742188 -12.273438 21 -10.984375 21 -9.609375 Z M 18.859375 -9.609375 C 18.859375 -10.722656 18.65625 -11.769531 18.25 -12.75 C 17.851562 -13.726562 17.3125 -14.566406 16.625 -15.265625 C 15.9375 -15.972656 15.113281 -16.53125 14.15625 -16.9375 C 13.207031 -17.351562 12.195312 -17.5625 11.125 -17.5625 C 10.019531 -17.5625 8.988281 -17.351562 8.03125 -16.9375 C 7.082031 -16.53125 6.265625 -15.972656 5.578125 -15.265625 C 4.898438 -14.566406 4.359375 -13.726562 3.953125 -12.75 C 3.546875 -11.769531 3.34375 -10.722656 3.34375 -9.609375 C 3.34375 -8.492188 3.546875 -7.453125 3.953125 -6.484375 C 4.359375 -5.515625 4.898438 -4.671875 5.578125 -3.953125 C 6.265625 -3.234375 7.082031 -2.664062 8.03125 -2.25 C 8.988281 -1.84375 10.019531 -1.640625 11.125 -1.640625 C 12.195312 -1.640625 13.207031 -1.84375 14.15625 -2.25 C 15.113281 -2.664062 15.9375 -3.234375 16.625 -3.953125 C 17.3125 -4.671875 17.851562 -5.515625 18.25 -6.484375 C 18.65625 -7.453125 18.859375 -8.492188 18.859375 -9.609375 Z M 18.859375 -9.609375 "/></g></g></g></g></g></svg>