<svg xmlns="http://www.w3.org/2000/svg" xmlns:xlink="http://www.w3.org/1999/xlink" width="583" zoomAndPan="magnify" viewBox="0 0 438 300.000006" height="450" preserveAspectRatio="xMidYMid meet" version="1.0"><defs><g/><clipPath id="31aea4077e"><path d="M 56.054688 51 L 381.21875 51 L 381.21875 278.953125 L 56.054688 278.953125 Z M 56.054688 51 " clip-rule="nonzero"/></clipPath><clipPath id="a6da516692"><path d="M 56.054688 50.960938 L 381.21875 50.960938 L 381.21875 278.953125 L 56.054688 278.953125 Z M 56.054688 50.960938 " clip-rule="nonzero"/></clipPath><clipPath id="824530e095"><rect x="0" width="39" y="0" height="22"/></clipPath><clipPath id="967a7ccb36"><path d="M 22 5 L 31.8125 5 L 31.8125 17 L 22 17 Z M 22 5 " clip-rule="nonzero"/></clipPath><clipPath id="6531de1d35"><rect x="0" width="32" y="0" height="23"/></clipPath><clipPath id="5becf1910a"><path d="M 0.253906 5 L 14 5 L 14 17 L 0.253906 17 Z M 0.253906 5 " clip-rule="nonzero"/></clipPath><clipPath id="6e7e843072"><rect x="0" width="37" y="0" height="23"/></clipPath><clipPath id="0d187ff502"><rect x="0" width="34" y="0" height="23"/></clipPath><clipPath id="6a2be31acc"><rect x="0" width="26" y="0" height="23"/></clipPath><clipPath id="2d854f07fd"><path d="M 0.1875 5 L 10 5 L 10 18 L 0.1875 18 Z M 0.1875 5 " clip-rule="nonzero"/></clipPath><clipPath id="022cf28b81"><path d="M 19 5 L 28.890625 5 L 28.890625 17 L 19 17 Z M 19 5 " clip-rule="nonzero"/></clipPath><clipPath id="24bf33ae3c"><rect x="0" width="29" y="0" height="23"/></clipPath><clipPath id="c9c8bcddca"><rect x="0" width="35" y="0" height="23"/></clipPath></defs><g clip-path="url(#31aea4077e)"><path fill="#000000" d="M 56.414062 51.679688 L 56.414062 278.054688 M 102.761719 51.679688 L 102.761719 278.054688 M 149.105469 51.679688 L 149.105469 278.054688 M 195.453125 51.679688 L 195.453125 278.054688 M 241.800781 51.679688 L 241.800781 278.054688 M 288.144531 51.679688 L 288.144531 278.054688 M 334.492188 51.679688 L 334.492188 278.054688 M 380.839844 51.679688 L 380.839844 278.054688 M 56.054688 51.320312 L 381.199219 51.320312 M 56.054688 96.738281 L 381.199219 96.738281 M 56.054688 142.160156 L 381.199219 142.160156 M 56.054688 187.578125 L 381.199219 187.578125 M 56.054688 232.996094 L 381.199219 232.996094 M 56.054688 278.414062 L 381.199219 278.414062 " fill-opacity="1" fill-rule="nonzero"/></g><g clip-path="url(#a6da516692)"><path stroke-linecap="butt" transform="matrix(0.747508, 0, 0, 0.747508, 56.05401, 50.962059)" fill="none" stroke-linejoin="miter" d="M 0.48167 0.960028 L 0.48167 303.799479 M 62.484536 0.960028 L 62.484536 303.799479 M 124.482176 0.960028 L 124.482176 303.799479 M 186.485042 0.960028 L 186.485042 303.799479 M 248.487908 0.960028 L 248.487908 303.799479 M 310.485548 0.960028 L 310.485548 303.799479 M 372.488414 0.960028 L 372.488414 303.799479 M 434.49128 0.960028 L 434.49128 303.799479 M 0.000906188 0.479264 L 434.972044 0.479264 M 0.000906188 61.238415 L 434.972044 61.238415 M 0.000906188 122.002791 L 434.972044 122.002791 M 0.000906188 182.761942 L 434.972044 182.761942 M 0.000906188 243.521092 L 434.972044 243.521092 M 0.000906188 304.280243 L 434.972044 304.280243 " stroke="#000000" stroke-width="0.961232" stroke-opacity="1" stroke-miterlimit="4"/></g><g transform="matrix(1, 0, 0, 1, 62, 32)"><g clip-path="url(#824530e095)"><g fill="#000000" fill-opacity="1"><g transform="translate(0.443794, 15.92077)"><g><path d="M 6.65625 -0.78125 L 2.34375 -9.625 L 2.34375 0 L 1.21875 0 L 1.21875 -11.03125 L 2.90625 -11.03125 L 6.671875 -3.203125 L 10.421875 -11.03125 L 12.125 -11.03125 L 12.125 0 L 10.984375 0 L 10.984375 -9.640625 Z M 6.65625 -0.78125 "/></g></g></g><g fill="#000000" fill-opacity="1"><g transform="translate(13.788182, 15.92077)"><g><path d="M 12.046875 -5.515625 C 12.046875 -4.722656 11.898438 -3.976562 11.609375 -3.28125 C 11.316406 -2.582031 10.914062 -1.976562 10.40625 -1.46875 C 9.894531 -0.957031 9.289062 -0.554688 8.59375 -0.265625 C 7.90625 0.0234375 7.164062 0.171875 6.375 0.171875 C 5.59375 0.171875 4.851562 0.0234375 4.15625 -0.265625 C 3.457031 -0.554688 2.851562 -0.957031 2.34375 -1.46875 C 1.832031 -1.976562 1.425781 -2.582031 1.125 -3.28125 C 0.832031 -3.976562 0.6875 -4.722656 0.6875 -5.515625 C 0.6875 -6.296875 0.832031 -7.035156 1.125 -7.734375 C 1.425781 -8.429688 1.832031 -9.035156 2.34375 -9.546875 C 2.851562 -10.054688 3.457031 -10.457031 4.15625 -10.75 C 4.851562 -11.050781 5.59375 -11.203125 6.375 -11.203125 C 7.164062 -11.203125 7.90625 -11.050781 8.59375 -10.75 C 9.289062 -10.457031 9.894531 -10.054688 10.40625 -9.546875 C 10.914062 -9.035156 11.316406 -8.429688 11.609375 -7.734375 C 11.898438 -7.035156 12.046875 -6.296875 12.046875 -5.515625 Z M 10.8125 -5.515625 C 10.8125 -6.148438 10.695312 -6.75 10.46875 -7.3125 C 10.238281 -7.875 9.925781 -8.359375 9.53125 -8.765625 C 9.144531 -9.171875 8.675781 -9.488281 8.125 -9.71875 C 7.582031 -9.957031 7 -10.078125 6.375 -10.078125 C 5.75 -10.078125 5.160156 -9.957031 4.609375 -9.71875 C 4.066406 -9.488281 3.597656 -9.171875 3.203125 -8.765625 C 2.804688 -8.359375 2.492188 -7.875 2.265625 -7.3125 C 2.035156 -6.75 1.921875 -6.148438 1.921875 -5.515625 C 1.921875 -4.867188 2.035156 -4.265625 2.265625 -3.703125 C 2.492188 -3.148438 2.804688 -2.671875 3.203125 -2.265625 C 3.597656 -1.859375 4.066406 -1.535156 4.609375 -1.296875 C 5.160156 -1.054688 5.75 -0.9375 6.375 -0.9375 C 7 -0.9375 7.582031 -1.054688 8.125 -1.296875 C 8.675781 -1.535156 9.144531 -1.859375 9.53125 -2.265625 C 9.925781 -2.671875 10.238281 -3.148438 10.46875 -3.703125 C 10.695312 -4.265625 10.8125 -4.867188 10.8125 -5.515625 Z M 10.8125 -5.515625 "/></g></g></g><g fill="#000000" fill-opacity="1"><g transform="translate(26.533886, 15.92077)"><g><path d="M 1.21875 -11.03125 L 2.421875 -11.03125 L 9.0625 -2.078125 L 9.0625 -11.03125 L 10.203125 -11.03125 L 10.203125 0 L 9.140625 0 L 2.359375 -9.1875 L 2.359375 0 L 1.21875 0 Z M 1.21875 -11.03125 "/></g></g></g></g></g><g transform="matrix(1, 0, 0, 1, 111, 32)"><g clip-path="url(#6531de1d35)"><g fill="#000000" fill-opacity="1"><g transform="translate(0.435681, 16.907306)"><g><path d="M 0.265625 -10.140625 L 0.265625 -11.25 L 9.640625 -11.25 L 9.640625 -10.140625 L 5.578125 -10.140625 L 5.578125 0 L 4.34375 0 L 4.34375 -10.140625 Z M 0.265625 -10.140625 "/></g></g></g><g fill="#000000" fill-opacity="1"><g transform="translate(10.348803, 16.907306)"><g><path d="M 10.296875 -4.75 C 10.296875 -3.25 9.875 -2.050781 9.03125 -1.15625 C 8.195312 -0.269531 7.070312 0.171875 5.65625 0.171875 C 4.226562 0.171875 3.097656 -0.269531 2.265625 -1.15625 C 1.429688 -2.039062 1.015625 -3.238281 1.015625 -4.75 L 1.015625 -11.25 L 2.25 -11.25 L 2.25 -4.75 C 2.25 -3.601562 2.554688 -2.6875 3.171875 -2 C 3.796875 -1.3125 4.625 -0.96875 5.65625 -0.96875 C 6.6875 -0.96875 7.507812 -1.3125 8.125 -2 C 8.75 -2.6875 9.0625 -3.601562 9.0625 -4.75 L 9.0625 -11.25 L 10.296875 -11.25 Z M 10.296875 -4.75 "/></g></g></g><g clip-path="url(#967a7ccb36)"><g fill="#000000" fill-opacity="1"><g transform="translate(21.65972, 16.907306)"><g><path d="M 1.234375 0 L 1.234375 -11.25 L 9.28125 -11.25 L 9.28125 -10.15625 L 2.46875 -10.15625 L 2.46875 -6.21875 L 6.921875 -6.21875 L 6.921875 -5.140625 L 2.46875 -5.140625 L 2.46875 -1.09375 L 9.34375 -1.09375 L 9.34375 0 Z M 1.234375 0 "/></g></g></g></g></g></g><g transform="matrix(1, 0, 0, 1, 155, 32)"><g clip-path="url(#6e7e843072)"><g clip-path="url(#5becf1910a)"><g fill="#000000" fill-opacity="1"><g transform="translate(0.359836, 16.907306)"><g><path d="M 4.234375 0 L 2.984375 0 L 0.5625 -11.25 L 1.8125 -11.25 L 3.71875 -1.953125 L 6.5 -11.25 L 7.703125 -11.25 L 10.484375 -1.984375 L 12.421875 -11.25 L 13.625 -11.25 L 11.203125 0 L 9.9375 0 L 7.09375 -9.53125 Z M 4.234375 0 "/></g></g></g></g><g fill="#000000" fill-opacity="1"><g transform="translate(14.530618, 16.907306)"><g><path d="M 1.234375 0 L 1.234375 -11.25 L 9.28125 -11.25 L 9.28125 -10.15625 L 2.46875 -10.15625 L 2.46875 -6.21875 L 6.921875 -6.21875 L 6.921875 -5.140625 L 2.46875 -5.140625 L 2.46875 -1.09375 L 9.34375 -1.09375 L 9.34375 0 Z M 1.234375 0 "/></g></g></g><g fill="#000000" fill-opacity="1"><g transform="translate(24.427667, 16.907306)"><g><path d="M 1.234375 0 L 1.234375 -11.25 L 4.953125 -11.25 C 5.796875 -11.25 6.582031 -11.101562 7.3125 -10.8125 C 8.039062 -10.53125 8.664062 -10.144531 9.1875 -9.65625 C 9.707031 -9.164062 10.113281 -8.570312 10.40625 -7.875 C 10.707031 -7.1875 10.859375 -6.4375 10.859375 -5.625 C 10.859375 -4.8125 10.707031 -4.054688 10.40625 -3.359375 C 10.113281 -2.671875 9.707031 -2.078125 9.1875 -1.578125 C 8.675781 -1.085938 8.054688 -0.703125 7.328125 -0.421875 C 6.597656 -0.140625 5.804688 0 4.953125 0 Z M 5.015625 -10.125 L 2.46875 -10.125 L 2.46875 -1.125 L 5.015625 -1.125 C 5.648438 -1.125 6.25 -1.238281 6.8125 -1.46875 C 7.382812 -1.695312 7.875 -2.007812 8.28125 -2.40625 C 8.695312 -2.8125 9.019531 -3.289062 9.25 -3.84375 C 9.488281 -4.394531 9.609375 -4.988281 9.609375 -5.625 C 9.609375 -6.25 9.488281 -6.835938 9.25 -7.390625 C 9.019531 -7.941406 8.695312 -8.414062 8.28125 -8.8125 C 7.875 -9.21875 7.382812 -9.535156 6.8125 -9.765625 C 6.25 -10.003906 5.648438 -10.125 5.015625 -10.125 Z M 5.015625 -10.125 "/></g></g></g></g></g><g transform="matrix(1, 0, 0, 1, 201, 32)"><g clip-path="url(#0d187ff502)"><g fill="#000000" fill-opacity="1"><g transform="translate(1.04941, 16.907306)"><g><path d="M 0.265625 -10.140625 L 0.265625 -11.25 L 9.640625 -11.25 L 9.640625 -10.140625 L 5.578125 -10.140625 L 5.578125 0 L 4.34375 0 L 4.34375 -10.140625 Z M 0.265625 -10.140625 "/></g></g></g><g fill="#000000" fill-opacity="1"><g transform="translate(10.962532, 16.907306)"><g><path d="M 1.234375 0 L 1.234375 -11.25 L 2.46875 -11.25 L 2.46875 -6.21875 L 9.015625 -6.21875 L 9.015625 -11.25 L 10.25 -11.25 L 10.25 0 L 9.015625 0 L 9.015625 -5.109375 L 2.46875 -5.109375 L 2.46875 0 Z M 1.234375 0 "/></g></g></g><g fill="#000000" fill-opacity="1"><g transform="translate(22.450185, 16.907306)"><g><path d="M 10.296875 -4.75 C 10.296875 -3.25 9.875 -2.050781 9.03125 -1.15625 C 8.195312 -0.269531 7.070312 0.171875 5.65625 0.171875 C 4.226562 0.171875 3.097656 -0.269531 2.265625 -1.15625 C 1.429688 -2.039062 1.015625 -3.238281 1.015625 -4.75 L 1.015625 -11.25 L 2.25 -11.25 L 2.25 -4.75 C 2.25 -3.601562 2.554688 -2.6875 3.171875 -2 C 3.796875 -1.3125 4.625 -0.96875 5.65625 -0.96875 C 6.6875 -0.96875 7.507812 -1.3125 8.125 -2 C 8.75 -2.6875 9.0625 -3.601562 9.0625 -4.75 L 9.0625 -11.25 L 10.296875 -11.25 Z M 10.296875 -4.75 "/></g></g></g></g></g><g transform="matrix(1, 0, 0, 1, 251, 32)"><g clip-path="url(#6a2be31acc)"><g fill="#000000" fill-opacity="1"><g transform="translate(0.99614, 16.907306)"><g><path d="M 1.234375 0 L 1.234375 -11.25 L 9.28125 -11.25 L 9.28125 -10.15625 L 2.46875 -10.15625 L 2.46875 -6.140625 L 6.9375 -6.140625 L 6.9375 -5.0625 L 2.46875 -5.0625 L 2.46875 0 Z M 1.234375 0 "/></g></g></g><g fill="#000000" fill-opacity="1"><g transform="translate(10.748591, 16.907306)"><g><path d="M 1.234375 0 L 1.234375 -11.25 L 6.0625 -11.25 C 7.144531 -11.25 8.023438 -10.945312 8.703125 -10.34375 C 9.378906 -9.75 9.71875 -8.972656 9.71875 -8.015625 C 9.71875 -7.273438 9.5 -6.632812 9.0625 -6.09375 C 8.632812 -5.5625 8.054688 -5.195312 7.328125 -5 L 9.84375 0 L 8.484375 0 L 6.078125 -4.828125 L 2.46875 -4.828125 L 2.46875 0 Z M 5.96875 -10.140625 L 2.46875 -10.140625 L 2.46875 -5.875 L 5.96875 -5.875 C 6.71875 -5.875 7.320312 -6.066406 7.78125 -6.453125 C 8.25 -6.847656 8.484375 -7.367188 8.484375 -8.015625 C 8.484375 -8.660156 8.25 -9.175781 7.78125 -9.5625 C 7.320312 -9.945312 6.71875 -10.140625 5.96875 -10.140625 Z M 5.96875 -10.140625 "/></g></g></g><g fill="#000000" fill-opacity="1"><g transform="translate(21.111574, 16.907306)"><g><path d="M 1.234375 0 L 1.234375 -11.25 L 2.46875 -11.25 L 2.46875 0 Z M 1.234375 0 "/></g></g></g></g></g><g transform="matrix(1, 0, 0, 1, 295, 32)"><g clip-path="url(#24bf33ae3c)"><g clip-path="url(#2d854f07fd)"><g fill="#000000" fill-opacity="1"><g transform="translate(0.483798, 16.907306)"><g><path d="M 0.171875 -1.921875 L 1 -2.78125 C 1.570312 -2.164062 2.1875 -1.703125 2.84375 -1.390625 C 3.507812 -1.078125 4.207031 -0.921875 4.9375 -0.921875 C 5.8125 -0.921875 6.53125 -1.128906 7.09375 -1.546875 C 7.664062 -1.960938 7.953125 -2.488281 7.953125 -3.125 C 7.953125 -3.707031 7.75 -4.15625 7.34375 -4.46875 C 6.945312 -4.78125 6.285156 -5.007812 5.359375 -5.15625 L 3.75 -5.40625 C 2.664062 -5.582031 1.863281 -5.898438 1.34375 -6.359375 C 0.832031 -6.828125 0.578125 -7.457031 0.578125 -8.25 C 0.578125 -9.1875 0.941406 -9.941406 1.671875 -10.515625 C 2.398438 -11.097656 3.351562 -11.390625 4.53125 -11.390625 C 5.3125 -11.390625 6.085938 -11.257812 6.859375 -11 C 7.628906 -10.75 8.332031 -10.378906 8.96875 -9.890625 L 8.25 -8.9375 C 7.644531 -9.394531 7.023438 -9.738281 6.390625 -9.96875 C 5.753906 -10.207031 5.117188 -10.328125 4.484375 -10.328125 C 3.679688 -10.328125 3.03125 -10.140625 2.53125 -9.765625 C 2.03125 -9.398438 1.78125 -8.929688 1.78125 -8.359375 C 1.78125 -7.828125 1.957031 -7.421875 2.3125 -7.140625 C 2.664062 -6.867188 3.25 -6.664062 4.0625 -6.53125 L 5.671875 -6.28125 C 6.890625 -6.070312 7.78125 -5.722656 8.34375 -5.234375 C 8.90625 -4.742188 9.1875 -4.066406 9.1875 -3.203125 C 9.1875 -2.703125 9.082031 -2.242188 8.875 -1.828125 C 8.664062 -1.421875 8.367188 -1.070312 7.984375 -0.78125 C 7.609375 -0.488281 7.15625 -0.257812 6.625 -0.09375 C 6.09375 0.0703125 5.515625 0.15625 4.890625 0.15625 C 3.992188 0.15625 3.132812 -0.0195312 2.3125 -0.375 C 1.5 -0.738281 0.785156 -1.253906 0.171875 -1.921875 Z M 0.171875 -1.921875 "/></g></g></g></g><g fill="#000000" fill-opacity="1"><g transform="translate(9.9631, 16.907306)"><g><path d="M 0.0625 0 L 4.734375 -11.25 L 6.234375 -11.25 L 10.84375 0 L 9.5 0 L 8.078125 -3.53125 L 2.78125 -3.53125 L 1.34375 0 Z M 3.21875 -4.59375 L 7.640625 -4.59375 L 5.4375 -10.09375 Z M 3.21875 -4.59375 "/></g></g></g><g clip-path="url(#022cf28b81)"><g fill="#000000" fill-opacity="1"><g transform="translate(18.81557, 16.907306)"><g><path d="M 0.265625 -10.140625 L 0.265625 -11.25 L 9.640625 -11.25 L 9.640625 -10.140625 L 5.578125 -10.140625 L 5.578125 0 L 4.34375 0 L 4.34375 -10.140625 Z M 0.265625 -10.140625 "/></g></g></g></g></g></g><g transform="matrix(1, 0, 0, 1, 339, 31)"><g clip-path="url(#c9c8bcddca)"><g fill="#000000" fill-opacity="1"><g transform="translate(1.486068, 17.401044)"><g><path d="M 0.171875 -1.921875 L 1 -2.78125 C 1.570312 -2.164062 2.1875 -1.703125 2.84375 -1.390625 C 3.507812 -1.078125 4.207031 -0.921875 4.9375 -0.921875 C 5.8125 -0.921875 6.53125 -1.128906 7.09375 -1.546875 C 7.664062 -1.960938 7.953125 -2.488281 7.953125 -3.125 C 7.953125 -3.707031 7.75 -4.15625 7.34375 -4.46875 C 6.945312 -4.78125 6.285156 -5.007812 5.359375 -5.15625 L 3.75 -5.40625 C 2.664062 -5.582031 1.863281 -5.898438 1.34375 -6.359375 C 0.832031 -6.828125 0.578125 -7.457031 0.578125 -8.25 C 0.578125 -9.1875 0.941406 -9.941406 1.671875 -10.515625 C 2.398438 -11.097656 3.351562 -11.390625 4.53125 -11.390625 C 5.3125 -11.390625 6.085938 -11.257812 6.859375 -11 C 7.628906 -10.75 8.332031 -10.378906 8.96875 -9.890625 L 8.25 -8.9375 C 7.644531 -9.394531 7.023438 -9.738281 6.390625 -9.96875 C 5.753906 -10.207031 5.117188 -10.328125 4.484375 -10.328125 C 3.679688 -10.328125 3.03125 -10.140625 2.53125 -9.765625 C 2.03125 -9.398438 1.78125 -8.929688 1.78125 -8.359375 C 1.78125 -7.828125 1.957031 -7.421875 2.3125 -7.140625 C 2.664062 -6.867188 3.25 -6.664062 4.0625 -6.53125 L 5.671875 -6.28125 C 6.890625 -6.070312 7.78125 -5.722656 8.34375 -5.234375 C 8.90625 -4.742188 9.1875 -4.066406 9.1875 -3.203125 C 9.1875 -2.703125 9.082031 -2.242188 8.875 -1.828125 C 8.664062 -1.421875 8.367188 -1.070312 7.984375 -0.78125 C 7.609375 -0.488281 7.15625 -0.257812 6.625 -0.09375 C 6.09375 0.0703125 5.515625 0.15625 4.890625 0.15625 C 3.992188 0.15625 3.132812 -0.0195312 2.3125 -0.375 C 1.5 -0.738281 0.785156 -1.253906 0.171875 -1.921875 Z M 0.171875 -1.921875 "/></g></g></g><g fill="#000000" fill-opacity="1"><g transform="translate(11.126056, 17.401044)"><g><path d="M 10.296875 -4.75 C 10.296875 -3.25 9.875 -2.050781 9.03125 -1.15625 C 8.195312 -0.269531 7.070312 0.171875 5.65625 0.171875 C 4.226562 0.171875 3.097656 -0.269531 2.265625 -1.15625 C 1.429688 -2.039062 1.015625 -3.238281 1.015625 -4.75 L 1.015625 -11.25 L 2.25 -11.25 L 2.25 -4.75 C 2.25 -3.601562 2.554688 -2.6875 3.171875 -2 C 3.796875 -1.3125 4.625 -0.96875 5.65625 -0.96875 C 6.6875 -0.96875 7.507812 -1.3125 8.125 -2 C 8.75 -2.6875 9.0625 -3.601562 9.0625 -4.75 L 9.0625 -11.25 L 10.296875 -11.25 Z M 10.296875 -4.75 "/></g></g></g><g fill="#000000" fill-opacity="1"><g transform="translate(22.436974, 17.401044)"><g><path d="M 1.234375 -11.25 L 2.46875 -11.25 L 9.234375 -2.125 L 9.234375 -11.25 L 10.40625 -11.25 L 10.40625 0 L 9.3125 0 L 2.40625 -9.359375 L 2.40625 0 L 1.234375 0 Z M 1.234375 -11.25 "/></g></g></g></g></g></svg>