<svg xmlns="http://www.w3.org/2000/svg" xmlns:xlink="http://www.w3.org/1999/xlink" width="583" zoomAndPan="magnify" viewBox="0 0 437.25 674.99998" height="900" preserveAspectRatio="xMidYMid meet" version="1.0"><defs><g/><clipPath id="78b2963340"><path d="M 0.0820312 0.578125 L 436.496094 0.578125 L 436.496094 652.394531 L 0.0820312 652.394531 Z M 0.0820312 0.578125 " clip-rule="nonzero"/></clipPath><clipPath id="db2b5824bd"><path d="M 0 75 L 436.5 75 L 436.5 77 L 0 77 Z M 0 75 " clip-rule="nonzero"/></clipPath><clipPath id="b099025a80"><rect x="0" width="135" y="0" height="32"/></clipPath><clipPath id="0e6a1ba457"><path d="M 20.851562 111.734375 L 36.574219 111.734375 L 36.574219 127.457031 L 20.851562 127.457031 Z M 20.851562 111.734375 " clip-rule="nonzero"/></clipPath><clipPath id="e50102c467"><path d="M 22.347656 111.734375 L 35.3125 111.734375 C 35.710938 111.734375 36.089844 111.890625 36.371094 112.171875 C 36.652344 112.453125 36.808594 112.835938 36.808594 113.230469 L 36.808594 126.195312 C 36.808594 126.589844 36.652344 126.972656 36.371094 127.253906 C 36.089844 127.535156 35.710938 127.691406 35.3125 127.691406 L 22.347656 127.691406 C 21.953125 127.691406 21.570312 127.535156 21.289062 127.253906 C 21.007812 126.972656 20.851562 126.589844 20.851562 126.195312 L 20.851562 113.230469 C 20.851562 112.835938 21.007812 112.453125 21.289062 112.171875 C 21.570312 111.890625 21.953125 111.734375 22.347656 111.734375 Z M 22.347656 111.734375 " clip-rule="nonzero"/></clipPath><clipPath id="c5ec96e2e1"><path d="M 20.851562 140.070312 L 36.574219 140.070312 L 36.574219 155.796875 L 20.851562 155.796875 Z M 20.851562 140.070312 " clip-rule="nonzero"/></clipPath><clipPath id="f6831af75f"><path d="M 22.347656 140.070312 L 35.3125 140.070312 C 35.710938 140.070312 36.089844 140.230469 36.371094 140.511719 C 36.652344 140.792969 36.808594 141.171875 36.808594 141.570312 L 36.808594 154.53125 C 36.808594 154.929688 36.652344 155.308594 36.371094 155.589844 C 36.089844 155.871094 35.710938 156.027344 35.3125 156.027344 L 22.347656 156.027344 C 21.953125 156.027344 21.570312 155.871094 21.289062 155.589844 C 21.007812 155.308594 20.851562 154.929688 20.851562 154.53125 L 20.851562 141.570312 C 20.851562 141.171875 21.007812 140.792969 21.289062 140.511719 C 21.570312 140.230469 21.953125 140.070312 22.347656 140.070312 Z M 22.347656 140.070312 " clip-rule="nonzero"/></clipPath><clipPath id="33c382f09b"><path d="M 20.851562 168.410156 L 36.574219 168.410156 L 36.574219 184.132812 L 20.851562 184.132812 Z M 20.851562 168.410156 " clip-rule="nonzero"/></clipPath><clipPath id="38e999a73c"><path d="M 22.347656 168.410156 L 35.3125 168.410156 C 35.710938 168.410156 36.089844 168.566406 36.371094 168.847656 C 36.652344 169.128906 36.808594 169.507812 36.808594 169.90625 L 36.808594 182.871094 C 36.808594 183.265625 36.652344 183.648438 36.371094 183.929688 C 36.089844 184.207031 35.710938 184.367188 35.3125 184.367188 L 22.347656 184.367188 C 21.953125 184.367188 21.570312 184.207031 21.289062 183.929688 C 21.007812 183.648438 20.851562 183.265625 20.851562 182.871094 L 20.851562 169.90625 C 20.851562 169.507812 21.007812 169.128906 21.289062 168.847656 C 21.570312 168.566406 21.953125 168.410156 22.347656 168.410156 Z M 22.347656 168.410156 " clip-rule="nonzero"/></clipPath><clipPath id="d55aff3698"><path d="M 20.851562 196.746094 L 36.574219 196.746094 L 36.574219 212.46875 L 20.851562 212.46875 Z M 20.851562 196.746094 " clip-rule="nonzero"/></clipPath><clipPath id="496ffa3f21"><path d="M 22.347656 196.746094 L 35.3125 196.746094 C 35.710938 196.746094 36.089844 196.90625 36.371094 197.183594 C 36.652344 197.464844 36.808594 197.847656 36.808594 198.242188 L 36.808594 211.207031 C 36.808594 211.605469 36.652344 211.984375 36.371094 212.265625 C 36.089844 212.546875 35.710938 212.703125 35.3125 212.703125 L 22.347656 212.703125 C 21.953125 212.703125 21.570312 212.546875 21.289062 212.265625 C 21.007812 211.984375 20.851562 211.605469 20.851562 211.207031 L 20.851562 198.242188 C 20.851562 197.847656 21.007812 197.464844 21.289062 197.183594 C 21.570312 196.90625 21.953125 196.746094 22.347656 196.746094 Z M 22.347656 196.746094 " clip-rule="nonzero"/></clipPath><clipPath id="e12711da60"><path d="M 20.851562 225.4375 L 36.574219 225.4375 L 36.574219 241.160156 L 20.851562 241.160156 Z M 20.851562 225.4375 " clip-rule="nonzero"/></clipPath><clipPath id="bb0176d48c"><path d="M 22.347656 225.4375 L 35.3125 225.4375 C 35.710938 225.4375 36.089844 225.59375 36.371094 225.875 C 36.652344 226.15625 36.808594 226.535156 36.808594 226.933594 L 36.808594 239.894531 C 36.808594 240.292969 36.652344 240.671875 36.371094 240.953125 C 36.089844 241.234375 35.710938 241.394531 35.3125 241.394531 L 22.347656 241.394531 C 21.953125 241.394531 21.570312 241.234375 21.289062 240.953125 C 21.007812 240.671875 20.851562 240.292969 20.851562 239.894531 L 20.851562 226.933594 C 20.851562 226.535156 21.007812 226.15625 21.289062 225.875 C 21.570312 225.59375 21.953125 225.4375 22.347656 225.4375 Z M 22.347656 225.4375 " clip-rule="nonzero"/></clipPath><clipPath id="25d78adc98"><path d="M 20.851562 253.773438 L 36.574219 253.773438 L 36.574219 269.496094 L 20.851562 269.496094 Z M 20.851562 253.773438 " clip-rule="nonzero"/></clipPath><clipPath id="8a1ca1aaab"><path d="M 22.347656 253.773438 L 35.3125 253.773438 C 35.710938 253.773438 36.089844 253.929688 36.371094 254.210938 C 36.652344 254.492188 36.808594 254.875 36.808594 255.269531 L 36.808594 268.234375 C 36.808594 268.628906 36.652344 269.011719 36.371094 269.292969 C 36.089844 269.574219 35.710938 269.730469 35.3125 269.730469 L 22.347656 269.730469 C 21.953125 269.730469 21.570312 269.574219 21.289062 269.292969 C 21.007812 269.011719 20.851562 268.628906 20.851562 268.234375 L 20.851562 255.269531 C 20.851562 254.875 21.007812 254.492188 21.289062 254.210938 C 21.570312 253.929688 21.953125 253.773438 22.347656 253.773438 Z M 22.347656 253.773438 " clip-rule="nonzero"/></clipPath><clipPath id="340bacca12"><path d="M 20.851562 282.109375 L 36.574219 282.109375 L 36.574219 297.832031 L 20.851562 297.832031 Z M 20.851562 282.109375 " clip-rule="nonzero"/></clipPath><clipPath id="52710e9623"><path d="M 22.347656 282.109375 L 35.3125 282.109375 C 35.710938 282.109375 36.089844 282.269531 36.371094 282.550781 C 36.652344 282.832031 36.808594 283.210938 36.808594 283.609375 L 36.808594 296.570312 C 36.808594 296.96875 36.652344 297.347656 36.371094 297.628906 C 36.089844 297.910156 35.710938 298.066406 35.3125 298.066406 L 22.347656 298.066406 C 21.953125 298.066406 21.570312 297.910156 21.289062 297.628906 C 21.007812 297.347656 20.851562 296.96875 20.851562 296.570312 L 20.851562 283.609375 C 20.851562 283.210938 21.007812 282.832031 21.289062 282.550781 C 21.570312 282.269531 21.953125 282.109375 22.347656 282.109375 Z M 22.347656 282.109375 " clip-rule="nonzero"/></clipPath><clipPath id="f799130850"><path d="M 20.851562 310.449219 L 36.574219 310.449219 L 36.574219 326.171875 L 20.851562 326.171875 Z M 20.851562 310.449219 " clip-rule="nonzero"/></clipPath><clipPath id="c14047bf83"><path d="M 22.347656 310.449219 L 35.3125 310.449219 C 35.710938 310.449219 36.089844 310.605469 36.371094 310.886719 C 36.652344 311.167969 36.808594 311.546875 36.808594 311.945312 L 36.808594 324.910156 C 36.808594 325.304688 36.652344 325.6875 36.371094 325.96875 C 36.089844 326.246094 35.710938 326.40625 35.3125 326.40625 L 22.347656 326.40625 C 21.953125 326.40625 21.570312 326.246094 21.289062 325.96875 C 21.007812 325.6875 20.851562 325.304688 20.851562 324.910156 L 20.851562 311.945312 C 20.851562 311.546875 21.007812 311.167969 21.289062 310.886719 C 21.570312 310.605469 21.953125 310.449219 22.347656 310.449219 Z M 22.347656 310.449219 " clip-rule="nonzero"/></clipPath><clipPath id="a52293f5a4"><path d="M 20.890625 340.714844 L 36.613281 340.714844 L 36.613281 356.4375 L 20.890625 356.4375 Z M 20.890625 340.714844 " clip-rule="nonzero"/></clipPath><clipPath id="9df855b32a"><path d="M 22.386719 340.714844 L 35.351562 340.714844 C 35.75 340.714844 36.128906 340.875 36.410156 341.152344 C 36.691406 341.433594 36.847656 341.816406 36.847656 342.210938 L 36.847656 355.175781 C 36.847656 355.574219 36.691406 355.953125 36.410156 356.234375 C 36.128906 356.515625 35.75 356.671875 35.351562 356.671875 L 22.386719 356.671875 C 21.992188 356.671875 21.609375 356.515625 21.328125 356.234375 C 21.050781 355.953125 20.890625 355.574219 20.890625 355.175781 L 20.890625 342.210938 C 20.890625 341.816406 21.050781 341.433594 21.328125 341.152344 C 21.609375 340.875 21.992188 340.714844 22.386719 340.714844 Z M 22.386719 340.714844 " clip-rule="nonzero"/></clipPath><clipPath id="22c415539f"><path d="M 20.890625 369.054688 L 36.613281 369.054688 L 36.613281 384.777344 L 20.890625 384.777344 Z M 20.890625 369.054688 " clip-rule="nonzero"/></clipPath><clipPath id="1f2da5809a"><path d="M 22.386719 369.054688 L 35.351562 369.054688 C 35.75 369.054688 36.128906 369.210938 36.410156 369.492188 C 36.691406 369.773438 36.847656 370.152344 36.847656 370.550781 L 36.847656 383.511719 C 36.847656 383.910156 36.691406 384.289062 36.410156 384.570312 C 36.128906 384.851562 35.75 385.011719 35.351562 385.011719 L 22.386719 385.011719 C 21.992188 385.011719 21.609375 384.851562 21.328125 384.570312 C 21.050781 384.289062 20.890625 383.910156 20.890625 383.511719 L 20.890625 370.550781 C 20.890625 370.152344 21.050781 369.773438 21.328125 369.492188 C 21.609375 369.210938 21.992188 369.054688 22.386719 369.054688 Z M 22.386719 369.054688 " clip-rule="nonzero"/></clipPath><clipPath id="18122d8434"><path d="M 20.890625 397.390625 L 36.613281 397.390625 L 36.613281 413.113281 L 20.890625 413.113281 Z M 20.890625 397.390625 " clip-rule="nonzero"/></clipPath><clipPath id="e7334f0eac"><path d="M 22.386719 397.390625 L 35.351562 397.390625 C 35.75 397.390625 36.128906 397.546875 36.410156 397.828125 C 36.691406 398.109375 36.847656 398.492188 36.847656 398.886719 L 36.847656 411.851562 C 36.847656 412.246094 36.691406 412.628906 36.410156 412.910156 C 36.128906 413.191406 35.75 413.347656 35.351562 413.347656 L 22.386719 413.347656 C 21.992188 413.347656 21.609375 413.191406 21.328125 412.910156 C 21.050781 412.628906 20.890625 412.246094 20.890625 411.851562 L 20.890625 398.886719 C 20.890625 398.492188 21.050781 398.109375 21.328125 397.828125 C 21.609375 397.546875 21.992188 397.390625 22.386719 397.390625 Z M 22.386719 397.390625 " clip-rule="nonzero"/></clipPath><clipPath id="ac4464ed4a"><path d="M 20.890625 425.726562 L 36.613281 425.726562 L 36.613281 441.449219 L 20.890625 441.449219 Z M 20.890625 425.726562 " clip-rule="nonzero"/></clipPath><clipPath id="2d81dc5091"><path d="M 22.386719 425.726562 L 35.351562 425.726562 C 35.75 425.726562 36.128906 425.886719 36.410156 426.167969 C 36.691406 426.445312 36.847656 426.828125 36.847656 427.226562 L 36.847656 440.1875 C 36.847656 440.585938 36.691406 440.964844 36.410156 441.246094 C 36.128906 441.527344 35.75 441.683594 35.351562 441.683594 L 22.386719 441.683594 C 21.992188 441.683594 21.609375 441.527344 21.328125 441.246094 C 21.050781 440.964844 20.890625 440.585938 20.890625 440.1875 L 20.890625 427.226562 C 20.890625 426.828125 21.050781 426.445312 21.328125 426.167969 C 21.609375 425.886719 21.992188 425.726562 22.386719 425.726562 Z M 22.386719 425.726562 " clip-rule="nonzero"/></clipPath><clipPath id="c92e37b32f"><path d="M 20.890625 454.417969 L 36.613281 454.417969 L 36.613281 470.140625 L 20.890625 470.140625 Z M 20.890625 454.417969 " clip-rule="nonzero"/></clipPath><clipPath id="8e0cc0d840"><path d="M 22.386719 454.417969 L 35.351562 454.417969 C 35.75 454.417969 36.128906 454.574219 36.410156 454.855469 C 36.691406 455.136719 36.847656 455.515625 36.847656 455.914062 L 36.847656 468.875 C 36.847656 469.273438 36.691406 469.65625 36.410156 469.933594 C 36.128906 470.214844 35.75 470.375 35.351562 470.375 L 22.386719 470.375 C 21.992188 470.375 21.609375 470.214844 21.328125 469.933594 C 21.050781 469.65625 20.890625 469.273438 20.890625 468.875 L 20.890625 455.914062 C 20.890625 455.515625 21.050781 455.136719 21.328125 454.855469 C 21.609375 454.574219 21.992188 454.417969 22.386719 454.417969 Z M 22.386719 454.417969 " clip-rule="nonzero"/></clipPath><clipPath id="19f92734e9"><path d="M 20.890625 482.753906 L 36.613281 482.753906 L 36.613281 498.476562 L 20.890625 498.476562 Z M 20.890625 482.753906 " clip-rule="nonzero"/></clipPath><clipPath id="8737ab438d"><path d="M 22.386719 482.753906 L 35.351562 482.753906 C 35.75 482.753906 36.128906 482.910156 36.410156 483.191406 C 36.691406 483.472656 36.847656 483.855469 36.847656 484.25 L 36.847656 497.214844 C 36.847656 497.609375 36.691406 497.992188 36.410156 498.273438 C 36.128906 498.554688 35.75 498.710938 35.351562 498.710938 L 22.386719 498.710938 C 21.992188 498.710938 21.609375 498.554688 21.328125 498.273438 C 21.050781 497.992188 20.890625 497.609375 20.890625 497.214844 L 20.890625 484.25 C 20.890625 483.855469 21.050781 483.472656 21.328125 483.191406 C 21.609375 482.910156 21.992188 482.753906 22.386719 482.753906 Z M 22.386719 482.753906 " clip-rule="nonzero"/></clipPath><clipPath id="8f7c06c24a"><path d="M 20.890625 511.09375 L 36.613281 511.09375 L 36.613281 526.816406 L 20.890625 526.816406 Z M 20.890625 511.09375 " clip-rule="nonzero"/></clipPath><clipPath id="8966a042ef"><path d="M 22.386719 511.09375 L 35.351562 511.09375 C 35.75 511.09375 36.128906 511.25 36.410156 511.53125 C 36.691406 511.8125 36.847656 512.191406 36.847656 512.589844 L 36.847656 525.550781 C 36.847656 525.949219 36.691406 526.328125 36.410156 526.609375 C 36.128906 526.890625 35.75 527.046875 35.351562 527.046875 L 22.386719 527.046875 C 21.992188 527.046875 21.609375 526.890625 21.328125 526.609375 C 21.050781 526.328125 20.890625 525.949219 20.890625 525.550781 L 20.890625 512.589844 C 20.890625 512.191406 21.050781 511.8125 21.328125 511.53125 C 21.609375 511.25 21.992188 511.09375 22.386719 511.09375 Z M 22.386719 511.09375 " clip-rule="nonzero"/></clipPath><clipPath id="259404e103"><path d="M 20.890625 539.429688 L 36.613281 539.429688 L 36.613281 555.152344 L 20.890625 555.152344 Z M 20.890625 539.429688 " clip-rule="nonzero"/></clipPath><clipPath id="740e3dd785"><path d="M 22.386719 539.429688 L 35.351562 539.429688 C 35.75 539.429688 36.128906 539.585938 36.410156 539.867188 C 36.691406 540.148438 36.847656 540.53125 36.847656 540.925781 L 36.847656 553.890625 C 36.847656 554.285156 36.691406 554.667969 36.410156 554.949219 C 36.128906 555.230469 35.75 555.386719 35.351562 555.386719 L 22.386719 555.386719 C 21.992188 555.386719 21.609375 555.230469 21.328125 554.949219 C 21.050781 554.667969 20.890625 554.285156 20.890625 553.890625 L 20.890625 540.925781 C 20.890625 540.53125 21.050781 540.148438 21.328125 539.867188 C 21.609375 539.585938 21.992188 539.429688 22.386719 539.429688 Z M 22.386719 539.429688 " clip-rule="nonzero"/></clipPath><clipPath id="6e2f080efd"><path d="M 20.851562 567.042969 L 36.574219 567.042969 L 36.574219 584.265625 L 20.851562 584.265625 Z M 20.851562 567.042969 " clip-rule="nonzero"/></clipPath><clipPath id="25e6a6f6b1"><path d="M 22.351562 567.042969 L 35.3125 567.042969 C 35.707031 567.042969 36.089844 567.203125 36.371094 567.484375 C 36.652344 567.761719 36.808594 568.144531 36.808594 568.542969 L 36.808594 582.652344 C 36.808594 583.046875 36.652344 583.429688 36.371094 583.710938 C 36.089844 583.988281 35.707031 584.148438 35.3125 584.148438 L 22.351562 584.148438 C 21.953125 584.148438 21.570312 583.988281 21.292969 583.710938 C 21.011719 583.429688 20.851562 583.046875 20.851562 582.652344 L 20.851562 568.542969 C 20.851562 568.144531 21.011719 567.761719 21.292969 567.484375 C 21.570312 567.203125 21.953125 567.042969 22.351562 567.042969 Z M 22.351562 567.042969 " clip-rule="nonzero"/></clipPath><clipPath id="fc5671d6f7"><path d="M 20.851562 597.421875 L 36.574219 597.421875 L 36.574219 614.640625 L 20.851562 614.640625 Z M 20.851562 597.421875 " clip-rule="nonzero"/></clipPath><clipPath id="15324813cb"><path d="M 22.351562 597.421875 L 35.3125 597.421875 C 35.707031 597.421875 36.089844 597.578125 36.371094 597.859375 C 36.652344 598.140625 36.808594 598.519531 36.808594 598.917969 L 36.808594 613.027344 C 36.808594 613.425781 36.652344 613.804688 36.371094 614.085938 C 36.089844 614.367188 35.707031 614.523438 35.3125 614.523438 L 22.351562 614.523438 C 21.953125 614.523438 21.570312 614.367188 21.292969 614.085938 C 21.011719 613.804688 20.851562 613.425781 20.851562 613.027344 L 20.851562 598.917969 C 20.851562 598.519531 21.011719 598.140625 21.292969 597.859375 C 21.570312 597.578125 21.953125 597.421875 22.351562 597.421875 Z M 22.351562 597.421875 " clip-rule="nonzero"/></clipPath></defs><g clip-path="url(#78b2963340)"><path stroke-linecap="butt" transform="matrix(0.748716, 0, 0, 0.748716, 0.0801416, 0.577901)" fill="none" stroke-linejoin="miter" d="M 0.00252383 0.000299234 L 582.886016 0.000299234 L 582.886016 870.579539 L 0.00252383 870.579539 Z M 0.00252383 0.000299234 " stroke="#000000" stroke-width="4" stroke-opacity="1" stroke-miterlimit="4"/></g><g clip-path="url(#db2b5824bd)"><path stroke-linecap="butt" transform="matrix(0.748716, 0, 0, 0.748716, 0.00000000000004256, 75.384267)" fill="none" stroke-linejoin="miter" d="M -0.000000000000056843 0.999773 L 582.893964 0.999773 " stroke="#000000" stroke-width="2" stroke-opacity="1" stroke-miterlimit="4"/></g><g transform="matrix(1, 0, 0, 1, 151, 25)"><g clip-path="url(#b099025a80)"><g fill="#404040" fill-opacity="1"><g transform="translate(0.851782, 25.647595)"><g><path d="M 7.5 0 C 7.269531 0 7.082031 -0.0703125 6.9375 -0.21875 C 6.800781 -0.375 6.734375 -0.550781 6.734375 -0.75 L 6.734375 -16.578125 L 8.265625 -16.578125 L 8.265625 -0.75 C 8.265625 -0.550781 8.191406 -0.375 8.046875 -0.21875 C 7.898438 -0.0703125 7.71875 0 7.5 0 Z M 1.59375 -15.96875 C 1.394531 -15.96875 1.21875 -16.035156 1.0625 -16.171875 C 0.914062 -16.304688 0.84375 -16.476562 0.84375 -16.6875 C 0.84375 -16.894531 0.914062 -17.0625 1.0625 -17.1875 C 1.21875 -17.320312 1.394531 -17.390625 1.59375 -17.390625 L 13.421875 -17.390625 C 13.617188 -17.390625 13.789062 -17.320312 13.9375 -17.1875 C 14.082031 -17.0625 14.15625 -16.890625 14.15625 -16.671875 C 14.15625 -16.453125 14.082031 -16.28125 13.9375 -16.15625 C 13.789062 -16.03125 13.617188 -15.96875 13.421875 -15.96875 Z M 1.59375 -15.96875 "/></g></g></g><g fill="#404040" fill-opacity="1"><g transform="translate(15.854234, 25.647595)"><g><path d="M 17.84375 -8.6875 C 17.84375 -7.382812 17.640625 -6.191406 17.234375 -5.109375 C 16.828125 -4.023438 16.25 -3.078125 15.5 -2.265625 C 14.757812 -1.460938 13.878906 -0.84375 12.859375 -0.40625 C 11.835938 0.03125 10.722656 0.25 9.515625 0.25 C 8.304688 0.25 7.191406 0.03125 6.171875 -0.40625 C 5.148438 -0.84375 4.265625 -1.460938 3.515625 -2.265625 C 2.773438 -3.078125 2.203125 -4.023438 1.796875 -5.109375 C 1.390625 -6.191406 1.1875 -7.382812 1.1875 -8.6875 C 1.1875 -10 1.390625 -11.195312 1.796875 -12.28125 C 2.203125 -13.363281 2.773438 -14.304688 3.515625 -15.109375 C 4.265625 -15.921875 5.148438 -16.546875 6.171875 -16.984375 C 7.191406 -17.421875 8.304688 -17.640625 9.515625 -17.640625 C 10.722656 -17.640625 11.835938 -17.421875 12.859375 -16.984375 C 13.878906 -16.546875 14.757812 -15.921875 15.5 -15.109375 C 16.25 -14.304688 16.828125 -13.363281 17.234375 -12.28125 C 17.640625 -11.195312 17.84375 -10 17.84375 -8.6875 Z M 16.25 -8.6875 C 16.25 -10.164062 15.960938 -11.460938 15.390625 -12.578125 C 14.816406 -13.703125 14.023438 -14.578125 13.015625 -15.203125 C 12.003906 -15.828125 10.835938 -16.140625 9.515625 -16.140625 C 8.203125 -16.140625 7.035156 -15.828125 6.015625 -15.203125 C 5.003906 -14.578125 4.210938 -13.703125 3.640625 -12.578125 C 3.066406 -11.460938 2.78125 -10.164062 2.78125 -8.6875 C 2.78125 -7.21875 3.066406 -5.921875 3.640625 -4.796875 C 4.210938 -3.679688 5.003906 -2.804688 6.015625 -2.171875 C 7.035156 -1.546875 8.203125 -1.234375 9.515625 -1.234375 C 10.835938 -1.234375 12.003906 -1.546875 13.015625 -2.171875 C 14.023438 -2.804688 14.816406 -3.679688 15.390625 -4.796875 C 15.960938 -5.921875 16.25 -7.21875 16.25 -8.6875 Z M 16.25 -8.6875 "/></g></g></g><g fill="#404040" fill-opacity="1"><g transform="translate(34.880526, 25.647595)"><g/></g></g><g fill="#404040" fill-opacity="1"><g transform="translate(41.661435, 25.647595)"><g><path d="M 9.421875 -17.390625 C 10.640625 -17.390625 11.707031 -17.15625 12.625 -16.6875 C 13.550781 -16.226562 14.3125 -15.585938 14.90625 -14.765625 C 15.5 -13.953125 15.941406 -13.019531 16.234375 -11.96875 C 16.523438 -10.925781 16.671875 -9.832031 16.671875 -8.6875 C 16.671875 -7.101562 16.410156 -5.648438 15.890625 -4.328125 C 15.367188 -3.015625 14.570312 -1.960938 13.5 -1.171875 C 12.4375 -0.390625 11.078125 0 9.421875 0 L 3.078125 0 C 2.878906 0 2.703125 -0.0703125 2.546875 -0.21875 C 2.398438 -0.375 2.328125 -0.550781 2.328125 -0.75 L 2.328125 -16.640625 C 2.328125 -16.835938 2.398438 -17.007812 2.546875 -17.15625 C 2.703125 -17.3125 2.878906 -17.390625 3.078125 -17.390625 Z M 9.171875 -1.46875 C 10.578125 -1.46875 11.707031 -1.789062 12.5625 -2.4375 C 13.425781 -3.082031 14.0625 -3.953125 14.46875 -5.046875 C 14.875 -6.148438 15.078125 -7.363281 15.078125 -8.6875 C 15.078125 -9.65625 14.960938 -10.570312 14.734375 -11.4375 C 14.515625 -12.3125 14.171875 -13.082031 13.703125 -13.75 C 13.234375 -14.414062 12.617188 -14.941406 11.859375 -15.328125 C 11.109375 -15.722656 10.210938 -15.921875 9.171875 -15.921875 L 3.71875 -15.921875 L 3.90625 -16.140625 L 3.90625 -1.21875 L 3.75 -1.46875 Z M 9.171875 -1.46875 "/></g></g></g><g fill="#404040" fill-opacity="1"><g transform="translate(59.520317, 25.647595)"><g><path d="M 17.84375 -8.6875 C 17.84375 -7.382812 17.640625 -6.191406 17.234375 -5.109375 C 16.828125 -4.023438 16.25 -3.078125 15.5 -2.265625 C 14.757812 -1.460938 13.878906 -0.84375 12.859375 -0.40625 C 11.835938 0.03125 10.722656 0.25 9.515625 0.25 C 8.304688 0.25 7.191406 0.03125 6.171875 -0.40625 C 5.148438 -0.84375 4.265625 -1.460938 3.515625 -2.265625 C 2.773438 -3.078125 2.203125 -4.023438 1.796875 -5.109375 C 1.390625 -6.191406 1.1875 -7.382812 1.1875 -8.6875 C 1.1875 -10 1.390625 -11.195312 1.796875 -12.28125 C 2.203125 -13.363281 2.773438 -14.304688 3.515625 -15.109375 C 4.265625 -15.921875 5.148438 -16.546875 6.171875 -16.984375 C 7.191406 -17.421875 8.304688 -17.640625 9.515625 -17.640625 C 10.722656 -17.640625 11.835938 -17.421875 12.859375 -16.984375 C 13.878906 -16.546875 14.757812 -15.921875 15.5 -15.109375 C 16.25 -14.304688 16.828125 -13.363281 17.234375 -12.28125 C 17.640625 -11.195312 17.84375 -10 17.84375 -8.6875 Z M 16.25 -8.6875 C 16.25 -10.164062 15.960938 -11.460938 15.390625 -12.578125 C 14.816406 -13.703125 14.023438 -14.578125 13.015625 -15.203125 C 12.003906 -15.828125 10.835938 -16.140625 9.515625 -16.140625 C 8.203125 -16.140625 7.035156 -15.828125 6.015625 -15.203125 C 5.003906 -14.578125 4.210938 -13.703125 3.640625 -12.578125 C 3.066406 -11.460938 2.78125 -10.164062 2.78125 -8.6875 C 2.78125 -7.21875 3.066406 -5.921875 3.640625 -4.796875 C 4.210938 -3.679688 5.003906 -2.804688 6.015625 -2.171875 C 7.035156 -1.546875 8.203125 -1.234375 9.515625 -1.234375 C 10.835938 -1.234375 12.003906 -1.546875 13.015625 -2.171875 C 14.023438 -2.804688 14.816406 -3.679688 15.390625 -4.796875 C 15.960938 -5.921875 16.25 -7.21875 16.25 -8.6875 Z M 16.25 -8.6875 "/></g></g></g><g fill="#404040" fill-opacity="1"><g transform="translate(78.546609, 25.647595)"><g/></g></g><g fill="#404040" fill-opacity="1"><g transform="translate(85.327518, 25.647595)"><g><path d="M 11.953125 -1.46875 C 12.148438 -1.46875 12.320312 -1.394531 12.46875 -1.25 C 12.613281 -1.113281 12.6875 -0.945312 12.6875 -0.75 C 12.6875 -0.53125 12.613281 -0.347656 12.46875 -0.203125 C 12.320312 -0.0664062 12.148438 0 11.953125 0 L 3.078125 0 C 2.859375 0 2.675781 -0.0703125 2.53125 -0.21875 C 2.394531 -0.375 2.328125 -0.550781 2.328125 -0.75 L 2.328125 -16.640625 C 2.328125 -16.835938 2.398438 -17.007812 2.546875 -17.15625 C 2.703125 -17.3125 2.894531 -17.390625 3.125 -17.390625 C 3.320312 -17.390625 3.5 -17.3125 3.65625 -17.15625 C 3.820312 -17.007812 3.90625 -16.835938 3.90625 -16.640625 L 3.90625 -1.046875 L 3.421875 -1.46875 Z M 11.953125 -1.46875 "/></g></g></g><g fill="#404040" fill-opacity="1"><g transform="translate(98.541606, 25.647595)"><g><path d="M 3.90625 -0.765625 C 3.882812 -0.554688 3.796875 -0.375 3.640625 -0.21875 C 3.484375 -0.0703125 3.304688 0 3.109375 0 C 2.867188 0 2.675781 -0.0703125 2.53125 -0.21875 C 2.394531 -0.375 2.328125 -0.554688 2.328125 -0.765625 L 2.328125 -16.625 C 2.328125 -16.832031 2.398438 -17.007812 2.546875 -17.15625 C 2.703125 -17.3125 2.894531 -17.390625 3.125 -17.390625 C 3.320312 -17.390625 3.5 -17.3125 3.65625 -17.15625 C 3.820312 -17.007812 3.90625 -16.832031 3.90625 -16.625 Z M 3.90625 -0.765625 "/></g></g></g><g fill="#404040" fill-opacity="1"><g transform="translate(104.751226, 25.647595)"><g><path d="M 7.125 0.25 C 5.863281 0.257812 4.769531 0.0625 3.84375 -0.34375 C 2.914062 -0.757812 2.03125 -1.382812 1.1875 -2.21875 C 1.101562 -2.28125 1.03125 -2.359375 0.96875 -2.453125 C 0.914062 -2.554688 0.890625 -2.675781 0.890625 -2.8125 C 0.890625 -3.007812 0.96875 -3.191406 1.125 -3.359375 C 1.28125 -3.523438 1.460938 -3.609375 1.671875 -3.609375 C 1.867188 -3.609375 2.050781 -3.523438 2.21875 -3.359375 C 2.863281 -2.660156 3.59375 -2.128906 4.40625 -1.765625 C 5.226562 -1.398438 6.113281 -1.21875 7.0625 -1.21875 C 7.851562 -1.21875 8.554688 -1.34375 9.171875 -1.59375 C 9.796875 -1.84375 10.289062 -2.195312 10.65625 -2.65625 C 11.019531 -3.125 11.203125 -3.660156 11.203125 -4.265625 C 11.203125 -5.035156 10.992188 -5.65625 10.578125 -6.125 C 10.171875 -6.59375 9.625 -6.976562 8.9375 -7.28125 C 8.257812 -7.59375 7.507812 -7.875 6.6875 -8.125 C 6.007812 -8.320312 5.363281 -8.546875 4.75 -8.796875 C 4.132812 -9.054688 3.585938 -9.375 3.109375 -9.75 C 2.628906 -10.125 2.253906 -10.582031 1.984375 -11.125 C 1.722656 -11.675781 1.59375 -12.34375 1.59375 -13.125 C 1.59375 -14 1.820312 -14.773438 2.28125 -15.453125 C 2.75 -16.128906 3.410156 -16.660156 4.265625 -17.046875 C 5.117188 -17.441406 6.109375 -17.640625 7.234375 -17.640625 C 8.203125 -17.640625 9.140625 -17.472656 10.046875 -17.140625 C 10.953125 -16.804688 11.671875 -16.316406 12.203125 -15.671875 C 12.453125 -15.410156 12.578125 -15.171875 12.578125 -14.953125 C 12.578125 -14.785156 12.492188 -14.617188 12.328125 -14.453125 C 12.160156 -14.285156 11.976562 -14.203125 11.78125 -14.203125 C 11.613281 -14.203125 11.472656 -14.265625 11.359375 -14.390625 C 11.078125 -14.734375 10.71875 -15.039062 10.28125 -15.3125 C 9.851562 -15.582031 9.378906 -15.789062 8.859375 -15.9375 C 8.335938 -16.09375 7.796875 -16.171875 7.234375 -16.171875 C 6.453125 -16.171875 5.75 -16.050781 5.125 -15.8125 C 4.507812 -15.570312 4.019531 -15.226562 3.65625 -14.78125 C 3.300781 -14.332031 3.125 -13.796875 3.125 -13.171875 C 3.125 -12.472656 3.320312 -11.898438 3.71875 -11.453125 C 4.125 -11.003906 4.648438 -10.632812 5.296875 -10.34375 C 5.941406 -10.050781 6.628906 -9.785156 7.359375 -9.546875 C 8.066406 -9.335938 8.75 -9.101562 9.40625 -8.84375 C 10.0625 -8.59375 10.640625 -8.273438 11.140625 -7.890625 C 11.648438 -7.515625 12.046875 -7.035156 12.328125 -6.453125 C 12.617188 -5.878906 12.765625 -5.148438 12.765625 -4.265625 C 12.765625 -3.421875 12.523438 -2.660156 12.046875 -1.984375 C 11.566406 -1.304688 10.90625 -0.769531 10.0625 -0.375 C 9.226562 0.0195312 8.25 0.226562 7.125 0.25 Z M 7.125 0.25 "/></g></g></g><g fill="#404040" fill-opacity="1"><g transform="translate(118.710466, 25.647595)"><g><path d="M 7.5 0 C 7.269531 0 7.082031 -0.0703125 6.9375 -0.21875 C 6.800781 -0.375 6.734375 -0.550781 6.734375 -0.75 L 6.734375 -16.578125 L 8.265625 -16.578125 L 8.265625 -0.75 C 8.265625 -0.550781 8.191406 -0.375 8.046875 -0.21875 C 7.898438 -0.0703125 7.71875 0 7.5 0 Z M 1.59375 -15.96875 C 1.394531 -15.96875 1.21875 -16.035156 1.0625 -16.171875 C 0.914062 -16.304688 0.84375 -16.476562 0.84375 -16.6875 C 0.84375 -16.894531 0.914062 -17.0625 1.0625 -17.1875 C 1.21875 -17.320312 1.394531 -17.390625 1.59375 -17.390625 L 13.421875 -17.390625 C 13.617188 -17.390625 13.789062 -17.320312 13.9375 -17.1875 C 14.082031 -17.0625 14.15625 -16.890625 14.15625 -16.671875 C 14.15625 -16.453125 14.082031 -16.28125 13.9375 -16.15625 C 13.789062 -16.03125 13.617188 -15.96875 13.421875 -15.96875 Z M 1.59375 -15.96875 "/></g></g></g></g></g><path stroke-linecap="round" transform="matrix(0.748716, 0, 0, 0.748716, 44.328746, 126.27854)" fill="none" stroke-linejoin="miter" d="M 1.000886 1.000117 L 494.945661 1.000117 " stroke="#000000" stroke-width="2" stroke-opacity="1" stroke-miterlimit="4"/><path stroke-linecap="round" transform="matrix(0.748716, 0, 0, 0.748716, 44.328746, 154.615997)" fill="none" stroke-linejoin="miter" d="M 1.000886 0.998088 L 494.945661 0.998088 " stroke="#000000" stroke-width="2" stroke-opacity="1" stroke-miterlimit="4"/><path stroke-linecap="round" transform="matrix(0.748716, 0, 0, 0.748716, 44.328746, 182.953484)" fill="none" stroke-linejoin="miter" d="M 1.000886 1.001236 L 494.945661 1.001236 " stroke="#000000" stroke-width="2" stroke-opacity="1" stroke-miterlimit="4"/><path stroke-linecap="round" transform="matrix(0.748716, 0, 0, 0.748716, 44.328746, 211.29097)" fill="none" stroke-linejoin="miter" d="M 1.000886 0.999168 L 494.945661 0.999168 " stroke="#000000" stroke-width="2" stroke-opacity="1" stroke-miterlimit="4"/><g clip-path="url(#0e6a1ba457)"><g clip-path="url(#e50102c467)"><path stroke-linecap="butt" transform="matrix(0.748716, 0, 0, 0.748716, 20.852022, 111.734504)" fill="none" stroke-linejoin="miter" d="M 1.9976 -0.000171752 L 19.313711 -0.000171752 C 19.845873 -0.000171752 20.351948 0.208519 20.727591 0.584162 C 21.103234 0.959805 21.311925 1.471098 21.311925 1.998042 L 21.311925 19.314153 C 21.311925 19.841097 21.103234 20.352389 20.727591 20.728032 C 20.351948 21.103676 19.845873 21.312366 19.313711 21.312366 L 1.9976 21.312366 C 1.470656 21.312366 0.959364 21.103676 0.583721 20.728032 C 0.208078 20.352389 -0.000613142 19.841097 -0.000613142 19.314153 L -0.000613142 1.998042 C -0.000613142 1.471098 0.208078 0.959805 0.583721 0.584162 C 0.959364 0.208519 1.470656 -0.000171752 1.9976 -0.000171752 Z M 1.9976 -0.000171752 " stroke="#000000" stroke-width="4" stroke-opacity="1" stroke-miterlimit="4"/></g></g><g clip-path="url(#c5ec96e2e1)"><g clip-path="url(#f6831af75f)"><path stroke-linecap="butt" transform="matrix(0.748716, 0, 0, 0.748716, 20.852022, 140.071975)" fill="none" stroke-linejoin="miter" d="M 1.9976 -0.00222089 L 19.313711 -0.00222089 C 19.845873 -0.00222089 20.351948 0.211687 20.727591 0.58733 C 21.103234 0.962974 21.311925 1.469049 21.311925 2.00121 L 21.311925 19.312104 C 21.311925 19.844265 21.103234 20.35034 20.727591 20.725983 C 20.351948 21.101626 19.845873 21.310317 19.313711 21.310317 L 1.9976 21.310317 C 1.470656 21.310317 0.959364 21.101626 0.583721 20.725983 C 0.208078 20.35034 -0.000613142 19.844265 -0.000613142 19.312104 L -0.000613142 2.00121 C -0.000613142 1.469049 0.208078 0.962974 0.583721 0.58733 C 0.959364 0.211687 1.470656 -0.00222089 1.9976 -0.00222089 Z M 1.9976 -0.00222089 " stroke="#000000" stroke-width="4" stroke-opacity="1" stroke-miterlimit="4"/></g></g><g clip-path="url(#33c382f09b)"><g clip-path="url(#38e999a73c)"><path stroke-linecap="butt" transform="matrix(0.748716, 0, 0, 0.748716, 20.852022, 168.409447)" fill="none" stroke-linejoin="miter" d="M 1.9976 0.000947247 L 19.313711 0.000947247 C 19.845873 0.000947247 20.351948 0.209638 20.727591 0.585281 C 21.103234 0.960924 21.311925 1.466999 21.311925 1.999161 L 21.311925 19.315272 C 21.311925 19.842216 21.103234 20.353508 20.727591 20.729151 C 20.351948 21.099577 19.845873 21.313485 19.313711 21.313485 L 1.9976 21.313485 C 1.470656 21.313485 0.959364 21.099577 0.583721 20.729151 C 0.208078 20.353508 -0.000613142 19.842216 -0.000613142 19.315272 L -0.000613142 1.999161 C -0.000613142 1.466999 0.208078 0.960924 0.583721 0.585281 C 0.959364 0.209638 1.470656 0.000947247 1.9976 0.000947247 Z M 1.9976 0.000947247 " stroke="#000000" stroke-width="4" stroke-opacity="1" stroke-miterlimit="4"/></g></g><g clip-path="url(#d55aff3698)"><g clip-path="url(#496ffa3f21)"><path stroke-linecap="butt" transform="matrix(0.748716, 0, 0, 0.748716, 20.852022, 196.746933)" fill="none" stroke-linejoin="miter" d="M 1.9976 -0.00112109 L 19.313711 -0.00112109 C 19.845873 -0.00112109 20.351948 0.212787 20.727591 0.583213 C 21.103234 0.958856 21.311925 1.470148 21.311925 1.997092 L 21.311925 19.313203 C 21.311925 19.845365 21.103234 20.35144 20.727591 20.727083 C 20.351948 21.102726 19.845873 21.311417 19.313711 21.311417 L 1.9976 21.311417 C 1.470656 21.311417 0.959364 21.102726 0.583721 20.727083 C 0.208078 20.35144 -0.000613142 19.845365 -0.000613142 19.313203 L -0.000613142 1.997092 C -0.000613142 1.470148 0.208078 0.958856 0.583721 0.583213 C 0.959364 0.212787 1.470656 -0.00112109 1.9976 -0.00112109 Z M 1.9976 -0.00112109 " stroke="#000000" stroke-width="4" stroke-opacity="1" stroke-miterlimit="4"/></g></g><g clip-path="url(#e12711da60)"><g clip-path="url(#bb0176d48c)"><path stroke-linecap="butt" transform="matrix(0.748716, 0, 0, 0.748716, 20.852022, 225.435966)" fill="none" stroke-linejoin="miter" d="M 1.9976 0.0020491 L 19.313711 0.0020491 C 19.845873 0.0020491 20.351948 0.21074 20.727591 0.586383 C 21.103234 0.962026 21.311925 1.468101 21.311925 2.000263 L 21.311925 19.311156 C 21.311925 19.843318 21.103234 20.349393 20.727591 20.725036 C 20.351948 21.100679 19.845873 21.314587 19.313711 21.314587 L 1.9976 21.314587 C 1.470656 21.314587 0.959364 21.100679 0.583721 20.725036 C 0.208078 20.349393 -0.000613142 19.843318 -0.000613142 19.311156 L -0.000613142 2.000263 C -0.000613142 1.468101 0.208078 0.962026 0.583721 0.586383 C 0.959364 0.21074 1.470656 0.0020491 1.9976 0.0020491 Z M 1.9976 0.0020491 " stroke="#000000" stroke-width="4" stroke-opacity="1" stroke-miterlimit="4"/></g></g><g clip-path="url(#25d78adc98)"><g clip-path="url(#8a1ca1aaab)"><path stroke-linecap="butt" transform="matrix(0.748716, 0, 0, 0.748716, 20.852022, 253.773406)" fill="none" stroke-linejoin="miter" d="M 1.9976 0.0000415604 L 19.313711 0.0000415604 C 19.845873 0.0000415604 20.351948 0.208732 20.727591 0.584376 C 21.103234 0.960019 21.311925 1.471311 21.311925 1.998255 L 21.311925 19.314366 C 21.311925 19.84131 21.103234 20.352602 20.727591 20.728246 C 20.351948 21.103889 19.845873 21.31258 19.313711 21.31258 L 1.9976 21.31258 C 1.470656 21.31258 0.959364 21.103889 0.583721 20.728246 C 0.208078 20.352602 -0.000613142 19.84131 -0.000613142 19.314366 L -0.000613142 1.998255 C -0.000613142 1.471311 0.208078 0.960019 0.583721 0.584376 C 0.959364 0.208732 1.470656 0.0000415604 1.9976 0.0000415604 Z M 1.9976 0.0000415604 " stroke="#000000" stroke-width="4" stroke-opacity="1" stroke-miterlimit="4"/></g></g><g clip-path="url(#340bacca12)"><g clip-path="url(#52710e9623)"><path stroke-linecap="butt" transform="matrix(0.748716, 0, 0, 0.748716, 20.852022, 282.110924)" fill="none" stroke-linejoin="miter" d="M 1.9976 -0.00206837 L 19.313711 -0.00206837 C 19.845873 -0.00206837 20.351948 0.21184 20.727591 0.587483 C 21.103234 0.963126 21.311925 1.469201 21.311925 2.001362 L 21.311925 19.312256 C 21.311925 19.844417 21.103234 20.350492 20.727591 20.726136 C 20.351948 21.101779 19.845873 21.31047 19.313711 21.31047 L 1.9976 21.31047 C 1.470656 21.31047 0.959364 21.101779 0.583721 20.726136 C 0.208078 20.350492 -0.000613142 19.844417 -0.000613142 19.312256 L -0.000613142 2.001362 C -0.000613142 1.469201 0.208078 0.963126 0.583721 0.587483 C 0.959364 0.21184 1.470656 -0.00206837 1.9976 -0.00206837 Z M 1.9976 -0.00206837 " stroke="#000000" stroke-width="4" stroke-opacity="1" stroke-miterlimit="4"/></g></g><g clip-path="url(#f799130850)"><g clip-path="url(#c14047bf83)"><path stroke-linecap="butt" transform="matrix(0.748716, 0, 0, 0.748716, 20.852022, 310.448379)" fill="none" stroke-linejoin="miter" d="M 1.9976 0.00112216 L 19.313711 0.00112216 C 19.845873 0.00112216 20.351948 0.209813 20.727591 0.585456 C 21.103234 0.961099 21.311925 1.467174 21.311925 1.999336 L 21.311925 19.315447 C 21.311925 19.842391 21.103234 20.353683 20.727591 20.729326 C 20.351948 21.099752 19.845873 21.31366 19.313711 21.31366 L 1.9976 21.31366 C 1.470656 21.31366 0.959364 21.099752 0.583721 20.729326 C 0.208078 20.353683 -0.000613142 19.842391 -0.000613142 19.315447 L -0.000613142 1.999336 C -0.000613142 1.467174 0.208078 0.961099 0.583721 0.585456 C 0.959364 0.209813 1.470656 0.00112216 1.9976 0.00112216 Z M 1.9976 0.00112216 " stroke="#000000" stroke-width="4" stroke-opacity="1" stroke-miterlimit="4"/></g></g><path stroke-linecap="round" transform="matrix(0.748716, 0, 0, 0.748716, 44.328746, 239.979988)" fill="none" stroke-linejoin="miter" d="M 1.000886 1.002357 L 494.945661 1.002357 " stroke="#000000" stroke-width="2" stroke-opacity="1" stroke-miterlimit="4"/><path stroke-linecap="round" transform="matrix(0.748716, 0, 0, 0.748716, 44.328746, 268.317474)" fill="none" stroke-linejoin="miter" d="M 1.000886 1.000289 L 494.945661 1.000289 " stroke="#000000" stroke-width="2" stroke-opacity="1" stroke-miterlimit="4"/><path stroke-linecap="round" transform="matrix(0.748716, 0, 0, 0.748716, 44.328746, 296.654931)" fill="none" stroke-linejoin="miter" d="M 1.000886 0.998259 L 494.945661 0.998259 " stroke="#000000" stroke-width="2" stroke-opacity="1" stroke-miterlimit="4"/><path stroke-linecap="round" transform="matrix(0.748716, 0, 0, 0.748716, 44.328746, 324.992386)" fill="none" stroke-linejoin="miter" d="M 1.000886 1.00145 L 494.945661 1.00145 " stroke="#000000" stroke-width="2" stroke-opacity="1" stroke-miterlimit="4"/><path stroke-linecap="round" transform="matrix(0.748716, 0, 0, 0.748716, 44.36818, 355.259455)" fill="none" stroke-linejoin="miter" d="M 1.00039 0.999521 L 494.945165 0.999521 " stroke="#000000" stroke-width="2" stroke-opacity="1" stroke-miterlimit="4"/><path stroke-linecap="round" transform="matrix(0.748716, 0, 0, 0.748716, 44.36818, 383.59691)" fill="none" stroke-linejoin="miter" d="M 1.00039 0.997494 L 494.945165 0.997494 " stroke="#000000" stroke-width="2" stroke-opacity="1" stroke-miterlimit="4"/><path stroke-linecap="round" transform="matrix(0.748716, 0, 0, 0.748716, 44.36818, 411.934394)" fill="none" stroke-linejoin="miter" d="M 1.00039 1.000646 L 494.945165 1.000646 " stroke="#000000" stroke-width="2" stroke-opacity="1" stroke-miterlimit="4"/><path stroke-linecap="round" transform="matrix(0.748716, 0, 0, 0.748716, 44.36818, 440.271906)" fill="none" stroke-linejoin="miter" d="M 1.00039 0.998543 L 494.945165 0.998543 " stroke="#000000" stroke-width="2" stroke-opacity="1" stroke-miterlimit="4"/><g clip-path="url(#a52293f5a4)"><g clip-path="url(#9df855b32a)"><path stroke-linecap="butt" transform="matrix(0.748716, 0, 0, 0.748716, 20.891455, 340.715416)" fill="none" stroke-linejoin="miter" d="M 1.997105 -0.000764966 L 19.313216 -0.000764966 C 19.845377 -0.000764966 20.351452 0.213143 20.727095 0.583569 C 21.102738 0.959212 21.311429 1.470504 21.311429 1.997449 L 21.311429 19.31356 C 21.311429 19.845721 21.102738 20.351796 20.727095 20.727439 C 20.351452 21.103082 19.845377 21.311773 19.313216 21.311773 L 1.997105 21.311773 C 1.470161 21.311773 0.958868 21.103082 0.583225 20.727439 C 0.212799 20.351796 -0.00110895 19.845721 -0.00110895 19.31356 L -0.00110895 1.997449 C -0.00110895 1.470504 0.212799 0.959212 0.583225 0.583569 C 0.958868 0.213143 1.470161 -0.000764966 1.997105 -0.000764966 Z M 1.997105 -0.000764966 " stroke="#000000" stroke-width="4" stroke-opacity="1" stroke-miterlimit="4"/></g></g><g clip-path="url(#22c415539f)"><g clip-path="url(#1f2da5809a)"><path stroke-linecap="butt" transform="matrix(0.748716, 0, 0, 0.748716, 20.891455, 369.052903)" fill="none" stroke-linejoin="miter" d="M 1.997105 0.00238397 L 19.313216 0.00238397 C 19.845377 0.00238397 20.351452 0.211075 20.727095 0.586718 C 21.102738 0.962361 21.311429 1.468436 21.311429 2.000597 L 21.311429 19.311491 C 21.311429 19.843653 21.102738 20.349727 20.727095 20.725371 C 20.351452 21.101014 19.845377 21.314922 19.313216 21.314922 L 1.997105 21.314922 C 1.470161 21.314922 0.958868 21.101014 0.583225 20.725371 C 0.212799 20.349727 -0.00110895 19.843653 -0.00110895 19.311491 L -0.00110895 2.000597 C -0.00110895 1.468436 0.212799 0.962361 0.583225 0.586718 C 0.958868 0.211075 1.470161 0.00238397 1.997105 0.00238397 Z M 1.997105 0.00238397 " stroke="#000000" stroke-width="4" stroke-opacity="1" stroke-miterlimit="4"/></g></g><g clip-path="url(#18122d8434)"><g clip-path="url(#e7334f0eac)"><path stroke-linecap="butt" transform="matrix(0.748716, 0, 0, 0.748716, 20.891455, 397.390391)" fill="none" stroke-linejoin="miter" d="M 1.997105 0.000312432 L 19.313216 0.000312432 C 19.845377 0.000312432 20.351452 0.209003 20.727095 0.584646 C 21.102738 0.96029 21.311429 1.471582 21.311429 1.998526 L 21.311429 19.314637 C 21.311429 19.841581 21.102738 20.352873 20.727095 20.728516 C 20.351452 21.10416 19.845377 21.31285 19.313216 21.31285 L 1.997105 21.31285 C 1.470161 21.31285 0.958868 21.10416 0.583225 20.728516 C 0.212799 20.352873 -0.00110895 19.841581 -0.00110895 19.314637 L -0.00110895 1.998526 C -0.00110895 1.471582 0.212799 0.96029 0.583225 0.584646 C 0.958868 0.209003 1.470161 0.000312432 1.997105 0.000312432 Z M 1.997105 0.000312432 " stroke="#000000" stroke-width="4" stroke-opacity="1" stroke-miterlimit="4"/></g></g><g clip-path="url(#ac4464ed4a)"><g clip-path="url(#2d81dc5091)"><path stroke-linecap="butt" transform="matrix(0.748716, 0, 0, 0.748716, 20.891455, 425.727846)" fill="none" stroke-linejoin="miter" d="M 1.997105 -0.0017143 L 19.313216 -0.0017143 C 19.845377 -0.0017143 20.351452 0.212194 20.727095 0.587837 C 21.102738 0.958263 21.311429 1.469555 21.311429 2.001716 L 21.311429 19.31261 C 21.311429 19.844771 21.102738 20.350846 20.727095 20.72649 C 20.351452 21.102133 19.845377 21.310824 19.313216 21.310824 L 1.997105 21.310824 C 1.470161 21.310824 0.958868 21.102133 0.583225 20.72649 C 0.212799 20.350846 -0.00110895 19.844771 -0.00110895 19.31261 L -0.00110895 2.001716 C -0.00110895 1.469555 0.212799 0.958263 0.583225 0.587837 C 0.958868 0.212194 1.470161 -0.0017143 1.997105 -0.0017143 Z M 1.997105 -0.0017143 " stroke="#000000" stroke-width="4" stroke-opacity="1" stroke-miterlimit="4"/></g></g><g clip-path="url(#c92e37b32f)"><g clip-path="url(#8e0cc0d840)"><path stroke-linecap="butt" transform="matrix(0.748716, 0, 0, 0.748716, 20.891455, 454.416884)" fill="none" stroke-linejoin="miter" d="M 1.997105 0.00144948 L 19.313216 0.00144948 C 19.845377 0.00144948 20.351452 0.21014 20.727095 0.585783 C 21.102738 0.961427 21.311429 1.467502 21.311429 1.999663 L 21.311429 19.310557 C 21.311429 19.842718 21.102738 20.35401 20.727095 20.724436 C 20.351452 21.100079 19.845377 21.313987 19.313216 21.313987 L 1.997105 21.313987 C 1.470161 21.313987 0.958868 21.100079 0.583225 20.724436 C 0.212799 20.35401 -0.00110895 19.842718 -0.00110895 19.310557 L -0.00110895 1.999663 C -0.00110895 1.467502 0.212799 0.961427 0.583225 0.585783 C 0.958868 0.21014 1.470161 0.00144948 1.997105 0.00144948 Z M 1.997105 0.00144948 " stroke="#000000" stroke-width="4" stroke-opacity="1" stroke-miterlimit="4"/></g></g><g clip-path="url(#19f92734e9)"><g clip-path="url(#8737ab438d)"><path stroke-linecap="butt" transform="matrix(0.748716, 0, 0, 0.748716, 20.891455, 482.754324)" fill="none" stroke-linejoin="miter" d="M 1.997105 -0.000558054 L 19.313216 -0.000558054 C 19.845377 -0.000558054 20.351452 0.208133 20.727095 0.583776 C 21.102738 0.959419 21.311429 1.470711 21.311429 1.997655 L 21.311429 19.313766 C 21.311429 19.84071 21.102738 20.352003 20.727095 20.727646 C 20.351452 21.103289 19.845377 21.31198 19.313216 21.31198 L 1.997105 21.31198 C 1.470161 21.31198 0.958868 21.103289 0.583225 20.727646 C 0.212799 20.352003 -0.00110895 19.84071 -0.00110895 19.313766 L -0.00110895 1.997655 C -0.00110895 1.470711 0.212799 0.959419 0.583225 0.583776 C 0.958868 0.208133 1.470161 -0.000558054 1.997105 -0.000558054 Z M 1.997105 -0.000558054 " stroke="#000000" stroke-width="4" stroke-opacity="1" stroke-miterlimit="4"/></g></g><g clip-path="url(#8f7c06c24a)"><g clip-path="url(#8966a042ef)"><path stroke-linecap="butt" transform="matrix(0.748716, 0, 0, 0.748716, 20.891455, 511.091813)" fill="none" stroke-linejoin="miter" d="M 1.997105 0.00258768 L 19.313216 0.00258768 C 19.845377 0.00258768 20.351452 0.211278 20.727095 0.586922 C 21.102738 0.962565 21.311429 1.46864 21.311429 2.000801 L 21.311429 19.311695 C 21.311429 19.843856 21.102738 20.349931 20.727095 20.725574 C 20.351452 21.101218 19.845377 21.309908 19.313216 21.309908 L 1.997105 21.309908 C 1.470161 21.309908 0.958868 21.101218 0.583225 20.725574 C 0.212799 20.349931 -0.00110895 19.843856 -0.00110895 19.311695 L -0.00110895 2.000801 C -0.00110895 1.46864 0.212799 0.962565 0.583225 0.586922 C 0.958868 0.211278 1.470161 0.00258768 1.997105 0.00258768 Z M 1.997105 0.00258768 " stroke="#000000" stroke-width="4" stroke-opacity="1" stroke-miterlimit="4"/></g></g><g clip-path="url(#259404e103)"><g clip-path="url(#740e3dd785)"><path stroke-linecap="butt" transform="matrix(0.748716, 0, 0, 0.748716, 20.891455, 539.429301)" fill="none" stroke-linejoin="miter" d="M 1.997105 0.000516144 L 19.313216 0.000516144 C 19.845377 0.000516144 20.351452 0.209207 20.727095 0.58485 C 21.102738 0.960493 21.311429 1.471786 21.311429 1.99873 L 21.311429 19.314841 C 21.311429 19.841785 21.102738 20.353077 20.727095 20.72872 C 20.351452 21.104363 19.845377 21.313054 19.313216 21.313054 L 1.997105 21.313054 C 1.470161 21.313054 0.958868 21.104363 0.583225 20.72872 C 0.212799 20.353077 -0.00110895 19.841785 -0.00110895 19.314841 L -0.00110895 1.99873 C -0.00110895 1.471786 0.212799 0.960493 0.583225 0.58485 C 0.958868 0.209207 1.470161 0.000516144 1.997105 0.000516144 Z M 1.997105 0.000516144 " stroke="#000000" stroke-width="4" stroke-opacity="1" stroke-miterlimit="4"/></g></g><path stroke-linecap="round" transform="matrix(0.748716, 0, 0, 0.748716, 44.36818, 468.96092)" fill="none" stroke-linejoin="miter" d="M 1.00039 1.001739 L 494.945165 1.001739 " stroke="#000000" stroke-width="2" stroke-opacity="1" stroke-miterlimit="4"/><path stroke-linecap="round" transform="matrix(0.748716, 0, 0, 0.748716, 44.36818, 497.298385)" fill="none" stroke-linejoin="miter" d="M 1.00039 0.999699 L 494.945165 0.999699 " stroke="#000000" stroke-width="2" stroke-opacity="1" stroke-miterlimit="4"/><path stroke-linecap="round" transform="matrix(0.748716, 0, 0, 0.748716, 44.36818, 525.635801)" fill="none" stroke-linejoin="miter" d="M 1.00039 0.997724 L 494.945165 0.997724 " stroke="#000000" stroke-width="2" stroke-opacity="1" stroke-miterlimit="4"/><path stroke-linecap="round" transform="matrix(0.748716, 0, 0, 0.748716, 44.36818, 553.973338)" fill="none" stroke-linejoin="miter" d="M 1.00039 1.000805 L 494.945165 1.000805 " stroke="#000000" stroke-width="2" stroke-opacity="1" stroke-miterlimit="4"/><path stroke-linecap="round" transform="matrix(0.748716, 0, 0, 0.748716, 44.328746, 582.688586)" fill="none" stroke-linejoin="miter" d="M 1.000886 1.000265 L 494.945661 1.000265 " stroke="#000000" stroke-width="2" stroke-opacity="1" stroke-miterlimit="4"/><path stroke-linecap="round" transform="matrix(0.748716, 0, 0, 0.748716, 44.328746, 613.06469)" fill="none" stroke-linejoin="miter" d="M 1.000886 0.998791 L 494.945661 0.998791 " stroke="#000000" stroke-width="2" stroke-opacity="1" stroke-miterlimit="4"/><g clip-path="url(#6e2f080efd)"><g clip-path="url(#25e6a6f6b1)"><path stroke-linecap="butt" transform="matrix(0.748716, 0, 0, 0.748716, 20.852722, 567.044333)" fill="none" stroke-linejoin="miter" d="M 2.001882 -0.00182183 L 19.312774 -0.00182183 C 19.839717 -0.00182183 20.35101 0.212086 20.726653 0.587729 C 21.102296 0.958155 21.310987 1.469447 21.310987 2.001609 L 21.310987 20.846377 C 21.310987 21.373321 21.102296 21.884613 20.726653 22.260256 C 20.35101 22.630682 19.839717 22.84459 19.312774 22.84459 L 2.001882 22.84459 C 1.469721 22.84459 0.958429 22.630682 0.588003 22.260256 C 0.212359 21.884613 -0.0015485 21.373321 -0.0015485 20.846377 L -0.0015485 2.001609 C -0.0015485 1.469447 0.212359 0.958155 0.588003 0.587729 C 0.958429 0.212086 1.469721 -0.00182183 2.001882 -0.00182183 Z M 2.001882 -0.00182183 " stroke="#000000" stroke-width="4" stroke-opacity="1" stroke-miterlimit="4"/></g></g><g clip-path="url(#fc5671d6f7)"><g clip-path="url(#15324813cb)"><path stroke-linecap="butt" transform="matrix(0.748716, 0, 0, 0.748716, 20.852722, 597.420508)" fill="none" stroke-linejoin="miter" d="M 2.001882 0.0018254 L 19.312774 0.0018254 C 19.839717 0.0018254 20.35101 0.210516 20.726653 0.586159 C 21.102296 0.961803 21.310987 1.467877 21.310987 2.000039 L 21.310987 20.844807 C 21.310987 21.376968 21.102296 21.883043 20.726653 22.258686 C 20.35101 22.634329 19.839717 22.84302 19.312774 22.84302 L 2.001882 22.84302 C 1.469721 22.84302 0.958429 22.634329 0.588003 22.258686 C 0.212359 21.883043 -0.0015485 21.376968 -0.0015485 20.844807 L -0.0015485 2.000039 C -0.0015485 1.467877 0.212359 0.961803 0.588003 0.586159 C 0.958429 0.210516 1.469721 0.0018254 2.001882 0.0018254 Z M 2.001882 0.0018254 " stroke="#000000" stroke-width="4" stroke-opacity="1" stroke-miterlimit="4"/></g></g></svg>