<svg xmlns="http://www.w3.org/2000/svg" xmlns:xlink="http://www.w3.org/1999/xlink" width="583" zoomAndPan="magnify" viewBox="0 0 437.25 674.99998" height="900" preserveAspectRatio="xMidYMid meet" version="1.0"><defs><g/><clipPath id="f9c96fcb08"><path d="M 0 0.578125 L 436.5 0.578125 L 436.5 674.421875 L 0 674.421875 Z M 0 0.578125 " clip-rule="nonzero"/></clipPath><clipPath id="38da7c403f"><path d="M 0 337 L 436.5 337 L 436.5 339 L 0 339 Z M 0 337 " clip-rule="nonzero"/></clipPath><clipPath id="6d3eeef77b"><path d="M 20.851562 89.132812 L 36.574219 89.132812 L 36.574219 104.855469 L 20.851562 104.855469 Z M 20.851562 89.132812 " clip-rule="nonzero"/></clipPath><clipPath id="0d49f085ff"><path d="M 22.347656 89.132812 L 35.3125 89.132812 C 35.710938 89.132812 36.089844 89.289062 36.371094 89.570312 C 36.652344 89.851562 36.808594 90.234375 36.808594 90.628906 L 36.808594 103.59375 C 36.808594 103.988281 36.652344 104.371094 36.371094 104.652344 C 36.089844 104.933594 35.710938 105.089844 35.3125 105.089844 L 22.347656 105.089844 C 21.953125 105.089844 21.570312 104.933594 21.289062 104.652344 C 21.007812 104.371094 20.851562 103.988281 20.851562 103.59375 L 20.851562 90.628906 C 20.851562 90.234375 21.007812 89.851562 21.289062 89.570312 C 21.570312 89.289062 21.953125 89.132812 22.347656 89.132812 Z M 22.347656 89.132812 " clip-rule="nonzero"/></clipPath><clipPath id="fb0b459d96"><path d="M 20.851562 117.46875 L 36.574219 117.46875 L 36.574219 133.195312 L 20.851562 133.195312 Z M 20.851562 117.46875 " clip-rule="nonzero"/></clipPath><clipPath id="6dc7139181"><path d="M 22.347656 117.46875 L 35.3125 117.46875 C 35.710938 117.46875 36.089844 117.628906 36.371094 117.910156 C 36.652344 118.191406 36.808594 118.570312 36.808594 118.96875 L 36.808594 131.929688 C 36.808594 132.328125 36.652344 132.707031 36.371094 132.988281 C 36.089844 133.269531 35.710938 133.425781 35.3125 133.425781 L 22.347656 133.425781 C 21.953125 133.425781 21.570312 133.269531 21.289062 132.988281 C 21.007812 132.707031 20.851562 132.328125 20.851562 131.929688 L 20.851562 118.96875 C 20.851562 118.570312 21.007812 118.191406 21.289062 117.910156 C 21.570312 117.628906 21.953125 117.46875 22.347656 117.46875 Z M 22.347656 117.46875 " clip-rule="nonzero"/></clipPath><clipPath id="66fda31bd0"><path d="M 20.851562 145.808594 L 36.574219 145.808594 L 36.574219 161.53125 L 20.851562 161.53125 Z M 20.851562 145.808594 " clip-rule="nonzero"/></clipPath><clipPath id="2e9e018bd9"><path d="M 22.347656 145.808594 L 35.3125 145.808594 C 35.710938 145.808594 36.089844 145.964844 36.371094 146.246094 C 36.652344 146.527344 36.808594 146.90625 36.808594 147.304688 L 36.808594 160.269531 C 36.808594 160.664062 36.652344 161.046875 36.371094 161.328125 C 36.089844 161.605469 35.710938 161.765625 35.3125 161.765625 L 22.347656 161.765625 C 21.953125 161.765625 21.570312 161.605469 21.289062 161.328125 C 21.007812 161.046875 20.851562 160.664062 20.851562 160.269531 L 20.851562 147.304688 C 20.851562 146.90625 21.007812 146.527344 21.289062 146.246094 C 21.570312 145.964844 21.953125 145.808594 22.347656 145.808594 Z M 22.347656 145.808594 " clip-rule="nonzero"/></clipPath><clipPath id="1e3a3228b2"><path d="M 20.851562 174.144531 L 36.574219 174.144531 L 36.574219 189.867188 L 20.851562 189.867188 Z M 20.851562 174.144531 " clip-rule="nonzero"/></clipPath><clipPath id="82953bd4d8"><path d="M 22.347656 174.144531 L 35.3125 174.144531 C 35.710938 174.144531 36.089844 174.304688 36.371094 174.582031 C 36.652344 174.863281 36.808594 175.246094 36.808594 175.640625 L 36.808594 188.605469 C 36.808594 189.003906 36.652344 189.382812 36.371094 189.664062 C 36.089844 189.945312 35.710938 190.101562 35.3125 190.101562 L 22.347656 190.101562 C 21.953125 190.101562 21.570312 189.945312 21.289062 189.664062 C 21.007812 189.382812 20.851562 189.003906 20.851562 188.605469 L 20.851562 175.640625 C 20.851562 175.246094 21.007812 174.863281 21.289062 174.582031 C 21.570312 174.304688 21.953125 174.144531 22.347656 174.144531 Z M 22.347656 174.144531 " clip-rule="nonzero"/></clipPath><clipPath id="6abf50188d"><path d="M 20.851562 202.835938 L 36.574219 202.835938 L 36.574219 218.558594 L 20.851562 218.558594 Z M 20.851562 202.835938 " clip-rule="nonzero"/></clipPath><clipPath id="17537d6105"><path d="M 22.347656 202.835938 L 35.3125 202.835938 C 35.710938 202.835938 36.089844 202.992188 36.371094 203.273438 C 36.652344 203.554688 36.808594 203.933594 36.808594 204.332031 L 36.808594 217.292969 C 36.808594 217.691406 36.652344 218.070312 36.371094 218.351562 C 36.089844 218.632812 35.710938 218.792969 35.3125 218.792969 L 22.347656 218.792969 C 21.953125 218.792969 21.570312 218.632812 21.289062 218.351562 C 21.007812 218.070312 20.851562 217.691406 20.851562 217.292969 L 20.851562 204.332031 C 20.851562 203.933594 21.007812 203.554688 21.289062 203.273438 C 21.570312 202.992188 21.953125 202.835938 22.347656 202.835938 Z M 22.347656 202.835938 " clip-rule="nonzero"/></clipPath><clipPath id="54d9b18c5a"><path d="M 20.851562 231.171875 L 36.574219 231.171875 L 36.574219 246.894531 L 20.851562 246.894531 Z M 20.851562 231.171875 " clip-rule="nonzero"/></clipPath><clipPath id="284cfaf785"><path d="M 22.347656 231.171875 L 35.3125 231.171875 C 35.710938 231.171875 36.089844 231.328125 36.371094 231.609375 C 36.652344 231.890625 36.808594 232.273438 36.808594 232.667969 L 36.808594 245.632812 C 36.808594 246.027344 36.652344 246.410156 36.371094 246.691406 C 36.089844 246.972656 35.710938 247.128906 35.3125 247.128906 L 22.347656 247.128906 C 21.953125 247.128906 21.570312 246.972656 21.289062 246.691406 C 21.007812 246.410156 20.851562 246.027344 20.851562 245.632812 L 20.851562 232.667969 C 20.851562 232.273438 21.007812 231.890625 21.289062 231.609375 C 21.570312 231.328125 21.953125 231.171875 22.347656 231.171875 Z M 22.347656 231.171875 " clip-rule="nonzero"/></clipPath><clipPath id="bb4622a175"><path d="M 20.851562 259.507812 L 36.574219 259.507812 L 36.574219 275.234375 L 20.851562 275.234375 Z M 20.851562 259.507812 " clip-rule="nonzero"/></clipPath><clipPath id="afaae72b22"><path d="M 22.347656 259.507812 L 35.3125 259.507812 C 35.710938 259.507812 36.089844 259.667969 36.371094 259.949219 C 36.652344 260.230469 36.808594 260.609375 36.808594 261.007812 L 36.808594 273.96875 C 36.808594 274.367188 36.652344 274.746094 36.371094 275.027344 C 36.089844 275.308594 35.710938 275.464844 35.3125 275.464844 L 22.347656 275.464844 C 21.953125 275.464844 21.570312 275.308594 21.289062 275.027344 C 21.007812 274.746094 20.851562 274.367188 20.851562 273.96875 L 20.851562 261.007812 C 20.851562 260.609375 21.007812 260.230469 21.289062 259.949219 C 21.570312 259.667969 21.953125 259.507812 22.347656 259.507812 Z M 22.347656 259.507812 " clip-rule="nonzero"/></clipPath><clipPath id="39d0541755"><path d="M 20.851562 287.847656 L 36.574219 287.847656 L 36.574219 303.570312 L 20.851562 303.570312 Z M 20.851562 287.847656 " clip-rule="nonzero"/></clipPath><clipPath id="d31e1c3c53"><path d="M 22.347656 287.847656 L 35.3125 287.847656 C 35.710938 287.847656 36.089844 288.003906 36.371094 288.285156 C 36.652344 288.566406 36.808594 288.945312 36.808594 289.34375 L 36.808594 302.308594 C 36.808594 302.703125 36.652344 303.085938 36.371094 303.367188 C 36.089844 303.644531 35.710938 303.804688 35.3125 303.804688 L 22.347656 303.804688 C 21.953125 303.804688 21.570312 303.644531 21.289062 303.367188 C 21.007812 303.085938 20.851562 302.703125 20.851562 302.308594 L 20.851562 289.34375 C 20.851562 288.945312 21.007812 288.566406 21.289062 288.285156 C 21.570312 288.003906 21.953125 287.847656 22.347656 287.847656 Z M 22.347656 287.847656 " clip-rule="nonzero"/></clipPath><clipPath id="109f47f27b"><path d="M 20.851562 423.414062 L 36.574219 423.414062 L 36.574219 439.140625 L 20.851562 439.140625 Z M 20.851562 423.414062 " clip-rule="nonzero"/></clipPath><clipPath id="b3f5a9e585"><path d="M 22.347656 423.414062 L 35.3125 423.414062 C 35.710938 423.414062 36.089844 423.574219 36.371094 423.855469 C 36.652344 424.136719 36.808594 424.515625 36.808594 424.914062 L 36.808594 437.875 C 36.808594 438.273438 36.652344 438.652344 36.371094 438.933594 C 36.089844 439.214844 35.710938 439.371094 35.3125 439.371094 L 22.347656 439.371094 C 21.953125 439.371094 21.570312 439.214844 21.289062 438.933594 C 21.007812 438.652344 20.851562 438.273438 20.851562 437.875 L 20.851562 424.914062 C 20.851562 424.515625 21.007812 424.136719 21.289062 423.855469 C 21.570312 423.574219 21.953125 423.414062 22.347656 423.414062 Z M 22.347656 423.414062 " clip-rule="nonzero"/></clipPath><clipPath id="5acc22e054"><path d="M 20.851562 451.753906 L 36.574219 451.753906 L 36.574219 467.476562 L 20.851562 467.476562 Z M 20.851562 451.753906 " clip-rule="nonzero"/></clipPath><clipPath id="01547a992b"><path d="M 22.347656 451.753906 L 35.3125 451.753906 C 35.710938 451.753906 36.089844 451.910156 36.371094 452.191406 C 36.652344 452.472656 36.808594 452.851562 36.808594 453.25 L 36.808594 466.214844 C 36.808594 466.609375 36.652344 466.992188 36.371094 467.273438 C 36.089844 467.550781 35.710938 467.710938 35.3125 467.710938 L 22.347656 467.710938 C 21.953125 467.710938 21.570312 467.550781 21.289062 467.273438 C 21.007812 466.992188 20.851562 466.609375 20.851562 466.214844 L 20.851562 453.25 C 20.851562 452.851562 21.007812 452.472656 21.289062 452.191406 C 21.570312 451.910156 21.953125 451.753906 22.347656 451.753906 Z M 22.347656 451.753906 " clip-rule="nonzero"/></clipPath><clipPath id="136472a757"><path d="M 20.851562 480.089844 L 36.574219 480.089844 L 36.574219 495.8125 L 20.851562 495.8125 Z M 20.851562 480.089844 " clip-rule="nonzero"/></clipPath><clipPath id="f8a4a0889f"><path d="M 22.347656 480.089844 L 35.3125 480.089844 C 35.710938 480.089844 36.089844 480.25 36.371094 480.527344 C 36.652344 480.808594 36.808594 481.191406 36.808594 481.585938 L 36.808594 494.550781 C 36.808594 494.949219 36.652344 495.328125 36.371094 495.609375 C 36.089844 495.890625 35.710938 496.046875 35.3125 496.046875 L 22.347656 496.046875 C 21.953125 496.046875 21.570312 495.890625 21.289062 495.609375 C 21.007812 495.328125 20.851562 494.949219 20.851562 494.550781 L 20.851562 481.585938 C 20.851562 481.191406 21.007812 480.808594 21.289062 480.527344 C 21.570312 480.25 21.953125 480.089844 22.347656 480.089844 Z M 22.347656 480.089844 " clip-rule="nonzero"/></clipPath><clipPath id="9c2c163c11"><path d="M 20.851562 508.429688 L 36.574219 508.429688 L 36.574219 524.152344 L 20.851562 524.152344 Z M 20.851562 508.429688 " clip-rule="nonzero"/></clipPath><clipPath id="74a5838c84"><path d="M 22.347656 508.429688 L 35.3125 508.429688 C 35.710938 508.429688 36.089844 508.585938 36.371094 508.867188 C 36.652344 509.148438 36.808594 509.527344 36.808594 509.925781 L 36.808594 522.886719 C 36.808594 523.285156 36.652344 523.664062 36.371094 523.945312 C 36.089844 524.226562 35.710938 524.386719 35.3125 524.386719 L 22.347656 524.386719 C 21.953125 524.386719 21.570312 524.226562 21.289062 523.945312 C 21.007812 523.664062 20.851562 523.285156 20.851562 522.886719 L 20.851562 509.925781 C 20.851562 509.527344 21.007812 509.148438 21.289062 508.867188 C 21.570312 508.585938 21.953125 508.429688 22.347656 508.429688 Z M 22.347656 508.429688 " clip-rule="nonzero"/></clipPath><clipPath id="df1e8421af"><path d="M 20.851562 537.117188 L 36.574219 537.117188 L 36.574219 552.839844 L 20.851562 552.839844 Z M 20.851562 537.117188 " clip-rule="nonzero"/></clipPath><clipPath id="0b5c8031d9"><path d="M 22.347656 537.117188 L 35.3125 537.117188 C 35.710938 537.117188 36.089844 537.273438 36.371094 537.554688 C 36.652344 537.835938 36.808594 538.21875 36.808594 538.613281 L 36.808594 551.578125 C 36.808594 551.972656 36.652344 552.355469 36.371094 552.636719 C 36.089844 552.917969 35.710938 553.074219 35.3125 553.074219 L 22.347656 553.074219 C 21.953125 553.074219 21.570312 552.917969 21.289062 552.636719 C 21.007812 552.355469 20.851562 551.972656 20.851562 551.578125 L 20.851562 538.613281 C 20.851562 538.21875 21.007812 537.835938 21.289062 537.554688 C 21.570312 537.273438 21.953125 537.117188 22.347656 537.117188 Z M 22.347656 537.117188 " clip-rule="nonzero"/></clipPath><clipPath id="f9ddf25727"><path d="M 20.851562 565.453125 L 36.574219 565.453125 L 36.574219 581.175781 L 20.851562 581.175781 Z M 20.851562 565.453125 " clip-rule="nonzero"/></clipPath><clipPath id="e1f025f074"><path d="M 22.347656 565.453125 L 35.3125 565.453125 C 35.710938 565.453125 36.089844 565.613281 36.371094 565.894531 C 36.652344 566.175781 36.808594 566.554688 36.808594 566.953125 L 36.808594 579.914062 C 36.808594 580.3125 36.652344 580.691406 36.371094 580.972656 C 36.089844 581.253906 35.710938 581.410156 35.3125 581.410156 L 22.347656 581.410156 C 21.953125 581.410156 21.570312 581.253906 21.289062 580.972656 C 21.007812 580.691406 20.851562 580.3125 20.851562 579.914062 L 20.851562 566.953125 C 20.851562 566.554688 21.007812 566.175781 21.289062 565.894531 C 21.570312 565.613281 21.953125 565.453125 22.347656 565.453125 Z M 22.347656 565.453125 " clip-rule="nonzero"/></clipPath><clipPath id="ad0568724e"><path d="M 20.851562 593.792969 L 36.574219 593.792969 L 36.574219 609.515625 L 20.851562 609.515625 Z M 20.851562 593.792969 " clip-rule="nonzero"/></clipPath><clipPath id="c16138c573"><path d="M 22.347656 593.792969 L 35.3125 593.792969 C 35.710938 593.792969 36.089844 593.949219 36.371094 594.230469 C 36.652344 594.511719 36.808594 594.890625 36.808594 595.289062 L 36.808594 608.253906 C 36.808594 608.648438 36.652344 609.03125 36.371094 609.3125 C 36.089844 609.589844 35.710938 609.75 35.3125 609.75 L 22.347656 609.75 C 21.953125 609.75 21.570312 609.589844 21.289062 609.3125 C 21.007812 609.03125 20.851562 608.648438 20.851562 608.253906 L 20.851562 595.289062 C 20.851562 594.890625 21.007812 594.511719 21.289062 594.230469 C 21.570312 593.949219 21.953125 593.792969 22.347656 593.792969 Z M 22.347656 593.792969 " clip-rule="nonzero"/></clipPath><clipPath id="468d1c2781"><path d="M 20.851562 622.128906 L 36.574219 622.128906 L 36.574219 637.851562 L 20.851562 637.851562 Z M 20.851562 622.128906 " clip-rule="nonzero"/></clipPath><clipPath id="184f84417a"><path d="M 22.347656 622.128906 L 35.3125 622.128906 C 35.710938 622.128906 36.089844 622.289062 36.371094 622.566406 C 36.652344 622.847656 36.808594 623.230469 36.808594 623.625 L 36.808594 636.589844 C 36.808594 636.988281 36.652344 637.367188 36.371094 637.648438 C 36.089844 637.929688 35.710938 638.085938 35.3125 638.085938 L 22.347656 638.085938 C 21.953125 638.085938 21.570312 637.929688 21.289062 637.648438 C 21.007812 637.367188 20.851562 636.988281 20.851562 636.589844 L 20.851562 623.625 C 20.851562 623.230469 21.007812 622.847656 21.289062 622.566406 C 21.570312 622.289062 21.953125 622.128906 22.347656 622.128906 Z M 22.347656 622.128906 " clip-rule="nonzero"/></clipPath></defs><g clip-path="url(#f9c96fcb08)"><path stroke-linecap="butt" transform="matrix(0.748716, 0, 0, 0.748716, 0.0000107539, 0.577901)" fill="none" stroke-linejoin="miter" d="M -0.0000143631 0.000299234 L 582.998257 0.000299234 L 582.998257 899.999707 L -0.0000143631 899.999707 Z M -0.0000143631 0.000299234 " stroke="#000000" stroke-width="6" stroke-opacity="1" stroke-miterlimit="4"/></g><g clip-path="url(#38da7c403f)"><path stroke-linecap="butt" transform="matrix(0.748716, 0.000000000000000067, -0.000000000000000067, 0.748716, 0, 337.499976)" fill="none" stroke-linejoin="miter" d="M 0.00000000000000009 1.001747 L 631.007602 1.001747 " stroke="#000000" stroke-width="2" stroke-opacity="1" stroke-miterlimit="4"/></g><g fill="#404040" fill-opacity="1"><g transform="translate(28.538075, 52.838726)"><g><path d="M 7.5 0 C 7.269531 0 7.082031 -0.0703125 6.9375 -0.21875 C 6.800781 -0.375 6.734375 -0.550781 6.734375 -0.75 L 6.734375 -16.578125 L 8.265625 -16.578125 L 8.265625 -0.75 C 8.265625 -0.550781 8.191406 -0.375 8.046875 -0.21875 C 7.898438 -0.0703125 7.71875 0 7.5 0 Z M 1.59375 -15.96875 C 1.394531 -15.96875 1.21875 -16.035156 1.0625 -16.171875 C 0.914062 -16.304688 0.84375 -16.476562 0.84375 -16.6875 C 0.84375 -16.894531 0.914062 -17.0625 1.0625 -17.1875 C 1.21875 -17.320312 1.394531 -17.390625 1.59375 -17.390625 L 13.421875 -17.390625 C 13.617188 -17.390625 13.789062 -17.320312 13.9375 -17.1875 C 14.082031 -17.0625 14.15625 -16.890625 14.15625 -16.671875 C 14.15625 -16.453125 14.082031 -16.28125 13.9375 -16.15625 C 13.789062 -16.03125 13.617188 -15.96875 13.421875 -15.96875 Z M 1.59375 -15.96875 "/></g></g></g><g fill="#404040" fill-opacity="1"><g transform="translate(43.539214, 52.838726)"><g><path d="M 3.125 -17.390625 C 3.320312 -17.390625 3.5 -17.3125 3.65625 -17.15625 C 3.820312 -17.007812 3.90625 -16.832031 3.90625 -16.625 L 3.90625 -0.765625 C 3.882812 -0.554688 3.796875 -0.375 3.640625 -0.21875 C 3.484375 -0.0703125 3.304688 0 3.109375 0 C 2.867188 0 2.675781 -0.0703125 2.53125 -0.21875 C 2.394531 -0.375 2.328125 -0.554688 2.328125 -0.765625 L 2.328125 -16.625 C 2.328125 -16.832031 2.398438 -17.007812 2.546875 -17.15625 C 2.703125 -17.3125 2.894531 -17.390625 3.125 -17.390625 Z M 14.78125 -17.390625 C 15.007812 -17.390625 15.191406 -17.3125 15.328125 -17.15625 C 15.472656 -17.007812 15.546875 -16.832031 15.546875 -16.625 L 15.546875 -0.765625 C 15.535156 -0.554688 15.457031 -0.375 15.3125 -0.21875 C 15.175781 -0.0703125 14.988281 0 14.75 0 C 14.539062 0 14.359375 -0.0703125 14.203125 -0.21875 C 14.054688 -0.375 13.984375 -0.554688 13.984375 -0.765625 L 13.984375 -16.625 C 13.984375 -16.832031 14.0625 -17.007812 14.21875 -17.15625 C 14.375 -17.3125 14.5625 -17.390625 14.78125 -17.390625 Z M 3 -9.609375 L 14.8125 -9.609375 L 14.78125 -8.171875 L 2.90625 -8.171875 Z M 3 -9.609375 "/></g></g></g><g fill="#404040" fill-opacity="1"><g transform="translate(61.42136, 52.838726)"><g><path d="M 3.90625 -0.765625 C 3.882812 -0.554688 3.796875 -0.375 3.640625 -0.21875 C 3.484375 -0.0703125 3.304688 0 3.109375 0 C 2.867188 0 2.675781 -0.0703125 2.53125 -0.21875 C 2.394531 -0.375 2.328125 -0.554688 2.328125 -0.765625 L 2.328125 -16.625 C 2.328125 -16.832031 2.398438 -17.007812 2.546875 -17.15625 C 2.703125 -17.3125 2.894531 -17.390625 3.125 -17.390625 C 3.320312 -17.390625 3.5 -17.3125 3.65625 -17.15625 C 3.820312 -17.007812 3.90625 -16.832031 3.90625 -16.625 Z M 3.90625 -0.765625 "/></g></g></g><g fill="#404040" fill-opacity="1"><g transform="translate(67.630436, 52.838726)"><g><path d="M 7.125 0.25 C 5.863281 0.257812 4.769531 0.0625 3.84375 -0.34375 C 2.914062 -0.757812 2.03125 -1.382812 1.1875 -2.21875 C 1.101562 -2.28125 1.03125 -2.359375 0.96875 -2.453125 C 0.914062 -2.554688 0.890625 -2.675781 0.890625 -2.8125 C 0.890625 -3.007812 0.96875 -3.191406 1.125 -3.359375 C 1.28125 -3.523438 1.460938 -3.609375 1.671875 -3.609375 C 1.867188 -3.609375 2.050781 -3.523438 2.21875 -3.359375 C 2.863281 -2.660156 3.59375 -2.128906 4.40625 -1.765625 C 5.226562 -1.398438 6.113281 -1.21875 7.0625 -1.21875 C 7.851562 -1.21875 8.554688 -1.34375 9.171875 -1.59375 C 9.796875 -1.84375 10.289062 -2.195312 10.65625 -2.65625 C 11.019531 -3.125 11.203125 -3.660156 11.203125 -4.265625 C 11.203125 -5.035156 10.992188 -5.65625 10.578125 -6.125 C 10.171875 -6.59375 9.625 -6.976562 8.9375 -7.28125 C 8.257812 -7.59375 7.507812 -7.875 6.6875 -8.125 C 6.007812 -8.320312 5.363281 -8.546875 4.75 -8.796875 C 4.132812 -9.054688 3.585938 -9.375 3.109375 -9.75 C 2.628906 -10.125 2.253906 -10.582031 1.984375 -11.125 C 1.722656 -11.675781 1.59375 -12.34375 1.59375 -13.125 C 1.59375 -14 1.820312 -14.773438 2.28125 -15.453125 C 2.75 -16.128906 3.410156 -16.660156 4.265625 -17.046875 C 5.117188 -17.441406 6.109375 -17.640625 7.234375 -17.640625 C 8.203125 -17.640625 9.140625 -17.472656 10.046875 -17.140625 C 10.953125 -16.804688 11.671875 -16.316406 12.203125 -15.671875 C 12.453125 -15.410156 12.578125 -15.171875 12.578125 -14.953125 C 12.578125 -14.785156 12.492188 -14.617188 12.328125 -14.453125 C 12.160156 -14.285156 11.976562 -14.203125 11.78125 -14.203125 C 11.613281 -14.203125 11.472656 -14.265625 11.359375 -14.390625 C 11.078125 -14.734375 10.71875 -15.039062 10.28125 -15.3125 C 9.851562 -15.582031 9.378906 -15.789062 8.859375 -15.9375 C 8.335938 -16.09375 7.796875 -16.171875 7.234375 -16.171875 C 6.453125 -16.171875 5.75 -16.050781 5.125 -15.8125 C 4.507812 -15.570312 4.019531 -15.226562 3.65625 -14.78125 C 3.300781 -14.332031 3.125 -13.796875 3.125 -13.171875 C 3.125 -12.472656 3.320312 -11.898438 3.71875 -11.453125 C 4.125 -11.003906 4.648438 -10.632812 5.296875 -10.34375 C 5.941406 -10.050781 6.628906 -9.785156 7.359375 -9.546875 C 8.066406 -9.335938 8.75 -9.101562 9.40625 -8.84375 C 10.0625 -8.59375 10.640625 -8.273438 11.140625 -7.890625 C 11.648438 -7.515625 12.046875 -7.035156 12.328125 -6.453125 C 12.617188 -5.878906 12.765625 -5.148438 12.765625 -4.265625 C 12.765625 -3.421875 12.523438 -2.660156 12.046875 -1.984375 C 11.566406 -1.304688 10.90625 -0.769531 10.0625 -0.375 C 9.226562 0.0195312 8.25 0.226562 7.125 0.25 Z M 7.125 0.25 "/></g></g></g><g fill="#404040" fill-opacity="1"><g transform="translate(81.588451, 52.838726)"><g/></g></g><g fill="#404040" fill-opacity="1"><g transform="translate(88.368763, 52.838726)"><g><path d="M 22.453125 -17.4375 C 22.671875 -17.4375 22.859375 -17.375 23.015625 -17.25 C 23.171875 -17.125 23.25 -16.9375 23.25 -16.6875 C 23.25 -16.613281 23.234375 -16.507812 23.203125 -16.375 L 17.71875 -0.46875 C 17.664062 -0.320312 17.570312 -0.207031 17.4375 -0.125 C 17.300781 -0.0390625 17.171875 0 17.046875 0 C 16.878906 0 16.726562 -0.0351562 16.59375 -0.109375 C 16.457031 -0.179688 16.359375 -0.300781 16.296875 -0.46875 L 11.90625 -11.359375 L 12.09375 -11.296875 L 7.703125 -0.46875 C 7.640625 -0.300781 7.535156 -0.179688 7.390625 -0.109375 C 7.253906 -0.0351562 7.109375 0 6.953125 0 C 6.816406 0 6.6875 -0.0390625 6.5625 -0.125 C 6.445312 -0.207031 6.363281 -0.320312 6.3125 -0.46875 L 0.8125 -16.375 C 0.769531 -16.507812 0.75 -16.609375 0.75 -16.671875 C 0.75 -16.921875 0.835938 -17.109375 1.015625 -17.234375 C 1.203125 -17.367188 1.382812 -17.4375 1.5625 -17.4375 C 1.726562 -17.4375 1.878906 -17.394531 2.015625 -17.3125 C 2.148438 -17.226562 2.238281 -17.113281 2.28125 -16.96875 L 7.28125 -2.40625 L 7 -2.390625 L 11.328125 -13.171875 C 11.378906 -13.316406 11.46875 -13.429688 11.59375 -13.515625 C 11.71875 -13.609375 11.863281 -13.648438 12.03125 -13.640625 C 12.1875 -13.648438 12.328125 -13.609375 12.453125 -13.515625 C 12.578125 -13.429688 12.675781 -13.316406 12.75 -13.171875 L 17.015625 -2.4375 L 16.75 -2.328125 L 21.71875 -16.96875 C 21.757812 -17.113281 21.847656 -17.226562 21.984375 -17.3125 C 22.117188 -17.394531 22.273438 -17.4375 22.453125 -17.4375 Z M 22.453125 -17.4375 "/></g></g></g><g fill="#404040" fill-opacity="1"><g transform="translate(112.360649, 52.838726)"><g><path d="M 3.078125 -17.390625 L 12.203125 -17.390625 C 12.398438 -17.390625 12.570312 -17.316406 12.71875 -17.171875 C 12.863281 -17.035156 12.9375 -16.859375 12.9375 -16.640625 C 12.9375 -16.429688 12.863281 -16.257812 12.71875 -16.125 C 12.570312 -15.988281 12.398438 -15.921875 12.203125 -15.921875 L 3.65625 -15.921875 L 3.90625 -16.34375 L 3.90625 -9.359375 L 3.625 -9.6875 L 11.078125 -9.6875 C 11.273438 -9.6875 11.445312 -9.609375 11.59375 -9.453125 C 11.75 -9.304688 11.828125 -9.132812 11.828125 -8.9375 C 11.828125 -8.726562 11.75 -8.554688 11.59375 -8.421875 C 11.445312 -8.285156 11.273438 -8.21875 11.078125 -8.21875 L 3.671875 -8.21875 L 3.90625 -8.46875 L 3.90625 -1.3125 L 3.78125 -1.46875 L 12.203125 -1.46875 C 12.398438 -1.46875 12.570312 -1.390625 12.71875 -1.234375 C 12.863281 -1.085938 12.9375 -0.914062 12.9375 -0.71875 C 12.9375 -0.5 12.863281 -0.320312 12.71875 -0.1875 C 12.570312 -0.0625 12.398438 0 12.203125 0 L 3.078125 0 C 2.878906 0 2.703125 -0.0703125 2.546875 -0.21875 C 2.398438 -0.375 2.328125 -0.550781 2.328125 -0.75 L 2.328125 -16.640625 C 2.328125 -16.835938 2.398438 -17.007812 2.546875 -17.15625 C 2.703125 -17.3125 2.878906 -17.390625 3.078125 -17.390625 Z M 3.078125 -17.390625 "/></g></g></g><g fill="#404040" fill-opacity="1"><g transform="translate(126.467672, 52.838726)"><g><path d="M 3.078125 -17.390625 L 12.203125 -17.390625 C 12.398438 -17.390625 12.570312 -17.316406 12.71875 -17.171875 C 12.863281 -17.035156 12.9375 -16.859375 12.9375 -16.640625 C 12.9375 -16.429688 12.863281 -16.257812 12.71875 -16.125 C 12.570312 -15.988281 12.398438 -15.921875 12.203125 -15.921875 L 3.65625 -15.921875 L 3.90625 -16.34375 L 3.90625 -9.359375 L 3.625 -9.6875 L 11.078125 -9.6875 C 11.273438 -9.6875 11.445312 -9.609375 11.59375 -9.453125 C 11.75 -9.304688 11.828125 -9.132812 11.828125 -8.9375 C 11.828125 -8.726562 11.75 -8.554688 11.59375 -8.421875 C 11.445312 -8.285156 11.273438 -8.21875 11.078125 -8.21875 L 3.671875 -8.21875 L 3.90625 -8.46875 L 3.90625 -1.3125 L 3.78125 -1.46875 L 12.203125 -1.46875 C 12.398438 -1.46875 12.570312 -1.390625 12.71875 -1.234375 C 12.863281 -1.085938 12.9375 -0.914062 12.9375 -0.71875 C 12.9375 -0.5 12.863281 -0.320312 12.71875 -0.1875 C 12.570312 -0.0625 12.398438 0 12.203125 0 L 3.078125 0 C 2.878906 0 2.703125 -0.0703125 2.546875 -0.21875 C 2.398438 -0.375 2.328125 -0.550781 2.328125 -0.75 L 2.328125 -16.640625 C 2.328125 -16.835938 2.398438 -17.007812 2.546875 -17.15625 C 2.703125 -17.3125 2.878906 -17.390625 3.078125 -17.390625 Z M 3.078125 -17.390625 "/></g></g></g><g fill="#404040" fill-opacity="1"><g transform="translate(140.574696, 52.838726)"><g><path d="M 14.75 0.09375 C 14.539062 0.09375 14.359375 0.00390625 14.203125 -0.171875 L 7.15625 -9.046875 L 8.328125 -10.203125 L 15.421875 -1.21875 C 15.546875 -1.050781 15.609375 -0.878906 15.609375 -0.703125 C 15.609375 -0.429688 15.507812 -0.226562 15.3125 -0.09375 C 15.125 0.03125 14.9375 0.09375 14.75 0.09375 Z M 14.484375 -17.34375 C 14.679688 -17.34375 14.847656 -17.265625 14.984375 -17.109375 C 15.128906 -16.960938 15.203125 -16.800781 15.203125 -16.625 C 15.203125 -16.425781 15.128906 -16.25 14.984375 -16.09375 L 3.703125 -5.546875 L 3.5 -7.234375 L 13.9375 -17.09375 C 14.101562 -17.257812 14.285156 -17.34375 14.484375 -17.34375 Z M 3.109375 0 C 2.867188 0 2.675781 -0.0703125 2.53125 -0.21875 C 2.394531 -0.375 2.328125 -0.554688 2.328125 -0.765625 L 2.328125 -16.625 C 2.328125 -16.832031 2.398438 -17.007812 2.546875 -17.15625 C 2.703125 -17.3125 2.894531 -17.390625 3.125 -17.390625 C 3.34375 -17.390625 3.523438 -17.3125 3.671875 -17.15625 C 3.828125 -17.007812 3.90625 -16.832031 3.90625 -16.625 L 3.90625 -0.765625 C 3.882812 -0.554688 3.796875 -0.375 3.640625 -0.21875 C 3.492188 -0.0703125 3.316406 0 3.109375 0 Z M 3.109375 0 "/></g></g></g><g fill="#404040" fill-opacity="1"><g transform="translate(28.538075, 389.707688)"><g><path d="M 15.0625 -17.390625 C 15.269531 -17.390625 15.4375 -17.320312 15.5625 -17.1875 C 15.6875 -17.0625 15.75 -16.894531 15.75 -16.6875 L 15.75 -0.796875 C 15.75 -0.546875 15.671875 -0.347656 15.515625 -0.203125 C 15.359375 -0.0664062 15.179688 0 14.984375 0 C 14.878906 0 14.769531 -0.0195312 14.65625 -0.0625 C 14.539062 -0.101562 14.453125 -0.164062 14.390625 -0.25 L 3.296875 -15.171875 L 3.71875 -15.40625 L 3.71875 -0.671875 C 3.71875 -0.484375 3.648438 -0.320312 3.515625 -0.1875 C 3.390625 -0.0625 3.226562 0 3.03125 0 C 2.8125 0 2.640625 -0.0625 2.515625 -0.1875 C 2.390625 -0.320312 2.328125 -0.484375 2.328125 -0.671875 L 2.328125 -16.640625 C 2.328125 -16.890625 2.398438 -17.078125 2.546875 -17.203125 C 2.703125 -17.328125 2.875 -17.390625 3.0625 -17.390625 C 3.15625 -17.390625 3.257812 -17.367188 3.375 -17.328125 C 3.488281 -17.285156 3.582031 -17.21875 3.65625 -17.125 L 14.609375 -2.359375 L 14.359375 -1.90625 L 14.359375 -16.6875 C 14.359375 -16.894531 14.425781 -17.0625 14.5625 -17.1875 C 14.707031 -17.320312 14.875 -17.390625 15.0625 -17.390625 Z M 15.0625 -17.390625 "/></g></g></g><g fill="#404040" fill-opacity="1"><g transform="translate(46.618915, 389.707688)"><g><path d="M 3.078125 -17.390625 L 12.203125 -17.390625 C 12.398438 -17.390625 12.570312 -17.316406 12.71875 -17.171875 C 12.863281 -17.035156 12.9375 -16.859375 12.9375 -16.640625 C 12.9375 -16.429688 12.863281 -16.257812 12.71875 -16.125 C 12.570312 -15.988281 12.398438 -15.921875 12.203125 -15.921875 L 3.65625 -15.921875 L 3.90625 -16.34375 L 3.90625 -9.359375 L 3.625 -9.6875 L 11.078125 -9.6875 C 11.273438 -9.6875 11.445312 -9.609375 11.59375 -9.453125 C 11.75 -9.304688 11.828125 -9.132812 11.828125 -8.9375 C 11.828125 -8.726562 11.75 -8.554688 11.59375 -8.421875 C 11.445312 -8.285156 11.273438 -8.21875 11.078125 -8.21875 L 3.671875 -8.21875 L 3.90625 -8.46875 L 3.90625 -1.3125 L 3.78125 -1.46875 L 12.203125 -1.46875 C 12.398438 -1.46875 12.570312 -1.390625 12.71875 -1.234375 C 12.863281 -1.085938 12.9375 -0.914062 12.9375 -0.71875 C 12.9375 -0.5 12.863281 -0.320312 12.71875 -0.1875 C 12.570312 -0.0625 12.398438 0 12.203125 0 L 3.078125 0 C 2.878906 0 2.703125 -0.0703125 2.546875 -0.21875 C 2.398438 -0.375 2.328125 -0.550781 2.328125 -0.75 L 2.328125 -16.640625 C 2.328125 -16.835938 2.398438 -17.007812 2.546875 -17.15625 C 2.703125 -17.3125 2.878906 -17.390625 3.078125 -17.390625 Z M 3.078125 -17.390625 "/></g></g></g><g fill="#404040" fill-opacity="1"><g transform="translate(60.725939, 389.707688)"><g><path d="M 13.484375 -17.46875 C 13.679688 -17.46875 13.847656 -17.40625 13.984375 -17.28125 C 14.128906 -17.15625 14.203125 -17 14.203125 -16.8125 C 14.203125 -16.65625 14.144531 -16.5 14.03125 -16.34375 L 8.328125 -8.578125 L 7.5 -9.78125 L 12.890625 -17.140625 C 13.054688 -17.359375 13.253906 -17.46875 13.484375 -17.46875 Z M 1.609375 -17.46875 C 1.878906 -17.46875 2.085938 -17.367188 2.234375 -17.171875 L 14.03125 -1.125 C 14.144531 -0.96875 14.203125 -0.816406 14.203125 -0.671875 C 14.203125 -0.441406 14.117188 -0.257812 13.953125 -0.125 C 13.796875 0.0078125 13.625 0.078125 13.4375 0.078125 C 13.175781 0.078125 12.976562 -0.0195312 12.84375 -0.21875 L 1.015625 -16.265625 C 0.898438 -16.398438 0.84375 -16.550781 0.84375 -16.71875 C 0.84375 -16.9375 0.921875 -17.113281 1.078125 -17.25 C 1.234375 -17.394531 1.410156 -17.46875 1.609375 -17.46875 Z M 1.546875 0.078125 C 1.328125 0.078125 1.160156 0.0078125 1.046875 -0.125 C 0.929688 -0.269531 0.875 -0.421875 0.875 -0.578125 C 0.875 -0.722656 0.929688 -0.882812 1.046875 -1.0625 L 6.75 -8.84375 L 7.546875 -7.609375 L 2.140625 -0.25 C 1.984375 -0.03125 1.785156 0.078125 1.546875 0.078125 Z M 1.546875 0.078125 "/></g></g></g><g fill="#404040" fill-opacity="1"><g transform="translate(75.776752, 389.707688)"><g><path d="M 7.5 0 C 7.269531 0 7.082031 -0.0703125 6.9375 -0.21875 C 6.800781 -0.375 6.734375 -0.550781 6.734375 -0.75 L 6.734375 -16.578125 L 8.265625 -16.578125 L 8.265625 -0.75 C 8.265625 -0.550781 8.191406 -0.375 8.046875 -0.21875 C 7.898438 -0.0703125 7.71875 0 7.5 0 Z M 1.59375 -15.96875 C 1.394531 -15.96875 1.21875 -16.035156 1.0625 -16.171875 C 0.914062 -16.304688 0.84375 -16.476562 0.84375 -16.6875 C 0.84375 -16.894531 0.914062 -17.0625 1.0625 -17.1875 C 1.21875 -17.320312 1.394531 -17.390625 1.59375 -17.390625 L 13.421875 -17.390625 C 13.617188 -17.390625 13.789062 -17.320312 13.9375 -17.1875 C 14.082031 -17.0625 14.15625 -16.890625 14.15625 -16.671875 C 14.15625 -16.453125 14.082031 -16.28125 13.9375 -16.15625 C 13.789062 -16.03125 13.617188 -15.96875 13.421875 -15.96875 Z M 1.59375 -15.96875 "/></g></g></g><g fill="#404040" fill-opacity="1"><g transform="translate(90.777891, 389.707688)"><g/></g></g><g fill="#404040" fill-opacity="1"><g transform="translate(97.558203, 389.707688)"><g><path d="M 22.453125 -17.4375 C 22.671875 -17.4375 22.859375 -17.375 23.015625 -17.25 C 23.171875 -17.125 23.25 -16.9375 23.25 -16.6875 C 23.25 -16.613281 23.234375 -16.507812 23.203125 -16.375 L 17.71875 -0.46875 C 17.664062 -0.320312 17.570312 -0.207031 17.4375 -0.125 C 17.300781 -0.0390625 17.171875 0 17.046875 0 C 16.878906 0 16.726562 -0.0351562 16.59375 -0.109375 C 16.457031 -0.179688 16.359375 -0.300781 16.296875 -0.46875 L 11.90625 -11.359375 L 12.09375 -11.296875 L 7.703125 -0.46875 C 7.640625 -0.300781 7.535156 -0.179688 7.390625 -0.109375 C 7.253906 -0.0351562 7.109375 0 6.953125 0 C 6.816406 0 6.6875 -0.0390625 6.5625 -0.125 C 6.445312 -0.207031 6.363281 -0.320312 6.3125 -0.46875 L 0.8125 -16.375 C 0.769531 -16.507812 0.75 -16.609375 0.75 -16.671875 C 0.75 -16.921875 0.835938 -17.109375 1.015625 -17.234375 C 1.203125 -17.367188 1.382812 -17.4375 1.5625 -17.4375 C 1.726562 -17.4375 1.878906 -17.394531 2.015625 -17.3125 C 2.148438 -17.226562 2.238281 -17.113281 2.28125 -16.96875 L 7.28125 -2.40625 L 7 -2.390625 L 11.328125 -13.171875 C 11.378906 -13.316406 11.46875 -13.429688 11.59375 -13.515625 C 11.71875 -13.609375 11.863281 -13.648438 12.03125 -13.640625 C 12.1875 -13.648438 12.328125 -13.609375 12.453125 -13.515625 C 12.578125 -13.429688 12.675781 -13.316406 12.75 -13.171875 L 17.015625 -2.4375 L 16.75 -2.328125 L 21.71875 -16.96875 C 21.757812 -17.113281 21.847656 -17.226562 21.984375 -17.3125 C 22.117188 -17.394531 22.273438 -17.4375 22.453125 -17.4375 Z M 22.453125 -17.4375 "/></g></g></g><g fill="#404040" fill-opacity="1"><g transform="translate(121.550089, 389.707688)"><g><path d="M 3.078125 -17.390625 L 12.203125 -17.390625 C 12.398438 -17.390625 12.570312 -17.316406 12.71875 -17.171875 C 12.863281 -17.035156 12.9375 -16.859375 12.9375 -16.640625 C 12.9375 -16.429688 12.863281 -16.257812 12.71875 -16.125 C 12.570312 -15.988281 12.398438 -15.921875 12.203125 -15.921875 L 3.65625 -15.921875 L 3.90625 -16.34375 L 3.90625 -9.359375 L 3.625 -9.6875 L 11.078125 -9.6875 C 11.273438 -9.6875 11.445312 -9.609375 11.59375 -9.453125 C 11.75 -9.304688 11.828125 -9.132812 11.828125 -8.9375 C 11.828125 -8.726562 11.75 -8.554688 11.59375 -8.421875 C 11.445312 -8.285156 11.273438 -8.21875 11.078125 -8.21875 L 3.671875 -8.21875 L 3.90625 -8.46875 L 3.90625 -1.3125 L 3.78125 -1.46875 L 12.203125 -1.46875 C 12.398438 -1.46875 12.570312 -1.390625 12.71875 -1.234375 C 12.863281 -1.085938 12.9375 -0.914062 12.9375 -0.71875 C 12.9375 -0.5 12.863281 -0.320312 12.71875 -0.1875 C 12.570312 -0.0625 12.398438 0 12.203125 0 L 3.078125 0 C 2.878906 0 2.703125 -0.0703125 2.546875 -0.21875 C 2.398438 -0.375 2.328125 -0.550781 2.328125 -0.75 L 2.328125 -16.640625 C 2.328125 -16.835938 2.398438 -17.007812 2.546875 -17.15625 C 2.703125 -17.3125 2.878906 -17.390625 3.078125 -17.390625 Z M 3.078125 -17.390625 "/></g></g></g><g fill="#404040" fill-opacity="1"><g transform="translate(135.657113, 389.707688)"><g><path d="M 3.078125 -17.390625 L 12.203125 -17.390625 C 12.398438 -17.390625 12.570312 -17.316406 12.71875 -17.171875 C 12.863281 -17.035156 12.9375 -16.859375 12.9375 -16.640625 C 12.9375 -16.429688 12.863281 -16.257812 12.71875 -16.125 C 12.570312 -15.988281 12.398438 -15.921875 12.203125 -15.921875 L 3.65625 -15.921875 L 3.90625 -16.34375 L 3.90625 -9.359375 L 3.625 -9.6875 L 11.078125 -9.6875 C 11.273438 -9.6875 11.445312 -9.609375 11.59375 -9.453125 C 11.75 -9.304688 11.828125 -9.132812 11.828125 -8.9375 C 11.828125 -8.726562 11.75 -8.554688 11.59375 -8.421875 C 11.445312 -8.285156 11.273438 -8.21875 11.078125 -8.21875 L 3.671875 -8.21875 L 3.90625 -8.46875 L 3.90625 -1.3125 L 3.78125 -1.46875 L 12.203125 -1.46875 C 12.398438 -1.46875 12.570312 -1.390625 12.71875 -1.234375 C 12.863281 -1.085938 12.9375 -0.914062 12.9375 -0.71875 C 12.9375 -0.5 12.863281 -0.320312 12.71875 -0.1875 C 12.570312 -0.0625 12.398438 0 12.203125 0 L 3.078125 0 C 2.878906 0 2.703125 -0.0703125 2.546875 -0.21875 C 2.398438 -0.375 2.328125 -0.550781 2.328125 -0.75 L 2.328125 -16.640625 C 2.328125 -16.835938 2.398438 -17.007812 2.546875 -17.15625 C 2.703125 -17.3125 2.878906 -17.390625 3.078125 -17.390625 Z M 3.078125 -17.390625 "/></g></g></g><g fill="#404040" fill-opacity="1"><g transform="translate(149.764137, 389.707688)"><g><path d="M 14.75 0.09375 C 14.539062 0.09375 14.359375 0.00390625 14.203125 -0.171875 L 7.15625 -9.046875 L 8.328125 -10.203125 L 15.421875 -1.21875 C 15.546875 -1.050781 15.609375 -0.878906 15.609375 -0.703125 C 15.609375 -0.429688 15.507812 -0.226562 15.3125 -0.09375 C 15.125 0.03125 14.9375 0.09375 14.75 0.09375 Z M 14.484375 -17.34375 C 14.679688 -17.34375 14.847656 -17.265625 14.984375 -17.109375 C 15.128906 -16.960938 15.203125 -16.800781 15.203125 -16.625 C 15.203125 -16.425781 15.128906 -16.25 14.984375 -16.09375 L 3.703125 -5.546875 L 3.5 -7.234375 L 13.9375 -17.09375 C 14.101562 -17.257812 14.285156 -17.34375 14.484375 -17.34375 Z M 3.109375 0 C 2.867188 0 2.675781 -0.0703125 2.53125 -0.21875 C 2.394531 -0.375 2.328125 -0.554688 2.328125 -0.765625 L 2.328125 -16.625 C 2.328125 -16.832031 2.398438 -17.007812 2.546875 -17.15625 C 2.703125 -17.3125 2.894531 -17.390625 3.125 -17.390625 C 3.34375 -17.390625 3.523438 -17.3125 3.671875 -17.15625 C 3.828125 -17.007812 3.90625 -16.832031 3.90625 -16.625 L 3.90625 -0.765625 C 3.882812 -0.554688 3.796875 -0.375 3.640625 -0.21875 C 3.492188 -0.0703125 3.316406 0 3.109375 0 Z M 3.109375 0 "/></g></g></g><path stroke-linecap="round" transform="matrix(0.748716, 0, 0, 0.748716, 44.328746, 103.677108)" fill="none" stroke-linejoin="miter" d="M 1.000886 0.999944 L 494.945661 0.999944 " stroke="#000000" stroke-width="2" stroke-opacity="1" stroke-miterlimit="4"/><path stroke-linecap="round" transform="matrix(0.748716, 0, 0, 0.748716, 44.328746, 132.014479)" fill="none" stroke-linejoin="miter" d="M 1.000886 0.998029 L 494.945661 0.998029 " stroke="#000000" stroke-width="2" stroke-opacity="1" stroke-miterlimit="4"/><path stroke-linecap="round" transform="matrix(0.748716, 0, 0, 0.748716, 44.328746, 160.352082)" fill="none" stroke-linejoin="miter" d="M 1.000886 1.001021 L 494.945661 1.001021 " stroke="#000000" stroke-width="2" stroke-opacity="1" stroke-miterlimit="4"/><path stroke-linecap="round" transform="matrix(0.748716, 0, 0, 0.748716, 44.328746, 188.689451)" fill="none" stroke-linejoin="miter" d="M 1.000886 0.99911 L 494.945661 0.99911 " stroke="#000000" stroke-width="2" stroke-opacity="1" stroke-miterlimit="4"/><g clip-path="url(#6d3eeef77b)"><g clip-path="url(#0d49f085ff)"><path stroke-linecap="butt" transform="matrix(0.748716, 0, 0, 0.748716, 20.852022, 89.132954)" fill="none" stroke-linejoin="miter" d="M 1.9976 -0.000188728 L 19.313711 -0.000188728 C 19.845873 -0.000188728 20.351948 0.208502 20.727591 0.584145 C 21.103234 0.959789 21.311925 1.471081 21.311925 1.998025 L 21.311925 19.314136 C 21.311925 19.84108 21.103234 20.352372 20.727591 20.728015 C 20.351948 21.103659 19.845873 21.312349 19.313711 21.312349 L 1.9976 21.312349 C 1.470656 21.312349 0.959364 21.103659 0.583721 20.728015 C 0.208078 20.352372 -0.000613142 19.84108 -0.000613142 19.314136 L -0.000613142 1.998025 C -0.000613142 1.471081 0.208078 0.959789 0.583721 0.584145 C 0.959364 0.208502 1.470656 -0.000188728 1.9976 -0.000188728 Z M 1.9976 -0.000188728 " stroke="#000000" stroke-width="4" stroke-opacity="1" stroke-miterlimit="4"/></g></g><g clip-path="url(#fb0b459d96)"><g clip-path="url(#6dc7139181)"><path stroke-linecap="butt" transform="matrix(0.748716, 0, 0, 0.748716, 20.852022, 117.470557)" fill="none" stroke-linejoin="miter" d="M 1.9976 -0.00241386 L 19.313711 -0.00241386 C 19.845873 -0.00241386 20.351948 0.211494 20.727591 0.587137 C 21.103234 0.962781 21.311925 1.468856 21.311925 2.001017 L 21.311925 19.311911 C 21.311925 19.844072 21.103234 20.350147 20.727591 20.72579 C 20.351948 21.101433 19.845873 21.310124 19.313711 21.310124 L 1.9976 21.310124 C 1.470656 21.310124 0.959364 21.101433 0.583721 20.72579 C 0.208078 20.350147 -0.000613142 19.844072 -0.000613142 19.311911 L -0.000613142 2.001017 C -0.000613142 1.468856 0.208078 0.962781 0.583721 0.587137 C 0.959364 0.211494 1.470656 -0.00241386 1.9976 -0.00241386 Z M 1.9976 -0.00241386 " stroke="#000000" stroke-width="4" stroke-opacity="1" stroke-miterlimit="4"/></g></g><g clip-path="url(#66fda31bd0)"><g clip-path="url(#2e9e018bd9)"><path stroke-linecap="butt" transform="matrix(0.748716, 0, 0, 0.748716, 20.852022, 145.808043)" fill="none" stroke-linejoin="miter" d="M 1.9976 0.00073507 L 19.313711 0.00073507 C 19.845873 0.00073507 20.351948 0.209426 20.727591 0.585069 C 21.103234 0.960712 21.311925 1.466787 21.311925 1.998949 L 21.311925 19.31506 C 21.311925 19.842004 21.103234 20.353296 20.727591 20.728939 C 20.351948 21.099365 19.845873 21.313273 19.313711 21.313273 L 1.9976 21.313273 C 1.470656 21.313273 0.959364 21.099365 0.583721 20.728939 C 0.208078 20.353296 -0.000613142 19.842004 -0.000613142 19.31506 L -0.000613142 1.998949 C -0.000613142 1.466787 0.208078 0.960712 0.583721 0.585069 C 0.959364 0.209426 1.470656 0.00073507 1.9976 0.00073507 Z M 1.9976 0.00073507 " stroke="#000000" stroke-width="4" stroke-opacity="1" stroke-miterlimit="4"/></g></g><g clip-path="url(#1e3a3228b2)"><g clip-path="url(#82953bd4d8)"><path stroke-linecap="butt" transform="matrix(0.748716, 0, 0, 0.748716, 20.852022, 174.145414)" fill="none" stroke-linejoin="miter" d="M 1.9976 -0.00117966 L 19.313711 -0.00117966 C 19.845873 -0.00117966 20.351948 0.212728 20.727591 0.583154 C 21.103234 0.958798 21.311925 1.47009 21.311925 1.997034 L 21.311925 19.313145 C 21.311925 19.845306 21.103234 20.351381 20.727591 20.727024 C 20.351948 21.102668 19.845873 21.311358 19.313711 21.311358 L 1.9976 21.311358 C 1.470656 21.311358 0.959364 21.102668 0.583721 20.727024 C 0.208078 20.351381 -0.000613142 19.845306 -0.000613142 19.313145 L -0.000613142 1.997034 C -0.000613142 1.47009 0.208078 0.958798 0.583721 0.583154 C 0.959364 0.212728 1.470656 -0.00117966 1.9976 -0.00117966 Z M 1.9976 -0.00117966 " stroke="#000000" stroke-width="4" stroke-opacity="1" stroke-miterlimit="4"/></g></g><g clip-path="url(#6abf50188d)"><g clip-path="url(#17537d6105)"><path stroke-linecap="butt" transform="matrix(0.748716, 0, 0, 0.748716, 20.852022, 202.834445)" fill="none" stroke-linejoin="miter" d="M 1.9976 0.00199372 L 19.313711 0.00199372 C 19.845873 0.00199372 20.351948 0.210684 20.727591 0.586328 C 21.103234 0.961971 21.311925 1.468046 21.311925 2.000207 L 21.311925 19.311101 C 21.311925 19.843262 21.103234 20.349337 20.727591 20.72498 C 20.351948 21.100624 19.845873 21.314532 19.313711 21.314532 L 1.9976 21.314532 C 1.470656 21.314532 0.959364 21.100624 0.583721 20.72498 C 0.208078 20.349337 -0.000613142 19.843262 -0.000613142 19.311101 L -0.000613142 2.000207 C -0.000613142 1.468046 0.208078 0.961971 0.583721 0.586328 C 0.959364 0.210684 1.470656 0.00199372 1.9976 0.00199372 Z M 1.9976 0.00199372 " stroke="#000000" stroke-width="4" stroke-opacity="1" stroke-miterlimit="4"/></g></g><g clip-path="url(#54d9b18c5a)"><g clip-path="url(#284cfaf785)"><path stroke-linecap="butt" transform="matrix(0.748716, 0, 0, 0.748716, 20.852022, 231.171931)" fill="none" stroke-linejoin="miter" d="M 1.9976 -0.0000746156 L 19.313711 -0.0000746156 C 19.845873 -0.0000746156 20.351948 0.208616 20.727591 0.584259 C 21.103234 0.959903 21.311925 1.471195 21.311925 1.998139 L 21.311925 19.31425 C 21.311925 19.841194 21.103234 20.352486 20.727591 20.728129 C 20.351948 21.103773 19.845873 21.312463 19.313711 21.312463 L 1.9976 21.312463 C 1.470656 21.312463 0.959364 21.103773 0.583721 20.728129 C 0.208078 20.352486 -0.000613142 19.841194 -0.000613142 19.31425 L -0.000613142 1.998139 C -0.000613142 1.471195 0.208078 0.959903 0.583721 0.584259 C 0.959364 0.208616 1.470656 -0.0000746156 1.9976 -0.0000746156 Z M 1.9976 -0.0000746156 " stroke="#000000" stroke-width="4" stroke-opacity="1" stroke-miterlimit="4"/></g></g><g clip-path="url(#bb4622a175)"><g clip-path="url(#afaae72b22)"><path stroke-linecap="butt" transform="matrix(0.748716, 0, 0, 0.748716, 20.852022, 259.509417)" fill="none" stroke-linejoin="miter" d="M 1.9976 -0.00214295 L 19.313711 -0.00214295 C 19.845873 -0.00214295 20.351948 0.211765 20.727591 0.587408 C 21.103234 0.963052 21.311925 1.469127 21.311925 2.001288 L 21.311925 19.312182 C 21.311925 19.844343 21.103234 20.350418 20.727591 20.726061 C 20.351948 21.101704 19.845873 21.310395 19.313711 21.310395 L 1.9976 21.310395 C 1.470656 21.310395 0.959364 21.101704 0.583721 20.726061 C 0.208078 20.350418 -0.000613142 19.844343 -0.000613142 19.312182 L -0.000613142 2.001288 C -0.000613142 1.469127 0.208078 0.963052 0.583721 0.587408 C 0.959364 0.211765 1.470656 -0.00214295 1.9976 -0.00214295 Z M 1.9976 -0.00214295 " stroke="#000000" stroke-width="4" stroke-opacity="1" stroke-miterlimit="4"/></g></g><g clip-path="url(#39d0541755)"><g clip-path="url(#d31e1c3c53)"><path stroke-linecap="butt" transform="matrix(0.748716, 0, 0, 0.748716, 20.852022, 287.846903)" fill="none" stroke-linejoin="miter" d="M 1.9976 0.00100598 L 19.313711 0.00100598 C 19.845873 0.00100598 20.351948 0.209697 20.727591 0.58534 C 21.103234 0.960983 21.311925 1.467058 21.311925 1.999219 L 21.311925 19.31533 C 21.311925 19.842275 21.103234 20.353567 20.727591 20.72921 C 20.351948 21.099636 19.845873 21.313544 19.313711 21.313544 L 1.9976 21.313544 C 1.470656 21.313544 0.959364 21.099636 0.583721 20.72921 C 0.208078 20.353567 -0.000613142 19.842275 -0.000613142 19.31533 L -0.000613142 1.999219 C -0.000613142 1.467058 0.208078 0.960983 0.583721 0.58534 C 0.959364 0.209697 1.470656 0.00100598 1.9976 0.00100598 Z M 1.9976 0.00100598 " stroke="#000000" stroke-width="4" stroke-opacity="1" stroke-miterlimit="4"/></g></g><path stroke-linecap="round" transform="matrix(0.748716, 0, 0, 0.748716, 44.328746, 217.378481)" fill="none" stroke-linejoin="miter" d="M 1.000886 1.002283 L 494.945661 1.002283 " stroke="#000000" stroke-width="2" stroke-opacity="1" stroke-miterlimit="4"/><path stroke-linecap="round" transform="matrix(0.748716, 0, 0, 0.748716, 44.328746, 245.715967)" fill="none" stroke-linejoin="miter" d="M 1.000886 1.000215 L 494.945661 1.000215 " stroke="#000000" stroke-width="2" stroke-opacity="1" stroke-miterlimit="4"/><path stroke-linecap="round" transform="matrix(0.748716, 0, 0, 0.748716, 44.328746, 274.053456)" fill="none" stroke-linejoin="miter" d="M 1.000886 0.998143 L 494.945661 0.998143 " stroke="#000000" stroke-width="2" stroke-opacity="1" stroke-miterlimit="4"/><path stroke-linecap="round" transform="matrix(0.748716, 0, 0, 0.748716, 44.328746, 302.390942)" fill="none" stroke-linejoin="miter" d="M 1.000886 1.001292 L 494.945661 1.001292 " stroke="#000000" stroke-width="2" stroke-opacity="1" stroke-miterlimit="4"/><path stroke-linecap="round" transform="matrix(0.748716, 0, 0, 0.748716, 44.328746, 437.959848)" fill="none" stroke-linejoin="miter" d="M 1.000886 0.997953 L 494.945661 0.997953 " stroke="#000000" stroke-width="2" stroke-opacity="1" stroke-miterlimit="4"/><path stroke-linecap="round" transform="matrix(0.748716, 0, 0, 0.748716, 44.328746, 466.297337)" fill="none" stroke-linejoin="miter" d="M 1.000886 1.001098 L 494.945661 1.001098 " stroke="#000000" stroke-width="2" stroke-opacity="1" stroke-miterlimit="4"/><path stroke-linecap="round" transform="matrix(0.748716, 0, 0, 0.748716, 44.328746, 494.634706)" fill="none" stroke-linejoin="miter" d="M 1.000886 0.999187 L 494.945661 0.999187 " stroke="#000000" stroke-width="2" stroke-opacity="1" stroke-miterlimit="4"/><path stroke-linecap="round" transform="matrix(0.748716, 0, 0, 0.748716, 44.328746, 522.972194)" fill="none" stroke-linejoin="miter" d="M 1.000886 1.002333 L 494.945661 1.002333 " stroke="#000000" stroke-width="2" stroke-opacity="1" stroke-miterlimit="4"/><g clip-path="url(#109f47f27b)"><g clip-path="url(#b3f5a9e585)"><path stroke-linecap="butt" transform="matrix(0.748716, 0, 0, 0.748716, 20.852022, 423.415812)" fill="none" stroke-linejoin="miter" d="M 1.9976 -0.0023365 L 19.313711 -0.0023365 C 19.845873 -0.0023365 20.351948 0.211571 20.727591 0.587215 C 21.103234 0.962858 21.311925 1.468933 21.311925 2.001094 L 21.311925 19.311988 C 21.311925 19.844149 21.103234 20.350224 20.727591 20.725868 C 20.351948 21.101511 19.845873 21.310201 19.313711 21.310201 L 1.9976 21.310201 C 1.470656 21.310201 0.959364 21.101511 0.583721 20.725868 C 0.208078 20.350224 -0.000613142 19.844149 -0.000613142 19.311988 L -0.000613142 2.001094 C -0.000613142 1.468933 0.208078 0.962858 0.583721 0.587215 C 0.959364 0.211571 1.470656 -0.0023365 1.9976 -0.0023365 Z M 1.9976 -0.0023365 " stroke="#000000" stroke-width="4" stroke-opacity="1" stroke-miterlimit="4"/></g></g><g clip-path="url(#5acc22e054)"><g clip-path="url(#01547a992b)"><path stroke-linecap="butt" transform="matrix(0.748716, 0, 0, 0.748716, 20.852022, 451.753181)" fill="none" stroke-linejoin="miter" d="M 1.9976 0.000969232 L 19.313711 0.000969232 C 19.845873 0.000969232 20.351948 0.20966 20.727591 0.585303 C 21.103234 0.960946 21.311925 1.467021 21.311925 1.999183 L 21.311925 19.315294 C 21.311925 19.842238 21.103234 20.35353 20.727591 20.729173 C 20.351948 21.099599 19.845873 21.313507 19.313711 21.313507 L 1.9976 21.313507 C 1.470656 21.313507 0.959364 21.099599 0.583721 20.729173 C 0.208078 20.35353 -0.000613142 19.842238 -0.000613142 19.315294 L -0.000613142 1.999183 C -0.000613142 1.467021 0.208078 0.960946 0.583721 0.585303 C 0.959364 0.20966 1.470656 0.000969232 1.9976 0.000969232 Z M 1.9976 0.000969232 " stroke="#000000" stroke-width="4" stroke-opacity="1" stroke-miterlimit="4"/></g></g><g clip-path="url(#136472a757)"><g clip-path="url(#f8a4a0889f)"><path stroke-linecap="butt" transform="matrix(0.748716, 0, 0, 0.748716, 20.852022, 480.090669)" fill="none" stroke-linejoin="miter" d="M 1.9976 -0.0011023 L 19.313711 -0.0011023 C 19.845873 -0.0011023 20.351948 0.212806 20.727591 0.583232 C 21.103234 0.958875 21.311925 1.470167 21.311925 1.997111 L 21.311925 19.313222 C 21.311925 19.845383 21.103234 20.351458 20.727591 20.727102 C 20.351948 21.102745 19.845873 21.311436 19.313711 21.311436 L 1.9976 21.311436 C 1.470656 21.311436 0.959364 21.102745 0.583721 20.727102 C 0.208078 20.351458 -0.000613142 19.845383 -0.000613142 19.313222 L -0.000613142 1.997111 C -0.000613142 1.470167 0.208078 0.958875 0.583721 0.583232 C 0.959364 0.212806 1.470656 -0.0011023 1.9976 -0.0011023 Z M 1.9976 -0.0011023 " stroke="#000000" stroke-width="4" stroke-opacity="1" stroke-miterlimit="4"/></g></g><g clip-path="url(#9c2c163c11)"><g clip-path="url(#74a5838c84)"><path stroke-linecap="butt" transform="matrix(0.748716, 0, 0, 0.748716, 20.852022, 508.428158)" fill="none" stroke-linejoin="miter" d="M 1.9976 0.00204343 L 19.313711 0.00204343 C 19.845873 0.00204343 20.351948 0.210734 20.727591 0.586377 C 21.103234 0.962021 21.311925 1.468096 21.311925 2.000257 L 21.311925 19.311151 C 21.311925 19.843312 21.103234 20.349387 20.727591 20.72503 C 20.351948 21.100673 19.845873 21.314581 19.313711 21.314581 L 1.9976 21.314581 C 1.470656 21.314581 0.959364 21.100673 0.583721 20.72503 C 0.208078 20.349387 -0.000613142 19.843312 -0.000613142 19.311151 L -0.000613142 2.000257 C -0.000613142 1.468096 0.208078 0.962021 0.583721 0.586377 C 0.959364 0.210734 1.470656 0.00204343 1.9976 0.00204343 Z M 1.9976 0.00204343 " stroke="#000000" stroke-width="4" stroke-opacity="1" stroke-miterlimit="4"/></g></g><g clip-path="url(#df1e8421af)"><g clip-path="url(#0b5c8031d9)"><path stroke-linecap="butt" transform="matrix(0.748716, 0, 0, 0.748716, 20.852022, 537.117171)" fill="none" stroke-linejoin="miter" d="M 1.9976 0.0000219458 L 19.313711 0.0000219458 C 19.845873 0.0000219458 20.351948 0.208713 20.727591 0.584356 C 21.103234 0.959999 21.311925 1.471291 21.311925 1.998235 L 21.311925 19.314346 C 21.311925 19.84129 21.103234 20.352583 20.727591 20.728226 C 20.351948 21.103869 19.845873 21.31256 19.313711 21.31256 L 1.9976 21.31256 C 1.470656 21.31256 0.959364 21.103869 0.583721 20.728226 C 0.208078 20.352583 -0.000613142 19.84129 -0.000613142 19.314346 L -0.000613142 1.998235 C -0.000613142 1.471291 0.208078 0.959999 0.583721 0.584356 C 0.959364 0.208713 1.470656 0.0000219458 1.9976 0.0000219458 Z M 1.9976 0.0000219458 " stroke="#000000" stroke-width="4" stroke-opacity="1" stroke-miterlimit="4"/></g></g><g clip-path="url(#f9ddf25727)"><g clip-path="url(#e1f025f074)"><path stroke-linecap="butt" transform="matrix(0.748716, 0, 0, 0.748716, 20.852022, 565.45466)" fill="none" stroke-linejoin="miter" d="M 1.9976 -0.00204959 L 19.313711 -0.00204959 C 19.845873 -0.00204959 20.351948 0.211858 20.727591 0.587502 C 21.103234 0.963145 21.311925 1.46922 21.311925 2.001381 L 21.311925 19.312275 C 21.311925 19.844436 21.103234 20.350511 20.727591 20.726154 C 20.351948 21.101798 19.845873 21.310488 19.313711 21.310488 L 1.9976 21.310488 C 1.470656 21.310488 0.959364 21.101798 0.583721 20.726154 C 0.208078 20.350511 -0.000613142 19.844436 -0.000613142 19.312275 L -0.000613142 2.001381 C -0.000613142 1.46922 0.208078 0.963145 0.583721 0.587502 C 0.959364 0.211858 1.470656 -0.00204959 1.9976 -0.00204959 Z M 1.9976 -0.00204959 " stroke="#000000" stroke-width="4" stroke-opacity="1" stroke-miterlimit="4"/></g></g><g clip-path="url(#ad0568724e)"><g clip-path="url(#c16138c573)"><path stroke-linecap="butt" transform="matrix(0.748716, 0, 0, 0.748716, 20.852022, 593.792148)" fill="none" stroke-linejoin="miter" d="M 1.9976 0.00109614 L 19.313711 0.00109614 C 19.845873 0.00109614 20.351948 0.209787 20.727591 0.58543 C 21.103234 0.961073 21.311925 1.467148 21.311925 1.99931 L 21.311925 19.315421 C 21.311925 19.842365 21.103234 20.353657 20.727591 20.7293 C 20.351948 21.099726 19.845873 21.313634 19.313711 21.313634 L 1.9976 21.313634 C 1.470656 21.313634 0.959364 21.099726 0.583721 20.7293 C 0.208078 20.353657 -0.000613142 19.842365 -0.000613142 19.315421 L -0.000613142 1.99931 C -0.000613142 1.467148 0.208078 0.961073 0.583721 0.58543 C 0.959364 0.209787 1.470656 0.00109614 1.9976 0.00109614 Z M 1.9976 0.00109614 " stroke="#000000" stroke-width="4" stroke-opacity="1" stroke-miterlimit="4"/></g></g><g clip-path="url(#468d1c2781)"><g clip-path="url(#184f84417a)"><path stroke-linecap="butt" transform="matrix(0.748716, 0, 0, 0.748716, 20.852022, 622.129637)" fill="none" stroke-linejoin="miter" d="M 1.9976 -0.000975391 L 19.313711 -0.000975391 C 19.845873 -0.000975391 20.351948 0.212933 20.727591 0.583359 C 21.103234 0.959002 21.311925 1.470294 21.311925 1.997238 L 21.311925 19.313349 C 21.311925 19.84551 21.103234 20.351585 20.727591 20.727229 C 20.351948 21.102872 19.845873 21.311563 19.313711 21.311563 L 1.9976 21.311563 C 1.470656 21.311563 0.959364 21.102872 0.583721 20.727229 C 0.208078 20.351585 -0.000613142 19.84551 -0.000613142 19.313349 L -0.000613142 1.997238 C -0.000613142 1.470294 0.208078 0.959002 0.583721 0.583359 C 0.959364 0.212933 1.470656 -0.000975391 1.9976 -0.000975391 Z M 1.9976 -0.000975391 " stroke="#000000" stroke-width="4" stroke-opacity="1" stroke-miterlimit="4"/></g></g><path stroke-linecap="round" transform="matrix(0.748716, 0, 0, 0.748716, 44.328746, 551.661208)" fill="none" stroke-linejoin="miter" d="M 1.000886 1.000311 L 494.945661 1.000311 " stroke="#000000" stroke-width="2" stroke-opacity="1" stroke-miterlimit="4"/><path stroke-linecap="round" transform="matrix(0.748716, 0, 0, 0.748716, 44.328746, 579.998696)" fill="none" stroke-linejoin="miter" d="M 1.000886 0.99824 L 494.945661 0.99824 " stroke="#000000" stroke-width="2" stroke-opacity="1" stroke-miterlimit="4"/><path stroke-linecap="round" transform="matrix(0.748716, 0, 0, 0.748716, 44.328746, 608.336185)" fill="none" stroke-linejoin="miter" d="M 1.000886 1.001385 L 494.945661 1.001385 " stroke="#000000" stroke-width="2" stroke-opacity="1" stroke-miterlimit="4"/><path stroke-linecap="round" transform="matrix(0.748716, 0, 0, 0.748716, 44.328746, 636.673673)" fill="none" stroke-linejoin="miter" d="M 1.000886 0.999314 L 494.945661 0.999314 " stroke="#000000" stroke-width="2" stroke-opacity="1" stroke-miterlimit="4"/></svg>