<svg xmlns="http://www.w3.org/2000/svg" xmlns:xlink="http://www.w3.org/1999/xlink" width="583" zoomAndPan="magnify" viewBox="0 0 437.25 674.99998" height="900" preserveAspectRatio="xMidYMid meet" version="1.0"><defs><g/><clipPath id="587318057c"><path d="M 0.078125 58.847656 L 436.5 58.847656 L 436.5 652.398438 L 0.078125 652.398438 Z M 0.078125 58.847656 " clip-rule="nonzero"/></clipPath><clipPath id="356c10945d"><path d="M 111.792969 37.214844 L 315.28125 37.214844 L 315.28125 87.652344 L 111.792969 87.652344 Z M 111.792969 37.214844 " clip-rule="nonzero"/></clipPath><clipPath id="6071a955bc"><path d="M 0.792969 0.214844 L 204.28125 0.214844 L 204.28125 50.652344 L 0.792969 50.652344 Z M 0.792969 0.214844 " clip-rule="nonzero"/></clipPath><clipPath id="f4e7a19386"><rect x="0" width="205" y="0" height="51"/></clipPath><clipPath id="1be452d36f"><path d="M 111.796875 37.214844 L 315.265625 37.214844 L 315.265625 87.378906 L 111.796875 87.378906 Z M 111.796875 37.214844 " clip-rule="nonzero"/></clipPath></defs><g clip-path="url(#587318057c)"><path stroke-linecap="butt" transform="matrix(0.748716, 0, 0, 0.748716, 0.0788678, 58.845754)" fill="none" stroke-linejoin="miter" d="M -0.000992159 0.00254006 L 582.892972 0.00254006 L 582.892972 792.761078 L -0.000992159 792.761078 Z M -0.000992159 0.00254006 " stroke="#000000" stroke-width="4" stroke-opacity="1" stroke-miterlimit="4"/></g><g clip-path="url(#356c10945d)"><g transform="matrix(1, 0, 0, 1, 111, 37)"><g clip-path="url(#f4e7a19386)"><g clip-path="url(#6071a955bc)"><path fill="#ffffff" d="M 0.792969 0.214844 L 204.3125 0.214844 L 204.3125 50.652344 L 0.792969 50.652344 Z M 0.792969 0.214844 " fill-opacity="1" fill-rule="nonzero"/></g></g></g></g><g clip-path="url(#1be452d36f)"><path stroke-linecap="butt" transform="matrix(0.748716, 0, 0, 0.748716, 111.794942, 37.214513)" fill="none" stroke-linejoin="miter" d="M 0.00258164 0.000441197 L 271.759597 0.000441197 L 271.759597 67.360578 L 0.00258164 67.360578 Z M 0.00258164 0.000441197 " stroke="#000000" stroke-width="4" stroke-opacity="1" stroke-miterlimit="4"/></g><g fill="#404040" fill-opacity="1"><g transform="translate(138.09309, 71.043706)"><g><path d="M 9.671875 -17.390625 C 11.054688 -17.390625 12.140625 -17.007812 12.921875 -16.25 C 13.710938 -15.5 14.109375 -14.457031 14.109375 -13.125 C 14.109375 -12.425781 13.957031 -11.757812 13.65625 -11.125 C 13.363281 -10.5 12.925781 -9.988281 12.34375 -9.59375 C 11.769531 -9.207031 11.050781 -8.988281 10.1875 -8.9375 L 10.09375 -9.4375 C 10.695312 -9.4375 11.289062 -9.347656 11.875 -9.171875 C 12.46875 -9.003906 12.992188 -8.726562 13.453125 -8.34375 C 13.921875 -7.96875 14.296875 -7.492188 14.578125 -6.921875 C 14.859375 -6.347656 15 -5.65625 15 -4.84375 C 15 -3.976562 14.851562 -3.234375 14.5625 -2.609375 C 14.28125 -1.992188 13.894531 -1.492188 13.40625 -1.109375 C 12.914062 -0.734375 12.351562 -0.453125 11.71875 -0.265625 C 11.09375 -0.0859375 10.441406 0 9.765625 0 L 3.078125 0 C 2.878906 0 2.703125 -0.0703125 2.546875 -0.21875 C 2.398438 -0.375 2.328125 -0.550781 2.328125 -0.75 L 2.328125 -16.640625 C 2.328125 -16.835938 2.398438 -17.007812 2.546875 -17.15625 C 2.703125 -17.3125 2.878906 -17.390625 3.078125 -17.390625 Z M 9.46875 -15.921875 L 3.625 -15.921875 L 3.921875 -16.375 L 3.921875 -9.34375 L 3.65625 -9.71875 L 9.46875 -9.71875 C 10.320312 -9.726562 11.039062 -10.003906 11.625 -10.546875 C 12.21875 -11.097656 12.515625 -11.914062 12.515625 -13 C 12.515625 -13.90625 12.25 -14.617188 11.71875 -15.140625 C 11.195312 -15.660156 10.445312 -15.921875 9.46875 -15.921875 Z M 9.640625 -8.21875 L 3.796875 -8.21875 L 3.921875 -8.375 L 3.921875 -1.234375 L 3.78125 -1.46875 L 9.6875 -1.46875 C 10.75 -1.46875 11.632812 -1.734375 12.34375 -2.265625 C 13.0625 -2.804688 13.421875 -3.664062 13.421875 -4.84375 C 13.421875 -5.675781 13.242188 -6.335938 12.890625 -6.828125 C 12.546875 -7.328125 12.082031 -7.679688 11.5 -7.890625 C 10.925781 -8.109375 10.304688 -8.21875 9.640625 -8.21875 Z M 9.640625 -8.21875 "/></g></g></g><g fill="#404040" fill-opacity="1"><g transform="translate(154.261527, 71.043706)"><g><path d="M 3.1875 0 C 2.9375 0 2.726562 -0.0703125 2.5625 -0.21875 C 2.40625 -0.375 2.328125 -0.550781 2.328125 -0.75 L 2.328125 -16.640625 C 2.328125 -16.835938 2.398438 -17.007812 2.546875 -17.15625 C 2.703125 -17.3125 2.878906 -17.390625 3.078125 -17.390625 L 9.78125 -17.390625 C 10.726562 -17.390625 11.570312 -17.1875 12.3125 -16.78125 C 13.0625 -16.375 13.644531 -15.8125 14.0625 -15.09375 C 14.488281 -14.382812 14.703125 -13.582031 14.703125 -12.6875 C 14.703125 -11.96875 14.566406 -11.300781 14.296875 -10.6875 C 14.035156 -10.070312 13.664062 -9.550781 13.1875 -9.125 C 12.707031 -8.707031 12.171875 -8.398438 11.578125 -8.203125 L 10.703125 -8.46875 C 11.316406 -8.414062 11.890625 -8.21875 12.421875 -7.875 C 12.953125 -7.539062 13.378906 -7.078125 13.703125 -6.484375 C 14.023438 -5.898438 14.191406 -5.195312 14.203125 -4.375 C 14.222656 -3.65625 14.257812 -3.097656 14.3125 -2.703125 C 14.375 -2.304688 14.460938 -2.007812 14.578125 -1.8125 C 14.691406 -1.613281 14.84375 -1.457031 15.03125 -1.34375 C 15.195312 -1.238281 15.304688 -1.09375 15.359375 -0.90625 C 15.421875 -0.726562 15.398438 -0.554688 15.296875 -0.390625 C 15.234375 -0.265625 15.140625 -0.171875 15.015625 -0.109375 C 14.890625 -0.0546875 14.757812 -0.03125 14.625 -0.03125 C 14.5 -0.03125 14.367188 -0.0625 14.234375 -0.125 C 14.003906 -0.257812 13.769531 -0.46875 13.53125 -0.75 C 13.289062 -1.03125 13.085938 -1.441406 12.921875 -1.984375 C 12.765625 -2.535156 12.6875 -3.296875 12.6875 -4.265625 C 12.6875 -4.910156 12.582031 -5.441406 12.375 -5.859375 C 12.175781 -6.273438 11.914062 -6.59375 11.59375 -6.8125 C 11.269531 -7.039062 10.910156 -7.195312 10.515625 -7.28125 C 10.128906 -7.375 9.765625 -7.421875 9.421875 -7.421875 L 3.625 -7.421875 L 3.90625 -7.78125 L 3.90625 -0.75 C 3.90625 -0.550781 3.835938 -0.375 3.703125 -0.21875 C 3.566406 -0.0703125 3.394531 0 3.1875 0 Z M 3.625 -8.796875 L 9.859375 -8.796875 C 10.421875 -8.847656 10.953125 -9.035156 11.453125 -9.359375 C 11.953125 -9.679688 12.351562 -10.125 12.65625 -10.6875 C 12.96875 -11.25 13.125 -11.898438 13.125 -12.640625 C 13.125 -13.585938 12.800781 -14.367188 12.15625 -14.984375 C 11.519531 -15.609375 10.691406 -15.921875 9.671875 -15.921875 L 3.71875 -15.921875 L 3.90625 -16.265625 L 3.90625 -8.453125 Z M 3.625 -8.796875 "/></g></g></g><g fill="#404040" fill-opacity="1"><g transform="translate(170.901864, 71.043706)"><g><path d="M 8.15625 -15.484375 L 2.109375 -0.46875 C 2.046875 -0.300781 1.957031 -0.175781 1.84375 -0.09375 C 1.726562 -0.0078125 1.59375 0.03125 1.4375 0.03125 C 1.207031 0.03125 1.035156 -0.03125 0.921875 -0.15625 C 0.804688 -0.28125 0.738281 -0.4375 0.71875 -0.625 C 0.707031 -0.707031 0.71875 -0.804688 0.75 -0.921875 L 7.296875 -16.96875 C 7.378906 -17.144531 7.484375 -17.269531 7.609375 -17.34375 C 7.734375 -17.425781 7.878906 -17.46875 8.046875 -17.46875 C 8.210938 -17.46875 8.359375 -17.421875 8.484375 -17.328125 C 8.609375 -17.234375 8.703125 -17.113281 8.765625 -16.96875 L 15.296875 -1 C 15.335938 -0.894531 15.359375 -0.796875 15.359375 -0.703125 C 15.359375 -0.460938 15.28125 -0.28125 15.125 -0.15625 C 14.976562 -0.03125 14.804688 0.03125 14.609375 0.03125 C 14.441406 0.03125 14.296875 -0.015625 14.171875 -0.109375 C 14.046875 -0.203125 13.953125 -0.320312 13.890625 -0.46875 L 7.703125 -15.578125 Z M 3.546875 -5.015625 L 4.171875 -6.484375 L 11.875 -6.484375 L 12.171875 -5.015625 Z M 3.546875 -5.015625 "/></g></g></g><g fill="#404040" fill-opacity="1"><g transform="translate(186.970965, 71.043706)"><g><path d="M 3.90625 -0.765625 C 3.882812 -0.554688 3.796875 -0.375 3.640625 -0.21875 C 3.484375 -0.0703125 3.304688 0 3.109375 0 C 2.867188 0 2.675781 -0.0703125 2.53125 -0.21875 C 2.394531 -0.375 2.328125 -0.554688 2.328125 -0.765625 L 2.328125 -16.625 C 2.328125 -16.832031 2.398438 -17.007812 2.546875 -17.15625 C 2.703125 -17.3125 2.894531 -17.390625 3.125 -17.390625 C 3.320312 -17.390625 3.5 -17.3125 3.65625 -17.15625 C 3.820312 -17.007812 3.90625 -16.832031 3.90625 -16.625 Z M 3.90625 -0.765625 "/></g></g></g><g fill="#404040" fill-opacity="1"><g transform="translate(193.180041, 71.043706)"><g><path d="M 15.0625 -17.390625 C 15.269531 -17.390625 15.4375 -17.320312 15.5625 -17.1875 C 15.6875 -17.0625 15.75 -16.894531 15.75 -16.6875 L 15.75 -0.796875 C 15.75 -0.546875 15.671875 -0.347656 15.515625 -0.203125 C 15.359375 -0.0664062 15.179688 0 14.984375 0 C 14.878906 0 14.769531 -0.0195312 14.65625 -0.0625 C 14.539062 -0.101562 14.453125 -0.164062 14.390625 -0.25 L 3.296875 -15.171875 L 3.71875 -15.40625 L 3.71875 -0.671875 C 3.71875 -0.484375 3.648438 -0.320312 3.515625 -0.1875 C 3.390625 -0.0625 3.226562 0 3.03125 0 C 2.8125 0 2.640625 -0.0625 2.515625 -0.1875 C 2.390625 -0.320312 2.328125 -0.484375 2.328125 -0.671875 L 2.328125 -16.640625 C 2.328125 -16.890625 2.398438 -17.078125 2.546875 -17.203125 C 2.703125 -17.328125 2.875 -17.390625 3.0625 -17.390625 C 3.15625 -17.390625 3.257812 -17.367188 3.375 -17.328125 C 3.488281 -17.285156 3.582031 -17.21875 3.65625 -17.125 L 14.609375 -2.359375 L 14.359375 -1.90625 L 14.359375 -16.6875 C 14.359375 -16.894531 14.425781 -17.0625 14.5625 -17.1875 C 14.707031 -17.320312 14.875 -17.390625 15.0625 -17.390625 Z M 15.0625 -17.390625 "/></g></g></g><g fill="#404040" fill-opacity="1"><g transform="translate(211.260881, 71.043706)"><g/></g></g><g fill="#404040" fill-opacity="1"><g transform="translate(218.041193, 71.043706)"><g><path d="M 9.421875 -17.390625 C 10.640625 -17.390625 11.707031 -17.15625 12.625 -16.6875 C 13.550781 -16.226562 14.3125 -15.585938 14.90625 -14.765625 C 15.5 -13.953125 15.941406 -13.019531 16.234375 -11.96875 C 16.523438 -10.925781 16.671875 -9.832031 16.671875 -8.6875 C 16.671875 -7.101562 16.410156 -5.648438 15.890625 -4.328125 C 15.367188 -3.015625 14.570312 -1.960938 13.5 -1.171875 C 12.4375 -0.390625 11.078125 0 9.421875 0 L 3.078125 0 C 2.878906 0 2.703125 -0.0703125 2.546875 -0.21875 C 2.398438 -0.375 2.328125 -0.550781 2.328125 -0.75 L 2.328125 -16.640625 C 2.328125 -16.835938 2.398438 -17.007812 2.546875 -17.15625 C 2.703125 -17.3125 2.878906 -17.390625 3.078125 -17.390625 Z M 9.171875 -1.46875 C 10.578125 -1.46875 11.707031 -1.789062 12.5625 -2.4375 C 13.425781 -3.082031 14.0625 -3.953125 14.46875 -5.046875 C 14.875 -6.148438 15.078125 -7.363281 15.078125 -8.6875 C 15.078125 -9.65625 14.960938 -10.570312 14.734375 -11.4375 C 14.515625 -12.3125 14.171875 -13.082031 13.703125 -13.75 C 13.234375 -14.414062 12.617188 -14.941406 11.859375 -15.328125 C 11.109375 -15.722656 10.210938 -15.921875 9.171875 -15.921875 L 3.71875 -15.921875 L 3.90625 -16.140625 L 3.90625 -1.21875 L 3.75 -1.46875 Z M 9.171875 -1.46875 "/></g></g></g><g fill="#404040" fill-opacity="1"><g transform="translate(235.898502, 71.043706)"><g><path d="M 14.640625 -17.390625 C 14.867188 -17.390625 15.046875 -17.316406 15.171875 -17.171875 C 15.304688 -17.035156 15.375 -16.859375 15.375 -16.640625 L 15.375 -6.359375 C 15.375 -5.128906 15.082031 -4.019531 14.5 -3.03125 C 13.925781 -2.039062 13.148438 -1.25 12.171875 -0.65625 C 11.191406 -0.0703125 10.09375 0.21875 8.875 0.21875 C 7.644531 0.21875 6.535156 -0.0703125 5.546875 -0.65625 C 4.566406 -1.25 3.785156 -2.039062 3.203125 -3.03125 C 2.617188 -4.019531 2.328125 -5.128906 2.328125 -6.359375 L 2.328125 -16.640625 C 2.328125 -16.859375 2.394531 -17.035156 2.53125 -17.171875 C 2.675781 -17.316406 2.875 -17.390625 3.125 -17.390625 C 3.320312 -17.390625 3.492188 -17.316406 3.640625 -17.171875 C 3.796875 -17.035156 3.875 -16.859375 3.875 -16.640625 L 3.875 -6.359375 C 3.875 -5.398438 4.097656 -4.539062 4.546875 -3.78125 C 5.003906 -3.019531 5.613281 -2.410156 6.375 -1.953125 C 7.144531 -1.492188 7.976562 -1.265625 8.875 -1.265625 C 9.800781 -1.265625 10.644531 -1.492188 11.40625 -1.953125 C 12.164062 -2.410156 12.769531 -3.019531 13.21875 -3.78125 C 13.675781 -4.539062 13.90625 -5.398438 13.90625 -6.359375 L 13.90625 -16.640625 C 13.90625 -16.859375 13.972656 -17.035156 14.109375 -17.171875 C 14.242188 -17.316406 14.421875 -17.390625 14.640625 -17.390625 Z M 14.640625 -17.390625 "/></g></g></g><g fill="#404040" fill-opacity="1"><g transform="translate(253.606801, 71.043706)"><g><path d="M 3.078125 -17.390625 C 3.191406 -17.390625 3.3125 -17.363281 3.4375 -17.3125 C 3.5625 -17.257812 3.664062 -17.175781 3.75 -17.0625 L 10.609375 -6.78125 L 9.9375 -6.8125 L 16.8125 -17.0625 C 17 -17.3125 17.222656 -17.421875 17.484375 -17.390625 C 17.679688 -17.390625 17.847656 -17.316406 17.984375 -17.171875 C 18.128906 -17.035156 18.203125 -16.859375 18.203125 -16.640625 L 18.203125 -0.75 C 18.203125 -0.550781 18.128906 -0.375 17.984375 -0.21875 C 17.835938 -0.0703125 17.65625 0 17.4375 0 C 17.207031 0 17.015625 -0.0703125 16.859375 -0.21875 C 16.710938 -0.375 16.640625 -0.550781 16.640625 -0.75 L 16.640625 -15.125 L 17.09375 -15.078125 L 10.8125 -5.5625 C 10.757812 -5.46875 10.679688 -5.390625 10.578125 -5.328125 C 10.484375 -5.265625 10.367188 -5.242188 10.234375 -5.265625 C 10.117188 -5.242188 10.003906 -5.265625 9.890625 -5.328125 C 9.785156 -5.390625 9.703125 -5.46875 9.640625 -5.5625 L 3.328125 -15.171875 L 3.796875 -15.5 L 3.796875 -0.75 C 3.796875 -0.550781 3.722656 -0.375 3.578125 -0.21875 C 3.441406 -0.0703125 3.269531 0 3.0625 0 C 2.84375 0 2.664062 -0.0703125 2.53125 -0.21875 C 2.394531 -0.375 2.328125 -0.550781 2.328125 -0.75 L 2.328125 -16.640625 C 2.328125 -16.835938 2.394531 -17.007812 2.53125 -17.15625 C 2.675781 -17.3125 2.859375 -17.390625 3.078125 -17.390625 Z M 3.078125 -17.390625 "/></g></g></g><g fill="#404040" fill-opacity="1"><g transform="translate(274.146433, 71.043706)"><g><path d="M 8.96875 -17.390625 C 9.894531 -17.390625 10.710938 -17.175781 11.421875 -16.75 C 12.140625 -16.332031 12.703125 -15.75 13.109375 -15 C 13.523438 -14.257812 13.734375 -13.410156 13.734375 -12.453125 C 13.734375 -11.484375 13.523438 -10.613281 13.109375 -9.84375 C 12.703125 -9.070312 12.140625 -8.460938 11.421875 -8.015625 C 10.710938 -7.578125 9.894531 -7.359375 8.96875 -7.359375 L 3.703125 -7.359375 L 3.828125 -7.609375 L 3.828125 -0.75 C 3.828125 -0.550781 3.75 -0.375 3.59375 -0.21875 C 3.445312 -0.0703125 3.273438 0 3.078125 0 C 2.847656 0 2.664062 -0.0703125 2.53125 -0.21875 C 2.394531 -0.375 2.328125 -0.550781 2.328125 -0.75 L 2.328125 -16.640625 C 2.328125 -16.835938 2.398438 -17.007812 2.546875 -17.15625 C 2.703125 -17.3125 2.878906 -17.390625 3.078125 -17.390625 Z M 8.96875 -8.796875 C 9.613281 -8.796875 10.175781 -8.957031 10.65625 -9.28125 C 11.132812 -9.601562 11.507812 -10.039062 11.78125 -10.59375 C 12.0625 -11.144531 12.203125 -11.765625 12.203125 -12.453125 C 12.203125 -13.128906 12.0625 -13.726562 11.78125 -14.25 C 11.507812 -14.769531 11.132812 -15.175781 10.65625 -15.46875 C 10.175781 -15.769531 9.613281 -15.921875 8.96875 -15.921875 L 3.703125 -15.921875 L 3.828125 -16.140625 L 3.828125 -8.640625 L 3.671875 -8.796875 Z M 8.96875 -8.796875 "/></g></g></g></svg>