<svg xmlns="http://www.w3.org/2000/svg" xmlns:xlink="http://www.w3.org/1999/xlink" width="583" zoomAndPan="magnify" viewBox="0 0 437.25 674.99998" height="900" preserveAspectRatio="xMidYMid meet" version="1.0"><defs><g/><clipPath id="b311f7b5f8"><path d="M 21.9375 102.210938 L 417 102.210938 L 417 655 L 21.9375 655 Z M 21.9375 102.210938 " clip-rule="nonzero"/></clipPath><clipPath id="593acd7340"><path d="M 21.9375 102.210938 L 417.257812 102.210938 L 417.257812 656 L 21.9375 656 Z M 21.9375 102.210938 " clip-rule="nonzero"/></clipPath><clipPath id="4d1101fe39"><path d="M 43.648438 37.503906 L 86.328125 37.503906 L 86.328125 80.179688 L 43.648438 80.179688 Z M 43.648438 37.503906 " clip-rule="nonzero"/></clipPath></defs><g clip-path="url(#b311f7b5f8)"><path fill="#000000" d="M 22.683594 103.707031 L 22.683594 654.152344 M 109.253906 103.707031 L 109.253906 654.152344 M 416.195312 103.707031 L 416.195312 654.152344 M 21.9375 102.960938 L 416.941406 102.960938 M 21.9375 153.136719 L 416.941406 153.136719 M 21.9375 203.3125 L 416.941406 203.3125 M 21.9375 253.488281 L 416.941406 253.488281 M 21.9375 303.667969 L 416.941406 303.667969 M 21.9375 353.84375 L 416.941406 353.84375 M 21.9375 404.019531 L 416.941406 404.019531 M 21.9375 454.195312 L 416.941406 454.195312 M 21.9375 504.375 L 416.941406 504.375 M 21.9375 554.550781 L 416.941406 554.550781 M 21.9375 604.726562 L 416.941406 604.726562 M 21.9375 654.902344 L 416.941406 654.902344 " fill-opacity="1" fill-rule="nonzero"/></g><g clip-path="url(#593acd7340)"><path stroke-linecap="butt" transform="matrix(0.748716, 0, 0, 0.748716, 21.935634, 102.211513)" fill="none" stroke-linejoin="miter" d="M 0.99899 1.997445 L 0.99899 737.183439 M 116.624066 1.997445 L 116.624066 737.183439 M 526.581273 1.997445 L 526.581273 737.183439 M 0.00249211 1.000947 L 527.577771 1.000947 M 0.00249211 68.016744 L 527.577771 68.016744 M 0.00249211 135.032542 L 527.577771 135.032542 M 0.00249211 202.048339 L 527.577771 202.048339 M 0.00249211 269.069354 L 527.577771 269.069354 M 0.00249211 336.085152 L 527.577771 336.085152 M 0.00249211 403.100949 L 527.577771 403.100949 M 0.00249211 470.116747 L 527.577771 470.116747 M 0.00249211 537.137762 L 527.577771 537.137762 M 0.00249211 604.153559 L 527.577771 604.153559 M 0.00249211 671.169357 L 527.577771 671.169357 M 0.00249211 738.185154 L 527.577771 738.185154 " stroke="#000000" stroke-width="2" stroke-opacity="1" stroke-miterlimit="4"/></g><g clip-path="url(#4d1101fe39)"><path fill="#000000" d="M 64.988281 37.503906 C 53.183594 37.503906 43.648438 47.101562 43.648438 58.839844 C 43.648438 70.582031 53.183594 80.179688 64.988281 80.179688 C 76.792969 80.179688 86.328125 70.644531 86.328125 58.839844 C 86.328125 47.039062 76.792969 37.503906 64.988281 37.503906 Z M 64.988281 77.648438 C 54.609375 77.648438 46.179688 69.21875 46.179688 58.839844 C 46.179688 48.464844 54.609375 40.03125 64.988281 40.03125 C 75.367188 40.03125 83.796875 48.464844 83.796875 58.839844 C 83.796875 69.21875 75.367188 77.648438 64.988281 77.648438 Z M 64.988281 77.648438 " fill-opacity="1" fill-rule="nonzero"/></g><path fill="#000000" d="M 72.835938 59.621094 C 73.289062 59.621094 73.613281 59.230469 73.613281 58.839844 C 73.613281 58.386719 73.226562 58.0625 72.835938 58.0625 L 66.675781 58.0625 C 66.480469 57.675781 66.15625 57.285156 65.703125 57.15625 L 65.703125 47.101562 C 65.703125 46.648438 65.378906 46.324219 64.921875 46.324219 C 64.46875 46.324219 64.144531 46.648438 64.144531 47.101562 L 64.144531 57.089844 C 63.496094 57.414062 63.042969 58.0625 63.042969 58.839844 C 63.042969 59.878906 63.886719 60.722656 64.921875 60.722656 C 65.703125 60.722656 66.351562 60.269531 66.609375 59.621094 Z M 72.835938 59.621094 " fill-opacity="1" fill-rule="nonzero"/><path fill="#000000" d="M 65.117188 43.988281 C 65.441406 43.988281 65.703125 43.730469 65.703125 43.40625 L 65.703125 41.523438 C 65.703125 41.199219 65.441406 40.941406 65.117188 40.941406 C 64.792969 40.941406 64.535156 41.199219 64.535156 41.523438 L 64.535156 43.40625 C 64.535156 43.730469 64.792969 43.988281 65.117188 43.988281 Z M 65.117188 43.988281 " fill-opacity="1" fill-rule="nonzero"/><path fill="#000000" d="M 56.945312 43.40625 C 56.75 43.144531 56.425781 43.015625 56.167969 43.210938 C 55.910156 43.40625 55.777344 43.730469 55.972656 43.988281 L 56.945312 45.609375 C 57.140625 45.871094 57.464844 46 57.722656 45.804688 C 57.984375 45.609375 58.113281 45.285156 57.917969 45.027344 Z M 56.945312 43.40625 " fill-opacity="1" fill-rule="nonzero"/><path fill="#000000" d="M 51.953125 50.476562 L 50.332031 49.5 C 50.070312 49.308594 49.683594 49.4375 49.550781 49.695312 C 49.359375 49.957031 49.488281 50.34375 49.746094 50.476562 L 51.367188 51.449219 C 51.628906 51.640625 52.015625 51.511719 52.148438 51.253906 C 52.339844 50.992188 52.277344 50.605469 51.953125 50.476562 Z M 51.953125 50.476562 " fill-opacity="1" fill-rule="nonzero"/><path fill="#000000" d="M 50.136719 58.710938 C 50.136719 58.386719 49.875 58.128906 49.550781 58.128906 L 47.671875 58.128906 C 47.347656 58.128906 47.085938 58.386719 47.085938 58.710938 C 47.085938 59.035156 47.347656 59.296875 47.671875 59.296875 L 49.550781 59.296875 C 49.875 59.296875 50.136719 59.035156 50.136719 58.710938 Z M 50.136719 58.710938 " fill-opacity="1" fill-rule="nonzero"/><path fill="#000000" d="M 51.238281 65.910156 L 49.617188 66.882812 C 49.359375 67.078125 49.226562 67.402344 49.421875 67.660156 C 49.617188 67.921875 49.941406 68.050781 50.199219 67.855469 L 51.824219 66.882812 C 52.082031 66.6875 52.210938 66.363281 52.015625 66.105469 C 51.886719 65.847656 51.496094 65.78125 51.238281 65.910156 Z M 51.238281 65.910156 " fill-opacity="1" fill-rule="nonzero"/><path fill="#000000" d="M 57.398438 71.617188 C 57.140625 71.425781 56.75 71.554688 56.621094 71.8125 L 55.648438 73.433594 C 55.453125 73.695312 55.585938 74.082031 55.84375 74.210938 C 56.101562 74.40625 56.492188 74.277344 56.621094 74.019531 L 57.59375 72.398438 C 57.789062 72.136719 57.722656 71.8125 57.398438 71.617188 Z M 57.398438 71.617188 " fill-opacity="1" fill-rule="nonzero"/><path fill="#000000" d="M 64.859375 73.695312 C 64.535156 73.695312 64.273438 73.953125 64.273438 74.277344 L 64.273438 76.160156 C 64.273438 76.484375 64.535156 76.742188 64.859375 76.742188 C 65.183594 76.742188 65.441406 76.484375 65.441406 76.160156 L 65.441406 74.277344 C 65.441406 73.953125 65.183594 73.695312 64.859375 73.695312 Z M 64.859375 73.695312 " fill-opacity="1" fill-rule="nonzero"/><path fill="#000000" d="M 73.097656 72.007812 C 72.902344 71.75 72.578125 71.617188 72.316406 71.8125 C 72.058594 72.007812 71.929688 72.332031 72.121094 72.589844 L 73.097656 74.210938 C 73.289062 74.472656 73.613281 74.601562 73.875 74.40625 C 74.132812 74.210938 74.261719 73.886719 74.070312 73.628906 Z M 73.097656 72.007812 " fill-opacity="1" fill-rule="nonzero"/><path fill="#000000" d="M 80.230469 67.144531 L 78.609375 66.171875 C 78.347656 65.976562 77.960938 66.105469 77.832031 66.363281 C 77.636719 66.625 77.765625 67.011719 78.023438 67.144531 L 79.648438 68.117188 C 79.90625 68.3125 80.296875 68.179688 80.425781 67.921875 C 80.621094 67.660156 80.488281 67.273438 80.230469 67.144531 Z M 80.230469 67.144531 " fill-opacity="1" fill-rule="nonzero"/><path fill="#000000" d="M 82.371094 58.386719 L 80.488281 58.386719 C 80.164062 58.386719 79.90625 58.648438 79.90625 58.972656 C 79.90625 59.296875 80.164062 59.554688 80.488281 59.554688 L 82.371094 59.554688 C 82.695312 59.554688 82.953125 59.296875 82.953125 58.972656 C 82.953125 58.648438 82.695312 58.386719 82.371094 58.386719 Z M 82.371094 58.386719 " fill-opacity="1" fill-rule="nonzero"/><path fill="#000000" d="M 78.738281 51.773438 L 80.359375 50.800781 C 80.621094 50.605469 80.75 50.28125 80.554688 50.019531 C 80.359375 49.761719 80.035156 49.632812 79.777344 49.824219 L 78.15625 50.800781 C 77.894531 50.992188 77.765625 51.316406 77.960938 51.578125 C 78.089844 51.835938 78.480469 51.902344 78.738281 51.773438 Z M 78.738281 51.773438 " fill-opacity="1" fill-rule="nonzero"/><path fill="#000000" d="M 74.070312 43.40625 C 73.808594 43.210938 73.421875 43.339844 73.289062 43.601562 L 72.316406 45.222656 C 72.121094 45.480469 72.253906 45.871094 72.511719 46 C 72.773438 46.195312 73.160156 46.0625 73.289062 45.804688 L 74.261719 44.183594 C 74.457031 43.925781 74.394531 43.535156 74.070312 43.40625 Z M 74.070312 43.40625 " fill-opacity="1" fill-rule="nonzero"/><g fill="#404040" fill-opacity="1"><g transform="translate(145.431903, 67.45512)"><g><path d="M 7.5 0 C 7.269531 0 7.082031 -0.0703125 6.9375 -0.21875 C 6.800781 -0.375 6.734375 -0.550781 6.734375 -0.75 L 6.734375 -16.578125 L 8.265625 -16.578125 L 8.265625 -0.75 C 8.265625 -0.550781 8.191406 -0.375 8.046875 -0.21875 C 7.898438 -0.0703125 7.71875 0 7.5 0 Z M 1.59375 -15.96875 C 1.394531 -15.96875 1.21875 -16.035156 1.0625 -16.171875 C 0.914062 -16.304688 0.84375 -16.476562 0.84375 -16.6875 C 0.84375 -16.894531 0.914062 -17.0625 1.0625 -17.1875 C 1.21875 -17.320312 1.394531 -17.390625 1.59375 -17.390625 L 13.421875 -17.390625 C 13.617188 -17.390625 13.789062 -17.320312 13.9375 -17.1875 C 14.082031 -17.0625 14.15625 -16.890625 14.15625 -16.671875 C 14.15625 -16.453125 14.082031 -16.28125 13.9375 -16.15625 C 13.789062 -16.03125 13.617188 -15.96875 13.421875 -15.96875 Z M 1.59375 -15.96875 "/></g></g></g><g fill="#404040" fill-opacity="1"><g transform="translate(160.433042, 67.45512)"><g><path d="M 17.84375 -8.6875 C 17.84375 -7.382812 17.640625 -6.191406 17.234375 -5.109375 C 16.828125 -4.023438 16.25 -3.078125 15.5 -2.265625 C 14.757812 -1.460938 13.878906 -0.84375 12.859375 -0.40625 C 11.835938 0.03125 10.722656 0.25 9.515625 0.25 C 8.304688 0.25 7.191406 0.03125 6.171875 -0.40625 C 5.148438 -0.84375 4.265625 -1.460938 3.515625 -2.265625 C 2.773438 -3.078125 2.203125 -4.023438 1.796875 -5.109375 C 1.390625 -6.191406 1.1875 -7.382812 1.1875 -8.6875 C 1.1875 -10 1.390625 -11.195312 1.796875 -12.28125 C 2.203125 -13.363281 2.773438 -14.304688 3.515625 -15.109375 C 4.265625 -15.921875 5.148438 -16.546875 6.171875 -16.984375 C 7.191406 -17.421875 8.304688 -17.640625 9.515625 -17.640625 C 10.722656 -17.640625 11.835938 -17.421875 12.859375 -16.984375 C 13.878906 -16.546875 14.757812 -15.921875 15.5 -15.109375 C 16.25 -14.304688 16.828125 -13.363281 17.234375 -12.28125 C 17.640625 -11.195312 17.84375 -10 17.84375 -8.6875 Z M 16.25 -8.6875 C 16.25 -10.164062 15.960938 -11.460938 15.390625 -12.578125 C 14.816406 -13.703125 14.023438 -14.578125 13.015625 -15.203125 C 12.003906 -15.828125 10.835938 -16.140625 9.515625 -16.140625 C 8.203125 -16.140625 7.035156 -15.828125 6.015625 -15.203125 C 5.003906 -14.578125 4.210938 -13.703125 3.640625 -12.578125 C 3.066406 -11.460938 2.78125 -10.164062 2.78125 -8.6875 C 2.78125 -7.21875 3.066406 -5.921875 3.640625 -4.796875 C 4.210938 -3.679688 5.003906 -2.804688 6.015625 -2.171875 C 7.035156 -1.546875 8.203125 -1.234375 9.515625 -1.234375 C 10.835938 -1.234375 12.003906 -1.546875 13.015625 -2.171875 C 14.023438 -2.804688 14.816406 -3.679688 15.390625 -4.796875 C 15.960938 -5.921875 16.25 -7.21875 16.25 -8.6875 Z M 16.25 -8.6875 "/></g></g></g><g fill="#404040" fill-opacity="1"><g transform="translate(179.45766, 67.45512)"><g><path d="M 9.421875 -17.390625 C 10.640625 -17.390625 11.707031 -17.15625 12.625 -16.6875 C 13.550781 -16.226562 14.3125 -15.585938 14.90625 -14.765625 C 15.5 -13.953125 15.941406 -13.019531 16.234375 -11.96875 C 16.523438 -10.925781 16.671875 -9.832031 16.671875 -8.6875 C 16.671875 -7.101562 16.410156 -5.648438 15.890625 -4.328125 C 15.367188 -3.015625 14.570312 -1.960938 13.5 -1.171875 C 12.4375 -0.390625 11.078125 0 9.421875 0 L 3.078125 0 C 2.878906 0 2.703125 -0.0703125 2.546875 -0.21875 C 2.398438 -0.375 2.328125 -0.550781 2.328125 -0.75 L 2.328125 -16.640625 C 2.328125 -16.835938 2.398438 -17.007812 2.546875 -17.15625 C 2.703125 -17.3125 2.878906 -17.390625 3.078125 -17.390625 Z M 9.171875 -1.46875 C 10.578125 -1.46875 11.707031 -1.789062 12.5625 -2.4375 C 13.425781 -3.082031 14.0625 -3.953125 14.46875 -5.046875 C 14.875 -6.148438 15.078125 -7.363281 15.078125 -8.6875 C 15.078125 -9.65625 14.960938 -10.570312 14.734375 -11.4375 C 14.515625 -12.3125 14.171875 -13.082031 13.703125 -13.75 C 13.234375 -14.414062 12.617188 -14.941406 11.859375 -15.328125 C 11.109375 -15.722656 10.210938 -15.921875 9.171875 -15.921875 L 3.71875 -15.921875 L 3.90625 -16.140625 L 3.90625 -1.21875 L 3.75 -1.46875 Z M 9.171875 -1.46875 "/></g></g></g><g fill="#404040" fill-opacity="1"><g transform="translate(197.314969, 67.45512)"><g><path d="M 8.15625 -15.484375 L 2.109375 -0.46875 C 2.046875 -0.300781 1.957031 -0.175781 1.84375 -0.09375 C 1.726562 -0.0078125 1.59375 0.03125 1.4375 0.03125 C 1.207031 0.03125 1.035156 -0.03125 0.921875 -0.15625 C 0.804688 -0.28125 0.738281 -0.4375 0.71875 -0.625 C 0.707031 -0.707031 0.71875 -0.804688 0.75 -0.921875 L 7.296875 -16.96875 C 7.378906 -17.144531 7.484375 -17.269531 7.609375 -17.34375 C 7.734375 -17.425781 7.878906 -17.46875 8.046875 -17.46875 C 8.210938 -17.46875 8.359375 -17.421875 8.484375 -17.328125 C 8.609375 -17.234375 8.703125 -17.113281 8.765625 -16.96875 L 15.296875 -1 C 15.335938 -0.894531 15.359375 -0.796875 15.359375 -0.703125 C 15.359375 -0.460938 15.28125 -0.28125 15.125 -0.15625 C 14.976562 -0.03125 14.804688 0.03125 14.609375 0.03125 C 14.441406 0.03125 14.296875 -0.015625 14.171875 -0.109375 C 14.046875 -0.203125 13.953125 -0.320312 13.890625 -0.46875 L 7.703125 -15.578125 Z M 3.546875 -5.015625 L 4.171875 -6.484375 L 11.875 -6.484375 L 12.171875 -5.015625 Z M 3.546875 -5.015625 "/></g></g></g><g fill="#404040" fill-opacity="1"><g transform="translate(213.38407, 67.45512)"><g><path d="M 12.6875 -17.484375 C 12.90625 -17.484375 13.082031 -17.40625 13.21875 -17.25 C 13.363281 -17.09375 13.4375 -16.925781 13.4375 -16.75 C 13.4375 -16.664062 13.421875 -16.582031 13.390625 -16.5 C 13.367188 -16.425781 13.335938 -16.347656 13.296875 -16.265625 L 7.453125 -8.25 L 7.75 -9.21875 L 7.75 -0.75 C 7.75 -0.550781 7.671875 -0.375 7.515625 -0.21875 C 7.367188 -0.0703125 7.191406 0 6.984375 0 C 6.765625 0 6.582031 -0.0703125 6.4375 -0.21875 C 6.300781 -0.375 6.234375 -0.550781 6.234375 -0.75 L 6.234375 -9.046875 L 6.359375 -8.453125 L 0.671875 -16.21875 C 0.609375 -16.300781 0.554688 -16.390625 0.515625 -16.484375 C 0.484375 -16.578125 0.46875 -16.664062 0.46875 -16.75 C 0.46875 -16.957031 0.554688 -17.128906 0.734375 -17.265625 C 0.910156 -17.410156 1.085938 -17.484375 1.265625 -17.484375 C 1.515625 -17.484375 1.722656 -17.367188 1.890625 -17.140625 L 7.234375 -9.859375 L 6.859375 -9.90625 L 12.046875 -17.140625 C 12.210938 -17.367188 12.425781 -17.484375 12.6875 -17.484375 Z M 12.6875 -17.484375 "/></g></g></g><g fill="#404040" fill-opacity="1"><g transform="translate(227.267574, 67.45512)"><g><path d="M 3.703125 -15.78125 C 3.703125 -15.332031 3.566406 -14.894531 3.296875 -14.46875 C 3.035156 -14.050781 2.71875 -13.703125 2.34375 -13.421875 C 1.96875 -13.148438 1.59375 -13.015625 1.21875 -13.015625 C 1.082031 -13.015625 0.957031 -13.054688 0.84375 -13.140625 C 0.726562 -13.222656 0.671875 -13.375 0.671875 -13.59375 C 0.671875 -13.820312 0.742188 -13.953125 0.890625 -13.984375 C 1.046875 -14.015625 1.242188 -14.085938 1.484375 -14.203125 C 1.753906 -14.359375 1.960938 -14.535156 2.109375 -14.734375 C 2.253906 -14.929688 2.328125 -15.160156 2.328125 -15.421875 C 2.328125 -15.640625 2.265625 -15.804688 2.140625 -15.921875 C 2.023438 -16.035156 1.882812 -16.09375 1.71875 -16.09375 C 1.601562 -16.09375 1.484375 -16.070312 1.359375 -16.03125 C 1.242188 -15.988281 1.144531 -15.9375 1.0625 -15.875 C 0.96875 -15.957031 0.890625 -16.050781 0.828125 -16.15625 C 0.773438 -16.269531 0.75 -16.398438 0.75 -16.546875 C 0.78125 -16.828125 0.9375 -17.066406 1.21875 -17.265625 C 1.5 -17.460938 1.8125 -17.5625 2.15625 -17.5625 C 2.601562 -17.5625 2.972656 -17.382812 3.265625 -17.03125 C 3.554688 -16.675781 3.703125 -16.257812 3.703125 -15.78125 Z M 3.703125 -15.78125 "/></g></g></g><g fill="#404040" fill-opacity="1"><g transform="translate(232.08582, 67.45512)"><g><path d="M 7.125 0.25 C 5.863281 0.257812 4.769531 0.0625 3.84375 -0.34375 C 2.914062 -0.757812 2.03125 -1.382812 1.1875 -2.21875 C 1.101562 -2.28125 1.03125 -2.359375 0.96875 -2.453125 C 0.914062 -2.554688 0.890625 -2.675781 0.890625 -2.8125 C 0.890625 -3.007812 0.96875 -3.191406 1.125 -3.359375 C 1.28125 -3.523438 1.460938 -3.609375 1.671875 -3.609375 C 1.867188 -3.609375 2.050781 -3.523438 2.21875 -3.359375 C 2.863281 -2.660156 3.59375 -2.128906 4.40625 -1.765625 C 5.226562 -1.398438 6.113281 -1.21875 7.0625 -1.21875 C 7.851562 -1.21875 8.554688 -1.34375 9.171875 -1.59375 C 9.796875 -1.84375 10.289062 -2.195312 10.65625 -2.65625 C 11.019531 -3.125 11.203125 -3.660156 11.203125 -4.265625 C 11.203125 -5.035156 10.992188 -5.65625 10.578125 -6.125 C 10.171875 -6.59375 9.625 -6.976562 8.9375 -7.28125 C 8.257812 -7.59375 7.507812 -7.875 6.6875 -8.125 C 6.007812 -8.320312 5.363281 -8.546875 4.75 -8.796875 C 4.132812 -9.054688 3.585938 -9.375 3.109375 -9.75 C 2.628906 -10.125 2.253906 -10.582031 1.984375 -11.125 C 1.722656 -11.675781 1.59375 -12.34375 1.59375 -13.125 C 1.59375 -14 1.820312 -14.773438 2.28125 -15.453125 C 2.75 -16.128906 3.410156 -16.660156 4.265625 -17.046875 C 5.117188 -17.441406 6.109375 -17.640625 7.234375 -17.640625 C 8.203125 -17.640625 9.140625 -17.472656 10.046875 -17.140625 C 10.953125 -16.804688 11.671875 -16.316406 12.203125 -15.671875 C 12.453125 -15.410156 12.578125 -15.171875 12.578125 -14.953125 C 12.578125 -14.785156 12.492188 -14.617188 12.328125 -14.453125 C 12.160156 -14.285156 11.976562 -14.203125 11.78125 -14.203125 C 11.613281 -14.203125 11.472656 -14.265625 11.359375 -14.390625 C 11.078125 -14.734375 10.71875 -15.039062 10.28125 -15.3125 C 9.851562 -15.582031 9.378906 -15.789062 8.859375 -15.9375 C 8.335938 -16.09375 7.796875 -16.171875 7.234375 -16.171875 C 6.453125 -16.171875 5.75 -16.050781 5.125 -15.8125 C 4.507812 -15.570312 4.019531 -15.226562 3.65625 -14.78125 C 3.300781 -14.332031 3.125 -13.796875 3.125 -13.171875 C 3.125 -12.472656 3.320312 -11.898438 3.71875 -11.453125 C 4.125 -11.003906 4.648438 -10.632812 5.296875 -10.34375 C 5.941406 -10.050781 6.628906 -9.785156 7.359375 -9.546875 C 8.066406 -9.335938 8.75 -9.101562 9.40625 -8.84375 C 10.0625 -8.59375 10.640625 -8.273438 11.140625 -7.890625 C 11.648438 -7.515625 12.046875 -7.035156 12.328125 -6.453125 C 12.617188 -5.878906 12.765625 -5.148438 12.765625 -4.265625 C 12.765625 -3.421875 12.523438 -2.660156 12.046875 -1.984375 C 11.566406 -1.304688 10.90625 -0.769531 10.0625 -0.375 C 9.226562 0.0195312 8.25 0.226562 7.125 0.25 Z M 7.125 0.25 "/></g></g></g><g fill="#404040" fill-opacity="1"><g transform="translate(246.043835, 67.45512)"><g/></g></g><g fill="#404040" fill-opacity="1"><g transform="translate(252.824147, 67.45512)"><g><path d="M 7.125 0.25 C 5.863281 0.257812 4.769531 0.0625 3.84375 -0.34375 C 2.914062 -0.757812 2.03125 -1.382812 1.1875 -2.21875 C 1.101562 -2.28125 1.03125 -2.359375 0.96875 -2.453125 C 0.914062 -2.554688 0.890625 -2.675781 0.890625 -2.8125 C 0.890625 -3.007812 0.96875 -3.191406 1.125 -3.359375 C 1.28125 -3.523438 1.460938 -3.609375 1.671875 -3.609375 C 1.867188 -3.609375 2.050781 -3.523438 2.21875 -3.359375 C 2.863281 -2.660156 3.59375 -2.128906 4.40625 -1.765625 C 5.226562 -1.398438 6.113281 -1.21875 7.0625 -1.21875 C 7.851562 -1.21875 8.554688 -1.34375 9.171875 -1.59375 C 9.796875 -1.84375 10.289062 -2.195312 10.65625 -2.65625 C 11.019531 -3.125 11.203125 -3.660156 11.203125 -4.265625 C 11.203125 -5.035156 10.992188 -5.65625 10.578125 -6.125 C 10.171875 -6.59375 9.625 -6.976562 8.9375 -7.28125 C 8.257812 -7.59375 7.507812 -7.875 6.6875 -8.125 C 6.007812 -8.320312 5.363281 -8.546875 4.75 -8.796875 C 4.132812 -9.054688 3.585938 -9.375 3.109375 -9.75 C 2.628906 -10.125 2.253906 -10.582031 1.984375 -11.125 C 1.722656 -11.675781 1.59375 -12.34375 1.59375 -13.125 C 1.59375 -14 1.820312 -14.773438 2.28125 -15.453125 C 2.75 -16.128906 3.410156 -16.660156 4.265625 -17.046875 C 5.117188 -17.441406 6.109375 -17.640625 7.234375 -17.640625 C 8.203125 -17.640625 9.140625 -17.472656 10.046875 -17.140625 C 10.953125 -16.804688 11.671875 -16.316406 12.203125 -15.671875 C 12.453125 -15.410156 12.578125 -15.171875 12.578125 -14.953125 C 12.578125 -14.785156 12.492188 -14.617188 12.328125 -14.453125 C 12.160156 -14.285156 11.976562 -14.203125 11.78125 -14.203125 C 11.613281 -14.203125 11.472656 -14.265625 11.359375 -14.390625 C 11.078125 -14.734375 10.71875 -15.039062 10.28125 -15.3125 C 9.851562 -15.582031 9.378906 -15.789062 8.859375 -15.9375 C 8.335938 -16.09375 7.796875 -16.171875 7.234375 -16.171875 C 6.453125 -16.171875 5.75 -16.050781 5.125 -15.8125 C 4.507812 -15.570312 4.019531 -15.226562 3.65625 -14.78125 C 3.300781 -14.332031 3.125 -13.796875 3.125 -13.171875 C 3.125 -12.472656 3.320312 -11.898438 3.71875 -11.453125 C 4.125 -11.003906 4.648438 -10.632812 5.296875 -10.34375 C 5.941406 -10.050781 6.628906 -9.785156 7.359375 -9.546875 C 8.066406 -9.335938 8.75 -9.101562 9.40625 -8.84375 C 10.0625 -8.59375 10.640625 -8.273438 11.140625 -7.890625 C 11.648438 -7.515625 12.046875 -7.035156 12.328125 -6.453125 C 12.617188 -5.878906 12.765625 -5.148438 12.765625 -4.265625 C 12.765625 -3.421875 12.523438 -2.660156 12.046875 -1.984375 C 11.566406 -1.304688 10.90625 -0.769531 10.0625 -0.375 C 9.226562 0.0195312 8.25 0.226562 7.125 0.25 Z M 7.125 0.25 "/></g></g></g><g fill="#404040" fill-opacity="1"><g transform="translate(266.782162, 67.45512)"><g><path d="M 15.03125 -16.09375 C 15.226562 -15.96875 15.34375 -15.800781 15.375 -15.59375 C 15.40625 -15.382812 15.359375 -15.179688 15.234375 -14.984375 C 15.117188 -14.828125 14.96875 -14.738281 14.78125 -14.71875 C 14.601562 -14.707031 14.429688 -14.742188 14.265625 -14.828125 C 13.628906 -15.242188 12.953125 -15.566406 12.234375 -15.796875 C 11.515625 -16.023438 10.738281 -16.140625 9.90625 -16.140625 C 8.894531 -16.140625 7.953125 -15.960938 7.078125 -15.609375 C 6.210938 -15.253906 5.457031 -14.738281 4.8125 -14.0625 C 4.164062 -13.394531 3.664062 -12.601562 3.3125 -11.6875 C 2.957031 -10.78125 2.78125 -9.78125 2.78125 -8.6875 C 2.78125 -7.5625 2.960938 -6.539062 3.328125 -5.625 C 3.691406 -4.707031 4.203125 -3.914062 4.859375 -3.25 C 5.515625 -2.59375 6.269531 -2.085938 7.125 -1.734375 C 7.988281 -1.390625 8.914062 -1.21875 9.90625 -1.21875 C 10.71875 -1.21875 11.484375 -1.332031 12.203125 -1.5625 C 12.929688 -1.789062 13.609375 -2.109375 14.234375 -2.515625 C 14.398438 -2.609375 14.578125 -2.640625 14.765625 -2.609375 C 14.960938 -2.585938 15.117188 -2.492188 15.234375 -2.328125 C 15.378906 -2.148438 15.429688 -1.957031 15.390625 -1.75 C 15.347656 -1.539062 15.238281 -1.378906 15.0625 -1.265625 C 14.644531 -1.003906 14.15625 -0.753906 13.59375 -0.515625 C 13.03125 -0.285156 12.429688 -0.101562 11.796875 0.03125 C 11.171875 0.175781 10.539062 0.25 9.90625 0.25 C 8.71875 0.25 7.601562 0.0351562 6.5625 -0.390625 C 5.519531 -0.828125 4.59375 -1.4375 3.78125 -2.21875 C 2.96875 -3.007812 2.332031 -3.953125 1.875 -5.046875 C 1.414062 -6.140625 1.1875 -7.351562 1.1875 -8.6875 C 1.1875 -9.988281 1.410156 -11.179688 1.859375 -12.265625 C 2.304688 -13.347656 2.925781 -14.285156 3.71875 -15.078125 C 4.519531 -15.867188 5.445312 -16.488281 6.5 -16.9375 C 7.5625 -17.382812 8.695312 -17.609375 9.90625 -17.609375 C 10.851562 -17.609375 11.765625 -17.472656 12.640625 -17.203125 C 13.523438 -16.941406 14.320312 -16.570312 15.03125 -16.09375 Z M 15.03125 -16.09375 "/></g></g></g><g fill="#404040" fill-opacity="1"><g transform="translate(283.000272, 67.45512)"><g><path d="M 3.125 -17.390625 C 3.320312 -17.390625 3.5 -17.3125 3.65625 -17.15625 C 3.820312 -17.007812 3.90625 -16.832031 3.90625 -16.625 L 3.90625 -0.765625 C 3.882812 -0.554688 3.796875 -0.375 3.640625 -0.21875 C 3.484375 -0.0703125 3.304688 0 3.109375 0 C 2.867188 0 2.675781 -0.0703125 2.53125 -0.21875 C 2.394531 -0.375 2.328125 -0.554688 2.328125 -0.765625 L 2.328125 -16.625 C 2.328125 -16.832031 2.398438 -17.007812 2.546875 -17.15625 C 2.703125 -17.3125 2.894531 -17.390625 3.125 -17.390625 Z M 14.78125 -17.390625 C 15.007812 -17.390625 15.191406 -17.3125 15.328125 -17.15625 C 15.472656 -17.007812 15.546875 -16.832031 15.546875 -16.625 L 15.546875 -0.765625 C 15.535156 -0.554688 15.457031 -0.375 15.3125 -0.21875 C 15.175781 -0.0703125 14.988281 0 14.75 0 C 14.539062 0 14.359375 -0.0703125 14.203125 -0.21875 C 14.054688 -0.375 13.984375 -0.554688 13.984375 -0.765625 L 13.984375 -16.625 C 13.984375 -16.832031 14.0625 -17.007812 14.21875 -17.15625 C 14.375 -17.3125 14.5625 -17.390625 14.78125 -17.390625 Z M 3 -9.609375 L 14.8125 -9.609375 L 14.78125 -8.171875 L 2.90625 -8.171875 Z M 3 -9.609375 "/></g></g></g><g fill="#404040" fill-opacity="1"><g transform="translate(300.882418, 67.45512)"><g><path d="M 3.078125 -17.390625 L 12.203125 -17.390625 C 12.398438 -17.390625 12.570312 -17.316406 12.71875 -17.171875 C 12.863281 -17.035156 12.9375 -16.859375 12.9375 -16.640625 C 12.9375 -16.429688 12.863281 -16.257812 12.71875 -16.125 C 12.570312 -15.988281 12.398438 -15.921875 12.203125 -15.921875 L 3.65625 -15.921875 L 3.90625 -16.34375 L 3.90625 -9.359375 L 3.625 -9.6875 L 11.078125 -9.6875 C 11.273438 -9.6875 11.445312 -9.609375 11.59375 -9.453125 C 11.75 -9.304688 11.828125 -9.132812 11.828125 -8.9375 C 11.828125 -8.726562 11.75 -8.554688 11.59375 -8.421875 C 11.445312 -8.285156 11.273438 -8.21875 11.078125 -8.21875 L 3.671875 -8.21875 L 3.90625 -8.46875 L 3.90625 -1.3125 L 3.78125 -1.46875 L 12.203125 -1.46875 C 12.398438 -1.46875 12.570312 -1.390625 12.71875 -1.234375 C 12.863281 -1.085938 12.9375 -0.914062 12.9375 -0.71875 C 12.9375 -0.5 12.863281 -0.320312 12.71875 -0.1875 C 12.570312 -0.0625 12.398438 0 12.203125 0 L 3.078125 0 C 2.878906 0 2.703125 -0.0703125 2.546875 -0.21875 C 2.398438 -0.375 2.328125 -0.550781 2.328125 -0.75 L 2.328125 -16.640625 C 2.328125 -16.835938 2.398438 -17.007812 2.546875 -17.15625 C 2.703125 -17.3125 2.878906 -17.390625 3.078125 -17.390625 Z M 3.078125 -17.390625 "/></g></g></g><g fill="#404040" fill-opacity="1"><g transform="translate(314.989442, 67.45512)"><g><path d="M 9.421875 -17.390625 C 10.640625 -17.390625 11.707031 -17.15625 12.625 -16.6875 C 13.550781 -16.226562 14.3125 -15.585938 14.90625 -14.765625 C 15.5 -13.953125 15.941406 -13.019531 16.234375 -11.96875 C 16.523438 -10.925781 16.671875 -9.832031 16.671875 -8.6875 C 16.671875 -7.101562 16.410156 -5.648438 15.890625 -4.328125 C 15.367188 -3.015625 14.570312 -1.960938 13.5 -1.171875 C 12.4375 -0.390625 11.078125 0 9.421875 0 L 3.078125 0 C 2.878906 0 2.703125 -0.0703125 2.546875 -0.21875 C 2.398438 -0.375 2.328125 -0.550781 2.328125 -0.75 L 2.328125 -16.640625 C 2.328125 -16.835938 2.398438 -17.007812 2.546875 -17.15625 C 2.703125 -17.3125 2.878906 -17.390625 3.078125 -17.390625 Z M 9.171875 -1.46875 C 10.578125 -1.46875 11.707031 -1.789062 12.5625 -2.4375 C 13.425781 -3.082031 14.0625 -3.953125 14.46875 -5.046875 C 14.875 -6.148438 15.078125 -7.363281 15.078125 -8.6875 C 15.078125 -9.65625 14.960938 -10.570312 14.734375 -11.4375 C 14.515625 -12.3125 14.171875 -13.082031 13.703125 -13.75 C 13.234375 -14.414062 12.617188 -14.941406 11.859375 -15.328125 C 11.109375 -15.722656 10.210938 -15.921875 9.171875 -15.921875 L 3.71875 -15.921875 L 3.90625 -16.140625 L 3.90625 -1.21875 L 3.75 -1.46875 Z M 9.171875 -1.46875 "/></g></g></g><g fill="#404040" fill-opacity="1"><g transform="translate(332.846751, 67.45512)"><g><path d="M 14.640625 -17.390625 C 14.867188 -17.390625 15.046875 -17.316406 15.171875 -17.171875 C 15.304688 -17.035156 15.375 -16.859375 15.375 -16.640625 L 15.375 -6.359375 C 15.375 -5.128906 15.082031 -4.019531 14.5 -3.03125 C 13.925781 -2.039062 13.148438 -1.25 12.171875 -0.65625 C 11.191406 -0.0703125 10.09375 0.21875 8.875 0.21875 C 7.644531 0.21875 6.535156 -0.0703125 5.546875 -0.65625 C 4.566406 -1.25 3.785156 -2.039062 3.203125 -3.03125 C 2.617188 -4.019531 2.328125 -5.128906 2.328125 -6.359375 L 2.328125 -16.640625 C 2.328125 -16.859375 2.394531 -17.035156 2.53125 -17.171875 C 2.675781 -17.316406 2.875 -17.390625 3.125 -17.390625 C 3.320312 -17.390625 3.492188 -17.316406 3.640625 -17.171875 C 3.796875 -17.035156 3.875 -16.859375 3.875 -16.640625 L 3.875 -6.359375 C 3.875 -5.398438 4.097656 -4.539062 4.546875 -3.78125 C 5.003906 -3.019531 5.613281 -2.410156 6.375 -1.953125 C 7.144531 -1.492188 7.976562 -1.265625 8.875 -1.265625 C 9.800781 -1.265625 10.644531 -1.492188 11.40625 -1.953125 C 12.164062 -2.410156 12.769531 -3.019531 13.21875 -3.78125 C 13.675781 -4.539062 13.90625 -5.398438 13.90625 -6.359375 L 13.90625 -16.640625 C 13.90625 -16.859375 13.972656 -17.035156 14.109375 -17.171875 C 14.242188 -17.316406 14.421875 -17.390625 14.640625 -17.390625 Z M 14.640625 -17.390625 "/></g></g></g><g fill="#404040" fill-opacity="1"><g transform="translate(350.555061, 67.45512)"><g><path d="M 11.953125 -1.46875 C 12.148438 -1.46875 12.320312 -1.394531 12.46875 -1.25 C 12.613281 -1.113281 12.6875 -0.945312 12.6875 -0.75 C 12.6875 -0.53125 12.613281 -0.347656 12.46875 -0.203125 C 12.320312 -0.0664062 12.148438 0 11.953125 0 L 3.078125 0 C 2.859375 0 2.675781 -0.0703125 2.53125 -0.21875 C 2.394531 -0.375 2.328125 -0.550781 2.328125 -0.75 L 2.328125 -16.640625 C 2.328125 -16.835938 2.398438 -17.007812 2.546875 -17.15625 C 2.703125 -17.3125 2.894531 -17.390625 3.125 -17.390625 C 3.320312 -17.390625 3.5 -17.3125 3.65625 -17.15625 C 3.820312 -17.007812 3.90625 -16.835938 3.90625 -16.640625 L 3.90625 -1.046875 L 3.421875 -1.46875 Z M 11.953125 -1.46875 "/></g></g></g><g fill="#404040" fill-opacity="1"><g transform="translate(363.76797, 67.45512)"><g><path d="M 3.078125 -17.390625 L 12.203125 -17.390625 C 12.398438 -17.390625 12.570312 -17.316406 12.71875 -17.171875 C 12.863281 -17.035156 12.9375 -16.859375 12.9375 -16.640625 C 12.9375 -16.429688 12.863281 -16.257812 12.71875 -16.125 C 12.570312 -15.988281 12.398438 -15.921875 12.203125 -15.921875 L 3.65625 -15.921875 L 3.90625 -16.34375 L 3.90625 -9.359375 L 3.625 -9.6875 L 11.078125 -9.6875 C 11.273438 -9.6875 11.445312 -9.609375 11.59375 -9.453125 C 11.75 -9.304688 11.828125 -9.132812 11.828125 -8.9375 C 11.828125 -8.726562 11.75 -8.554688 11.59375 -8.421875 C 11.445312 -8.285156 11.273438 -8.21875 11.078125 -8.21875 L 3.671875 -8.21875 L 3.90625 -8.46875 L 3.90625 -1.3125 L 3.78125 -1.46875 L 12.203125 -1.46875 C 12.398438 -1.46875 12.570312 -1.390625 12.71875 -1.234375 C 12.863281 -1.085938 12.9375 -0.914062 12.9375 -0.71875 C 12.9375 -0.5 12.863281 -0.320312 12.71875 -0.1875 C 12.570312 -0.0625 12.398438 0 12.203125 0 L 3.078125 0 C 2.878906 0 2.703125 -0.0703125 2.546875 -0.21875 C 2.398438 -0.375 2.328125 -0.550781 2.328125 -0.75 L 2.328125 -16.640625 C 2.328125 -16.835938 2.398438 -17.007812 2.546875 -17.15625 C 2.703125 -17.3125 2.878906 -17.390625 3.078125 -17.390625 Z M 3.078125 -17.390625 "/></g></g></g><g fill="#404040" fill-opacity="1"><g transform="translate(64.214009, 134.626121)"><g><path d="M 1.34375 -6.203125 C 1.164062 -6.203125 1.03125 -6.253906 0.9375 -6.359375 C 0.851562 -6.460938 0.8125 -6.597656 0.8125 -6.765625 L 0.8125 -7.078125 C 0.8125 -7.253906 0.851562 -7.394531 0.9375 -7.5 C 1.03125 -7.601562 1.164062 -7.65625 1.34375 -7.65625 L 1.4375 -7.65625 C 1.601562 -7.65625 1.734375 -7.601562 1.828125 -7.5 C 1.921875 -7.394531 1.96875 -7.253906 1.96875 -7.078125 L 1.96875 -6.765625 C 1.96875 -6.597656 1.921875 -6.460938 1.828125 -6.359375 C 1.734375 -6.253906 1.601562 -6.203125 1.4375 -6.203125 Z M 1.34375 0 C 1.164062 0 1.03125 -0.0507812 0.9375 -0.15625 C 0.851562 -0.257812 0.8125 -0.394531 0.8125 -0.5625 L 0.8125 -0.890625 C 0.8125 -1.066406 0.851562 -1.203125 0.9375 -1.296875 C 1.03125 -1.398438 1.164062 -1.453125 1.34375 -1.453125 L 1.4375 -1.453125 C 1.601562 -1.453125 1.734375 -1.398438 1.828125 -1.296875 C 1.921875 -1.203125 1.96875 -1.066406 1.96875 -0.890625 L 1.96875 -0.5625 C 1.96875 -0.394531 1.921875 -0.257812 1.828125 -0.15625 C 1.734375 -0.0507812 1.601562 0 1.4375 0 Z M 1.34375 0 "/></g></g></g><g fill="#404040" fill-opacity="1"><g transform="translate(66.990139, 134.626121)"><g><path d="M 4.40625 0.15625 C 3.613281 0.15625 2.953125 -0.0820312 2.421875 -0.5625 C 1.890625 -1.039062 1.488281 -1.679688 1.21875 -2.484375 C 0.945312 -3.296875 0.8125 -4.203125 0.8125 -5.203125 C 0.8125 -6.210938 0.945312 -7.117188 1.21875 -7.921875 C 1.488281 -8.734375 1.890625 -9.375 2.421875 -9.84375 C 2.953125 -10.3125 3.613281 -10.546875 4.40625 -10.546875 C 5.21875 -10.546875 5.890625 -10.3125 6.421875 -9.84375 C 6.953125 -9.375 7.351562 -8.734375 7.625 -7.921875 C 7.894531 -7.117188 8.03125 -6.210938 8.03125 -5.203125 C 8.03125 -4.203125 7.894531 -3.296875 7.625 -2.484375 C 7.351562 -1.679688 6.953125 -1.039062 6.421875 -0.5625 C 5.890625 -0.0820312 5.21875 0.15625 4.40625 0.15625 Z M 4.40625 -0.765625 C 5 -0.765625 5.488281 -0.945312 5.875 -1.3125 C 6.269531 -1.6875 6.566406 -2.207031 6.765625 -2.875 C 6.972656 -3.539062 7.078125 -4.316406 7.078125 -5.203125 C 7.078125 -6.085938 6.972656 -6.863281 6.765625 -7.53125 C 6.566406 -8.207031 6.269531 -8.726562 5.875 -9.09375 C 5.488281 -9.457031 5 -9.640625 4.40625 -9.640625 C 3.832031 -9.640625 3.347656 -9.457031 2.953125 -9.09375 C 2.566406 -8.726562 2.269531 -8.207031 2.0625 -7.53125 C 1.863281 -6.863281 1.765625 -6.085938 1.765625 -5.203125 C 1.765625 -4.316406 1.863281 -3.539062 2.0625 -2.875 C 2.269531 -2.207031 2.566406 -1.6875 2.953125 -1.3125 C 3.347656 -0.945312 3.832031 -0.765625 4.40625 -0.765625 Z M 4.40625 -0.765625 "/></g></g></g><g fill="#404040" fill-opacity="1"><g transform="translate(75.823273, 134.626121)"><g><path d="M 4.40625 0.15625 C 3.613281 0.15625 2.953125 -0.0820312 2.421875 -0.5625 C 1.890625 -1.039062 1.488281 -1.679688 1.21875 -2.484375 C 0.945312 -3.296875 0.8125 -4.203125 0.8125 -5.203125 C 0.8125 -6.210938 0.945312 -7.117188 1.21875 -7.921875 C 1.488281 -8.734375 1.890625 -9.375 2.421875 -9.84375 C 2.953125 -10.3125 3.613281 -10.546875 4.40625 -10.546875 C 5.21875 -10.546875 5.890625 -10.3125 6.421875 -9.84375 C 6.953125 -9.375 7.351562 -8.734375 7.625 -7.921875 C 7.894531 -7.117188 8.03125 -6.210938 8.03125 -5.203125 C 8.03125 -4.203125 7.894531 -3.296875 7.625 -2.484375 C 7.351562 -1.679688 6.953125 -1.039062 6.421875 -0.5625 C 5.890625 -0.0820312 5.21875 0.15625 4.40625 0.15625 Z M 4.40625 -0.765625 C 5 -0.765625 5.488281 -0.945312 5.875 -1.3125 C 6.269531 -1.6875 6.566406 -2.207031 6.765625 -2.875 C 6.972656 -3.539062 7.078125 -4.316406 7.078125 -5.203125 C 7.078125 -6.085938 6.972656 -6.863281 6.765625 -7.53125 C 6.566406 -8.207031 6.269531 -8.726562 5.875 -9.09375 C 5.488281 -9.457031 5 -9.640625 4.40625 -9.640625 C 3.832031 -9.640625 3.347656 -9.457031 2.953125 -9.09375 C 2.566406 -8.726562 2.269531 -8.207031 2.0625 -7.53125 C 1.863281 -6.863281 1.765625 -6.085938 1.765625 -5.203125 C 1.765625 -4.316406 1.863281 -3.539062 2.0625 -2.875 C 2.269531 -2.207031 2.566406 -1.6875 2.953125 -1.3125 C 3.347656 -0.945312 3.832031 -0.765625 4.40625 -0.765625 Z M 4.40625 -0.765625 "/></g></g></g><g fill="#404040" fill-opacity="1"><g transform="translate(64.214009, 182.259006)"><g><path d="M 1.34375 -6.203125 C 1.164062 -6.203125 1.03125 -6.253906 0.9375 -6.359375 C 0.851562 -6.460938 0.8125 -6.597656 0.8125 -6.765625 L 0.8125 -7.078125 C 0.8125 -7.253906 0.851562 -7.394531 0.9375 -7.5 C 1.03125 -7.601562 1.164062 -7.65625 1.34375 -7.65625 L 1.4375 -7.65625 C 1.601562 -7.65625 1.734375 -7.601562 1.828125 -7.5 C 1.921875 -7.394531 1.96875 -7.253906 1.96875 -7.078125 L 1.96875 -6.765625 C 1.96875 -6.597656 1.921875 -6.460938 1.828125 -6.359375 C 1.734375 -6.253906 1.601562 -6.203125 1.4375 -6.203125 Z M 1.34375 0 C 1.164062 0 1.03125 -0.0507812 0.9375 -0.15625 C 0.851562 -0.257812 0.8125 -0.394531 0.8125 -0.5625 L 0.8125 -0.890625 C 0.8125 -1.066406 0.851562 -1.203125 0.9375 -1.296875 C 1.03125 -1.398438 1.164062 -1.453125 1.34375 -1.453125 L 1.4375 -1.453125 C 1.601562 -1.453125 1.734375 -1.398438 1.828125 -1.296875 C 1.921875 -1.203125 1.96875 -1.066406 1.96875 -0.890625 L 1.96875 -0.5625 C 1.96875 -0.394531 1.921875 -0.257812 1.828125 -0.15625 C 1.734375 -0.0507812 1.601562 0 1.4375 0 Z M 1.34375 0 "/></g></g></g><g fill="#404040" fill-opacity="1"><g transform="translate(66.990139, 182.259006)"><g><path d="M 4.40625 0.15625 C 3.613281 0.15625 2.953125 -0.0820312 2.421875 -0.5625 C 1.890625 -1.039062 1.488281 -1.679688 1.21875 -2.484375 C 0.945312 -3.296875 0.8125 -4.203125 0.8125 -5.203125 C 0.8125 -6.210938 0.945312 -7.117188 1.21875 -7.921875 C 1.488281 -8.734375 1.890625 -9.375 2.421875 -9.84375 C 2.953125 -10.3125 3.613281 -10.546875 4.40625 -10.546875 C 5.21875 -10.546875 5.890625 -10.3125 6.421875 -9.84375 C 6.953125 -9.375 7.351562 -8.734375 7.625 -7.921875 C 7.894531 -7.117188 8.03125 -6.210938 8.03125 -5.203125 C 8.03125 -4.203125 7.894531 -3.296875 7.625 -2.484375 C 7.351562 -1.679688 6.953125 -1.039062 6.421875 -0.5625 C 5.890625 -0.0820312 5.21875 0.15625 4.40625 0.15625 Z M 4.40625 -0.765625 C 5 -0.765625 5.488281 -0.945312 5.875 -1.3125 C 6.269531 -1.6875 6.566406 -2.207031 6.765625 -2.875 C 6.972656 -3.539062 7.078125 -4.316406 7.078125 -5.203125 C 7.078125 -6.085938 6.972656 -6.863281 6.765625 -7.53125 C 6.566406 -8.207031 6.269531 -8.726562 5.875 -9.09375 C 5.488281 -9.457031 5 -9.640625 4.40625 -9.640625 C 3.832031 -9.640625 3.347656 -9.457031 2.953125 -9.09375 C 2.566406 -8.726562 2.269531 -8.207031 2.0625 -7.53125 C 1.863281 -6.863281 1.765625 -6.085938 1.765625 -5.203125 C 1.765625 -4.316406 1.863281 -3.539062 2.0625 -2.875 C 2.269531 -2.207031 2.566406 -1.6875 2.953125 -1.3125 C 3.347656 -0.945312 3.832031 -0.765625 4.40625 -0.765625 Z M 4.40625 -0.765625 "/></g></g></g><g fill="#404040" fill-opacity="1"><g transform="translate(75.823273, 182.259006)"><g><path d="M 4.40625 0.15625 C 3.613281 0.15625 2.953125 -0.0820312 2.421875 -0.5625 C 1.890625 -1.039062 1.488281 -1.679688 1.21875 -2.484375 C 0.945312 -3.296875 0.8125 -4.203125 0.8125 -5.203125 C 0.8125 -6.210938 0.945312 -7.117188 1.21875 -7.921875 C 1.488281 -8.734375 1.890625 -9.375 2.421875 -9.84375 C 2.953125 -10.3125 3.613281 -10.546875 4.40625 -10.546875 C 5.21875 -10.546875 5.890625 -10.3125 6.421875 -9.84375 C 6.953125 -9.375 7.351562 -8.734375 7.625 -7.921875 C 7.894531 -7.117188 8.03125 -6.210938 8.03125 -5.203125 C 8.03125 -4.203125 7.894531 -3.296875 7.625 -2.484375 C 7.351562 -1.679688 6.953125 -1.039062 6.421875 -0.5625 C 5.890625 -0.0820312 5.21875 0.15625 4.40625 0.15625 Z M 4.40625 -0.765625 C 5 -0.765625 5.488281 -0.945312 5.875 -1.3125 C 6.269531 -1.6875 6.566406 -2.207031 6.765625 -2.875 C 6.972656 -3.539062 7.078125 -4.316406 7.078125 -5.203125 C 7.078125 -6.085938 6.972656 -6.863281 6.765625 -7.53125 C 6.566406 -8.207031 6.269531 -8.726562 5.875 -9.09375 C 5.488281 -9.457031 5 -9.640625 4.40625 -9.640625 C 3.832031 -9.640625 3.347656 -9.457031 2.953125 -9.09375 C 2.566406 -8.726562 2.269531 -8.207031 2.0625 -7.53125 C 1.863281 -6.863281 1.765625 -6.085938 1.765625 -5.203125 C 1.765625 -4.316406 1.863281 -3.539062 2.0625 -2.875 C 2.269531 -2.207031 2.566406 -1.6875 2.953125 -1.3125 C 3.347656 -0.945312 3.832031 -0.765625 4.40625 -0.765625 Z M 4.40625 -0.765625 "/></g></g></g><g fill="#404040" fill-opacity="1"><g transform="translate(64.214009, 232.455627)"><g><path d="M 1.34375 -6.203125 C 1.164062 -6.203125 1.03125 -6.253906 0.9375 -6.359375 C 0.851562 -6.460938 0.8125 -6.597656 0.8125 -6.765625 L 0.8125 -7.078125 C 0.8125 -7.253906 0.851562 -7.394531 0.9375 -7.5 C 1.03125 -7.601562 1.164062 -7.65625 1.34375 -7.65625 L 1.4375 -7.65625 C 1.601562 -7.65625 1.734375 -7.601562 1.828125 -7.5 C 1.921875 -7.394531 1.96875 -7.253906 1.96875 -7.078125 L 1.96875 -6.765625 C 1.96875 -6.597656 1.921875 -6.460938 1.828125 -6.359375 C 1.734375 -6.253906 1.601562 -6.203125 1.4375 -6.203125 Z M 1.34375 0 C 1.164062 0 1.03125 -0.0507812 0.9375 -0.15625 C 0.851562 -0.257812 0.8125 -0.394531 0.8125 -0.5625 L 0.8125 -0.890625 C 0.8125 -1.066406 0.851562 -1.203125 0.9375 -1.296875 C 1.03125 -1.398438 1.164062 -1.453125 1.34375 -1.453125 L 1.4375 -1.453125 C 1.601562 -1.453125 1.734375 -1.398438 1.828125 -1.296875 C 1.921875 -1.203125 1.96875 -1.066406 1.96875 -0.890625 L 1.96875 -0.5625 C 1.96875 -0.394531 1.921875 -0.257812 1.828125 -0.15625 C 1.734375 -0.0507812 1.601562 0 1.4375 0 Z M 1.34375 0 "/></g></g></g><g fill="#404040" fill-opacity="1"><g transform="translate(66.990139, 232.455627)"><g><path d="M 4.40625 0.15625 C 3.613281 0.15625 2.953125 -0.0820312 2.421875 -0.5625 C 1.890625 -1.039062 1.488281 -1.679688 1.21875 -2.484375 C 0.945312 -3.296875 0.8125 -4.203125 0.8125 -5.203125 C 0.8125 -6.210938 0.945312 -7.117188 1.21875 -7.921875 C 1.488281 -8.734375 1.890625 -9.375 2.421875 -9.84375 C 2.953125 -10.3125 3.613281 -10.546875 4.40625 -10.546875 C 5.21875 -10.546875 5.890625 -10.3125 6.421875 -9.84375 C 6.953125 -9.375 7.351562 -8.734375 7.625 -7.921875 C 7.894531 -7.117188 8.03125 -6.210938 8.03125 -5.203125 C 8.03125 -4.203125 7.894531 -3.296875 7.625 -2.484375 C 7.351562 -1.679688 6.953125 -1.039062 6.421875 -0.5625 C 5.890625 -0.0820312 5.21875 0.15625 4.40625 0.15625 Z M 4.40625 -0.765625 C 5 -0.765625 5.488281 -0.945312 5.875 -1.3125 C 6.269531 -1.6875 6.566406 -2.207031 6.765625 -2.875 C 6.972656 -3.539062 7.078125 -4.316406 7.078125 -5.203125 C 7.078125 -6.085938 6.972656 -6.863281 6.765625 -7.53125 C 6.566406 -8.207031 6.269531 -8.726562 5.875 -9.09375 C 5.488281 -9.457031 5 -9.640625 4.40625 -9.640625 C 3.832031 -9.640625 3.347656 -9.457031 2.953125 -9.09375 C 2.566406 -8.726562 2.269531 -8.207031 2.0625 -7.53125 C 1.863281 -6.863281 1.765625 -6.085938 1.765625 -5.203125 C 1.765625 -4.316406 1.863281 -3.539062 2.0625 -2.875 C 2.269531 -2.207031 2.566406 -1.6875 2.953125 -1.3125 C 3.347656 -0.945312 3.832031 -0.765625 4.40625 -0.765625 Z M 4.40625 -0.765625 "/></g></g></g><g fill="#404040" fill-opacity="1"><g transform="translate(75.823273, 232.455627)"><g><path d="M 4.40625 0.15625 C 3.613281 0.15625 2.953125 -0.0820312 2.421875 -0.5625 C 1.890625 -1.039062 1.488281 -1.679688 1.21875 -2.484375 C 0.945312 -3.296875 0.8125 -4.203125 0.8125 -5.203125 C 0.8125 -6.210938 0.945312 -7.117188 1.21875 -7.921875 C 1.488281 -8.734375 1.890625 -9.375 2.421875 -9.84375 C 2.953125 -10.3125 3.613281 -10.546875 4.40625 -10.546875 C 5.21875 -10.546875 5.890625 -10.3125 6.421875 -9.84375 C 6.953125 -9.375 7.351562 -8.734375 7.625 -7.921875 C 7.894531 -7.117188 8.03125 -6.210938 8.03125 -5.203125 C 8.03125 -4.203125 7.894531 -3.296875 7.625 -2.484375 C 7.351562 -1.679688 6.953125 -1.039062 6.421875 -0.5625 C 5.890625 -0.0820312 5.21875 0.15625 4.40625 0.15625 Z M 4.40625 -0.765625 C 5 -0.765625 5.488281 -0.945312 5.875 -1.3125 C 6.269531 -1.6875 6.566406 -2.207031 6.765625 -2.875 C 6.972656 -3.539062 7.078125 -4.316406 7.078125 -5.203125 C 7.078125 -6.085938 6.972656 -6.863281 6.765625 -7.53125 C 6.566406 -8.207031 6.269531 -8.726562 5.875 -9.09375 C 5.488281 -9.457031 5 -9.640625 4.40625 -9.640625 C 3.832031 -9.640625 3.347656 -9.457031 2.953125 -9.09375 C 2.566406 -8.726562 2.269531 -8.207031 2.0625 -7.53125 C 1.863281 -6.863281 1.765625 -6.085938 1.765625 -5.203125 C 1.765625 -4.316406 1.863281 -3.539062 2.0625 -2.875 C 2.269531 -2.207031 2.566406 -1.6875 2.953125 -1.3125 C 3.347656 -0.945312 3.832031 -0.765625 4.40625 -0.765625 Z M 4.40625 -0.765625 "/></g></g></g><g fill="#404040" fill-opacity="1"><g transform="translate(64.214009, 284.898398)"><g><path d="M 1.34375 -6.203125 C 1.164062 -6.203125 1.03125 -6.253906 0.9375 -6.359375 C 0.851562 -6.460938 0.8125 -6.597656 0.8125 -6.765625 L 0.8125 -7.078125 C 0.8125 -7.253906 0.851562 -7.394531 0.9375 -7.5 C 1.03125 -7.601562 1.164062 -7.65625 1.34375 -7.65625 L 1.4375 -7.65625 C 1.601562 -7.65625 1.734375 -7.601562 1.828125 -7.5 C 1.921875 -7.394531 1.96875 -7.253906 1.96875 -7.078125 L 1.96875 -6.765625 C 1.96875 -6.597656 1.921875 -6.460938 1.828125 -6.359375 C 1.734375 -6.253906 1.601562 -6.203125 1.4375 -6.203125 Z M 1.34375 0 C 1.164062 0 1.03125 -0.0507812 0.9375 -0.15625 C 0.851562 -0.257812 0.8125 -0.394531 0.8125 -0.5625 L 0.8125 -0.890625 C 0.8125 -1.066406 0.851562 -1.203125 0.9375 -1.296875 C 1.03125 -1.398438 1.164062 -1.453125 1.34375 -1.453125 L 1.4375 -1.453125 C 1.601562 -1.453125 1.734375 -1.398438 1.828125 -1.296875 C 1.921875 -1.203125 1.96875 -1.066406 1.96875 -0.890625 L 1.96875 -0.5625 C 1.96875 -0.394531 1.921875 -0.257812 1.828125 -0.15625 C 1.734375 -0.0507812 1.601562 0 1.4375 0 Z M 1.34375 0 "/></g></g></g><g fill="#404040" fill-opacity="1"><g transform="translate(66.990139, 284.898398)"><g><path d="M 4.40625 0.15625 C 3.613281 0.15625 2.953125 -0.0820312 2.421875 -0.5625 C 1.890625 -1.039062 1.488281 -1.679688 1.21875 -2.484375 C 0.945312 -3.296875 0.8125 -4.203125 0.8125 -5.203125 C 0.8125 -6.210938 0.945312 -7.117188 1.21875 -7.921875 C 1.488281 -8.734375 1.890625 -9.375 2.421875 -9.84375 C 2.953125 -10.3125 3.613281 -10.546875 4.40625 -10.546875 C 5.21875 -10.546875 5.890625 -10.3125 6.421875 -9.84375 C 6.953125 -9.375 7.351562 -8.734375 7.625 -7.921875 C 7.894531 -7.117188 8.03125 -6.210938 8.03125 -5.203125 C 8.03125 -4.203125 7.894531 -3.296875 7.625 -2.484375 C 7.351562 -1.679688 6.953125 -1.039062 6.421875 -0.5625 C 5.890625 -0.0820312 5.21875 0.15625 4.40625 0.15625 Z M 4.40625 -0.765625 C 5 -0.765625 5.488281 -0.945312 5.875 -1.3125 C 6.269531 -1.6875 6.566406 -2.207031 6.765625 -2.875 C 6.972656 -3.539062 7.078125 -4.316406 7.078125 -5.203125 C 7.078125 -6.085938 6.972656 -6.863281 6.765625 -7.53125 C 6.566406 -8.207031 6.269531 -8.726562 5.875 -9.09375 C 5.488281 -9.457031 5 -9.640625 4.40625 -9.640625 C 3.832031 -9.640625 3.347656 -9.457031 2.953125 -9.09375 C 2.566406 -8.726562 2.269531 -8.207031 2.0625 -7.53125 C 1.863281 -6.863281 1.765625 -6.085938 1.765625 -5.203125 C 1.765625 -4.316406 1.863281 -3.539062 2.0625 -2.875 C 2.269531 -2.207031 2.566406 -1.6875 2.953125 -1.3125 C 3.347656 -0.945312 3.832031 -0.765625 4.40625 -0.765625 Z M 4.40625 -0.765625 "/></g></g></g><g fill="#404040" fill-opacity="1"><g transform="translate(75.823273, 284.898398)"><g><path d="M 4.40625 0.15625 C 3.613281 0.15625 2.953125 -0.0820312 2.421875 -0.5625 C 1.890625 -1.039062 1.488281 -1.679688 1.21875 -2.484375 C 0.945312 -3.296875 0.8125 -4.203125 0.8125 -5.203125 C 0.8125 -6.210938 0.945312 -7.117188 1.21875 -7.921875 C 1.488281 -8.734375 1.890625 -9.375 2.421875 -9.84375 C 2.953125 -10.3125 3.613281 -10.546875 4.40625 -10.546875 C 5.21875 -10.546875 5.890625 -10.3125 6.421875 -9.84375 C 6.953125 -9.375 7.351562 -8.734375 7.625 -7.921875 C 7.894531 -7.117188 8.03125 -6.210938 8.03125 -5.203125 C 8.03125 -4.203125 7.894531 -3.296875 7.625 -2.484375 C 7.351562 -1.679688 6.953125 -1.039062 6.421875 -0.5625 C 5.890625 -0.0820312 5.21875 0.15625 4.40625 0.15625 Z M 4.40625 -0.765625 C 5 -0.765625 5.488281 -0.945312 5.875 -1.3125 C 6.269531 -1.6875 6.566406 -2.207031 6.765625 -2.875 C 6.972656 -3.539062 7.078125 -4.316406 7.078125 -5.203125 C 7.078125 -6.085938 6.972656 -6.863281 6.765625 -7.53125 C 6.566406 -8.207031 6.269531 -8.726562 5.875 -9.09375 C 5.488281 -9.457031 5 -9.640625 4.40625 -9.640625 C 3.832031 -9.640625 3.347656 -9.457031 2.953125 -9.09375 C 2.566406 -8.726562 2.269531 -8.207031 2.0625 -7.53125 C 1.863281 -6.863281 1.765625 -6.085938 1.765625 -5.203125 C 1.765625 -4.316406 1.863281 -3.539062 2.0625 -2.875 C 2.269531 -2.207031 2.566406 -1.6875 2.953125 -1.3125 C 3.347656 -0.945312 3.832031 -0.765625 4.40625 -0.765625 Z M 4.40625 -0.765625 "/></g></g></g><g fill="#404040" fill-opacity="1"><g transform="translate(64.214009, 335.09502)"><g><path d="M 1.34375 -6.203125 C 1.164062 -6.203125 1.03125 -6.253906 0.9375 -6.359375 C 0.851562 -6.460938 0.8125 -6.597656 0.8125 -6.765625 L 0.8125 -7.078125 C 0.8125 -7.253906 0.851562 -7.394531 0.9375 -7.5 C 1.03125 -7.601562 1.164062 -7.65625 1.34375 -7.65625 L 1.4375 -7.65625 C 1.601562 -7.65625 1.734375 -7.601562 1.828125 -7.5 C 1.921875 -7.394531 1.96875 -7.253906 1.96875 -7.078125 L 1.96875 -6.765625 C 1.96875 -6.597656 1.921875 -6.460938 1.828125 -6.359375 C 1.734375 -6.253906 1.601562 -6.203125 1.4375 -6.203125 Z M 1.34375 0 C 1.164062 0 1.03125 -0.0507812 0.9375 -0.15625 C 0.851562 -0.257812 0.8125 -0.394531 0.8125 -0.5625 L 0.8125 -0.890625 C 0.8125 -1.066406 0.851562 -1.203125 0.9375 -1.296875 C 1.03125 -1.398438 1.164062 -1.453125 1.34375 -1.453125 L 1.4375 -1.453125 C 1.601562 -1.453125 1.734375 -1.398438 1.828125 -1.296875 C 1.921875 -1.203125 1.96875 -1.066406 1.96875 -0.890625 L 1.96875 -0.5625 C 1.96875 -0.394531 1.921875 -0.257812 1.828125 -0.15625 C 1.734375 -0.0507812 1.601562 0 1.4375 0 Z M 1.34375 0 "/></g></g></g><g fill="#404040" fill-opacity="1"><g transform="translate(66.990139, 335.09502)"><g><path d="M 4.40625 0.15625 C 3.613281 0.15625 2.953125 -0.0820312 2.421875 -0.5625 C 1.890625 -1.039062 1.488281 -1.679688 1.21875 -2.484375 C 0.945312 -3.296875 0.8125 -4.203125 0.8125 -5.203125 C 0.8125 -6.210938 0.945312 -7.117188 1.21875 -7.921875 C 1.488281 -8.734375 1.890625 -9.375 2.421875 -9.84375 C 2.953125 -10.3125 3.613281 -10.546875 4.40625 -10.546875 C 5.21875 -10.546875 5.890625 -10.3125 6.421875 -9.84375 C 6.953125 -9.375 7.351562 -8.734375 7.625 -7.921875 C 7.894531 -7.117188 8.03125 -6.210938 8.03125 -5.203125 C 8.03125 -4.203125 7.894531 -3.296875 7.625 -2.484375 C 7.351562 -1.679688 6.953125 -1.039062 6.421875 -0.5625 C 5.890625 -0.0820312 5.21875 0.15625 4.40625 0.15625 Z M 4.40625 -0.765625 C 5 -0.765625 5.488281 -0.945312 5.875 -1.3125 C 6.269531 -1.6875 6.566406 -2.207031 6.765625 -2.875 C 6.972656 -3.539062 7.078125 -4.316406 7.078125 -5.203125 C 7.078125 -6.085938 6.972656 -6.863281 6.765625 -7.53125 C 6.566406 -8.207031 6.269531 -8.726562 5.875 -9.09375 C 5.488281 -9.457031 5 -9.640625 4.40625 -9.640625 C 3.832031 -9.640625 3.347656 -9.457031 2.953125 -9.09375 C 2.566406 -8.726562 2.269531 -8.207031 2.0625 -7.53125 C 1.863281 -6.863281 1.765625 -6.085938 1.765625 -5.203125 C 1.765625 -4.316406 1.863281 -3.539062 2.0625 -2.875 C 2.269531 -2.207031 2.566406 -1.6875 2.953125 -1.3125 C 3.347656 -0.945312 3.832031 -0.765625 4.40625 -0.765625 Z M 4.40625 -0.765625 "/></g></g></g><g fill="#404040" fill-opacity="1"><g transform="translate(75.823273, 335.09502)"><g><path d="M 4.40625 0.15625 C 3.613281 0.15625 2.953125 -0.0820312 2.421875 -0.5625 C 1.890625 -1.039062 1.488281 -1.679688 1.21875 -2.484375 C 0.945312 -3.296875 0.8125 -4.203125 0.8125 -5.203125 C 0.8125 -6.210938 0.945312 -7.117188 1.21875 -7.921875 C 1.488281 -8.734375 1.890625 -9.375 2.421875 -9.84375 C 2.953125 -10.3125 3.613281 -10.546875 4.40625 -10.546875 C 5.21875 -10.546875 5.890625 -10.3125 6.421875 -9.84375 C 6.953125 -9.375 7.351562 -8.734375 7.625 -7.921875 C 7.894531 -7.117188 8.03125 -6.210938 8.03125 -5.203125 C 8.03125 -4.203125 7.894531 -3.296875 7.625 -2.484375 C 7.351562 -1.679688 6.953125 -1.039062 6.421875 -0.5625 C 5.890625 -0.0820312 5.21875 0.15625 4.40625 0.15625 Z M 4.40625 -0.765625 C 5 -0.765625 5.488281 -0.945312 5.875 -1.3125 C 6.269531 -1.6875 6.566406 -2.207031 6.765625 -2.875 C 6.972656 -3.539062 7.078125 -4.316406 7.078125 -5.203125 C 7.078125 -6.085938 6.972656 -6.863281 6.765625 -7.53125 C 6.566406 -8.207031 6.269531 -8.726562 5.875 -9.09375 C 5.488281 -9.457031 5 -9.640625 4.40625 -9.640625 C 3.832031 -9.640625 3.347656 -9.457031 2.953125 -9.09375 C 2.566406 -8.726562 2.269531 -8.207031 2.0625 -7.53125 C 1.863281 -6.863281 1.765625 -6.085938 1.765625 -5.203125 C 1.765625 -4.316406 1.863281 -3.539062 2.0625 -2.875 C 2.269531 -2.207031 2.566406 -1.6875 2.953125 -1.3125 C 3.347656 -0.945312 3.832031 -0.765625 4.40625 -0.765625 Z M 4.40625 -0.765625 "/></g></g></g><g fill="#404040" fill-opacity="1"><g transform="translate(64.214009, 385.291641)"><g><path d="M 1.34375 -6.203125 C 1.164062 -6.203125 1.03125 -6.253906 0.9375 -6.359375 C 0.851562 -6.460938 0.8125 -6.597656 0.8125 -6.765625 L 0.8125 -7.078125 C 0.8125 -7.253906 0.851562 -7.394531 0.9375 -7.5 C 1.03125 -7.601562 1.164062 -7.65625 1.34375 -7.65625 L 1.4375 -7.65625 C 1.601562 -7.65625 1.734375 -7.601562 1.828125 -7.5 C 1.921875 -7.394531 1.96875 -7.253906 1.96875 -7.078125 L 1.96875 -6.765625 C 1.96875 -6.597656 1.921875 -6.460938 1.828125 -6.359375 C 1.734375 -6.253906 1.601562 -6.203125 1.4375 -6.203125 Z M 1.34375 0 C 1.164062 0 1.03125 -0.0507812 0.9375 -0.15625 C 0.851562 -0.257812 0.8125 -0.394531 0.8125 -0.5625 L 0.8125 -0.890625 C 0.8125 -1.066406 0.851562 -1.203125 0.9375 -1.296875 C 1.03125 -1.398438 1.164062 -1.453125 1.34375 -1.453125 L 1.4375 -1.453125 C 1.601562 -1.453125 1.734375 -1.398438 1.828125 -1.296875 C 1.921875 -1.203125 1.96875 -1.066406 1.96875 -0.890625 L 1.96875 -0.5625 C 1.96875 -0.394531 1.921875 -0.257812 1.828125 -0.15625 C 1.734375 -0.0507812 1.601562 0 1.4375 0 Z M 1.34375 0 "/></g></g></g><g fill="#404040" fill-opacity="1"><g transform="translate(66.990139, 385.291641)"><g><path d="M 4.40625 0.15625 C 3.613281 0.15625 2.953125 -0.0820312 2.421875 -0.5625 C 1.890625 -1.039062 1.488281 -1.679688 1.21875 -2.484375 C 0.945312 -3.296875 0.8125 -4.203125 0.8125 -5.203125 C 0.8125 -6.210938 0.945312 -7.117188 1.21875 -7.921875 C 1.488281 -8.734375 1.890625 -9.375 2.421875 -9.84375 C 2.953125 -10.3125 3.613281 -10.546875 4.40625 -10.546875 C 5.21875 -10.546875 5.890625 -10.3125 6.421875 -9.84375 C 6.953125 -9.375 7.351562 -8.734375 7.625 -7.921875 C 7.894531 -7.117188 8.03125 -6.210938 8.03125 -5.203125 C 8.03125 -4.203125 7.894531 -3.296875 7.625 -2.484375 C 7.351562 -1.679688 6.953125 -1.039062 6.421875 -0.5625 C 5.890625 -0.0820312 5.21875 0.15625 4.40625 0.15625 Z M 4.40625 -0.765625 C 5 -0.765625 5.488281 -0.945312 5.875 -1.3125 C 6.269531 -1.6875 6.566406 -2.207031 6.765625 -2.875 C 6.972656 -3.539062 7.078125 -4.316406 7.078125 -5.203125 C 7.078125 -6.085938 6.972656 -6.863281 6.765625 -7.53125 C 6.566406 -8.207031 6.269531 -8.726562 5.875 -9.09375 C 5.488281 -9.457031 5 -9.640625 4.40625 -9.640625 C 3.832031 -9.640625 3.347656 -9.457031 2.953125 -9.09375 C 2.566406 -8.726562 2.269531 -8.207031 2.0625 -7.53125 C 1.863281 -6.863281 1.765625 -6.085938 1.765625 -5.203125 C 1.765625 -4.316406 1.863281 -3.539062 2.0625 -2.875 C 2.269531 -2.207031 2.566406 -1.6875 2.953125 -1.3125 C 3.347656 -0.945312 3.832031 -0.765625 4.40625 -0.765625 Z M 4.40625 -0.765625 "/></g></g></g><g fill="#404040" fill-opacity="1"><g transform="translate(75.823273, 385.291641)"><g><path d="M 4.40625 0.15625 C 3.613281 0.15625 2.953125 -0.0820312 2.421875 -0.5625 C 1.890625 -1.039062 1.488281 -1.679688 1.21875 -2.484375 C 0.945312 -3.296875 0.8125 -4.203125 0.8125 -5.203125 C 0.8125 -6.210938 0.945312 -7.117188 1.21875 -7.921875 C 1.488281 -8.734375 1.890625 -9.375 2.421875 -9.84375 C 2.953125 -10.3125 3.613281 -10.546875 4.40625 -10.546875 C 5.21875 -10.546875 5.890625 -10.3125 6.421875 -9.84375 C 6.953125 -9.375 7.351562 -8.734375 7.625 -7.921875 C 7.894531 -7.117188 8.03125 -6.210938 8.03125 -5.203125 C 8.03125 -4.203125 7.894531 -3.296875 7.625 -2.484375 C 7.351562 -1.679688 6.953125 -1.039062 6.421875 -0.5625 C 5.890625 -0.0820312 5.21875 0.15625 4.40625 0.15625 Z M 4.40625 -0.765625 C 5 -0.765625 5.488281 -0.945312 5.875 -1.3125 C 6.269531 -1.6875 6.566406 -2.207031 6.765625 -2.875 C 6.972656 -3.539062 7.078125 -4.316406 7.078125 -5.203125 C 7.078125 -6.085938 6.972656 -6.863281 6.765625 -7.53125 C 6.566406 -8.207031 6.269531 -8.726562 5.875 -9.09375 C 5.488281 -9.457031 5 -9.640625 4.40625 -9.640625 C 3.832031 -9.640625 3.347656 -9.457031 2.953125 -9.09375 C 2.566406 -8.726562 2.269531 -8.207031 2.0625 -7.53125 C 1.863281 -6.863281 1.765625 -6.085938 1.765625 -5.203125 C 1.765625 -4.316406 1.863281 -3.539062 2.0625 -2.875 C 2.269531 -2.207031 2.566406 -1.6875 2.953125 -1.3125 C 3.347656 -0.945312 3.832031 -0.765625 4.40625 -0.765625 Z M 4.40625 -0.765625 "/></g></g></g><g fill="#404040" fill-opacity="1"><g transform="translate(64.214009, 435.488296)"><g><path d="M 1.34375 -6.203125 C 1.164062 -6.203125 1.03125 -6.253906 0.9375 -6.359375 C 0.851562 -6.460938 0.8125 -6.597656 0.8125 -6.765625 L 0.8125 -7.078125 C 0.8125 -7.253906 0.851562 -7.394531 0.9375 -7.5 C 1.03125 -7.601562 1.164062 -7.65625 1.34375 -7.65625 L 1.4375 -7.65625 C 1.601562 -7.65625 1.734375 -7.601562 1.828125 -7.5 C 1.921875 -7.394531 1.96875 -7.253906 1.96875 -7.078125 L 1.96875 -6.765625 C 1.96875 -6.597656 1.921875 -6.460938 1.828125 -6.359375 C 1.734375 -6.253906 1.601562 -6.203125 1.4375 -6.203125 Z M 1.34375 0 C 1.164062 0 1.03125 -0.0507812 0.9375 -0.15625 C 0.851562 -0.257812 0.8125 -0.394531 0.8125 -0.5625 L 0.8125 -0.890625 C 0.8125 -1.066406 0.851562 -1.203125 0.9375 -1.296875 C 1.03125 -1.398438 1.164062 -1.453125 1.34375 -1.453125 L 1.4375 -1.453125 C 1.601562 -1.453125 1.734375 -1.398438 1.828125 -1.296875 C 1.921875 -1.203125 1.96875 -1.066406 1.96875 -0.890625 L 1.96875 -0.5625 C 1.96875 -0.394531 1.921875 -0.257812 1.828125 -0.15625 C 1.734375 -0.0507812 1.601562 0 1.4375 0 Z M 1.34375 0 "/></g></g></g><g fill="#404040" fill-opacity="1"><g transform="translate(66.990139, 435.488296)"><g><path d="M 4.40625 0.15625 C 3.613281 0.15625 2.953125 -0.0820312 2.421875 -0.5625 C 1.890625 -1.039062 1.488281 -1.679688 1.21875 -2.484375 C 0.945312 -3.296875 0.8125 -4.203125 0.8125 -5.203125 C 0.8125 -6.210938 0.945312 -7.117188 1.21875 -7.921875 C 1.488281 -8.734375 1.890625 -9.375 2.421875 -9.84375 C 2.953125 -10.3125 3.613281 -10.546875 4.40625 -10.546875 C 5.21875 -10.546875 5.890625 -10.3125 6.421875 -9.84375 C 6.953125 -9.375 7.351562 -8.734375 7.625 -7.921875 C 7.894531 -7.117188 8.03125 -6.210938 8.03125 -5.203125 C 8.03125 -4.203125 7.894531 -3.296875 7.625 -2.484375 C 7.351562 -1.679688 6.953125 -1.039062 6.421875 -0.5625 C 5.890625 -0.0820312 5.21875 0.15625 4.40625 0.15625 Z M 4.40625 -0.765625 C 5 -0.765625 5.488281 -0.945312 5.875 -1.3125 C 6.269531 -1.6875 6.566406 -2.207031 6.765625 -2.875 C 6.972656 -3.539062 7.078125 -4.316406 7.078125 -5.203125 C 7.078125 -6.085938 6.972656 -6.863281 6.765625 -7.53125 C 6.566406 -8.207031 6.269531 -8.726562 5.875 -9.09375 C 5.488281 -9.457031 5 -9.640625 4.40625 -9.640625 C 3.832031 -9.640625 3.347656 -9.457031 2.953125 -9.09375 C 2.566406 -8.726562 2.269531 -8.207031 2.0625 -7.53125 C 1.863281 -6.863281 1.765625 -6.085938 1.765625 -5.203125 C 1.765625 -4.316406 1.863281 -3.539062 2.0625 -2.875 C 2.269531 -2.207031 2.566406 -1.6875 2.953125 -1.3125 C 3.347656 -0.945312 3.832031 -0.765625 4.40625 -0.765625 Z M 4.40625 -0.765625 "/></g></g></g><g fill="#404040" fill-opacity="1"><g transform="translate(75.823273, 435.488296)"><g><path d="M 4.40625 0.15625 C 3.613281 0.15625 2.953125 -0.0820312 2.421875 -0.5625 C 1.890625 -1.039062 1.488281 -1.679688 1.21875 -2.484375 C 0.945312 -3.296875 0.8125 -4.203125 0.8125 -5.203125 C 0.8125 -6.210938 0.945312 -7.117188 1.21875 -7.921875 C 1.488281 -8.734375 1.890625 -9.375 2.421875 -9.84375 C 2.953125 -10.3125 3.613281 -10.546875 4.40625 -10.546875 C 5.21875 -10.546875 5.890625 -10.3125 6.421875 -9.84375 C 6.953125 -9.375 7.351562 -8.734375 7.625 -7.921875 C 7.894531 -7.117188 8.03125 -6.210938 8.03125 -5.203125 C 8.03125 -4.203125 7.894531 -3.296875 7.625 -2.484375 C 7.351562 -1.679688 6.953125 -1.039062 6.421875 -0.5625 C 5.890625 -0.0820312 5.21875 0.15625 4.40625 0.15625 Z M 4.40625 -0.765625 C 5 -0.765625 5.488281 -0.945312 5.875 -1.3125 C 6.269531 -1.6875 6.566406 -2.207031 6.765625 -2.875 C 6.972656 -3.539062 7.078125 -4.316406 7.078125 -5.203125 C 7.078125 -6.085938 6.972656 -6.863281 6.765625 -7.53125 C 6.566406 -8.207031 6.269531 -8.726562 5.875 -9.09375 C 5.488281 -9.457031 5 -9.640625 4.40625 -9.640625 C 3.832031 -9.640625 3.347656 -9.457031 2.953125 -9.09375 C 2.566406 -8.726562 2.269531 -8.207031 2.0625 -7.53125 C 1.863281 -6.863281 1.765625 -6.085938 1.765625 -5.203125 C 1.765625 -4.316406 1.863281 -3.539062 2.0625 -2.875 C 2.269531 -2.207031 2.566406 -1.6875 2.953125 -1.3125 C 3.347656 -0.945312 3.832031 -0.765625 4.40625 -0.765625 Z M 4.40625 -0.765625 "/></g></g></g><g fill="#404040" fill-opacity="1"><g transform="translate(64.214009, 485.684905)"><g><path d="M 1.34375 -6.203125 C 1.164062 -6.203125 1.03125 -6.253906 0.9375 -6.359375 C 0.851562 -6.460938 0.8125 -6.597656 0.8125 -6.765625 L 0.8125 -7.078125 C 0.8125 -7.253906 0.851562 -7.394531 0.9375 -7.5 C 1.03125 -7.601562 1.164062 -7.65625 1.34375 -7.65625 L 1.4375 -7.65625 C 1.601562 -7.65625 1.734375 -7.601562 1.828125 -7.5 C 1.921875 -7.394531 1.96875 -7.253906 1.96875 -7.078125 L 1.96875 -6.765625 C 1.96875 -6.597656 1.921875 -6.460938 1.828125 -6.359375 C 1.734375 -6.253906 1.601562 -6.203125 1.4375 -6.203125 Z M 1.34375 0 C 1.164062 0 1.03125 -0.0507812 0.9375 -0.15625 C 0.851562 -0.257812 0.8125 -0.394531 0.8125 -0.5625 L 0.8125 -0.890625 C 0.8125 -1.066406 0.851562 -1.203125 0.9375 -1.296875 C 1.03125 -1.398438 1.164062 -1.453125 1.34375 -1.453125 L 1.4375 -1.453125 C 1.601562 -1.453125 1.734375 -1.398438 1.828125 -1.296875 C 1.921875 -1.203125 1.96875 -1.066406 1.96875 -0.890625 L 1.96875 -0.5625 C 1.96875 -0.394531 1.921875 -0.257812 1.828125 -0.15625 C 1.734375 -0.0507812 1.601562 0 1.4375 0 Z M 1.34375 0 "/></g></g></g><g fill="#404040" fill-opacity="1"><g transform="translate(66.990139, 485.684905)"><g><path d="M 4.40625 0.15625 C 3.613281 0.15625 2.953125 -0.0820312 2.421875 -0.5625 C 1.890625 -1.039062 1.488281 -1.679688 1.21875 -2.484375 C 0.945312 -3.296875 0.8125 -4.203125 0.8125 -5.203125 C 0.8125 -6.210938 0.945312 -7.117188 1.21875 -7.921875 C 1.488281 -8.734375 1.890625 -9.375 2.421875 -9.84375 C 2.953125 -10.3125 3.613281 -10.546875 4.40625 -10.546875 C 5.21875 -10.546875 5.890625 -10.3125 6.421875 -9.84375 C 6.953125 -9.375 7.351562 -8.734375 7.625 -7.921875 C 7.894531 -7.117188 8.03125 -6.210938 8.03125 -5.203125 C 8.03125 -4.203125 7.894531 -3.296875 7.625 -2.484375 C 7.351562 -1.679688 6.953125 -1.039062 6.421875 -0.5625 C 5.890625 -0.0820312 5.21875 0.15625 4.40625 0.15625 Z M 4.40625 -0.765625 C 5 -0.765625 5.488281 -0.945312 5.875 -1.3125 C 6.269531 -1.6875 6.566406 -2.207031 6.765625 -2.875 C 6.972656 -3.539062 7.078125 -4.316406 7.078125 -5.203125 C 7.078125 -6.085938 6.972656 -6.863281 6.765625 -7.53125 C 6.566406 -8.207031 6.269531 -8.726562 5.875 -9.09375 C 5.488281 -9.457031 5 -9.640625 4.40625 -9.640625 C 3.832031 -9.640625 3.347656 -9.457031 2.953125 -9.09375 C 2.566406 -8.726562 2.269531 -8.207031 2.0625 -7.53125 C 1.863281 -6.863281 1.765625 -6.085938 1.765625 -5.203125 C 1.765625 -4.316406 1.863281 -3.539062 2.0625 -2.875 C 2.269531 -2.207031 2.566406 -1.6875 2.953125 -1.3125 C 3.347656 -0.945312 3.832031 -0.765625 4.40625 -0.765625 Z M 4.40625 -0.765625 "/></g></g></g><g fill="#404040" fill-opacity="1"><g transform="translate(75.823273, 485.684905)"><g><path d="M 4.40625 0.15625 C 3.613281 0.15625 2.953125 -0.0820312 2.421875 -0.5625 C 1.890625 -1.039062 1.488281 -1.679688 1.21875 -2.484375 C 0.945312 -3.296875 0.8125 -4.203125 0.8125 -5.203125 C 0.8125 -6.210938 0.945312 -7.117188 1.21875 -7.921875 C 1.488281 -8.734375 1.890625 -9.375 2.421875 -9.84375 C 2.953125 -10.3125 3.613281 -10.546875 4.40625 -10.546875 C 5.21875 -10.546875 5.890625 -10.3125 6.421875 -9.84375 C 6.953125 -9.375 7.351562 -8.734375 7.625 -7.921875 C 7.894531 -7.117188 8.03125 -6.210938 8.03125 -5.203125 C 8.03125 -4.203125 7.894531 -3.296875 7.625 -2.484375 C 7.351562 -1.679688 6.953125 -1.039062 6.421875 -0.5625 C 5.890625 -0.0820312 5.21875 0.15625 4.40625 0.15625 Z M 4.40625 -0.765625 C 5 -0.765625 5.488281 -0.945312 5.875 -1.3125 C 6.269531 -1.6875 6.566406 -2.207031 6.765625 -2.875 C 6.972656 -3.539062 7.078125 -4.316406 7.078125 -5.203125 C 7.078125 -6.085938 6.972656 -6.863281 6.765625 -7.53125 C 6.566406 -8.207031 6.269531 -8.726562 5.875 -9.09375 C 5.488281 -9.457031 5 -9.640625 4.40625 -9.640625 C 3.832031 -9.640625 3.347656 -9.457031 2.953125 -9.09375 C 2.566406 -8.726562 2.269531 -8.207031 2.0625 -7.53125 C 1.863281 -6.863281 1.765625 -6.085938 1.765625 -5.203125 C 1.765625 -4.316406 1.863281 -3.539062 2.0625 -2.875 C 2.269531 -2.207031 2.566406 -1.6875 2.953125 -1.3125 C 3.347656 -0.945312 3.832031 -0.765625 4.40625 -0.765625 Z M 4.40625 -0.765625 "/></g></g></g><g fill="#404040" fill-opacity="1"><g transform="translate(64.214009, 535.881563)"><g><path d="M 1.34375 -6.203125 C 1.164062 -6.203125 1.03125 -6.253906 0.9375 -6.359375 C 0.851562 -6.460938 0.8125 -6.597656 0.8125 -6.765625 L 0.8125 -7.078125 C 0.8125 -7.253906 0.851562 -7.394531 0.9375 -7.5 C 1.03125 -7.601562 1.164062 -7.65625 1.34375 -7.65625 L 1.4375 -7.65625 C 1.601562 -7.65625 1.734375 -7.601562 1.828125 -7.5 C 1.921875 -7.394531 1.96875 -7.253906 1.96875 -7.078125 L 1.96875 -6.765625 C 1.96875 -6.597656 1.921875 -6.460938 1.828125 -6.359375 C 1.734375 -6.253906 1.601562 -6.203125 1.4375 -6.203125 Z M 1.34375 0 C 1.164062 0 1.03125 -0.0507812 0.9375 -0.15625 C 0.851562 -0.257812 0.8125 -0.394531 0.8125 -0.5625 L 0.8125 -0.890625 C 0.8125 -1.066406 0.851562 -1.203125 0.9375 -1.296875 C 1.03125 -1.398438 1.164062 -1.453125 1.34375 -1.453125 L 1.4375 -1.453125 C 1.601562 -1.453125 1.734375 -1.398438 1.828125 -1.296875 C 1.921875 -1.203125 1.96875 -1.066406 1.96875 -0.890625 L 1.96875 -0.5625 C 1.96875 -0.394531 1.921875 -0.257812 1.828125 -0.15625 C 1.734375 -0.0507812 1.601562 0 1.4375 0 Z M 1.34375 0 "/></g></g></g><g fill="#404040" fill-opacity="1"><g transform="translate(66.990139, 535.881563)"><g><path d="M 4.40625 0.15625 C 3.613281 0.15625 2.953125 -0.0820312 2.421875 -0.5625 C 1.890625 -1.039062 1.488281 -1.679688 1.21875 -2.484375 C 0.945312 -3.296875 0.8125 -4.203125 0.8125 -5.203125 C 0.8125 -6.210938 0.945312 -7.117188 1.21875 -7.921875 C 1.488281 -8.734375 1.890625 -9.375 2.421875 -9.84375 C 2.953125 -10.3125 3.613281 -10.546875 4.40625 -10.546875 C 5.21875 -10.546875 5.890625 -10.3125 6.421875 -9.84375 C 6.953125 -9.375 7.351562 -8.734375 7.625 -7.921875 C 7.894531 -7.117188 8.03125 -6.210938 8.03125 -5.203125 C 8.03125 -4.203125 7.894531 -3.296875 7.625 -2.484375 C 7.351562 -1.679688 6.953125 -1.039062 6.421875 -0.5625 C 5.890625 -0.0820312 5.21875 0.15625 4.40625 0.15625 Z M 4.40625 -0.765625 C 5 -0.765625 5.488281 -0.945312 5.875 -1.3125 C 6.269531 -1.6875 6.566406 -2.207031 6.765625 -2.875 C 6.972656 -3.539062 7.078125 -4.316406 7.078125 -5.203125 C 7.078125 -6.085938 6.972656 -6.863281 6.765625 -7.53125 C 6.566406 -8.207031 6.269531 -8.726562 5.875 -9.09375 C 5.488281 -9.457031 5 -9.640625 4.40625 -9.640625 C 3.832031 -9.640625 3.347656 -9.457031 2.953125 -9.09375 C 2.566406 -8.726562 2.269531 -8.207031 2.0625 -7.53125 C 1.863281 -6.863281 1.765625 -6.085938 1.765625 -5.203125 C 1.765625 -4.316406 1.863281 -3.539062 2.0625 -2.875 C 2.269531 -2.207031 2.566406 -1.6875 2.953125 -1.3125 C 3.347656 -0.945312 3.832031 -0.765625 4.40625 -0.765625 Z M 4.40625 -0.765625 "/></g></g></g><g fill="#404040" fill-opacity="1"><g transform="translate(75.823273, 535.881563)"><g><path d="M 4.40625 0.15625 C 3.613281 0.15625 2.953125 -0.0820312 2.421875 -0.5625 C 1.890625 -1.039062 1.488281 -1.679688 1.21875 -2.484375 C 0.945312 -3.296875 0.8125 -4.203125 0.8125 -5.203125 C 0.8125 -6.210938 0.945312 -7.117188 1.21875 -7.921875 C 1.488281 -8.734375 1.890625 -9.375 2.421875 -9.84375 C 2.953125 -10.3125 3.613281 -10.546875 4.40625 -10.546875 C 5.21875 -10.546875 5.890625 -10.3125 6.421875 -9.84375 C 6.953125 -9.375 7.351562 -8.734375 7.625 -7.921875 C 7.894531 -7.117188 8.03125 -6.210938 8.03125 -5.203125 C 8.03125 -4.203125 7.894531 -3.296875 7.625 -2.484375 C 7.351562 -1.679688 6.953125 -1.039062 6.421875 -0.5625 C 5.890625 -0.0820312 5.21875 0.15625 4.40625 0.15625 Z M 4.40625 -0.765625 C 5 -0.765625 5.488281 -0.945312 5.875 -1.3125 C 6.269531 -1.6875 6.566406 -2.207031 6.765625 -2.875 C 6.972656 -3.539062 7.078125 -4.316406 7.078125 -5.203125 C 7.078125 -6.085938 6.972656 -6.863281 6.765625 -7.53125 C 6.566406 -8.207031 6.269531 -8.726562 5.875 -9.09375 C 5.488281 -9.457031 5 -9.640625 4.40625 -9.640625 C 3.832031 -9.640625 3.347656 -9.457031 2.953125 -9.09375 C 2.566406 -8.726562 2.269531 -8.207031 2.0625 -7.53125 C 1.863281 -6.863281 1.765625 -6.085938 1.765625 -5.203125 C 1.765625 -4.316406 1.863281 -3.539062 2.0625 -2.875 C 2.269531 -2.207031 2.566406 -1.6875 2.953125 -1.3125 C 3.347656 -0.945312 3.832031 -0.765625 4.40625 -0.765625 Z M 4.40625 -0.765625 "/></g></g></g><g fill="#404040" fill-opacity="1"><g transform="translate(64.214009, 586.078148)"><g><path d="M 1.34375 -6.203125 C 1.164062 -6.203125 1.03125 -6.253906 0.9375 -6.359375 C 0.851562 -6.460938 0.8125 -6.597656 0.8125 -6.765625 L 0.8125 -7.078125 C 0.8125 -7.253906 0.851562 -7.394531 0.9375 -7.5 C 1.03125 -7.601562 1.164062 -7.65625 1.34375 -7.65625 L 1.4375 -7.65625 C 1.601562 -7.65625 1.734375 -7.601562 1.828125 -7.5 C 1.921875 -7.394531 1.96875 -7.253906 1.96875 -7.078125 L 1.96875 -6.765625 C 1.96875 -6.597656 1.921875 -6.460938 1.828125 -6.359375 C 1.734375 -6.253906 1.601562 -6.203125 1.4375 -6.203125 Z M 1.34375 0 C 1.164062 0 1.03125 -0.0507812 0.9375 -0.15625 C 0.851562 -0.257812 0.8125 -0.394531 0.8125 -0.5625 L 0.8125 -0.890625 C 0.8125 -1.066406 0.851562 -1.203125 0.9375 -1.296875 C 1.03125 -1.398438 1.164062 -1.453125 1.34375 -1.453125 L 1.4375 -1.453125 C 1.601562 -1.453125 1.734375 -1.398438 1.828125 -1.296875 C 1.921875 -1.203125 1.96875 -1.066406 1.96875 -0.890625 L 1.96875 -0.5625 C 1.96875 -0.394531 1.921875 -0.257812 1.828125 -0.15625 C 1.734375 -0.0507812 1.601562 0 1.4375 0 Z M 1.34375 0 "/></g></g></g><g fill="#404040" fill-opacity="1"><g transform="translate(66.990139, 586.078148)"><g><path d="M 4.40625 0.15625 C 3.613281 0.15625 2.953125 -0.0820312 2.421875 -0.5625 C 1.890625 -1.039062 1.488281 -1.679688 1.21875 -2.484375 C 0.945312 -3.296875 0.8125 -4.203125 0.8125 -5.203125 C 0.8125 -6.210938 0.945312 -7.117188 1.21875 -7.921875 C 1.488281 -8.734375 1.890625 -9.375 2.421875 -9.84375 C 2.953125 -10.3125 3.613281 -10.546875 4.40625 -10.546875 C 5.21875 -10.546875 5.890625 -10.3125 6.421875 -9.84375 C 6.953125 -9.375 7.351562 -8.734375 7.625 -7.921875 C 7.894531 -7.117188 8.03125 -6.210938 8.03125 -5.203125 C 8.03125 -4.203125 7.894531 -3.296875 7.625 -2.484375 C 7.351562 -1.679688 6.953125 -1.039062 6.421875 -0.5625 C 5.890625 -0.0820312 5.21875 0.15625 4.40625 0.15625 Z M 4.40625 -0.765625 C 5 -0.765625 5.488281 -0.945312 5.875 -1.3125 C 6.269531 -1.6875 6.566406 -2.207031 6.765625 -2.875 C 6.972656 -3.539062 7.078125 -4.316406 7.078125 -5.203125 C 7.078125 -6.085938 6.972656 -6.863281 6.765625 -7.53125 C 6.566406 -8.207031 6.269531 -8.726562 5.875 -9.09375 C 5.488281 -9.457031 5 -9.640625 4.40625 -9.640625 C 3.832031 -9.640625 3.347656 -9.457031 2.953125 -9.09375 C 2.566406 -8.726562 2.269531 -8.207031 2.0625 -7.53125 C 1.863281 -6.863281 1.765625 -6.085938 1.765625 -5.203125 C 1.765625 -4.316406 1.863281 -3.539062 2.0625 -2.875 C 2.269531 -2.207031 2.566406 -1.6875 2.953125 -1.3125 C 3.347656 -0.945312 3.832031 -0.765625 4.40625 -0.765625 Z M 4.40625 -0.765625 "/></g></g></g><g fill="#404040" fill-opacity="1"><g transform="translate(75.823273, 586.078148)"><g><path d="M 4.40625 0.15625 C 3.613281 0.15625 2.953125 -0.0820312 2.421875 -0.5625 C 1.890625 -1.039062 1.488281 -1.679688 1.21875 -2.484375 C 0.945312 -3.296875 0.8125 -4.203125 0.8125 -5.203125 C 0.8125 -6.210938 0.945312 -7.117188 1.21875 -7.921875 C 1.488281 -8.734375 1.890625 -9.375 2.421875 -9.84375 C 2.953125 -10.3125 3.613281 -10.546875 4.40625 -10.546875 C 5.21875 -10.546875 5.890625 -10.3125 6.421875 -9.84375 C 6.953125 -9.375 7.351562 -8.734375 7.625 -7.921875 C 7.894531 -7.117188 8.03125 -6.210938 8.03125 -5.203125 C 8.03125 -4.203125 7.894531 -3.296875 7.625 -2.484375 C 7.351562 -1.679688 6.953125 -1.039062 6.421875 -0.5625 C 5.890625 -0.0820312 5.21875 0.15625 4.40625 0.15625 Z M 4.40625 -0.765625 C 5 -0.765625 5.488281 -0.945312 5.875 -1.3125 C 6.269531 -1.6875 6.566406 -2.207031 6.765625 -2.875 C 6.972656 -3.539062 7.078125 -4.316406 7.078125 -5.203125 C 7.078125 -6.085938 6.972656 -6.863281 6.765625 -7.53125 C 6.566406 -8.207031 6.269531 -8.726562 5.875 -9.09375 C 5.488281 -9.457031 5 -9.640625 4.40625 -9.640625 C 3.832031 -9.640625 3.347656 -9.457031 2.953125 -9.09375 C 2.566406 -8.726562 2.269531 -8.207031 2.0625 -7.53125 C 1.863281 -6.863281 1.765625 -6.085938 1.765625 -5.203125 C 1.765625 -4.316406 1.863281 -3.539062 2.0625 -2.875 C 2.269531 -2.207031 2.566406 -1.6875 2.953125 -1.3125 C 3.347656 -0.945312 3.832031 -0.765625 4.40625 -0.765625 Z M 4.40625 -0.765625 "/></g></g></g><g fill="#404040" fill-opacity="1"><g transform="translate(64.214009, 636.274805)"><g><path d="M 1.34375 -6.203125 C 1.164062 -6.203125 1.03125 -6.253906 0.9375 -6.359375 C 0.851562 -6.460938 0.8125 -6.597656 0.8125 -6.765625 L 0.8125 -7.078125 C 0.8125 -7.253906 0.851562 -7.394531 0.9375 -7.5 C 1.03125 -7.601562 1.164062 -7.65625 1.34375 -7.65625 L 1.4375 -7.65625 C 1.601562 -7.65625 1.734375 -7.601562 1.828125 -7.5 C 1.921875 -7.394531 1.96875 -7.253906 1.96875 -7.078125 L 1.96875 -6.765625 C 1.96875 -6.597656 1.921875 -6.460938 1.828125 -6.359375 C 1.734375 -6.253906 1.601562 -6.203125 1.4375 -6.203125 Z M 1.34375 0 C 1.164062 0 1.03125 -0.0507812 0.9375 -0.15625 C 0.851562 -0.257812 0.8125 -0.394531 0.8125 -0.5625 L 0.8125 -0.890625 C 0.8125 -1.066406 0.851562 -1.203125 0.9375 -1.296875 C 1.03125 -1.398438 1.164062 -1.453125 1.34375 -1.453125 L 1.4375 -1.453125 C 1.601562 -1.453125 1.734375 -1.398438 1.828125 -1.296875 C 1.921875 -1.203125 1.96875 -1.066406 1.96875 -0.890625 L 1.96875 -0.5625 C 1.96875 -0.394531 1.921875 -0.257812 1.828125 -0.15625 C 1.734375 -0.0507812 1.601562 0 1.4375 0 Z M 1.34375 0 "/></g></g></g><g fill="#404040" fill-opacity="1"><g transform="translate(66.990139, 636.274805)"><g><path d="M 4.40625 0.15625 C 3.613281 0.15625 2.953125 -0.0820312 2.421875 -0.5625 C 1.890625 -1.039062 1.488281 -1.679688 1.21875 -2.484375 C 0.945312 -3.296875 0.8125 -4.203125 0.8125 -5.203125 C 0.8125 -6.210938 0.945312 -7.117188 1.21875 -7.921875 C 1.488281 -8.734375 1.890625 -9.375 2.421875 -9.84375 C 2.953125 -10.3125 3.613281 -10.546875 4.40625 -10.546875 C 5.21875 -10.546875 5.890625 -10.3125 6.421875 -9.84375 C 6.953125 -9.375 7.351562 -8.734375 7.625 -7.921875 C 7.894531 -7.117188 8.03125 -6.210938 8.03125 -5.203125 C 8.03125 -4.203125 7.894531 -3.296875 7.625 -2.484375 C 7.351562 -1.679688 6.953125 -1.039062 6.421875 -0.5625 C 5.890625 -0.0820312 5.21875 0.15625 4.40625 0.15625 Z M 4.40625 -0.765625 C 5 -0.765625 5.488281 -0.945312 5.875 -1.3125 C 6.269531 -1.6875 6.566406 -2.207031 6.765625 -2.875 C 6.972656 -3.539062 7.078125 -4.316406 7.078125 -5.203125 C 7.078125 -6.085938 6.972656 -6.863281 6.765625 -7.53125 C 6.566406 -8.207031 6.269531 -8.726562 5.875 -9.09375 C 5.488281 -9.457031 5 -9.640625 4.40625 -9.640625 C 3.832031 -9.640625 3.347656 -9.457031 2.953125 -9.09375 C 2.566406 -8.726562 2.269531 -8.207031 2.0625 -7.53125 C 1.863281 -6.863281 1.765625 -6.085938 1.765625 -5.203125 C 1.765625 -4.316406 1.863281 -3.539062 2.0625 -2.875 C 2.269531 -2.207031 2.566406 -1.6875 2.953125 -1.3125 C 3.347656 -0.945312 3.832031 -0.765625 4.40625 -0.765625 Z M 4.40625 -0.765625 "/></g></g></g><g fill="#404040" fill-opacity="1"><g transform="translate(75.823273, 636.274805)"><g><path d="M 4.40625 0.15625 C 3.613281 0.15625 2.953125 -0.0820312 2.421875 -0.5625 C 1.890625 -1.039062 1.488281 -1.679688 1.21875 -2.484375 C 0.945312 -3.296875 0.8125 -4.203125 0.8125 -5.203125 C 0.8125 -6.210938 0.945312 -7.117188 1.21875 -7.921875 C 1.488281 -8.734375 1.890625 -9.375 2.421875 -9.84375 C 2.953125 -10.3125 3.613281 -10.546875 4.40625 -10.546875 C 5.21875 -10.546875 5.890625 -10.3125 6.421875 -9.84375 C 6.953125 -9.375 7.351562 -8.734375 7.625 -7.921875 C 7.894531 -7.117188 8.03125 -6.210938 8.03125 -5.203125 C 8.03125 -4.203125 7.894531 -3.296875 7.625 -2.484375 C 7.351562 -1.679688 6.953125 -1.039062 6.421875 -0.5625 C 5.890625 -0.0820312 5.21875 0.15625 4.40625 0.15625 Z M 4.40625 -0.765625 C 5 -0.765625 5.488281 -0.945312 5.875 -1.3125 C 6.269531 -1.6875 6.566406 -2.207031 6.765625 -2.875 C 6.972656 -3.539062 7.078125 -4.316406 7.078125 -5.203125 C 7.078125 -6.085938 6.972656 -6.863281 6.765625 -7.53125 C 6.566406 -8.207031 6.269531 -8.726562 5.875 -9.09375 C 5.488281 -9.457031 5 -9.640625 4.40625 -9.640625 C 3.832031 -9.640625 3.347656 -9.457031 2.953125 -9.09375 C 2.566406 -8.726562 2.269531 -8.207031 2.0625 -7.53125 C 1.863281 -6.863281 1.765625 -6.085938 1.765625 -5.203125 C 1.765625 -4.316406 1.863281 -3.539062 2.0625 -2.875 C 2.269531 -2.207031 2.566406 -1.6875 2.953125 -1.3125 C 3.347656 -0.945312 3.832031 -0.765625 4.40625 -0.765625 Z M 4.40625 -0.765625 "/></g></g></g></svg>