<svg xmlns="http://www.w3.org/2000/svg" xmlns:xlink="http://www.w3.org/1999/xlink" width="583" zoomAndPan="magnify" viewBox="0 0 437.25 337.500003" height="450" preserveAspectRatio="xMidYMid meet" version="1.0"><defs><g/><clipPath id="fa69a752d9"><path d="M 6.574219 6.6875 L 218.25 6.6875 L 218.25 201.179688 L 6.574219 201.179688 Z M 6.574219 6.6875 " clip-rule="nonzero"/></clipPath><clipPath id="56a741024c"><path d="M 218.25 6.6875 L 429.925781 6.6875 L 429.925781 201.179688 L 218.25 201.179688 Z M 218.25 6.6875 " clip-rule="nonzero"/></clipPath><clipPath id="e0a391ea60"><path d="M 6.585938 201.183594 L 429.597656 201.183594 L 429.597656 328.464844 L 6.585938 328.464844 Z M 6.585938 201.183594 " clip-rule="nonzero"/></clipPath><clipPath id="584e62208e"><path d="M 0.0234375 6 L 15 6 L 15 19 L 0.0234375 19 Z M 0.0234375 6 " clip-rule="nonzero"/></clipPath><clipPath id="291b25bb80"><rect x="0" width="110" y="0" height="24"/></clipPath><clipPath id="1b29d2870f"><path d="M 138 5 L 148.957031 5 L 148.957031 19 L 138 19 Z M 138 5 " clip-rule="nonzero"/></clipPath><clipPath id="4ab10b7a46"><rect x="0" width="149" y="0" height="24"/></clipPath><clipPath id="4f970dc15a"><path d="M 5 85 L 18 85 L 18 95.941406 L 5 95.941406 Z M 5 85 " clip-rule="nonzero"/></clipPath><clipPath id="b4325acec4"><rect x="0" width="24" y="0" height="96"/></clipPath></defs><g clip-path="url(#fa69a752d9)"><path stroke-linecap="butt" transform="matrix(0.748716, 0, 0, 0.748716, 6.575595, 6.689397)" fill="none" stroke-linejoin="miter" d="M -0.00183878 -0.00253405 L 282.716655 -0.00253405 L 282.716655 259.765201 L -0.00183878 259.765201 Z M -0.00183878 -0.00253405 " stroke="#000000" stroke-width="4" stroke-opacity="1" stroke-miterlimit="4"/></g><g clip-path="url(#56a741024c)"><path stroke-linecap="butt" transform="matrix(0.748716, 0, 0, 0.748716, 218.251948, 6.689397)" fill="none" stroke-linejoin="miter" d="M -0.00260229 -0.00253405 L 282.715891 -0.00253405 L 282.715891 259.765201 L -0.00260229 259.765201 Z M -0.00260229 -0.00253405 " stroke="#000000" stroke-width="4" stroke-opacity="1" stroke-miterlimit="4"/></g><g clip-path="url(#e0a391ea60)"><path stroke-linecap="butt" transform="matrix(0.748716, 0, 0, 0.748716, 6.584889, 201.182736)" fill="none" stroke-linejoin="miter" d="M 0.00140054 0.00114517 L 565.407121 0.00114517 L 565.407121 170.391886 L 0.00140054 170.391886 Z M 0.00140054 0.00114517 " stroke="#000000" stroke-width="4" stroke-opacity="1" stroke-miterlimit="4"/></g><g transform="matrix(1, 0, 0, 1, 57, 16)"><g clip-path="url(#291b25bb80)"><g clip-path="url(#584e62208e)"><g fill="#000000" fill-opacity="1"><g transform="translate(0.0329522, 18.192114)"><g><path d="M 4.59375 0 L 3.234375 0 L 0.609375 -12.15625 L 1.96875 -12.15625 L 4.03125 -2.125 L 7.03125 -12.15625 L 8.34375 -12.15625 L 11.34375 -2.15625 L 13.4375 -12.15625 L 14.734375 -12.15625 L 12.109375 0 L 10.75 0 L 7.6875 -10.296875 Z M 4.59375 0 "/></g></g></g></g><g fill="#000000" fill-opacity="1"><g transform="translate(15.353574, 18.192114)"><g><path d="M 13.296875 -6.078125 C 13.296875 -5.210938 13.128906 -4.394531 12.796875 -3.625 C 12.472656 -2.851562 12.03125 -2.1875 11.46875 -1.625 C 10.914062 -1.0625 10.253906 -0.617188 9.484375 -0.296875 C 8.722656 0.0234375 7.90625 0.1875 7.03125 0.1875 C 6.164062 0.1875 5.347656 0.0234375 4.578125 -0.296875 C 3.804688 -0.617188 3.140625 -1.0625 2.578125 -1.625 C 2.015625 -2.1875 1.570312 -2.851562 1.25 -3.625 C 0.925781 -4.394531 0.765625 -5.210938 0.765625 -6.078125 C 0.765625 -6.953125 0.925781 -7.769531 1.25 -8.53125 C 1.570312 -9.300781 2.015625 -9.96875 2.578125 -10.53125 C 3.140625 -11.09375 3.804688 -11.535156 4.578125 -11.859375 C 5.347656 -12.191406 6.164062 -12.359375 7.03125 -12.359375 C 7.90625 -12.359375 8.722656 -12.191406 9.484375 -11.859375 C 10.253906 -11.535156 10.914062 -11.09375 11.46875 -10.53125 C 12.03125 -9.96875 12.472656 -9.300781 12.796875 -8.53125 C 13.128906 -7.769531 13.296875 -6.953125 13.296875 -6.078125 Z M 11.9375 -6.078125 C 11.9375 -6.785156 11.804688 -7.445312 11.546875 -8.0625 C 11.296875 -8.6875 10.953125 -9.222656 10.515625 -9.671875 C 10.085938 -10.117188 9.570312 -10.472656 8.96875 -10.734375 C 8.363281 -10.992188 7.71875 -11.125 7.03125 -11.125 C 6.34375 -11.125 5.695312 -10.992188 5.09375 -10.734375 C 4.488281 -10.472656 3.96875 -10.117188 3.53125 -9.671875 C 3.101562 -9.222656 2.757812 -8.6875 2.5 -8.0625 C 2.25 -7.445312 2.125 -6.785156 2.125 -6.078125 C 2.125 -5.367188 2.25 -4.707031 2.5 -4.09375 C 2.757812 -3.476562 3.101562 -2.945312 3.53125 -2.5 C 3.96875 -2.050781 4.488281 -1.695312 5.09375 -1.4375 C 5.695312 -1.175781 6.34375 -1.046875 7.03125 -1.046875 C 7.71875 -1.046875 8.363281 -1.175781 8.96875 -1.4375 C 9.570312 -1.695312 10.085938 -2.050781 10.515625 -2.5 C 10.953125 -2.945312 11.296875 -3.476562 11.546875 -4.09375 C 11.804688 -4.707031 11.9375 -5.367188 11.9375 -6.078125 Z M 11.9375 -6.078125 "/></g></g></g><g fill="#000000" fill-opacity="1"><g transform="translate(29.406162, 18.192114)"><g><path d="M 1.34375 0 L 1.34375 -12.15625 L 6.546875 -12.15625 C 7.734375 -12.15625 8.691406 -11.832031 9.421875 -11.1875 C 10.148438 -10.550781 10.515625 -9.710938 10.515625 -8.671875 C 10.515625 -7.867188 10.28125 -7.175781 9.8125 -6.59375 C 9.34375 -6.019531 8.710938 -5.625 7.921875 -5.40625 L 10.65625 0 L 9.171875 0 L 6.5625 -5.234375 L 2.671875 -5.234375 L 2.671875 0 Z M 6.46875 -10.96875 L 2.671875 -10.96875 L 2.671875 -6.359375 L 6.46875 -6.359375 C 7.28125 -6.359375 7.929688 -6.566406 8.421875 -6.984375 C 8.921875 -7.410156 9.171875 -7.972656 9.171875 -8.671875 C 9.171875 -9.367188 8.921875 -9.925781 8.421875 -10.34375 C 7.929688 -10.757812 7.28125 -10.96875 6.46875 -10.96875 Z M 6.46875 -10.96875 "/></g></g></g><g fill="#000000" fill-opacity="1"><g transform="translate(40.610021, 18.192114)"><g><path d="M 1.34375 0 L 1.34375 -12.15625 L 2.671875 -12.15625 L 2.671875 -6.390625 L 8.96875 -12.15625 L 10.71875 -12.15625 L 4.125 -6.203125 L 10.859375 0 L 8.984375 0 L 2.671875 -5.84375 L 2.671875 0 Z M 1.34375 0 "/></g></g></g><g fill="#000000" fill-opacity="1"><g transform="translate(51.327508, 18.192114)"><g/></g></g><g fill="#000000" fill-opacity="1"><g transform="translate(55.062128, 18.192114)"><g><path d="M 0.296875 -10.96875 L 0.296875 -12.15625 L 10.421875 -12.15625 L 10.421875 -10.96875 L 6.03125 -10.96875 L 6.03125 0 L 4.6875 0 L 4.6875 -10.96875 Z M 0.296875 -10.96875 "/></g></g></g><g fill="#000000" fill-opacity="1"><g transform="translate(65.779615, 18.192114)"><g><path d="M 0.0625 0 L 5.125 -12.15625 L 6.734375 -12.15625 L 11.734375 0 L 10.265625 0 L 8.734375 -3.828125 L 3 -3.828125 L 1.453125 0 Z M 3.46875 -4.96875 L 8.265625 -4.96875 L 5.890625 -10.90625 Z M 3.46875 -4.96875 "/></g></g></g><g fill="#000000" fill-opacity="1"><g transform="translate(77.574063, 18.192114)"><g><path d="M 0.1875 -2.078125 L 1.078125 -3 C 1.703125 -2.34375 2.367188 -1.84375 3.078125 -1.5 C 3.796875 -1.15625 4.546875 -0.984375 5.328125 -0.984375 C 6.285156 -0.984375 7.066406 -1.207031 7.671875 -1.65625 C 8.285156 -2.113281 8.59375 -2.691406 8.59375 -3.390625 C 8.59375 -4.015625 8.375 -4.492188 7.9375 -4.828125 C 7.507812 -5.160156 6.796875 -5.410156 5.796875 -5.578125 L 4.046875 -5.859375 C 2.878906 -6.046875 2.015625 -6.390625 1.453125 -6.890625 C 0.898438 -7.390625 0.625 -8.070312 0.625 -8.9375 C 0.625 -9.9375 1.015625 -10.75 1.796875 -11.375 C 2.585938 -12 3.625 -12.3125 4.90625 -12.3125 C 5.75 -12.3125 6.585938 -12.171875 7.421875 -11.890625 C 8.253906 -11.617188 9.007812 -11.222656 9.6875 -10.703125 L 8.9375 -9.65625 C 8.269531 -10.15625 7.59375 -10.53125 6.90625 -10.78125 C 6.226562 -11.039062 5.539062 -11.171875 4.84375 -11.171875 C 3.976562 -11.171875 3.273438 -10.96875 2.734375 -10.5625 C 2.191406 -10.164062 1.921875 -9.65625 1.921875 -9.03125 C 1.921875 -8.46875 2.113281 -8.035156 2.5 -7.734375 C 2.882812 -7.429688 3.515625 -7.210938 4.390625 -7.078125 L 6.140625 -6.796875 C 7.453125 -6.578125 8.410156 -6.195312 9.015625 -5.65625 C 9.628906 -5.125 9.9375 -4.390625 9.9375 -3.453125 C 9.9375 -2.921875 9.820312 -2.429688 9.59375 -1.984375 C 9.375 -1.546875 9.054688 -1.164062 8.640625 -0.84375 C 8.234375 -0.519531 7.742188 -0.269531 7.171875 -0.09375 C 6.597656 0.0820312 5.96875 0.171875 5.28125 0.171875 C 4.320312 0.171875 3.398438 -0.0195312 2.515625 -0.40625 C 1.628906 -0.789062 0.851562 -1.347656 0.1875 -2.078125 Z M 0.1875 -2.078125 "/></g></g></g><g fill="#000000" fill-opacity="1"><g transform="translate(87.996256, 18.192114)"><g><path d="M 1.34375 0 L 1.34375 -12.15625 L 2.671875 -12.15625 L 2.671875 -6.390625 L 8.96875 -12.15625 L 10.71875 -12.15625 L 4.125 -6.203125 L 10.859375 0 L 8.984375 0 L 2.671875 -5.84375 L 2.671875 0 Z M 1.34375 0 "/></g></g></g><g fill="#000000" fill-opacity="1"><g transform="translate(98.713743, 18.192114)"><g><path d="M 0.1875 -2.078125 L 1.078125 -3 C 1.703125 -2.34375 2.367188 -1.84375 3.078125 -1.5 C 3.796875 -1.15625 4.546875 -0.984375 5.328125 -0.984375 C 6.285156 -0.984375 7.066406 -1.207031 7.671875 -1.65625 C 8.285156 -2.113281 8.59375 -2.691406 8.59375 -3.390625 C 8.59375 -4.015625 8.375 -4.492188 7.9375 -4.828125 C 7.507812 -5.160156 6.796875 -5.410156 5.796875 -5.578125 L 4.046875 -5.859375 C 2.878906 -6.046875 2.015625 -6.390625 1.453125 -6.890625 C 0.898438 -7.390625 0.625 -8.070312 0.625 -8.9375 C 0.625 -9.9375 1.015625 -10.75 1.796875 -11.375 C 2.585938 -12 3.625 -12.3125 4.90625 -12.3125 C 5.75 -12.3125 6.585938 -12.171875 7.421875 -11.890625 C 8.253906 -11.617188 9.007812 -11.222656 9.6875 -10.703125 L 8.9375 -9.65625 C 8.269531 -10.15625 7.59375 -10.53125 6.90625 -10.78125 C 6.226562 -11.039062 5.539062 -11.171875 4.84375 -11.171875 C 3.976562 -11.171875 3.273438 -10.96875 2.734375 -10.5625 C 2.191406 -10.164062 1.921875 -9.65625 1.921875 -9.03125 C 1.921875 -8.46875 2.113281 -8.035156 2.5 -7.734375 C 2.882812 -7.429688 3.515625 -7.210938 4.390625 -7.078125 L 6.140625 -6.796875 C 7.453125 -6.578125 8.410156 -6.195312 9.015625 -5.65625 C 9.628906 -5.125 9.9375 -4.390625 9.9375 -3.453125 C 9.9375 -2.921875 9.820312 -2.429688 9.59375 -1.984375 C 9.375 -1.546875 9.054688 -1.164062 8.640625 -0.84375 C 8.234375 -0.519531 7.742188 -0.269531 7.171875 -0.09375 C 6.597656 0.0820312 5.96875 0.171875 5.28125 0.171875 C 4.320312 0.171875 3.398438 -0.0195312 2.515625 -0.40625 C 1.628906 -0.789062 0.851562 -1.347656 0.1875 -2.078125 Z M 0.1875 -2.078125 "/></g></g></g></g></g><g transform="matrix(1, 0, 0, 1, 249, 16)"><g clip-path="url(#4ab10b7a46)"><g fill="#000000" fill-opacity="1"><g transform="translate(0.397032, 18.192114)"><g><path d="M 1.34375 0 L 1.34375 -12.15625 L 6.625 -12.15625 C 7.800781 -12.15625 8.75 -11.832031 9.46875 -11.1875 C 10.1875 -10.550781 10.546875 -9.707031 10.546875 -8.65625 C 10.546875 -7.601562 10.179688 -6.75 9.453125 -6.09375 C 8.734375 -5.445312 7.789062 -5.125 6.625 -5.125 L 2.671875 -5.125 L 2.671875 0 Z M 6.515625 -10.96875 L 2.671875 -10.96875 L 2.671875 -6.296875 L 6.515625 -6.296875 C 7.335938 -6.296875 7.988281 -6.503906 8.46875 -6.921875 C 8.957031 -7.347656 9.203125 -7.921875 9.203125 -8.640625 C 9.203125 -9.359375 8.957031 -9.925781 8.46875 -10.34375 C 7.988281 -10.757812 7.335938 -10.96875 6.515625 -10.96875 Z M 6.515625 -10.96875 "/></g></g></g><g fill="#000000" fill-opacity="1"><g transform="translate(11.63563, 18.192114)"><g><path d="M 1.34375 0 L 1.34375 -12.15625 L 10.046875 -12.15625 L 10.046875 -10.984375 L 2.671875 -10.984375 L 2.671875 -6.71875 L 7.484375 -6.71875 L 7.484375 -5.5625 L 2.671875 -5.5625 L 2.671875 -1.1875 L 10.109375 -1.1875 L 10.109375 0 Z M 1.34375 0 "/></g></g></g><g fill="#000000" fill-opacity="1"><g transform="translate(22.335747, 18.192114)"><g><path d="M 1.34375 0 L 1.34375 -12.15625 L 6.546875 -12.15625 C 7.734375 -12.15625 8.691406 -11.832031 9.421875 -11.1875 C 10.148438 -10.550781 10.515625 -9.710938 10.515625 -8.671875 C 10.515625 -7.867188 10.28125 -7.175781 9.8125 -6.59375 C 9.34375 -6.019531 8.710938 -5.625 7.921875 -5.40625 L 10.65625 0 L 9.171875 0 L 6.5625 -5.234375 L 2.671875 -5.234375 L 2.671875 0 Z M 6.46875 -10.96875 L 2.671875 -10.96875 L 2.671875 -6.359375 L 6.46875 -6.359375 C 7.28125 -6.359375 7.929688 -6.566406 8.421875 -6.984375 C 8.921875 -7.410156 9.171875 -7.972656 9.171875 -8.671875 C 9.171875 -9.367188 8.921875 -9.925781 8.421875 -10.34375 C 7.929688 -10.757812 7.28125 -10.96875 6.46875 -10.96875 Z M 6.46875 -10.96875 "/></g></g></g><g fill="#000000" fill-opacity="1"><g transform="translate(33.574357, 18.192114)"><g><path d="M 0.1875 -2.078125 L 1.078125 -3 C 1.703125 -2.34375 2.367188 -1.84375 3.078125 -1.5 C 3.796875 -1.15625 4.546875 -0.984375 5.328125 -0.984375 C 6.285156 -0.984375 7.066406 -1.207031 7.671875 -1.65625 C 8.285156 -2.113281 8.59375 -2.691406 8.59375 -3.390625 C 8.59375 -4.015625 8.375 -4.492188 7.9375 -4.828125 C 7.507812 -5.160156 6.796875 -5.410156 5.796875 -5.578125 L 4.046875 -5.859375 C 2.878906 -6.046875 2.015625 -6.390625 1.453125 -6.890625 C 0.898438 -7.390625 0.625 -8.070312 0.625 -8.9375 C 0.625 -9.9375 1.015625 -10.75 1.796875 -11.375 C 2.585938 -12 3.625 -12.3125 4.90625 -12.3125 C 5.75 -12.3125 6.585938 -12.171875 7.421875 -11.890625 C 8.253906 -11.617188 9.007812 -11.222656 9.6875 -10.703125 L 8.9375 -9.65625 C 8.269531 -10.15625 7.59375 -10.53125 6.90625 -10.78125 C 6.226562 -11.039062 5.539062 -11.171875 4.84375 -11.171875 C 3.976562 -11.171875 3.273438 -10.96875 2.734375 -10.5625 C 2.191406 -10.164062 1.921875 -9.65625 1.921875 -9.03125 C 1.921875 -8.46875 2.113281 -8.035156 2.5 -7.734375 C 2.882812 -7.429688 3.515625 -7.210938 4.390625 -7.078125 L 6.140625 -6.796875 C 7.453125 -6.578125 8.410156 -6.195312 9.015625 -5.65625 C 9.628906 -5.125 9.9375 -4.390625 9.9375 -3.453125 C 9.9375 -2.921875 9.820312 -2.429688 9.59375 -1.984375 C 9.375 -1.546875 9.054688 -1.164062 8.640625 -0.84375 C 8.234375 -0.519531 7.742188 -0.269531 7.171875 -0.09375 C 6.597656 0.0820312 5.96875 0.171875 5.28125 0.171875 C 4.320312 0.171875 3.398438 -0.0195312 2.515625 -0.40625 C 1.628906 -0.789062 0.851562 -1.347656 0.1875 -2.078125 Z M 0.1875 -2.078125 "/></g></g></g><g fill="#000000" fill-opacity="1"><g transform="translate(43.996549, 18.192114)"><g><path d="M 13.296875 -6.078125 C 13.296875 -5.210938 13.128906 -4.394531 12.796875 -3.625 C 12.472656 -2.851562 12.03125 -2.1875 11.46875 -1.625 C 10.914062 -1.0625 10.253906 -0.617188 9.484375 -0.296875 C 8.722656 0.0234375 7.90625 0.1875 7.03125 0.1875 C 6.164062 0.1875 5.347656 0.0234375 4.578125 -0.296875 C 3.804688 -0.617188 3.140625 -1.0625 2.578125 -1.625 C 2.015625 -2.1875 1.570312 -2.851562 1.25 -3.625 C 0.925781 -4.394531 0.765625 -5.210938 0.765625 -6.078125 C 0.765625 -6.953125 0.925781 -7.769531 1.25 -8.53125 C 1.570312 -9.300781 2.015625 -9.96875 2.578125 -10.53125 C 3.140625 -11.09375 3.804688 -11.535156 4.578125 -11.859375 C 5.347656 -12.191406 6.164062 -12.359375 7.03125 -12.359375 C 7.90625 -12.359375 8.722656 -12.191406 9.484375 -11.859375 C 10.253906 -11.535156 10.914062 -11.09375 11.46875 -10.53125 C 12.03125 -9.96875 12.472656 -9.300781 12.796875 -8.53125 C 13.128906 -7.769531 13.296875 -6.953125 13.296875 -6.078125 Z M 11.9375 -6.078125 C 11.9375 -6.785156 11.804688 -7.445312 11.546875 -8.0625 C 11.296875 -8.6875 10.953125 -9.222656 10.515625 -9.671875 C 10.085938 -10.117188 9.570312 -10.472656 8.96875 -10.734375 C 8.363281 -10.992188 7.71875 -11.125 7.03125 -11.125 C 6.34375 -11.125 5.695312 -10.992188 5.09375 -10.734375 C 4.488281 -10.472656 3.96875 -10.117188 3.53125 -9.671875 C 3.101562 -9.222656 2.757812 -8.6875 2.5 -8.0625 C 2.25 -7.445312 2.125 -6.785156 2.125 -6.078125 C 2.125 -5.367188 2.25 -4.707031 2.5 -4.09375 C 2.757812 -3.476562 3.101562 -2.945312 3.53125 -2.5 C 3.96875 -2.050781 4.488281 -1.695312 5.09375 -1.4375 C 5.695312 -1.175781 6.34375 -1.046875 7.03125 -1.046875 C 7.71875 -1.046875 8.363281 -1.175781 8.96875 -1.4375 C 9.570312 -1.695312 10.085938 -2.050781 10.515625 -2.5 C 10.953125 -2.945312 11.296875 -3.476562 11.546875 -4.09375 C 11.804688 -4.707031 11.9375 -5.367188 11.9375 -6.078125 Z M 11.9375 -6.078125 "/></g></g></g><g fill="#000000" fill-opacity="1"><g transform="translate(58.049138, 18.192114)"><g><path d="M 1.34375 -12.15625 L 2.671875 -12.15625 L 9.984375 -2.296875 L 9.984375 -12.15625 L 11.265625 -12.15625 L 11.265625 0 L 10.078125 0 L 2.609375 -10.125 L 2.609375 0 L 1.34375 0 Z M 1.34375 -12.15625 "/></g></g></g><g fill="#000000" fill-opacity="1"><g transform="translate(70.642622, 18.192114)"><g><path d="M 0.0625 0 L 5.125 -12.15625 L 6.734375 -12.15625 L 11.734375 0 L 10.265625 0 L 8.734375 -3.828125 L 3 -3.828125 L 1.453125 0 Z M 3.46875 -4.96875 L 8.265625 -4.96875 L 5.890625 -10.90625 Z M 3.46875 -4.96875 "/></g></g></g><g fill="#000000" fill-opacity="1"><g transform="translate(82.437071, 18.192114)"><g><path d="M 1.34375 0 L 1.34375 -12.15625 L 2.671875 -12.15625 L 2.671875 -1.203125 L 9.921875 -1.203125 L 9.921875 0 Z M 1.34375 0 "/></g></g></g><g fill="#000000" fill-opacity="1"><g transform="translate(92.928747, 18.192114)"><g/></g></g><g fill="#000000" fill-opacity="1"><g transform="translate(96.663367, 18.192114)"><g><path d="M 0.296875 -10.96875 L 0.296875 -12.15625 L 10.421875 -12.15625 L 10.421875 -10.96875 L 6.03125 -10.96875 L 6.03125 0 L 4.6875 0 L 4.6875 -10.96875 Z M 0.296875 -10.96875 "/></g></g></g><g fill="#000000" fill-opacity="1"><g transform="translate(105.156957, 18.192114)"><g><path d="M 0.0625 0 L 5.125 -12.15625 L 6.734375 -12.15625 L 11.734375 0 L 10.265625 0 L 8.734375 -3.828125 L 3 -3.828125 L 1.453125 0 Z M 3.46875 -4.96875 L 8.265625 -4.96875 L 5.890625 -10.90625 Z M 3.46875 -4.96875 "/></g></g></g><g fill="#000000" fill-opacity="1"><g transform="translate(117.298882, 18.192114)"><g><path d="M 0.1875 -2.078125 L 1.078125 -3 C 1.703125 -2.34375 2.367188 -1.84375 3.078125 -1.5 C 3.796875 -1.15625 4.546875 -0.984375 5.328125 -0.984375 C 6.285156 -0.984375 7.066406 -1.207031 7.671875 -1.65625 C 8.285156 -2.113281 8.59375 -2.691406 8.59375 -3.390625 C 8.59375 -4.015625 8.375 -4.492188 7.9375 -4.828125 C 7.507812 -5.160156 6.796875 -5.410156 5.796875 -5.578125 L 4.046875 -5.859375 C 2.878906 -6.046875 2.015625 -6.390625 1.453125 -6.890625 C 0.898438 -7.390625 0.625 -8.070312 0.625 -8.9375 C 0.625 -9.9375 1.015625 -10.75 1.796875 -11.375 C 2.585938 -12 3.625 -12.3125 4.90625 -12.3125 C 5.75 -12.3125 6.585938 -12.171875 7.421875 -11.890625 C 8.253906 -11.617188 9.007812 -11.222656 9.6875 -10.703125 L 8.9375 -9.65625 C 8.269531 -10.15625 7.59375 -10.53125 6.90625 -10.78125 C 6.226562 -11.039062 5.539062 -11.171875 4.84375 -11.171875 C 3.976562 -11.171875 3.273438 -10.96875 2.734375 -10.5625 C 2.191406 -10.164062 1.921875 -9.65625 1.921875 -9.03125 C 1.921875 -8.46875 2.113281 -8.035156 2.5 -7.734375 C 2.882812 -7.429688 3.515625 -7.210938 4.390625 -7.078125 L 6.140625 -6.796875 C 7.453125 -6.578125 8.410156 -6.195312 9.015625 -5.65625 C 9.628906 -5.125 9.9375 -4.390625 9.9375 -3.453125 C 9.9375 -2.921875 9.820312 -2.429688 9.59375 -1.984375 C 9.375 -1.546875 9.054688 -1.164062 8.640625 -0.84375 C 8.234375 -0.519531 7.742188 -0.269531 7.171875 -0.09375 C 6.597656 0.0820312 5.96875 0.171875 5.28125 0.171875 C 4.320312 0.171875 3.398438 -0.0195312 2.515625 -0.40625 C 1.628906 -0.789062 0.851562 -1.347656 0.1875 -2.078125 Z M 0.1875 -2.078125 "/></g></g></g><g fill="#000000" fill-opacity="1"><g transform="translate(127.72108, 18.192114)"><g><path d="M 1.34375 0 L 1.34375 -12.15625 L 2.671875 -12.15625 L 2.671875 -6.390625 L 8.96875 -12.15625 L 10.71875 -12.15625 L 4.125 -6.203125 L 10.859375 0 L 8.984375 0 L 2.671875 -5.84375 L 2.671875 0 Z M 1.34375 0 "/></g></g></g><g clip-path="url(#1b29d2870f)"><g fill="#000000" fill-opacity="1"><g transform="translate(138.438561, 18.192114)"><g><path d="M 0.1875 -2.078125 L 1.078125 -3 C 1.703125 -2.34375 2.367188 -1.84375 3.078125 -1.5 C 3.796875 -1.15625 4.546875 -0.984375 5.328125 -0.984375 C 6.285156 -0.984375 7.066406 -1.207031 7.671875 -1.65625 C 8.285156 -2.113281 8.59375 -2.691406 8.59375 -3.390625 C 8.59375 -4.015625 8.375 -4.492188 7.9375 -4.828125 C 7.507812 -5.160156 6.796875 -5.410156 5.796875 -5.578125 L 4.046875 -5.859375 C 2.878906 -6.046875 2.015625 -6.390625 1.453125 -6.890625 C 0.898438 -7.390625 0.625 -8.070312 0.625 -8.9375 C 0.625 -9.9375 1.015625 -10.75 1.796875 -11.375 C 2.585938 -12 3.625 -12.3125 4.90625 -12.3125 C 5.75 -12.3125 6.585938 -12.171875 7.421875 -11.890625 C 8.253906 -11.617188 9.007812 -11.222656 9.6875 -10.703125 L 8.9375 -9.65625 C 8.269531 -10.15625 7.59375 -10.53125 6.90625 -10.78125 C 6.226562 -11.039062 5.539062 -11.171875 4.84375 -11.171875 C 3.976562 -11.171875 3.273438 -10.96875 2.734375 -10.5625 C 2.191406 -10.164062 1.921875 -9.65625 1.921875 -9.03125 C 1.921875 -8.46875 2.113281 -8.035156 2.5 -7.734375 C 2.882812 -7.429688 3.515625 -7.210938 4.390625 -7.078125 L 6.140625 -6.796875 C 7.453125 -6.578125 8.410156 -6.195312 9.015625 -5.65625 C 9.628906 -5.125 9.9375 -4.390625 9.9375 -3.453125 C 9.9375 -2.921875 9.820312 -2.429688 9.59375 -1.984375 C 9.375 -1.546875 9.054688 -1.164062 8.640625 -0.84375 C 8.234375 -0.519531 7.742188 -0.269531 7.171875 -0.09375 C 6.597656 0.0820312 5.96875 0.171875 5.28125 0.171875 C 4.320312 0.171875 3.398438 -0.0195312 2.515625 -0.40625 C 1.628906 -0.789062 0.851562 -1.347656 0.1875 -2.078125 Z M 0.1875 -2.078125 "/></g></g></g></g></g></g><g transform="matrix(1, 0, 0, 1, 16, 217)"><g clip-path="url(#b4325acec4)"><g clip-path="url(#4f970dc15a)"><g fill="#000000" fill-opacity="1"><g transform="translate(17.686327, 95.91585)"><g><path d="M -2.078125 -0.1875 L -3 -1.078125 C -2.34375 -1.703125 -1.84375 -2.367188 -1.5 -3.078125 C -1.15625 -3.796875 -0.984375 -4.546875 -0.984375 -5.328125 C -0.984375 -6.285156 -1.207031 -7.066406 -1.65625 -7.671875 C -2.113281 -8.285156 -2.691406 -8.59375 -3.390625 -8.59375 C -4.015625 -8.59375 -4.492188 -8.375 -4.828125 -7.9375 C -5.160156 -7.507812 -5.410156 -6.796875 -5.578125 -5.796875 L -5.859375 -4.046875 C -6.046875 -2.878906 -6.390625 -2.015625 -6.890625 -1.453125 C -7.390625 -0.898438 -8.070312 -0.625 -8.9375 -0.625 C -9.9375 -0.625 -10.75 -1.015625 -11.375 -1.796875 C -12 -2.585938 -12.3125 -3.625 -12.3125 -4.90625 C -12.3125 -5.75 -12.171875 -6.585938 -11.890625 -7.421875 C -11.617188 -8.253906 -11.222656 -9.007812 -10.703125 -9.6875 L -9.65625 -8.9375 C -10.15625 -8.269531 -10.53125 -7.59375 -10.78125 -6.90625 C -11.039062 -6.226562 -11.171875 -5.539062 -11.171875 -4.84375 C -11.171875 -3.976562 -10.96875 -3.273438 -10.5625 -2.734375 C -10.164062 -2.191406 -9.65625 -1.921875 -9.03125 -1.921875 C -8.46875 -1.921875 -8.035156 -2.113281 -7.734375 -2.5 C -7.429688 -2.882812 -7.210938 -3.515625 -7.078125 -4.390625 L -6.796875 -6.140625 C -6.578125 -7.453125 -6.195312 -8.410156 -5.65625 -9.015625 C -5.125 -9.628906 -4.390625 -9.9375 -3.453125 -9.9375 C -2.921875 -9.9375 -2.429688 -9.820312 -1.984375 -9.59375 C -1.546875 -9.375 -1.164062 -9.054688 -0.84375 -8.640625 C -0.519531 -8.234375 -0.269531 -7.742188 -0.09375 -7.171875 C 0.0820312 -6.597656 0.171875 -5.96875 0.171875 -5.28125 C 0.171875 -4.320312 -0.0195312 -3.398438 -0.40625 -2.515625 C -0.789062 -1.628906 -1.347656 -0.851562 -2.078125 -0.1875 Z M -2.078125 -0.1875 "/></g></g></g></g><g fill="#000000" fill-opacity="1"><g transform="translate(17.686327, 85.493657)"><g><path d="M 0 -1.34375 L -12.15625 -1.34375 L -12.15625 -10.046875 L -10.984375 -10.046875 L -10.984375 -2.671875 L -6.71875 -2.671875 L -6.71875 -7.484375 L -5.5625 -7.484375 L -5.5625 -2.671875 L -1.1875 -2.671875 L -1.1875 -10.109375 L 0 -10.109375 Z M 0 -1.34375 "/></g></g></g><g fill="#000000" fill-opacity="1"><g transform="translate(17.686327, 74.79354)"><g><path d="M 0 -1.34375 L -12.15625 -1.34375 L -12.15625 -2.671875 L -1.203125 -2.671875 L -1.203125 -9.921875 L 0 -9.921875 Z M 0 -1.34375 "/></g></g></g><g fill="#000000" fill-opacity="1"><g transform="translate(17.686327, 64.301864)"><g><path d="M 0 -1.34375 L -12.15625 -1.34375 L -12.15625 -10.046875 L -10.984375 -10.046875 L -10.984375 -2.671875 L -6.640625 -2.671875 L -6.640625 -7.5 L -5.46875 -7.5 L -5.46875 -2.671875 L 0 -2.671875 Z M 0 -1.34375 "/></g></g></g><g fill="#000000" fill-opacity="1"><g transform="translate(17.686327, 54.592043)"><g><path d="M -5.453125 -0.84375 L -5.453125 -6.921875 L -4.3125 -6.921875 L -4.3125 -0.84375 Z M -5.453125 -0.84375 "/></g></g></g><g fill="#000000" fill-opacity="1"><g transform="translate(17.686327, 46.653768)"><g><path d="M -1.046875 -7.109375 C -1.046875 -7.859375 -1.191406 -8.570312 -1.484375 -9.25 C -1.773438 -9.9375 -2.179688 -10.515625 -2.703125 -10.984375 L -1.8125 -11.84375 C -1.1875 -11.25 -0.695312 -10.53125 -0.34375 -9.6875 C 0.0078125 -8.851562 0.1875 -7.984375 0.1875 -7.078125 C 0.1875 -6.191406 0.0234375 -5.363281 -0.296875 -4.59375 C -0.617188 -3.820312 -1.0625 -3.148438 -1.625 -2.578125 C -2.1875 -2.015625 -2.851562 -1.570312 -3.625 -1.25 C -4.394531 -0.925781 -5.210938 -0.765625 -6.078125 -0.765625 C -6.953125 -0.765625 -7.769531 -0.925781 -8.53125 -1.25 C -9.300781 -1.570312 -9.96875 -2.015625 -10.53125 -2.578125 C -11.09375 -3.148438 -11.535156 -3.820312 -11.859375 -4.59375 C -12.191406 -5.363281 -12.359375 -6.191406 -12.359375 -7.078125 C -12.359375 -8.015625 -12.179688 -8.898438 -11.828125 -9.734375 C -11.472656 -10.578125 -10.984375 -11.296875 -10.359375 -11.890625 L -9.421875 -11 C -9.953125 -10.519531 -10.367188 -9.929688 -10.671875 -9.234375 C -10.972656 -8.535156 -11.125 -7.816406 -11.125 -7.078125 C -11.125 -6.378906 -10.992188 -5.722656 -10.734375 -5.109375 C -10.472656 -4.503906 -10.117188 -3.984375 -9.671875 -3.546875 C -9.222656 -3.109375 -8.6875 -2.757812 -8.0625 -2.5 C -7.445312 -2.25 -6.785156 -2.125 -6.078125 -2.125 C -5.367188 -2.125 -4.703125 -2.25 -4.078125 -2.5 C -3.460938 -2.757812 -2.929688 -3.109375 -2.484375 -3.546875 C -2.046875 -3.992188 -1.695312 -4.519531 -1.4375 -5.125 C -1.175781 -5.738281 -1.046875 -6.398438 -1.046875 -7.109375 Z M -1.046875 -7.109375 "/></g></g></g><g fill="#000000" fill-opacity="1"><g transform="translate(17.686327, 34.112398)"><g><path d="M 0 -0.0625 L -12.15625 -5.125 L -12.15625 -6.734375 L 0 -11.734375 L 0 -10.265625 L -3.828125 -8.734375 L -3.828125 -3 L 0 -1.453125 Z M -4.96875 -3.46875 L -4.96875 -8.265625 L -10.90625 -5.890625 Z M -4.96875 -3.46875 "/></g></g></g><g fill="#000000" fill-opacity="1"><g transform="translate(17.686327, 22.31795)"><g><path d="M 0 -1.34375 L -12.15625 -1.34375 L -12.15625 -6.546875 C -12.15625 -7.734375 -11.832031 -8.691406 -11.1875 -9.421875 C -10.550781 -10.148438 -9.710938 -10.515625 -8.671875 -10.515625 C -7.867188 -10.515625 -7.175781 -10.28125 -6.59375 -9.8125 C -6.019531 -9.34375 -5.625 -8.710938 -5.40625 -7.921875 L 0 -10.65625 L 0 -9.171875 L -5.234375 -6.5625 L -5.234375 -2.671875 L 0 -2.671875 Z M -10.96875 -6.46875 L -10.96875 -2.671875 L -6.359375 -2.671875 L -6.359375 -6.46875 C -6.359375 -7.28125 -6.566406 -7.929688 -6.984375 -8.421875 C -7.410156 -8.921875 -7.972656 -9.171875 -8.671875 -9.171875 C -9.367188 -9.171875 -9.925781 -8.921875 -10.34375 -8.421875 C -10.757812 -7.929688 -10.96875 -7.28125 -10.96875 -6.46875 Z M -10.96875 -6.46875 "/></g></g></g><g fill="#000000" fill-opacity="1"><g transform="translate(17.686327, 11.114091)"><g><path d="M 0 -1.34375 L -12.15625 -1.34375 L -12.15625 -10.046875 L -10.984375 -10.046875 L -10.984375 -2.671875 L -6.71875 -2.671875 L -6.71875 -7.484375 L -5.5625 -7.484375 L -5.5625 -2.671875 L -1.1875 -2.671875 L -1.1875 -10.109375 L 0 -10.109375 Z M 0 -1.34375 "/></g></g></g></g></g></svg>