<svg xmlns="http://www.w3.org/2000/svg" xmlns:xlink="http://www.w3.org/1999/xlink" width="583" zoomAndPan="magnify" viewBox="0 0 438 300.000006" height="450" preserveAspectRatio="xMidYMid meet" version="1.0"><defs><g/><clipPath id="7f7e2988e0"><path d="M 228 127 L 250.214844 127 L 250.214844 150 L 228 150 Z M 228 127 " clip-rule="nonzero"/></clipPath><clipPath id="5bfbfba3cf"><path d="M 119 228 L 142 228 L 142 249.859375 L 119 249.859375 Z M 119 228 " clip-rule="nonzero"/></clipPath><clipPath id="2ab11c0700"><path d="M 95 226 L 118 226 L 118 249.859375 L 95 249.859375 Z M 95 226 " clip-rule="nonzero"/></clipPath><clipPath id="54faf90d85"><path d="M 121 0.609375 L 144 0.609375 L 144 23 L 121 23 Z M 121 0.609375 " clip-rule="nonzero"/></clipPath><clipPath id="0f9bc7519d"><path d="M 228 103 L 250.214844 103 L 250.214844 126 L 228 126 Z M 228 103 " clip-rule="nonzero"/></clipPath><clipPath id="3816304254"><rect x="0" width="137" y="0" height="47"/></clipPath><clipPath id="d7b9812c02"><rect x="0" width="251" y="0" height="251"/></clipPath></defs><g transform="matrix(1, 0, 0, 1, 93, 19)"><g clip-path="url(#d7b9812c02)"><g clip-path="url(#7f7e2988e0)"><path fill="#000000" d="M 243.859375 149.433594 C 243.566406 149.433594 243.269531 149.386719 242.976562 149.335938 L 231.976562 147.136719 C 229.386719 146.597656 227.625 144.203125 228.066406 141.808594 C 228.164062 141.222656 228.261719 140.683594 228.308594 140.046875 C 228.359375 139.804688 228.359375 139.558594 228.410156 139.316406 L 228.75 136.773438 C 228.847656 136.085938 228.898438 135.453125 228.945312 134.769531 L 229.191406 131.6875 C 229.289062 130.464844 229.875 129.390625 230.753906 128.605469 C 231.683594 127.777344 232.90625 127.335938 234.175781 127.386719 L 245.421875 127.679688 C 246.742188 127.726562 247.917969 128.265625 248.796875 129.292969 C 249.726562 130.320312 250.164062 131.6875 250.019531 133.007812 L 249.726562 136.625 C 249.675781 137.457031 249.578125 138.289062 249.480469 139.117188 L 249.089844 142.148438 C 249.039062 142.445312 248.992188 142.738281 248.992188 142.980469 C 248.894531 143.714844 248.796875 144.449219 248.648438 145.179688 C 248.40625 146.597656 247.574219 147.871094 246.449219 148.652344 C 245.617188 149.140625 244.738281 149.433594 243.859375 149.433594 Z M 229.042969 142.050781 C 228.703125 143.863281 230.121094 145.671875 232.125 146.109375 L 243.125 148.3125 C 244.054688 148.507812 244.984375 148.3125 245.765625 147.773438 C 246.695312 147.136719 247.328125 146.160156 247.523438 144.984375 C 247.671875 144.253906 247.769531 143.566406 247.867188 142.835938 C 247.917969 142.542969 247.917969 142.246094 247.964844 141.953125 L 248.355469 138.921875 C 248.453125 138.09375 248.550781 137.261719 248.601562 136.480469 L 248.894531 132.859375 C 248.992188 131.835938 248.648438 130.757812 247.917969 129.925781 C 247.230469 129.144531 246.300781 128.703125 245.324219 128.703125 L 234.078125 128.410156 C 233.101562 128.363281 232.125 128.703125 231.390625 129.390625 C 230.707031 129.976562 230.265625 130.808594 230.167969 131.734375 L 229.925781 134.816406 C 229.875 135.5 229.824219 136.183594 229.726562 136.871094 L 229.433594 139.460938 C 229.386719 139.707031 229.386719 139.949219 229.335938 140.195312 C 229.238281 140.78125 229.191406 141.417969 229.042969 142.050781 Z M 229.042969 142.050781 " fill-opacity="1" fill-rule="nonzero"/></g><path fill="#000000" d="M 237.453125 172.855469 C 236.867188 172.855469 236.28125 172.757812 235.691406 172.511719 L 225.328125 168.113281 C 222.882812 167.035156 221.660156 164.347656 222.542969 162.097656 C 223.761719 158.921875 224.789062 155.691406 225.671875 152.417969 C 225.816406 151.878906 226.0625 151.390625 226.5 150.851562 C 226.84375 150.414062 227.285156 150.023438 227.820312 149.726562 C 228.898438 149.09375 230.167969 148.945312 231.390625 149.238281 L 242.34375 151.78125 C 243.613281 152.074219 244.6875 152.859375 245.324219 154.03125 C 245.667969 154.617188 245.863281 155.203125 245.960938 155.890625 C 246.058594 156.523438 246.007812 157.207031 245.8125 157.941406 C 244.738281 161.902344 243.46875 165.8125 242.050781 169.628906 C 241.511719 170.996094 240.484375 172.070312 239.214844 172.609375 C 238.675781 172.707031 238.089844 172.855469 237.453125 172.855469 Z M 230.316406 150.121094 C 229.628906 150.121094 228.996094 150.265625 228.410156 150.609375 C 228.015625 150.851562 227.675781 151.144531 227.382812 151.488281 C 227.039062 151.929688 226.84375 152.269531 226.746094 152.660156 C 225.867188 155.988281 224.789062 159.261719 223.566406 162.441406 C 222.882812 164.152344 223.910156 166.253906 225.769531 167.035156 L 236.132812 171.4375 C 236.964844 171.828125 237.941406 171.828125 238.820312 171.4375 C 239.847656 170.996094 240.632812 170.164062 241.070312 169.089844 C 242.488281 165.324219 243.761719 161.414062 244.835938 157.503906 C 244.984375 156.914062 245.03125 156.378906 244.984375 155.890625 C 244.882812 155.351562 244.738281 154.863281 244.492188 154.421875 C 244.003906 153.542969 243.171875 152.90625 242.195312 152.660156 L 231.242188 150.121094 C 230.949219 150.167969 230.609375 150.121094 230.316406 150.121094 Z M 230.316406 150.121094 " fill-opacity="1" fill-rule="nonzero"/><path fill="#000000" d="M 226.550781 194.464844 C 225.621094 194.464844 224.691406 194.171875 223.910156 193.632812 L 214.667969 187.226562 C 213.644531 186.496094 212.910156 185.46875 212.617188 184.246094 C 212.324219 183.023438 212.519531 181.800781 213.152344 180.824219 C 213.300781 180.578125 213.496094 180.285156 213.644531 180.042969 C 213.9375 179.601562 214.230469 179.160156 214.472656 178.671875 L 215.746094 176.421875 C 215.890625 176.179688 216.039062 175.886719 216.234375 175.59375 C 216.480469 175.152344 216.773438 174.664062 217.015625 174.175781 L 218.191406 171.875 C 219.363281 169.675781 222.101562 168.84375 224.496094 169.921875 L 234.714844 174.613281 C 235.839844 175.101562 236.769531 176.128906 237.160156 177.351562 C 237.601562 178.671875 237.503906 180.089844 236.816406 181.3125 L 235.449219 184 C 235.15625 184.589844 234.8125 185.175781 234.472656 185.761719 C 234.273438 186.054688 234.128906 186.347656 233.933594 186.691406 L 232.417969 189.332031 C 232.074219 189.917969 231.683594 190.503906 231.339844 191.042969 C 231.144531 191.335938 230.949219 191.628906 230.804688 191.921875 C 230.070312 193.09375 228.898438 193.925781 227.675781 194.21875 C 227.285156 194.414062 226.894531 194.464844 226.550781 194.464844 Z M 222.394531 170.605469 C 221.074219 170.605469 219.804688 171.289062 219.167969 172.464844 L 217.996094 174.761719 C 217.75 175.25 217.457031 175.738281 217.164062 176.226562 C 217.015625 176.472656 216.871094 176.765625 216.722656 177.011719 L 215.453125 179.257812 C 215.160156 179.746094 214.863281 180.1875 214.570312 180.675781 C 214.425781 180.921875 214.230469 181.214844 214.082031 181.460938 C 213.59375 182.191406 213.496094 183.121094 213.691406 184.050781 C 213.9375 185.027344 214.472656 185.859375 215.304688 186.398438 L 224.546875 192.753906 C 225.378906 193.339844 226.402344 193.488281 227.382812 193.292969 C 228.359375 193.046875 229.289062 192.363281 229.875 191.480469 C 230.070312 191.1875 230.265625 190.894531 230.460938 190.601562 C 230.804688 190.0625 231.195312 189.476562 231.488281 188.941406 L 233.003906 186.300781 C 233.152344 186.007812 233.347656 185.664062 233.542969 185.371094 C 233.882812 184.832031 234.226562 184.246094 234.519531 183.660156 L 235.9375 180.921875 C 236.476562 179.945312 236.574219 178.820312 236.183594 177.792969 C 235.839844 176.863281 235.15625 176.082031 234.324219 175.691406 L 224.105469 170.996094 C 223.519531 170.703125 222.933594 170.605469 222.394531 170.605469 Z M 222.394531 170.605469 " fill-opacity="1" fill-rule="nonzero"/><path fill="#000000" d="M 211.492188 213.433594 C 210.171875 213.433594 209 212.945312 208.117188 212.015625 L 200.34375 203.902344 C 199.464844 202.972656 198.976562 201.796875 198.925781 200.574219 C 198.925781 200.039062 199.023438 199.453125 199.21875 198.863281 C 199.414062 198.277344 199.707031 197.789062 200.148438 197.347656 L 200.832031 196.664062 C 201.761719 195.6875 202.738281 194.660156 203.621094 193.632812 L 205.332031 191.675781 C 205.671875 191.285156 206.015625 190.847656 206.359375 190.40625 C 206.554688 190.160156 206.75 189.917969 206.945312 189.671875 C 207.679688 188.742188 208.753906 188.15625 210.023438 188.058594 C 211.246094 187.960938 212.519531 188.253906 213.496094 188.988281 L 222.542969 195.636719 C 223.566406 196.421875 224.253906 197.59375 224.398438 198.914062 C 224.546875 200.234375 224.105469 201.554688 223.273438 202.628906 C 223.03125 202.921875 222.835938 203.167969 222.640625 203.460938 C 222.246094 204 221.808594 204.535156 221.367188 205.023438 L 219.363281 207.324219 C 218.238281 208.644531 217.015625 209.964844 215.84375 211.183594 L 215.207031 211.820312 C 214.71875 212.308594 214.179688 212.699219 213.546875 212.996094 C 212.957031 213.238281 212.324219 213.386719 211.636719 213.433594 C 211.589844 213.433594 211.539062 213.433594 211.492188 213.433594 Z M 210.464844 189.085938 C 210.316406 189.085938 210.21875 189.085938 210.074219 189.085938 C 209.097656 189.183594 208.265625 189.625 207.726562 190.308594 C 207.53125 190.554688 207.335938 190.796875 207.140625 191.042969 C 206.796875 191.480469 206.457031 191.921875 206.066406 192.363281 L 204.402344 194.316406 C 203.523438 195.394531 202.542969 196.421875 201.566406 197.398438 L 200.882812 198.082031 C 200.589844 198.425781 200.34375 198.765625 200.199219 199.207031 C 200.050781 199.695312 199.953125 200.136719 199.953125 200.527344 C 199.953125 201.503906 200.34375 202.433594 201.078125 203.167969 L 208.851562 211.285156 C 209.535156 212.015625 210.464844 212.40625 211.539062 212.359375 C 212.078125 212.359375 212.617188 212.210938 213.007812 212.015625 C 213.496094 211.773438 213.9375 211.480469 214.328125 211.085938 L 214.964844 210.453125 C 216.136719 209.230469 217.359375 207.957031 218.433594 206.636719 L 220.4375 204.339844 C 220.878906 203.851562 221.269531 203.3125 221.660156 202.824219 C 221.855469 202.53125 222.101562 202.238281 222.34375 201.992188 C 223.03125 201.164062 223.371094 200.039062 223.273438 199.058594 C 223.175781 198.082031 222.640625 197.152344 221.855469 196.566406 L 212.8125 189.820312 C 212.128906 189.332031 211.296875 189.085938 210.464844 189.085938 Z M 210.464844 189.085938 " fill-opacity="1" fill-rule="nonzero"/><path fill="#000000" d="M 193.011719 229.03125 C 192.71875 229.03125 192.425781 228.980469 192.128906 228.933594 C 190.808594 228.6875 189.734375 227.957031 189 226.878906 L 182.988281 217.394531 C 182.304688 216.320312 182.058594 215.046875 182.253906 213.824219 C 182.351562 213.238281 182.546875 212.699219 182.890625 212.164062 C 183.183594 211.675781 183.625 211.285156 184.113281 210.890625 L 186.214844 209.425781 C 186.410156 209.277344 186.65625 209.132812 186.851562 208.984375 C 187.339844 208.644531 187.828125 208.300781 188.269531 207.957031 L 190.761719 206.003906 C 191.25 205.613281 191.789062 205.171875 192.277344 204.78125 C 194.136719 203.167969 197.070312 203.460938 198.878906 205.417969 L 206.40625 213.726562 C 207.238281 214.609375 207.628906 215.78125 207.582031 217.050781 C 207.484375 218.421875 206.847656 219.742188 205.722656 220.71875 C 205.136719 221.257812 204.453125 221.796875 203.816406 222.285156 L 200.929688 224.53125 C 200.34375 224.972656 199.757812 225.414062 199.171875 225.851562 C 198.925781 226 198.683594 226.195312 198.4375 226.34375 L 195.945312 228.101562 C 195.40625 228.492188 194.769531 228.785156 194.039062 228.933594 C 193.695312 228.980469 193.351562 229.03125 193.011719 229.03125 Z M 184.746094 211.773438 C 184.355469 212.066406 184.0625 212.40625 183.820312 212.75 C 183.574219 213.140625 183.429688 213.53125 183.328125 214.019531 C 183.183594 215 183.378906 215.976562 183.867188 216.808594 L 189.882812 226.292969 C 190.417969 227.125 191.25 227.710938 192.277344 227.859375 C 192.765625 227.957031 193.304688 227.957031 193.839844 227.859375 C 194.378906 227.761719 194.917969 227.515625 195.308594 227.222656 L 197.800781 225.460938 C 198.046875 225.265625 198.289062 225.121094 198.535156 224.925781 C 199.121094 224.53125 199.707031 224.09375 200.246094 223.652344 L 203.132812 221.355469 C 203.765625 220.867188 204.402344 220.378906 204.988281 219.839844 C 205.867188 219.058594 206.40625 218.03125 206.457031 216.90625 C 206.503906 215.929688 206.210938 215.046875 205.574219 214.363281 L 198.046875 206.050781 C 196.628906 204.535156 194.378906 204.242188 192.960938 205.464844 C 192.472656 205.90625 191.933594 206.34375 191.398438 206.738281 L 188.953125 208.691406 C 188.511719 209.082031 187.976562 209.425781 187.484375 209.769531 C 187.289062 209.914062 187.046875 210.0625 186.851562 210.207031 Z M 184.746094 211.773438 " fill-opacity="1" fill-rule="nonzero"/><path fill="#000000" d="M 171.742188 240.570312 C 171.007812 240.570312 170.324219 240.421875 169.640625 240.128906 C 168.515625 239.640625 167.636719 238.710938 167.195312 237.585938 L 163.234375 227.074219 C 162.304688 224.582031 163.429688 221.84375 165.679688 220.964844 C 166.609375 220.574219 167.539062 220.132812 168.46875 219.691406 C 169.101562 219.398438 169.6875 219.105469 170.324219 218.863281 L 174.871094 216.5625 C 176.972656 215.390625 179.808594 216.222656 181.128906 218.519531 L 186.851562 228.199219 C 187.484375 229.226562 187.632812 230.496094 187.339844 231.71875 C 186.996094 233.039062 186.066406 234.214844 184.796875 234.945312 C 184.257812 235.238281 183.722656 235.484375 183.183594 235.777344 C 181.914062 236.414062 180.640625 237.097656 179.320312 237.734375 C 178.734375 237.976562 178.195312 238.269531 177.609375 238.515625 C 176.339844 239.101562 175.019531 239.6875 173.699219 240.277344 C 173.113281 240.472656 172.425781 240.570312 171.742188 240.570312 Z M 176.972656 217.050781 C 176.4375 217.050781 175.898438 217.199219 175.410156 217.445312 L 170.8125 219.789062 C 170.179688 220.082031 169.542969 220.378906 168.90625 220.621094 C 167.976562 221.0625 167.050781 221.453125 166.070312 221.894531 C 164.359375 222.578125 163.527344 224.679688 164.261719 226.636719 L 168.222656 237.148438 C 168.566406 238.027344 169.199219 238.710938 170.082031 239.101562 C 171.105469 239.542969 172.28125 239.542969 173.355469 239.152344 C 174.628906 238.613281 175.949219 238.027344 177.21875 237.441406 C 177.804688 237.195312 178.34375 236.902344 178.929688 236.65625 C 180.199219 236.023438 181.472656 235.386719 182.742188 234.703125 C 183.28125 234.410156 183.820312 234.164062 184.355469 233.871094 C 185.335938 233.332031 186.066406 232.40625 186.359375 231.328125 C 186.605469 230.398438 186.460938 229.421875 186.019531 228.640625 L 180.296875 218.960938 C 179.515625 217.785156 178.246094 217.050781 176.972656 217.050781 Z M 176.972656 217.050781 " fill-opacity="1" fill-rule="nonzero"/><path fill="#000000" d="M 148.664062 247.609375 C 147.589844 247.609375 146.515625 247.265625 145.632812 246.679688 C 144.609375 245.949219 143.972656 244.871094 143.777344 243.699219 L 142.015625 232.601562 C 141.625 229.960938 143.238281 227.515625 145.632812 227.074219 C 146.269531 226.976562 146.90625 226.832031 147.542969 226.683594 L 150.621094 226 C 151.304688 225.851562 151.992188 225.65625 152.625 225.460938 L 155.558594 224.628906 C 156.78125 224.335938 157.957031 224.433594 158.980469 225.023438 C 160.058594 225.609375 160.890625 226.585938 161.328125 227.808594 L 164.996094 238.46875 C 165.4375 239.6875 165.289062 241.007812 164.652344 242.183594 C 163.96875 243.40625 162.84375 244.285156 161.574219 244.628906 L 158.199219 245.605469 C 157.367188 245.851562 156.539062 246.09375 155.65625 246.242188 L 152.089844 247.070312 C 151.304688 247.265625 150.476562 247.464844 149.644531 247.5625 C 149.300781 247.5625 148.960938 247.609375 148.664062 247.609375 Z M 145.828125 228.101562 C 144.019531 228.445312 142.796875 230.351562 143.09375 232.40625 L 144.851562 243.503906 C 145 244.433594 145.488281 245.214844 146.269531 245.800781 C 147.148438 246.4375 148.324219 246.679688 149.449219 246.484375 C 150.230469 246.339844 151.0625 246.191406 151.792969 245.996094 L 155.363281 245.164062 C 156.195312 244.96875 157.027344 244.773438 157.859375 244.53125 L 161.28125 243.550781 C 162.304688 243.308594 163.136719 242.574219 163.675781 241.597656 C 164.164062 240.714844 164.261719 239.6875 163.921875 238.710938 L 160.253906 228.054688 C 159.910156 227.125 159.273438 226.34375 158.445312 225.851562 C 157.660156 225.414062 156.734375 225.316406 155.804688 225.558594 L 152.917969 226.390625 C 152.234375 226.585938 151.550781 226.78125 150.867188 226.929688 L 147.835938 227.613281 C 147.148438 227.808594 146.515625 227.957031 145.828125 228.101562 Z M 145.828125 228.101562 " fill-opacity="1" fill-rule="nonzero"/><g clip-path="url(#5bfbfba3cf)"><path fill="#000000" d="M 125.492188 249.859375 C 125.199219 249.859375 124.855469 249.859375 124.5625 249.859375 C 123.144531 249.808594 121.773438 249.222656 120.847656 248.195312 C 120.015625 247.265625 119.574219 246.09375 119.625 244.871094 L 120.113281 233.625 C 120.257812 230.988281 122.363281 228.882812 124.757812 228.933594 C 125.394531 228.980469 126.027344 228.933594 126.664062 228.933594 L 129.84375 228.835938 C 129.988281 228.835938 130.136719 228.835938 130.332031 228.835938 C 130.574219 228.835938 130.871094 228.835938 131.113281 228.785156 L 134.925781 228.492188 C 135.464844 228.445312 136.050781 228.542969 136.6875 228.738281 C 137.226562 228.933594 137.761719 229.175781 138.203125 229.617188 C 139.132812 230.398438 139.765625 231.574219 139.914062 232.796875 L 141.332031 243.941406 C 141.480469 245.214844 141.136719 246.484375 140.257812 247.511719 C 139.816406 248 139.328125 248.441406 138.742188 248.734375 C 138.203125 249.027344 137.519531 249.222656 136.785156 249.273438 L 132.1875 249.613281 C 131.847656 249.613281 131.503906 249.664062 131.164062 249.664062 C 130.96875 249.664062 130.820312 249.664062 130.625 249.664062 L 126.910156 249.761719 C 126.46875 249.859375 125.980469 249.859375 125.492188 249.859375 Z M 124.609375 230.007812 C 122.800781 230.007812 121.238281 231.621094 121.140625 233.675781 L 120.652344 244.921875 C 120.601562 245.851562 120.945312 246.730469 121.578125 247.464844 C 122.3125 248.246094 123.4375 248.734375 124.5625 248.785156 C 125.34375 248.832031 126.125 248.785156 126.910156 248.785156 L 130.625 248.683594 C 130.820312 248.683594 130.96875 248.683594 131.164062 248.683594 C 131.503906 248.683594 131.796875 248.683594 132.140625 248.636719 L 136.6875 248.292969 C 137.273438 248.246094 137.8125 248.097656 138.25 247.855469 C 138.742188 247.609375 139.132812 247.265625 139.472656 246.875 C 140.160156 246.09375 140.453125 245.117188 140.304688 244.136719 L 138.886719 232.992188 C 138.742188 232.011719 138.300781 231.132812 137.519531 230.496094 C 137.175781 230.203125 136.785156 229.960938 136.34375 229.863281 C 135.855469 229.714844 135.417969 229.617188 135.023438 229.667969 L 131.164062 229.960938 C 130.871094 229.960938 130.574219 229.960938 130.332031 230.007812 C 130.183594 230.007812 130.039062 230.007812 129.890625 230.007812 L 126.714844 230.105469 C 126.078125 230.105469 125.394531 230.15625 124.707031 230.105469 C 124.660156 230.007812 124.660156 230.007812 124.609375 230.007812 Z M 124.609375 230.007812 " fill-opacity="1" fill-rule="nonzero"/></g><g clip-path="url(#2ab11c0700)"><path fill="#000000" d="M 112.242188 249.125 C 111.996094 249.125 111.800781 249.125 111.558594 249.078125 L 108.085938 248.636719 C 107.253906 248.539062 106.375 248.441406 105.496094 248.246094 L 102.511719 247.707031 C 102.265625 247.660156 102.023438 247.609375 101.777344 247.5625 C 100.996094 247.414062 100.214844 247.269531 99.480469 247.070312 C 98.0625 246.730469 96.839844 245.898438 96.15625 244.726562 C 95.519531 243.648438 95.324219 242.425781 95.617188 241.253906 L 98.355469 230.351562 C 99.039062 227.761719 101.484375 226.144531 103.832031 226.683594 C 104.417969 226.832031 105.054688 226.929688 105.640625 227.074219 C 105.835938 227.125 106.082031 227.171875 106.277344 227.171875 L 108.820312 227.613281 C 109.503906 227.761719 110.1875 227.859375 110.871094 227.90625 L 113.855469 228.296875 C 115.078125 228.492188 116.152344 229.078125 116.835938 230.007812 C 117.621094 230.988281 117.960938 232.207031 117.863281 233.480469 L 117.03125 244.675781 C 116.933594 245.996094 116.300781 247.121094 115.273438 247.953125 C 114.492188 248.734375 113.367188 249.125 112.242188 249.125 Z M 102.953125 227.660156 C 101.386719 227.660156 99.871094 228.882812 99.433594 230.644531 L 96.695312 241.546875 C 96.449219 242.425781 96.597656 243.40625 97.085938 244.1875 C 97.671875 245.117188 98.648438 245.800781 99.773438 246.09375 C 100.507812 246.289062 101.289062 246.4375 102.023438 246.535156 C 102.265625 246.582031 102.511719 246.632812 102.757812 246.679688 L 105.738281 247.21875 C 106.570312 247.367188 107.449219 247.511719 108.28125 247.609375 L 111.800781 248.050781 C 112.828125 248.195312 113.902344 247.902344 114.785156 247.21875 C 115.613281 246.582031 116.105469 245.703125 116.152344 244.675781 L 116.984375 233.480469 C 117.03125 232.503906 116.789062 231.523438 116.152344 230.742188 C 115.613281 230.007812 114.785156 229.570312 113.855469 229.421875 L 110.871094 229.03125 C 110.1875 228.933594 109.453125 228.835938 108.722656 228.6875 L 106.226562 228.25 C 106.03125 228.199219 105.789062 228.152344 105.59375 228.152344 C 104.957031 228.054688 104.320312 227.90625 103.683594 227.757812 C 103.390625 227.660156 103.148438 227.660156 102.953125 227.660156 Z M 102.953125 227.660156 " fill-opacity="1" fill-rule="nonzero"/></g><path fill="#000000" d="M 88.625 243.992188 C 88.089844 243.992188 87.503906 243.894531 86.914062 243.699219 L 84.03125 242.71875 C 83.882812 242.671875 83.6875 242.621094 83.542969 242.574219 C 83.199219 242.476562 82.90625 242.378906 82.5625 242.230469 L 78.3125 240.570312 C 78.164062 240.519531 77.96875 240.421875 77.820312 240.375 C 77.527344 240.226562 77.1875 240.128906 76.894531 239.984375 L 75.476562 239.347656 C 74.15625 238.761719 73.128906 237.636719 72.640625 236.363281 C 72.199219 235.191406 72.296875 233.921875 72.835938 232.84375 L 77.722656 222.722656 C 78.898438 220.328125 81.636719 219.253906 83.835938 220.230469 L 85.007812 220.769531 C 85.253906 220.867188 85.496094 220.964844 85.742188 221.0625 C 85.890625 221.109375 86.035156 221.160156 86.183594 221.257812 L 89.75 222.675781 C 89.996094 222.773438 90.238281 222.871094 90.484375 222.917969 C 90.632812 222.96875 90.777344 223.015625 90.925781 223.066406 L 93.371094 223.898438 C 93.90625 224.09375 94.445312 224.386719 94.886719 224.828125 C 95.324219 225.21875 95.667969 225.65625 95.960938 226.195312 C 96.5 227.320312 96.644531 228.589844 96.300781 229.8125 L 93.222656 240.617188 C 92.878906 241.890625 92 242.867188 90.828125 243.503906 C 90.238281 243.796875 89.605469 243.992188 88.96875 244.039062 C 88.871094 243.992188 88.773438 243.992188 88.625 243.992188 Z M 82.222656 220.914062 C 80.851562 220.914062 79.433594 221.796875 78.75 223.164062 L 73.863281 233.285156 C 73.46875 234.117188 73.371094 235.09375 73.714844 235.972656 C 74.058594 237 74.886719 237.878906 75.964844 238.371094 L 77.332031 239.003906 C 77.625 239.152344 77.917969 239.25 78.210938 239.347656 C 78.359375 239.394531 78.554688 239.492188 78.703125 239.542969 L 82.957031 241.203125 C 83.25 241.304688 83.542969 241.402344 83.882812 241.546875 C 84.03125 241.597656 84.226562 241.644531 84.375 241.742188 L 87.257812 242.71875 C 87.796875 242.917969 88.332031 242.964844 88.871094 242.964844 C 89.410156 242.917969 89.898438 242.769531 90.339844 242.523438 C 91.265625 242.035156 91.902344 241.253906 92.195312 240.324219 L 95.277344 229.519531 C 95.570312 228.542969 95.472656 227.5625 95.03125 226.683594 C 94.835938 226.292969 94.542969 225.902344 94.199219 225.609375 C 93.808594 225.265625 93.46875 225.023438 93.027344 224.925781 L 90.582031 224.09375 C 90.4375 224.042969 90.289062 223.996094 90.140625 223.945312 C 89.898438 223.847656 89.605469 223.75 89.359375 223.652344 L 85.789062 222.234375 C 85.644531 222.1875 85.496094 222.136719 85.351562 222.089844 C 85.105469 221.992188 84.8125 221.894531 84.570312 221.746094 L 83.394531 221.207031 C 83.054688 221.011719 82.660156 220.914062 82.222656 220.914062 Z M 82.222656 220.914062 " fill-opacity="1" fill-rule="nonzero"/><path fill="#000000" d="M 66.527344 234.214844 C 65.648438 234.214844 64.765625 233.96875 63.886719 233.480469 L 61.246094 231.964844 C 60.660156 231.621094 60.074219 231.230469 59.535156 230.890625 C 59.242188 230.691406 58.949219 230.496094 58.65625 230.351562 L 56.066406 228.6875 C 55.476562 228.296875 54.941406 227.90625 54.402344 227.515625 L 53.570312 226.929688 C 52.445312 226.097656 51.664062 224.972656 51.421875 223.652344 C 51.175781 222.332031 51.519531 221.011719 52.300781 219.984375 L 59.144531 211.085938 C 59.925781 210.0625 61.003906 209.425781 62.226562 209.230469 C 63.496094 208.984375 64.667969 209.230469 65.648438 209.914062 C 65.890625 210.109375 66.183594 210.304688 66.429688 210.5 C 66.871094 210.792969 67.308594 211.136719 67.699219 211.429688 L 69.851562 212.800781 C 70.097656 212.945312 70.390625 213.140625 70.632812 213.289062 C 71.074219 213.582031 71.515625 213.875 72.003906 214.167969 L 74.203125 215.4375 C 75.179688 215.976562 75.914062 216.953125 76.257812 218.226562 C 76.597656 219.449219 76.453125 220.71875 75.867188 221.84375 L 70.683594 231.816406 C 70.097656 232.992188 69.019531 233.773438 67.75 234.164062 C 67.359375 234.164062 66.96875 234.214844 66.527344 234.214844 Z M 63.152344 210.160156 C 62.910156 210.160156 62.664062 210.160156 62.421875 210.207031 C 61.441406 210.355469 60.613281 210.890625 59.976562 211.675781 L 53.132812 220.574219 C 52.542969 221.355469 52.300781 222.382812 52.445312 223.410156 C 52.640625 224.433594 53.230469 225.316406 54.15625 226 L 54.988281 226.585938 C 55.527344 226.976562 56.066406 227.367188 56.652344 227.757812 L 59.195312 229.421875 C 59.488281 229.617188 59.78125 229.8125 60.074219 229.960938 C 60.613281 230.300781 61.199219 230.691406 61.785156 231.035156 L 64.425781 232.550781 C 65.453125 233.136719 66.527344 233.285156 67.457031 232.992188 C 68.484375 232.699219 69.265625 232.0625 69.753906 231.183594 L 74.9375 221.207031 C 75.378906 220.328125 75.523438 219.300781 75.277344 218.371094 C 74.984375 217.394531 74.449219 216.660156 73.714844 216.222656 L 71.464844 214.949219 C 70.976562 214.65625 70.535156 214.363281 70.046875 214.070312 C 69.804688 213.921875 69.511719 213.726562 69.265625 213.582031 L 67.113281 212.210938 C 66.675781 211.917969 66.234375 211.578125 65.792969 211.285156 C 65.550781 211.085938 65.257812 210.890625 65.011719 210.695312 C 64.523438 210.355469 63.839844 210.160156 63.152344 210.160156 Z M 63.152344 210.160156 " fill-opacity="1" fill-rule="nonzero"/><path fill="#000000" d="M 46.824219 220.179688 C 45.601562 220.179688 44.332031 219.691406 43.402344 218.863281 C 42.179688 217.835938 41.007812 216.710938 39.882812 215.632812 C 39.539062 215.339844 39.246094 215 38.902344 214.707031 C 37.777344 213.679688 36.753906 212.601562 35.726562 211.527344 C 35.335938 211.136719 34.992188 210.746094 34.601562 210.355469 C 34.113281 209.816406 33.722656 209.277344 33.476562 208.644531 C 33.230469 208.007812 33.132812 207.371094 33.183594 206.6875 C 33.230469 205.367188 33.769531 204.144531 34.746094 203.3125 L 43.253906 195.929688 C 44.234375 195.101562 45.40625 194.660156 46.675781 194.707031 C 47.265625 194.707031 47.851562 194.855469 48.390625 195.101562 C 48.925781 195.34375 49.464844 195.636719 49.855469 196.078125 C 50.199219 196.46875 50.589844 196.8125 50.929688 197.203125 C 51.714844 198.035156 52.542969 198.914062 53.425781 199.746094 C 53.765625 200.039062 54.058594 200.378906 54.402344 200.671875 C 55.28125 201.554688 56.210938 202.433594 57.1875 203.214844 C 58.070312 204 58.605469 205.121094 58.65625 206.394531 C 58.703125 207.664062 58.3125 208.886719 57.53125 209.816406 L 50.441406 218.519531 C 49.609375 219.546875 48.390625 220.179688 47.070312 220.179688 C 46.972656 220.179688 46.921875 220.179688 46.824219 220.179688 Z M 46.53125 195.734375 C 45.601562 195.734375 44.671875 196.078125 43.941406 196.714844 L 35.433594 204.097656 C 34.699219 204.730469 34.257812 205.660156 34.210938 206.6875 C 34.210938 207.226562 34.257812 207.714844 34.453125 208.203125 C 34.648438 208.691406 34.945312 209.132812 35.335938 209.570312 C 35.726562 209.964844 36.066406 210.355469 36.460938 210.746094 C 37.4375 211.820312 38.511719 212.898438 39.589844 213.875 C 39.929688 214.167969 40.273438 214.511719 40.566406 214.804688 C 41.691406 215.878906 42.816406 217.003906 44.039062 217.980469 C 44.867188 218.714844 45.945312 219.105469 46.972656 219.058594 C 47.949219 219.007812 48.925781 218.519531 49.511719 217.785156 L 56.601562 209.082031 C 57.238281 208.300781 57.53125 207.371094 57.484375 206.34375 C 57.433594 205.367188 57.042969 204.535156 56.40625 203.949219 C 55.429688 203.117188 54.5 202.238281 53.570312 201.359375 C 53.277344 201.066406 52.9375 200.773438 52.640625 200.429688 C 51.761719 199.597656 50.882812 198.71875 50.101562 197.839844 C 49.757812 197.445312 49.414062 197.105469 49.023438 196.714844 C 48.730469 196.371094 48.339844 196.125 47.898438 195.980469 C 47.460938 195.785156 47.070312 195.6875 46.578125 195.6875 C 46.578125 195.734375 46.578125 195.734375 46.53125 195.734375 Z M 46.53125 195.734375 " fill-opacity="1" fill-rule="nonzero"/><path fill="#000000" d="M 30.300781 202.484375 C 30.152344 202.484375 29.957031 202.484375 29.761719 202.433594 C 28.390625 202.289062 27.070312 201.554688 26.191406 200.429688 L 25.703125 199.84375 L 22.574219 195.492188 C 21.792969 194.316406 21.058594 193.144531 20.324219 192.019531 C 19.984375 191.480469 19.589844 190.894531 19.25 190.359375 C 18.566406 189.234375 18.320312 187.816406 18.613281 186.496094 C 18.90625 185.175781 19.6875 184.148438 20.8125 183.511719 L 30.59375 177.988281 C 32.890625 176.714844 35.773438 177.402344 36.996094 179.453125 C 37.339844 179.992188 37.679688 180.53125 38.074219 181.117188 C 38.609375 181.996094 39.195312 182.878906 39.785156 183.757812 L 42.375 187.425781 L 42.765625 187.914062 C 44.28125 189.820312 43.84375 192.753906 41.789062 194.464844 L 33.085938 201.601562 C 32.402344 202.089844 31.375 202.484375 30.300781 202.484375 Z M 33.183594 178.332031 C 32.5 178.332031 31.816406 178.476562 31.226562 178.867188 L 21.449219 184.394531 C 20.570312 184.882812 19.984375 185.710938 19.738281 186.691406 C 19.492188 187.765625 19.6875 188.84375 20.226562 189.769531 C 20.570312 190.308594 20.960938 190.894531 21.304688 191.433594 C 22.035156 192.558594 22.769531 193.730469 23.550781 194.855469 L 26.632812 199.207031 L 27.070312 199.792969 C 27.804688 200.722656 28.832031 201.308594 29.90625 201.40625 C 30.886719 201.503906 31.765625 201.261719 32.5 200.671875 L 41.203125 193.535156 C 42.816406 192.214844 43.15625 189.964844 42.03125 188.5 L 41.640625 188.011719 L 39 184.34375 C 38.414062 183.464844 37.828125 182.535156 37.242188 181.65625 C 36.898438 181.117188 36.558594 180.53125 36.164062 179.992188 C 35.578125 178.867188 34.40625 178.332031 33.183594 178.332031 Z M 33.183594 178.332031 " fill-opacity="1" fill-rule="nonzero"/><path fill="#000000" d="M 17.636719 181.800781 C 17.148438 181.800781 16.65625 181.703125 16.167969 181.558594 C 14.847656 181.117188 13.722656 180.140625 13.089844 178.867188 C 12.796875 178.230469 12.550781 177.644531 12.257812 177.058594 C 11.671875 175.835938 11.085938 174.515625 10.546875 173.246094 C 10.300781 172.609375 10.058594 172.023438 9.8125 171.386719 C 9.324219 170.117188 8.785156 168.796875 8.296875 167.523438 C 7.808594 166.15625 7.90625 164.640625 8.542969 163.417969 C 9.128906 162.292969 10.058594 161.460938 11.230469 161.121094 L 21.9375 157.699219 C 24.480469 156.914062 27.167969 158.136719 27.953125 160.4375 C 28.292969 161.414062 28.683594 162.390625 29.078125 163.371094 C 29.320312 164.003906 29.566406 164.589844 29.808594 165.226562 C 30.199219 166.15625 30.640625 167.132812 31.082031 168.0625 C 31.375 168.648438 31.617188 169.285156 31.914062 169.871094 C 32.988281 172.023438 31.960938 174.808594 29.664062 176.03125 L 19.6875 181.261719 C 19.101562 181.605469 18.371094 181.800781 17.636719 181.800781 Z M 23.601562 158.578125 C 23.210938 158.578125 22.769531 158.625 22.328125 158.773438 L 11.621094 162.195312 C 10.742188 162.488281 10.007812 163.074219 9.570312 163.957031 C 9.078125 164.933594 8.980469 166.105469 9.375 167.230469 C 9.8125 168.503906 10.351562 169.824219 10.839844 171.046875 C 11.085938 171.679688 11.328125 172.269531 11.574219 172.902344 C 12.109375 174.175781 12.699219 175.445312 13.234375 176.667969 C 13.527344 177.253906 13.773438 177.839844 14.066406 178.476562 C 14.554688 179.503906 15.4375 180.285156 16.511719 180.578125 C 17.441406 180.871094 18.417969 180.824219 19.25 180.382812 L 29.222656 175.152344 C 31.03125 174.175781 31.816406 172.070312 31.03125 170.410156 C 30.738281 169.773438 30.496094 169.1875 30.199219 168.601562 C 29.761719 167.671875 29.320312 166.695312 28.929688 165.714844 C 28.683594 165.082031 28.441406 164.492188 28.195312 163.859375 C 27.804688 162.878906 27.414062 161.902344 27.070312 160.875 C 26.535156 159.410156 25.164062 158.578125 23.601562 158.578125 Z M 23.601562 158.578125 " fill-opacity="1" fill-rule="nonzero"/><path fill="#000000" d="M 9.375 159.019531 C 8.542969 159.019531 7.710938 158.773438 6.929688 158.332031 C 5.753906 157.601562 4.925781 156.425781 4.628906 155.15625 L 3.605469 150.707031 C 3.507812 150.363281 3.457031 150.023438 3.410156 149.726562 C 3.359375 149.53125 3.359375 149.386719 3.3125 149.191406 L 2.722656 145.816406 C 2.578125 144.9375 2.382812 144.058594 2.285156 143.128906 C 2.089844 141.710938 2.480469 140.242188 3.359375 139.167969 C 4.140625 138.191406 5.21875 137.601562 6.441406 137.457031 L 17.636719 136.285156 C 20.277344 136.039062 22.671875 137.75 22.964844 140.195312 C 23.015625 140.878906 23.160156 141.613281 23.308594 142.296875 L 23.84375 145.179688 C 23.894531 145.328125 23.894531 145.476562 23.941406 145.621094 C 23.992188 145.867188 24.039062 146.160156 24.089844 146.402344 L 24.96875 150.167969 C 25.214844 151.390625 25.019531 152.5625 24.382812 153.589844 C 23.746094 154.667969 22.71875 155.449219 21.5 155.792969 L 10.691406 158.871094 C 10.203125 158.921875 9.765625 159.019531 9.375 159.019531 Z M 18.125 137.261719 C 17.976562 137.261719 17.832031 137.261719 17.683594 137.261719 L 6.539062 138.484375 C 5.609375 138.582031 4.777344 139.019531 4.191406 139.804688 C 3.507812 140.683594 3.210938 141.808594 3.359375 142.980469 C 3.457031 143.863281 3.605469 144.742188 3.75 145.621094 L 4.335938 148.996094 C 4.386719 149.191406 4.386719 149.335938 4.433594 149.53125 C 4.484375 149.828125 4.53125 150.167969 4.628906 150.460938 L 5.65625 154.910156 C 5.851562 155.9375 6.539062 156.867188 7.464844 157.40625 C 8.347656 157.941406 9.375 158.089844 10.300781 157.796875 L 21.105469 154.714844 C 22.085938 154.421875 22.867188 153.835938 23.40625 153.003906 C 23.894531 152.222656 24.039062 151.34375 23.84375 150.414062 L 22.964844 146.695312 C 22.917969 146.402344 22.867188 146.160156 22.820312 145.867188 C 22.769531 145.71875 22.769531 145.574219 22.71875 145.425781 L 22.183594 142.542969 C 22.035156 141.808594 21.9375 141.074219 21.839844 140.339844 C 21.695312 138.53125 20.03125 137.261719 18.125 137.261719 Z M 18.125 137.261719 " fill-opacity="1" fill-rule="nonzero"/><path fill="#000000" d="M 5.902344 135.011719 C 4.726562 135.011719 3.605469 134.570312 2.722656 133.742188 C 2.234375 133.300781 1.84375 132.761719 1.597656 132.175781 C 1.304688 131.589844 1.160156 130.953125 1.160156 130.171875 L 1.0625 127.042969 C 1.011719 126.066406 1.011719 125.039062 1.0625 124.011719 L 1.160156 120.980469 C 1.160156 120.6875 1.160156 120.394531 1.160156 120.148438 C 1.160156 119.414062 1.207031 118.683594 1.257812 117.898438 C 1.355469 116.480469 2.039062 115.113281 3.113281 114.234375 C 4.09375 113.449219 5.265625 113.058594 6.488281 113.15625 L 17.683594 114.234375 C 20.324219 114.527344 22.328125 116.675781 22.132812 119.121094 C 22.085938 119.707031 22.085938 120.296875 22.035156 120.882812 C 22.035156 121.125 22.035156 121.371094 22.035156 121.664062 L 21.988281 124.207031 C 21.9375 125.039062 21.988281 125.820312 21.988281 126.652344 L 22.035156 129.339844 C 22.035156 129.878906 21.9375 130.464844 21.695312 131.101562 C 21.5 131.636719 21.15625 132.128906 20.765625 132.566406 C 19.933594 133.496094 18.761719 134.035156 17.488281 134.132812 L 6.292969 134.964844 C 6.144531 135.011719 6 135.011719 5.902344 135.011719 Z M 6 114.234375 C 5.21875 114.234375 4.433594 114.527344 3.75 115.0625 C 2.917969 115.75 2.382812 116.824219 2.285156 117.996094 C 2.234375 118.730469 2.1875 119.464844 2.1875 120.148438 C 2.1875 120.441406 2.1875 120.734375 2.1875 121.027344 L 2.089844 124.058594 C 2.039062 125.039062 2.089844 126.066406 2.089844 127.042969 L 2.1875 130.171875 C 2.1875 130.808594 2.332031 131.296875 2.527344 131.738281 C 2.773438 132.226562 3.066406 132.617188 3.457031 133.007812 C 4.191406 133.691406 5.167969 134.082031 6.144531 133.984375 L 17.34375 133.152344 C 18.320312 133.054688 19.25 132.664062 19.933594 131.933594 C 20.226562 131.589844 20.472656 131.199219 20.667969 130.808594 C 20.863281 130.320312 20.910156 129.878906 20.910156 129.488281 L 20.863281 126.796875 C 20.8125 125.96875 20.8125 125.136719 20.863281 124.304688 L 20.910156 121.761719 C 20.910156 121.519531 20.910156 121.273438 20.910156 121.027344 C 20.910156 120.441406 20.910156 119.808594 21.007812 119.171875 C 21.15625 117.3125 19.589844 115.652344 17.539062 115.457031 L 6.34375 114.378906 C 6.242188 114.234375 6.097656 114.234375 6 114.234375 Z M 6 114.234375 " fill-opacity="1" fill-rule="nonzero"/><path fill="#000000" d="M 18.515625 112.179688 C 18.320312 112.179688 18.074219 112.179688 17.878906 112.128906 L 6.734375 110.710938 C 5.460938 110.566406 4.289062 109.882812 3.554688 108.757812 C 2.773438 107.632812 2.429688 106.214844 2.722656 104.945312 L 3.3125 101.765625 C 3.457031 100.835938 3.652344 99.859375 3.898438 98.929688 L 4.679688 95.605469 C 4.875 94.726562 5.070312 93.84375 5.363281 92.964844 C 5.753906 91.597656 6.683594 90.421875 7.90625 89.738281 C 9.03125 89.152344 10.253906 89.003906 11.425781 89.394531 L 22.183594 92.722656 C 24.726562 93.503906 26.242188 96.046875 25.554688 98.390625 C 25.359375 99.078125 25.164062 99.761719 25.019531 100.445312 L 24.335938 103.332031 C 24.136719 104.0625 23.992188 104.847656 23.894531 105.628906 L 23.40625 108.367188 C 23.160156 109.589844 22.476562 110.613281 21.546875 111.25 C 20.570312 111.886719 19.542969 112.179688 18.515625 112.179688 Z M 9.960938 90.277344 C 9.375 90.277344 8.835938 90.421875 8.296875 90.714844 C 7.320312 91.253906 6.585938 92.183594 6.292969 93.308594 C 6.046875 94.136719 5.851562 95.019531 5.65625 95.851562 L 4.875 99.222656 C 4.628906 100.152344 4.484375 101.082031 4.335938 102.011719 L 3.75 105.1875 C 3.554688 106.214844 3.800781 107.289062 4.433594 108.21875 C 5.023438 109.050781 5.902344 109.589844 6.878906 109.734375 L 18.027344 111.152344 C 19.003906 111.25 19.984375 111.054688 20.8125 110.46875 C 21.546875 109.929688 22.035156 109.148438 22.230469 108.21875 L 22.71875 105.480469 C 22.867188 104.699219 23.015625 103.917969 23.210938 103.132812 L 23.84375 100.300781 C 23.992188 99.613281 24.1875 98.882812 24.382812 98.148438 C 24.871094 96.386719 23.699219 94.433594 21.695312 93.796875 L 10.9375 90.472656 C 10.644531 90.324219 10.300781 90.277344 9.960938 90.277344 Z M 9.960938 90.277344 " fill-opacity="1" fill-rule="nonzero"/><path fill="#000000" d="M 24.335938 91.007812 C 23.796875 91.007812 23.210938 90.910156 22.71875 90.714844 L 12.0625 87.097656 C 10.839844 86.65625 9.863281 85.777344 9.324219 84.554688 C 9.078125 83.96875 8.933594 83.285156 8.882812 82.648438 C 8.882812 81.964844 9.03125 81.28125 9.273438 80.644531 C 9.472656 80.15625 9.667969 79.617188 9.863281 79.128906 C 10.398438 77.761719 10.9375 76.34375 11.621094 74.972656 C 11.816406 74.53125 12.011719 74.09375 12.207031 73.652344 C 12.84375 72.234375 13.480469 70.816406 14.214844 69.449219 C 14.847656 68.226562 15.875 67.296875 17.097656 66.855469 C 18.320312 66.417969 19.6875 66.515625 20.8125 67.148438 L 30.640625 72.578125 C 31.714844 73.164062 32.546875 74.140625 32.988281 75.363281 C 33.429688 76.539062 33.332031 77.808594 32.792969 78.835938 C 32.207031 79.910156 31.714844 81.035156 31.226562 82.160156 C 31.03125 82.601562 30.835938 83.039062 30.640625 83.429688 C 30.101562 84.507812 29.664062 85.632812 29.273438 86.757812 C 29.078125 87.246094 28.882812 87.683594 28.734375 88.171875 C 28.539062 88.710938 28.195312 89.25 27.707031 89.640625 C 27.316406 90.03125 26.828125 90.375 26.289062 90.617188 C 25.703125 90.863281 25.019531 91.007812 24.335938 91.007812 Z M 18.664062 67.640625 C 18.269531 67.640625 17.878906 67.6875 17.488281 67.835938 C 16.511719 68.175781 15.679688 68.910156 15.191406 69.886719 C 14.457031 71.257812 13.824219 72.675781 13.1875 74.042969 C 12.992188 74.484375 12.796875 74.925781 12.601562 75.414062 C 11.964844 76.734375 11.425781 78.152344 10.890625 79.519531 C 10.691406 80.007812 10.496094 80.546875 10.300781 81.035156 C 10.105469 81.574219 10.007812 82.109375 10.007812 82.648438 C 10.007812 83.136719 10.15625 83.675781 10.351562 84.117188 C 10.792969 85.042969 11.523438 85.777344 12.453125 86.070312 L 23.113281 89.6875 C 24.039062 90.03125 25.066406 89.984375 25.949219 89.589844 C 26.339844 89.394531 26.730469 89.152344 27.023438 88.808594 C 27.367188 88.46875 27.609375 88.125 27.804688 87.683594 C 28 87.195312 28.195312 86.757812 28.34375 86.265625 C 28.78125 85.140625 29.222656 84.019531 29.761719 82.894531 C 29.957031 82.453125 30.152344 82.0625 30.347656 81.621094 C 30.835938 80.496094 31.375 79.324219 31.960938 78.25 C 32.351562 77.464844 32.402344 76.539062 32.058594 75.609375 C 31.714844 74.628906 31.082031 73.898438 30.199219 73.410156 L 20.324219 68.078125 C 19.835938 67.785156 19.25 67.640625 18.664062 67.640625 Z M 18.664062 67.640625 " fill-opacity="1" fill-rule="nonzero"/><path fill="#000000" d="M 34.308594 71.453125 C 33.429688 71.453125 32.546875 71.207031 31.765625 70.769531 L 22.085938 65.046875 C 20.960938 64.414062 20.179688 63.289062 19.886719 62.015625 C 19.589844 60.746094 19.886719 59.375 20.617188 58.203125 L 22.28125 55.613281 L 24.628906 52.289062 C 25.019531 51.75 25.410156 51.164062 25.851562 50.625 L 27.757812 48.230469 C 28.636719 47.105469 29.859375 46.421875 31.128906 46.273438 C 32.449219 46.125 33.722656 46.46875 34.746094 47.347656 L 43.304688 54.632812 C 44.28125 55.464844 44.867188 56.589844 45.015625 57.8125 C 45.160156 59.082031 44.867188 60.304688 44.136719 61.183594 L 42.570312 63.191406 L 39.589844 67.347656 L 38.21875 69.496094 C 37.582031 70.476562 36.558594 71.160156 35.335938 71.402344 C 34.992188 71.402344 34.648438 71.453125 34.308594 71.453125 Z M 31.714844 47.25 C 31.570312 47.25 31.421875 47.25 31.277344 47.300781 C 30.300781 47.398438 29.320312 47.984375 28.636719 48.863281 L 26.777344 51.261719 C 26.386719 51.796875 25.996094 52.335938 25.605469 52.921875 L 23.257812 56.246094 L 21.644531 58.789062 C 21.058594 59.769531 20.8125 60.84375 21.058594 61.820312 C 21.304688 62.847656 21.890625 63.679688 22.71875 64.167969 L 32.402344 69.886719 C 33.28125 70.378906 34.257812 70.574219 35.1875 70.328125 C 36.164062 70.132812 36.949219 69.59375 37.386719 68.863281 L 38.757812 66.710938 L 41.738281 62.503906 L 43.351562 60.453125 C 43.890625 59.816406 44.085938 58.886719 43.988281 57.859375 C 43.890625 56.882812 43.402344 56.003906 42.621094 55.367188 L 34.0625 48.082031 C 33.378906 47.542969 32.597656 47.25 31.714844 47.25 Z M 31.714844 47.25 " fill-opacity="1" fill-rule="nonzero"/><path fill="#000000" d="M 48.09375 54.292969 C 46.921875 54.292969 45.652344 53.851562 44.671875 52.972656 L 36.3125 45.441406 C 35.382812 44.609375 34.847656 43.488281 34.796875 42.265625 C 34.746094 40.894531 35.285156 39.476562 36.261719 38.449219 C 39 35.613281 42.03125 32.78125 45.210938 30.089844 C 46.1875 29.210938 47.558594 28.769531 48.925781 28.867188 C 50.246094 28.964844 51.421875 29.601562 52.25 30.628906 L 59.195312 39.476562 C 59.976562 40.457031 60.367188 41.726562 60.269531 42.949219 C 60.171875 44.121094 59.632812 45.246094 58.753906 46.027344 C 56.066406 48.277344 53.570312 50.625 51.273438 53.019531 C 50.441406 53.851562 49.269531 54.292969 48.09375 54.292969 Z M 48.585938 29.894531 C 47.605469 29.894531 46.675781 30.238281 45.992188 30.871094 C 42.816406 33.5625 39.832031 36.347656 37.09375 39.183594 C 36.3125 40.015625 35.871094 41.140625 35.921875 42.214844 C 35.96875 43.195312 36.363281 44.023438 37.046875 44.660156 L 45.40625 52.1875 C 46.921875 53.558594 49.269531 53.558594 50.539062 52.238281 C 52.839844 49.84375 55.378906 47.496094 58.070312 45.199219 C 58.753906 44.5625 59.144531 43.730469 59.242188 42.800781 C 59.292969 41.824219 59 40.847656 58.410156 40.0625 L 51.46875 31.214844 C 50.832031 30.433594 49.953125 29.945312 48.925781 29.894531 C 48.78125 29.894531 48.683594 29.894531 48.585938 29.894531 Z M 48.585938 29.894531 " fill-opacity="1" fill-rule="nonzero"/><path fill="#000000" d="M 64.867188 40.210938 C 63.398438 40.210938 61.835938 39.476562 60.855469 38.15625 L 54.207031 29.113281 C 53.472656 28.132812 53.179688 26.914062 53.375 25.691406 C 53.570312 24.320312 54.402344 23.050781 55.574219 22.21875 C 56.75 21.4375 57.972656 20.652344 59.097656 19.921875 C 59.632812 19.578125 60.171875 19.238281 60.710938 18.894531 C 61.980469 18.160156 63.203125 17.425781 64.425781 16.742188 C 64.964844 16.449219 65.5 16.15625 65.988281 15.8125 C 67.308594 15.128906 68.777344 14.984375 70.097656 15.421875 C 71.320312 15.8125 72.246094 16.644531 72.785156 17.722656 L 77.773438 27.792969 C 78.945312 30.1875 78.113281 33.023438 75.964844 34.097656 C 75.378906 34.441406 74.742188 34.785156 74.15625 35.175781 C 73.273438 35.664062 72.394531 36.152344 71.5625 36.691406 C 71.027344 37.03125 70.4375 37.425781 69.851562 37.765625 C 68.972656 38.304688 68.09375 38.890625 67.261719 39.429688 C 66.625 39.964844 65.746094 40.210938 64.867188 40.210938 Z M 68.582031 16.253906 C 67.898438 16.253906 67.210938 16.402344 66.578125 16.742188 C 66.085938 17.035156 65.550781 17.328125 65.011719 17.621094 C 63.789062 18.308594 62.519531 19.039062 61.296875 19.773438 C 60.757812 20.117188 60.21875 20.457031 59.683594 20.800781 C 58.507812 21.535156 57.335938 22.316406 56.164062 23.050781 C 55.234375 23.734375 54.597656 24.710938 54.402344 25.789062 C 54.253906 26.71875 54.453125 27.695312 55.039062 28.429688 L 61.6875 37.472656 C 62.910156 39.136719 65.160156 39.625 66.675781 38.546875 C 67.554688 37.960938 68.433594 37.375 69.3125 36.835938 C 69.902344 36.496094 70.4375 36.105469 71.027344 35.761719 C 71.90625 35.222656 72.785156 34.734375 73.664062 34.246094 C 74.253906 33.902344 74.886719 33.5625 75.476562 33.171875 C 77.136719 32.339844 77.722656 30.089844 76.792969 28.28125 L 71.855469 18.210938 C 71.464844 17.378906 70.730469 16.742188 69.804688 16.449219 C 69.414062 16.304688 68.972656 16.253906 68.582031 16.253906 Z M 68.582031 16.253906 " fill-opacity="1" fill-rule="nonzero"/><path fill="#000000" d="M 84.078125 29.796875 C 84.078125 29.796875 84.03125 29.796875 84.03125 29.796875 C 83.445312 29.796875 82.859375 29.648438 82.320312 29.40625 C 81.195312 28.917969 80.265625 28.035156 79.726562 26.863281 L 75.035156 16.644531 C 74.496094 15.472656 74.496094 14.152344 74.984375 12.929688 C 75.230469 12.34375 75.621094 11.804688 76.0625 11.316406 C 76.597656 10.777344 77.136719 10.386719 77.773438 10.140625 L 82.757812 8.1875 L 88.578125 6.230469 L 89.3125 6.035156 C 90.730469 5.644531 92.195312 5.792969 93.371094 6.476562 C 94.445312 7.109375 95.226562 8.089844 95.519531 9.261719 L 98.40625 20.164062 C 99.039062 22.757812 97.71875 25.347656 95.375 26.03125 L 94.738281 26.226562 L 89.898438 27.839844 L 85.742188 29.503906 C 85.15625 29.699219 84.617188 29.796875 84.078125 29.796875 Z M 90.828125 6.914062 C 90.4375 6.914062 89.996094 6.964844 89.605469 7.109375 L 88.871094 7.308594 L 83.101562 9.261719 L 78.164062 11.21875 C 77.675781 11.414062 77.234375 11.707031 76.84375 12.097656 C 76.453125 12.488281 76.207031 12.929688 75.964844 13.371094 C 75.574219 14.296875 75.574219 15.324219 76.011719 16.253906 L 80.707031 26.472656 C 81.144531 27.351562 81.832031 28.085938 82.757812 28.476562 C 83.199219 28.671875 83.640625 28.769531 84.078125 28.769531 C 84.519531 28.769531 84.910156 28.671875 85.398438 28.527344 L 89.554688 26.863281 L 94.445312 25.203125 L 95.082031 25.003906 C 96.839844 24.515625 97.867188 22.464844 97.378906 20.457031 L 94.492188 9.605469 C 94.25 8.726562 93.664062 7.941406 92.832031 7.453125 C 92.246094 7.0625 91.558594 6.914062 90.828125 6.914062 Z M 90.828125 6.914062 " fill-opacity="1" fill-rule="nonzero"/><path fill="#000000" d="M 105.101562 23.488281 C 104.175781 23.488281 103.246094 23.195312 102.464844 22.660156 C 101.4375 21.972656 100.703125 20.898438 100.410156 19.675781 L 97.867188 8.726562 C 97.574219 7.453125 97.816406 6.132812 98.601562 5.058594 C 99.382812 3.933594 100.554688 3.152344 101.925781 2.957031 L 106.421875 2.171875 C 106.765625 2.125 107.109375 2.074219 107.449219 2.027344 C 107.644531 2.027344 107.792969 1.976562 107.988281 1.976562 L 111.3125 1.539062 C 112.242188 1.441406 113.171875 1.292969 114.097656 1.246094 C 115.515625 1.144531 116.933594 1.585938 118.011719 2.515625 C 118.941406 3.347656 119.476562 4.472656 119.574219 5.695312 L 120.210938 16.9375 C 120.359375 19.578125 118.449219 21.875 116.054688 22.070312 C 115.320312 22.121094 114.539062 22.21875 113.855469 22.316406 L 111.019531 22.660156 C 110.871094 22.660156 110.726562 22.707031 110.578125 22.707031 C 110.335938 22.757812 110.042969 22.757812 109.796875 22.804688 L 106.03125 23.488281 C 105.59375 23.488281 105.347656 23.488281 105.101562 23.488281 Z M 114.492188 2.269531 C 114.394531 2.269531 114.246094 2.269531 114.148438 2.269531 C 113.21875 2.320312 112.289062 2.464844 111.410156 2.5625 L 108.085938 3.003906 C 107.890625 3.003906 107.742188 3.054688 107.546875 3.054688 C 107.207031 3.101562 106.914062 3.152344 106.570312 3.199219 L 102.070312 3.980469 C 101.046875 4.128906 100.066406 4.765625 99.480469 5.644531 C 98.894531 6.476562 98.699219 7.503906 98.941406 8.480469 L 101.484375 19.433594 C 101.730469 20.410156 102.265625 21.242188 103.097656 21.777344 C 103.832031 22.316406 104.761719 22.511719 105.691406 22.367188 L 109.453125 21.679688 C 109.746094 21.632812 110.042969 21.582031 110.285156 21.582031 C 110.433594 21.582031 110.578125 21.535156 110.726562 21.535156 L 113.5625 21.191406 C 114.292969 21.09375 115.078125 20.996094 115.859375 20.949219 C 117.71875 20.800781 119.136719 18.992188 119.039062 16.9375 L 118.402344 5.695312 C 118.351562 4.765625 117.914062 3.882812 117.226562 3.25 C 116.542969 2.613281 115.515625 2.269531 114.492188 2.269531 Z M 114.492188 2.269531 " fill-opacity="1" fill-rule="nonzero"/><g clip-path="url(#54faf90d85)"><path fill="#000000" d="M 137.519531 22.21875 C 137.324219 22.21875 137.175781 22.21875 136.980469 22.167969 C 136.394531 22.070312 135.855469 22.023438 135.269531 22.023438 C 135.023438 22.023438 134.730469 21.972656 134.488281 21.972656 L 131.945312 21.777344 C 131.261719 21.730469 130.527344 21.679688 129.84375 21.679688 L 126.8125 21.582031 C 125.589844 21.535156 124.464844 21.046875 123.632812 20.164062 C 122.753906 19.285156 122.265625 18.0625 122.265625 16.792969 L 121.972656 5.546875 C 121.921875 4.226562 122.460938 3.003906 123.390625 2.074219 C 124.367188 1.097656 125.6875 0.609375 127.054688 0.65625 L 130.574219 0.753906 C 131.40625 0.753906 132.335938 0.804688 133.167969 0.902344 L 136.199219 1.144531 C 136.492188 1.195312 136.785156 1.195312 137.078125 1.195312 C 137.8125 1.246094 138.546875 1.292969 139.277344 1.390625 C 140.695312 1.585938 142.015625 2.320312 142.847656 3.394531 C 143.582031 4.375 143.921875 5.59375 143.726562 6.816406 L 142.113281 17.917969 C 141.722656 20.410156 139.71875 22.21875 137.519531 22.21875 Z M 137.128906 21.09375 C 138.984375 21.339844 140.695312 19.871094 141.039062 17.820312 L 142.652344 6.71875 C 142.796875 5.792969 142.554688 4.863281 141.96875 4.128906 C 141.332031 3.25 140.257812 2.660156 139.132812 2.515625 C 138.449219 2.417969 137.714844 2.367188 137.03125 2.320312 C 136.734375 2.320312 136.441406 2.269531 136.148438 2.269531 L 133.117188 2.027344 C 132.285156 1.929688 131.40625 1.929688 130.574219 1.929688 L 127.054688 1.832031 C 126.027344 1.78125 124.953125 2.171875 124.171875 2.957031 C 123.4375 3.6875 123.046875 4.617188 123.046875 5.59375 L 123.339844 16.839844 C 123.390625 17.820312 123.730469 18.796875 124.414062 19.480469 C 125.050781 20.164062 125.882812 20.507812 126.859375 20.554688 L 129.84375 20.652344 C 130.527344 20.652344 131.261719 20.703125 131.992188 20.753906 L 134.535156 20.949219 C 134.78125 20.949219 135.074219 20.996094 135.320312 20.996094 C 135.90625 20.949219 136.492188 20.996094 137.128906 21.09375 Z M 137.128906 21.09375 " fill-opacity="1" fill-rule="nonzero"/></g><path fill="#000000" d="M 158.835938 26.765625 C 158.394531 26.765625 157.957031 26.71875 157.515625 26.570312 C 157.367188 26.519531 157.222656 26.472656 157.074219 26.421875 C 156.832031 26.324219 156.585938 26.226562 156.339844 26.179688 L 152.625 25.152344 C 152.480469 25.101562 152.332031 25.054688 152.1875 25.003906 C 151.941406 24.90625 151.695312 24.859375 151.402344 24.808594 L 147.640625 23.929688 C 146.464844 23.636719 145.488281 22.902344 144.851562 21.925781 C 144.167969 20.851562 143.921875 19.628906 144.167969 18.355469 L 146.125 7.308594 C 146.367188 6.035156 147.101562 4.910156 148.226562 4.226562 C 149.398438 3.492188 150.816406 3.25 152.089844 3.589844 L 156.539062 4.617188 C 156.878906 4.714844 157.222656 4.8125 157.515625 4.910156 C 157.660156 4.960938 157.859375 5.007812 158.003906 5.058594 L 162.40625 6.328125 C 162.746094 6.425781 163.039062 6.523438 163.382812 6.621094 C 163.527344 6.671875 163.722656 6.71875 163.871094 6.769531 C 165.238281 7.257812 166.363281 8.234375 166.953125 9.457031 C 167.488281 10.582031 167.539062 11.855469 167.148438 12.976562 L 163.285156 23.539062 C 162.601562 25.496094 160.742188 26.765625 158.835938 26.765625 Z M 150.914062 4.421875 C 150.179688 4.421875 149.449219 4.617188 148.761719 5.058594 C 147.882812 5.59375 147.296875 6.476562 147.148438 7.453125 L 145.195312 18.503906 C 145 19.480469 145.195312 20.457031 145.730469 21.289062 C 146.222656 22.070312 146.953125 22.609375 147.882812 22.855469 L 151.597656 23.734375 C 151.894531 23.785156 152.136719 23.882812 152.429688 23.980469 C 152.578125 24.027344 152.722656 24.078125 152.871094 24.125 L 156.585938 25.152344 C 156.878906 25.25 157.125 25.347656 157.417969 25.398438 C 157.5625 25.445312 157.710938 25.496094 157.859375 25.542969 C 159.617188 26.128906 161.621094 25.054688 162.355469 23.097656 L 166.21875 12.539062 C 166.558594 11.65625 166.511719 10.730469 166.070312 9.847656 C 165.582031 8.871094 164.703125 8.089844 163.578125 7.699219 C 163.429688 7.648438 163.234375 7.601562 163.089844 7.550781 C 162.796875 7.453125 162.453125 7.355469 162.160156 7.257812 L 157.757812 5.988281 C 157.613281 5.9375 157.417969 5.890625 157.269531 5.839844 C 156.976562 5.742188 156.636719 5.644531 156.34375 5.59375 L 151.894531 4.570312 C 151.550781 4.472656 151.207031 4.421875 150.914062 4.421875 Z M 150.914062 4.421875 " fill-opacity="1" fill-rule="nonzero"/><path fill="#000000" d="M 178.78125 35.566406 C 178.050781 35.566406 177.316406 35.371094 176.679688 35.027344 L 175.019531 34.050781 L 172.183594 32.582031 C 171.007812 31.949219 169.785156 31.410156 168.566406 30.871094 C 168.222656 30.726562 167.878906 30.578125 167.539062 30.433594 C 167 30.1875 166.511719 29.847656 166.121094 29.355469 C 165.679688 28.867188 165.386719 28.378906 165.238281 27.890625 C 164.800781 26.71875 164.800781 25.445312 165.289062 24.273438 L 169.445312 13.808594 C 169.933594 12.585938 170.863281 11.65625 172.132812 11.21875 C 172.816406 10.972656 173.453125 10.875 174.089844 10.875 C 174.773438 10.925781 175.410156 11.070312 176.046875 11.363281 L 177.023438 11.804688 C 178.539062 12.488281 180.101562 13.175781 181.617188 14.003906 L 184.992188 15.765625 L 186.996094 16.9375 C 188.171875 17.621094 189.050781 18.746094 189.441406 19.96875 C 189.832031 21.242188 189.636719 22.5625 188.953125 23.6875 L 183.035156 33.269531 C 182.402344 34.34375 181.375 35.078125 180.152344 35.46875 C 179.710938 35.46875 179.222656 35.566406 178.78125 35.566406 Z M 177.21875 34.050781 C 178 34.492188 178.929688 34.589844 179.859375 34.296875 C 180.835938 34 181.617188 33.414062 182.15625 32.582031 L 188.074219 23 C 188.609375 22.167969 188.757812 21.09375 188.464844 20.164062 C 188.171875 19.1875 187.4375 18.308594 186.507812 17.769531 L 184.503906 16.644531 L 181.128906 14.933594 C 179.664062 14.152344 178.097656 13.46875 176.632812 12.78125 L 175.652344 12.34375 C 175.164062 12.097656 174.628906 12 174.089844 11.953125 C 173.601562 11.953125 173.113281 12 172.574219 12.195312 C 171.597656 12.585938 170.863281 13.273438 170.519531 14.199219 L 166.363281 24.664062 C 165.972656 25.59375 165.972656 26.617188 166.316406 27.5 C 166.460938 27.890625 166.707031 28.28125 167.050781 28.671875 C 167.34375 29.015625 167.683594 29.308594 168.125 29.453125 C 168.46875 29.601562 168.808594 29.75 169.152344 29.894531 C 170.375 30.433594 171.597656 31.019531 172.816406 31.65625 L 175.652344 33.121094 Z M 177.21875 34.050781 " fill-opacity="1" fill-rule="nonzero"/><path fill="#000000" d="M 196.726562 48.179688 C 195.699219 48.179688 194.625 47.839844 193.792969 47.152344 L 191.835938 45.441406 C 191.445312 45.101562 191.007812 44.757812 190.566406 44.414062 C 190.320312 44.21875 190.078125 44.023438 189.832031 43.828125 L 187.828125 42.265625 C 187.386719 41.921875 186.949219 41.628906 186.558594 41.335938 C 186.3125 41.140625 186.019531 40.992188 185.773438 40.796875 C 184.796875 40.113281 184.210938 39.039062 184.015625 37.816406 C 183.820312 36.59375 184.0625 35.371094 184.796875 34.296875 L 191.007812 24.90625 C 191.738281 23.832031 192.863281 23.097656 194.183594 22.902344 C 195.457031 22.707031 196.875 23.050781 197.949219 23.832031 C 198.242188 24.027344 198.535156 24.222656 198.78125 24.417969 C 199.316406 24.808594 199.90625 25.203125 200.441406 25.59375 L 202.835938 27.5 C 203.132812 27.742188 203.375 27.9375 203.667969 28.132812 C 204.207031 28.527344 204.746094 28.964844 205.234375 29.40625 L 207.53125 31.410156 C 208.605469 32.289062 209.242188 33.609375 209.339844 34.980469 C 209.390625 36.25 208.949219 37.523438 208.117188 38.449219 L 200.394531 46.617188 C 199.414062 47.640625 198.046875 48.179688 196.726562 48.179688 Z M 194.527344 46.324219 C 195.992188 47.542969 198.242188 47.347656 199.609375 45.882812 L 207.335938 37.71875 C 208.019531 37.03125 208.363281 36.054688 208.265625 35.078125 C 208.214844 34 207.679688 32.976562 206.847656 32.289062 L 204.550781 30.285156 C 204.058594 29.847656 203.523438 29.453125 203.035156 29.0625 C 202.738281 28.867188 202.496094 28.625 202.203125 28.429688 L 199.804688 26.570312 C 199.269531 26.179688 198.730469 25.789062 198.191406 25.398438 C 197.898438 25.203125 197.605469 25.003906 197.363281 24.808594 C 196.480469 24.175781 195.355469 23.882812 194.378906 24.027344 C 193.351562 24.175781 192.472656 24.761719 191.933594 25.59375 L 185.726562 34.980469 C 185.1875 35.8125 184.945312 36.789062 185.140625 37.765625 C 185.285156 38.746094 185.773438 39.574219 186.460938 40.0625 C 186.703125 40.261719 186.949219 40.40625 187.242188 40.601562 C 187.679688 40.894531 188.121094 41.238281 188.5625 41.578125 L 190.566406 43.195312 C 190.808594 43.390625 191.054688 43.585938 191.300781 43.78125 C 191.738281 44.121094 192.179688 44.464844 192.570312 44.808594 Z M 194.527344 46.324219 " fill-opacity="1" fill-rule="nonzero"/><path fill="#000000" d="M 211.785156 64.21875 C 211.589844 64.21875 211.394531 64.21875 211.148438 64.167969 C 209.976562 64.019531 208.949219 63.433594 208.167969 62.503906 L 205.769531 59.472656 C 205.625 59.277344 205.429688 59.082031 205.28125 58.886719 C 205.183594 58.789062 205.085938 58.644531 204.988281 58.546875 L 202.496094 55.613281 C 202.347656 55.417969 202.152344 55.222656 201.957031 55.023438 L 201.617188 54.683594 C 199.953125 52.921875 200.101562 49.988281 201.957031 48.082031 L 209.925781 40.113281 C 210.757812 39.234375 211.933594 38.792969 213.203125 38.792969 C 214.570312 38.792969 215.941406 39.429688 216.96875 40.457031 L 217.308594 40.847656 C 217.554688 41.089844 217.796875 41.335938 217.996094 41.578125 L 221.027344 45.050781 C 221.125 45.199219 221.269531 45.34375 221.367188 45.441406 C 221.613281 45.6875 221.808594 45.929688 222.003906 46.226562 L 224.839844 49.84375 C 225.671875 50.871094 226.0625 52.238281 225.867188 53.605469 C 225.71875 54.925781 225.035156 56.101562 223.960938 56.835938 L 214.765625 63.289062 C 213.839844 63.875 212.8125 64.21875 211.785156 64.21875 Z M 209 61.820312 C 209.632812 62.554688 210.417969 62.996094 211.296875 63.09375 C 212.273438 63.238281 213.25 62.945312 214.082031 62.40625 L 223.273438 55.953125 C 224.105469 55.367188 224.59375 54.488281 224.742188 53.460938 C 224.886719 52.386719 224.59375 51.261719 223.910156 50.476562 L 221.074219 46.859375 C 220.878906 46.617188 220.683594 46.371094 220.4375 46.125 C 220.339844 45.980469 220.195312 45.832031 220.097656 45.734375 L 217.113281 42.265625 C 216.917969 42.019531 216.675781 41.777344 216.429688 41.53125 L 216.085938 41.140625 C 215.304688 40.308594 214.179688 39.820312 213.105469 39.820312 C 213.105469 39.820312 213.105469 39.820312 213.054688 39.820312 C 212.128906 39.820312 211.246094 40.160156 210.613281 40.847656 L 202.640625 48.816406 C 201.175781 50.28125 201.027344 52.582031 202.347656 53.949219 L 202.691406 54.292969 C 202.886719 54.488281 203.082031 54.683594 203.277344 54.878906 L 205.820312 57.8125 C 205.917969 57.910156 206.015625 58.054688 206.113281 58.152344 C 206.308594 58.351562 206.503906 58.59375 206.652344 58.789062 Z M 209 61.820312 " fill-opacity="1" fill-rule="nonzero"/><path fill="#000000" d="M 223.324219 82.894531 C 221.515625 82.894531 219.851562 81.964844 219.167969 80.351562 L 216.820312 75.804688 L 214.277344 71.402344 C 212.957031 69.398438 213.691406 66.515625 215.890625 65.046875 L 225.277344 58.839844 C 226.304688 58.152344 227.527344 57.910156 228.75 58.203125 C 230.121094 58.496094 231.339844 59.328125 232.125 60.550781 L 235.203125 65.878906 L 237.992188 71.355469 C 238.578125 72.675781 238.675781 74.191406 238.136719 75.460938 C 237.699219 76.636719 236.816406 77.5625 235.691406 78.003906 L 225.375 82.503906 C 224.691406 82.746094 224.007812 82.894531 223.324219 82.894531 Z M 227.773438 59.132812 C 227.089844 59.132812 226.453125 59.328125 225.867188 59.71875 L 216.480469 65.929688 C 214.765625 67.101562 214.179688 69.300781 215.160156 70.867188 L 217.75 75.316406 L 220.097656 79.910156 C 220.828125 81.574219 223.03125 82.308594 224.9375 81.476562 L 235.253906 76.976562 C 236.085938 76.636719 236.769531 75.902344 237.109375 75.023438 C 237.503906 73.996094 237.453125 72.820312 236.964844 71.746094 L 234.175781 66.320312 L 231.144531 61.039062 C 230.511719 60.0625 229.582031 59.375 228.507812 59.179688 C 228.261719 59.132812 228.015625 59.132812 227.773438 59.132812 Z M 227.773438 59.132812 " fill-opacity="1" fill-rule="nonzero"/><path fill="#000000" d="M 230.902344 103.527344 C 228.703125 103.527344 226.695312 102.109375 226.257812 100.101562 C 226.160156 99.515625 225.964844 98.980469 225.816406 98.390625 C 225.769531 98.148438 225.671875 97.902344 225.621094 97.660156 L 224.9375 95.214844 C 224.789062 94.628906 224.59375 94.089844 224.398438 93.503906 C 224.300781 93.257812 224.253906 93.015625 224.15625 92.769531 L 223.324219 90.324219 C 223.226562 90.03125 223.175781 89.738281 223.128906 89.445312 C 223.078125 89.199219 223.078125 88.859375 223.078125 88.566406 C 223.128906 87.976562 223.273438 87.441406 223.519531 86.855469 C 224.058594 85.730469 225.035156 84.847656 226.160156 84.359375 L 236.574219 80.15625 C 237.796875 79.667969 239.117188 79.714844 240.289062 80.300781 C 240.875 80.59375 241.414062 80.988281 241.851562 81.476562 C 242.097656 81.71875 242.292969 82.011719 242.488281 82.257812 C 242.683594 82.601562 242.832031 82.894531 242.929688 83.234375 L 243.90625 86.121094 C 244.003906 86.414062 244.101562 86.65625 244.199219 86.902344 C 244.445312 87.585938 244.6875 88.320312 244.882812 89.054688 L 245.714844 91.988281 C 245.8125 92.28125 245.863281 92.523438 245.960938 92.820312 C 246.15625 93.503906 246.351562 94.238281 246.546875 94.96875 C 246.890625 96.386719 246.644531 97.855469 245.863281 99.027344 C 245.179688 100.101562 244.152344 100.789062 242.976562 101.03125 L 231.976562 103.332031 C 231.585938 103.476562 231.242188 103.527344 230.902344 103.527344 Z M 227.285156 99.859375 C 227.722656 101.667969 229.679688 102.792969 231.734375 102.402344 L 242.734375 100.101562 C 243.664062 99.90625 244.445312 99.371094 244.933594 98.585938 C 245.519531 97.660156 245.714844 96.484375 245.472656 95.359375 C 245.324219 94.675781 245.128906 93.941406 244.933594 93.257812 C 244.835938 92.964844 244.785156 92.722656 244.6875 92.425781 L 243.859375 89.492188 C 243.664062 88.808594 243.417969 88.074219 243.222656 87.390625 C 243.125 87.148438 243.027344 86.855469 242.929688 86.558594 L 241.953125 83.675781 C 241.851562 83.429688 241.753906 83.136719 241.609375 82.894531 C 241.460938 82.699219 241.316406 82.453125 241.121094 82.257812 C 240.777344 81.867188 240.335938 81.574219 239.898438 81.328125 C 238.96875 80.890625 237.941406 80.839844 237.011719 81.230469 L 226.597656 85.4375 C 225.671875 85.828125 224.9375 86.511719 224.496094 87.390625 C 224.300781 87.832031 224.15625 88.222656 224.15625 88.664062 C 224.15625 88.859375 224.15625 89.101562 224.203125 89.296875 C 224.253906 89.542969 224.300781 89.789062 224.351562 89.984375 L 225.179688 92.425781 C 225.277344 92.671875 225.328125 92.917969 225.425781 93.113281 C 225.621094 93.699219 225.816406 94.285156 225.964844 94.871094 L 226.648438 97.316406 C 226.695312 97.5625 226.792969 97.804688 226.84375 98.050781 C 226.992188 98.636719 227.136719 99.222656 227.285156 99.859375 Z M 227.285156 99.859375 " fill-opacity="1" fill-rule="nonzero"/><g clip-path="url(#0f9bc7519d)"><path fill="#000000" d="M 234.128906 125.28125 C 231.488281 125.28125 229.289062 123.277344 229.191406 120.882812 C 229.191406 120.199219 229.140625 119.464844 229.09375 118.730469 L 228.847656 115.796875 C 228.847656 115.652344 228.847656 115.503906 228.800781 115.308594 C 228.800781 115.0625 228.75 114.769531 228.75 114.527344 L 228.261719 110.710938 C 228.164062 110.175781 228.210938 109.589844 228.410156 108.953125 C 228.554688 108.414062 228.800781 107.878906 229.191406 107.386719 C 229.925781 106.410156 231.046875 105.726562 232.269531 105.53125 L 243.320312 103.527344 C 244.589844 103.28125 245.910156 103.625 246.9375 104.40625 C 247.476562 104.796875 247.917969 105.285156 248.257812 105.871094 C 248.601562 106.410156 248.796875 107.046875 248.894531 107.828125 L 249.480469 112.375 C 249.53125 112.71875 249.53125 113.058594 249.578125 113.402344 C 249.578125 113.597656 249.628906 113.746094 249.628906 113.941406 L 249.871094 117.363281 C 249.921875 118.242188 250.019531 119.171875 250.019531 120.050781 C 250.066406 121.46875 249.53125 122.886719 248.550781 123.863281 C 247.671875 124.746094 246.546875 125.234375 245.324219 125.234375 Z M 230.265625 120.832031 C 230.316406 122.691406 232.027344 124.207031 234.128906 124.207031 L 245.375 124.15625 C 246.300781 124.15625 247.183594 123.765625 247.867188 123.082031 C 248.648438 122.300781 249.039062 121.175781 249.039062 120.050781 C 249.039062 119.171875 248.941406 118.292969 248.894531 117.410156 L 248.648438 113.988281 C 248.648438 113.792969 248.601562 113.644531 248.601562 113.449219 C 248.601562 113.109375 248.550781 112.816406 248.503906 112.472656 L 247.917969 107.925781 C 247.816406 107.339844 247.671875 106.800781 247.425781 106.410156 C 247.132812 105.96875 246.792969 105.578125 246.402344 105.238281 C 245.570312 104.601562 244.589844 104.355469 243.613281 104.550781 L 232.5625 106.558594 C 231.585938 106.753906 230.707031 107.242188 230.121094 108.023438 C 229.824219 108.414062 229.628906 108.804688 229.53125 109.195312 C 229.386719 109.6875 229.335938 110.125 229.433594 110.566406 L 229.925781 114.378906 C 229.972656 114.671875 229.972656 114.964844 229.972656 115.210938 C 229.972656 115.359375 229.972656 115.503906 230.023438 115.652344 L 230.265625 118.585938 C 230.21875 119.367188 230.265625 120.101562 230.265625 120.832031 Z M 230.265625 120.832031 " fill-opacity="1" fill-rule="nonzero"/></g><g transform="matrix(1, 0, 0, 1, 57, 102)"><g clip-path="url(#3816304254)"><g fill="#000000" fill-opacity="1"><g transform="translate(2.559991, 17.010745)"><g><path d="M 1.328125 0 L 1.328125 -12.125 L 2.671875 -12.125 L 2.671875 -6.703125 L 9.71875 -6.703125 L 9.71875 -12.125 L 11.0625 -12.125 L 11.0625 0 L 9.71875 0 L 9.71875 -5.515625 L 2.671875 -5.515625 L 2.671875 0 Z M 1.328125 0 "/></g></g></g><g fill="#000000" fill-opacity="1"><g transform="translate(14.942868, 17.010745)"><g><path d="M 0.0625 0 L 5.109375 -12.125 L 6.71875 -12.125 L 11.703125 0 L 10.234375 0 L 8.71875 -3.8125 L 3 -3.8125 L 1.453125 0 Z M 3.46875 -4.953125 L 8.25 -4.953125 L 5.875 -10.875 Z M 3.46875 -4.953125 "/></g></g></g><g fill="#000000" fill-opacity="1"><g transform="translate(26.702277, 17.010745)"><g><path d="M 1.328125 -12.125 L 6.25 -12.125 C 7.414062 -12.125 8.34375 -11.84375 9.03125 -11.28125 C 9.726562 -10.71875 10.078125 -9.960938 10.078125 -9.015625 C 10.078125 -8.390625 9.910156 -7.84375 9.578125 -7.375 C 9.253906 -6.914062 8.804688 -6.566406 8.234375 -6.328125 C 8.960938 -6.109375 9.535156 -5.738281 9.953125 -5.21875 C 10.378906 -4.707031 10.59375 -4.101562 10.59375 -3.40625 C 10.59375 -2.375 10.210938 -1.546875 9.453125 -0.921875 C 8.691406 -0.304688 7.695312 0 6.46875 0 L 1.328125 0 Z M 6.1875 -10.96875 L 2.671875 -10.96875 L 2.671875 -6.84375 L 6.1875 -6.84375 C 6.96875 -6.84375 7.59375 -7.03125 8.0625 -7.40625 C 8.53125 -7.78125 8.765625 -8.28125 8.765625 -8.90625 C 8.765625 -9.53125 8.53125 -10.03125 8.0625 -10.40625 C 7.59375 -10.78125 6.96875 -10.96875 6.1875 -10.96875 Z M 6.359375 -1.15625 C 7.222656 -1.15625 7.914062 -1.363281 8.4375 -1.78125 C 8.96875 -2.195312 9.234375 -2.753906 9.234375 -3.453125 C 9.234375 -4.140625 8.96875 -4.691406 8.4375 -5.109375 C 7.914062 -5.523438 7.222656 -5.734375 6.359375 -5.734375 L 2.671875 -5.734375 L 2.671875 -1.15625 Z M 6.359375 -1.15625 "/></g></g></g><g fill="#000000" fill-opacity="1"><g transform="translate(38.080671, 17.010745)"><g><path d="M 1.328125 0 L 1.328125 -12.125 L 2.671875 -12.125 L 2.671875 0 Z M 1.328125 0 "/></g></g></g><g fill="#000000" fill-opacity="1"><g transform="translate(42.081295, 17.010745)"><g><path d="M 0.296875 -10.9375 L 0.296875 -12.125 L 10.390625 -12.125 L 10.390625 -10.9375 L 6.015625 -10.9375 L 6.015625 0 L 4.671875 0 L 4.671875 -10.9375 Z M 0.296875 -10.9375 "/></g></g></g><g fill="#000000" fill-opacity="1"><g transform="translate(52.766943, 17.010745)"><g/></g></g><g fill="#000000" fill-opacity="1"><g transform="translate(56.490466, 17.010745)"><g><path d="M 0.296875 -10.9375 L 0.296875 -12.125 L 10.390625 -12.125 L 10.390625 -10.9375 L 6.015625 -10.9375 L 6.015625 0 L 4.671875 0 L 4.671875 -10.9375 Z M 0.296875 -10.9375 "/></g></g></g><g fill="#000000" fill-opacity="1"><g transform="translate(67.176114, 17.010745)"><g><path d="M 1.328125 0 L 1.328125 -12.125 L 6.53125 -12.125 C 7.707031 -12.125 8.660156 -11.800781 9.390625 -11.15625 C 10.117188 -10.519531 10.484375 -9.679688 10.484375 -8.640625 C 10.484375 -7.847656 10.25 -7.160156 9.78125 -6.578125 C 9.3125 -6.003906 8.6875 -5.609375 7.90625 -5.390625 L 10.625 0 L 9.15625 0 L 6.546875 -5.21875 L 2.671875 -5.21875 L 2.671875 0 Z M 6.453125 -10.9375 L 2.671875 -10.9375 L 2.671875 -6.34375 L 6.453125 -6.34375 C 7.253906 -6.34375 7.90625 -6.550781 8.40625 -6.96875 C 8.90625 -7.394531 9.15625 -7.953125 9.15625 -8.640625 C 9.15625 -9.335938 8.90625 -9.894531 8.40625 -10.3125 C 7.90625 -10.726562 7.253906 -10.9375 6.453125 -10.9375 Z M 6.453125 -10.9375 "/></g></g></g><g fill="#000000" fill-opacity="1"><g transform="translate(78.519889, 17.010745)"><g><path d="M 0.0625 0 L 5.109375 -12.125 L 6.71875 -12.125 L 11.703125 0 L 10.234375 0 L 8.71875 -3.8125 L 3 -3.8125 L 1.453125 0 Z M 3.46875 -4.953125 L 8.25 -4.953125 L 5.875 -10.875 Z M 3.46875 -4.953125 "/></g></g></g><g fill="#000000" fill-opacity="1"><g transform="translate(89.655742, 17.010745)"><g><path d="M 7.09375 -1.046875 C 7.84375 -1.046875 8.554688 -1.191406 9.234375 -1.484375 C 9.921875 -1.773438 10.492188 -2.179688 10.953125 -2.703125 L 11.8125 -1.796875 C 11.21875 -1.171875 10.503906 -0.679688 9.671875 -0.328125 C 8.835938 0.015625 7.960938 0.1875 7.046875 0.1875 C 6.171875 0.1875 5.347656 0.0234375 4.578125 -0.296875 C 3.816406 -0.617188 3.148438 -1.054688 2.578125 -1.609375 C 2.015625 -2.171875 1.570312 -2.835938 1.25 -3.609375 C 0.925781 -4.378906 0.765625 -5.195312 0.765625 -6.0625 C 0.765625 -6.925781 0.925781 -7.742188 1.25 -8.515625 C 1.570312 -9.285156 2.015625 -9.945312 2.578125 -10.5 C 3.148438 -11.0625 3.816406 -11.503906 4.578125 -11.828125 C 5.347656 -12.148438 6.171875 -12.3125 7.046875 -12.3125 C 7.984375 -12.3125 8.867188 -12.132812 9.703125 -11.78125 C 10.546875 -11.4375 11.265625 -10.953125 11.859375 -10.328125 L 10.96875 -9.390625 C 10.5 -9.921875 9.910156 -10.335938 9.203125 -10.640625 C 8.503906 -10.941406 7.785156 -11.09375 7.046875 -11.09375 C 6.359375 -11.09375 5.707031 -10.960938 5.09375 -10.703125 C 4.488281 -10.441406 3.96875 -10.085938 3.53125 -9.640625 C 3.09375 -9.191406 2.742188 -8.660156 2.484375 -8.046875 C 2.234375 -7.429688 2.109375 -6.769531 2.109375 -6.0625 C 2.109375 -5.351562 2.234375 -4.691406 2.484375 -4.078125 C 2.742188 -3.460938 3.09375 -2.929688 3.53125 -2.484375 C 3.976562 -2.035156 4.503906 -1.679688 5.109375 -1.421875 C 5.722656 -1.171875 6.382812 -1.046875 7.09375 -1.046875 Z M 7.09375 -1.046875 "/></g></g></g><g fill="#000000" fill-opacity="1"><g transform="translate(102.159857, 17.010745)"><g><path d="M 1.328125 0 L 1.328125 -12.125 L 2.671875 -12.125 L 2.671875 -6.375 L 8.9375 -12.125 L 10.6875 -12.125 L 4.109375 -6.1875 L 10.828125 0 L 8.953125 0 L 2.671875 -5.828125 L 2.671875 0 Z M 1.328125 0 "/></g></g></g><g fill="#000000" fill-opacity="1"><g transform="translate(112.845505, 17.010745)"><g><path d="M 1.328125 0 L 1.328125 -12.125 L 10.015625 -12.125 L 10.015625 -10.953125 L 2.671875 -10.953125 L 2.671875 -6.703125 L 7.46875 -6.703125 L 7.46875 -5.546875 L 2.671875 -5.546875 L 2.671875 -1.171875 L 10.078125 -1.171875 L 10.078125 0 Z M 1.328125 0 "/></g></g></g><g fill="#000000" fill-opacity="1"><g transform="translate(123.51383, 17.010745)"><g><path d="M 1.328125 0 L 1.328125 -12.125 L 6.53125 -12.125 C 7.707031 -12.125 8.660156 -11.800781 9.390625 -11.15625 C 10.117188 -10.519531 10.484375 -9.679688 10.484375 -8.640625 C 10.484375 -7.847656 10.25 -7.160156 9.78125 -6.578125 C 9.3125 -6.003906 8.6875 -5.609375 7.90625 -5.390625 L 10.625 0 L 9.15625 0 L 6.546875 -5.21875 L 2.671875 -5.21875 L 2.671875 0 Z M 6.453125 -10.9375 L 2.671875 -10.9375 L 2.671875 -6.34375 L 6.453125 -6.34375 C 7.253906 -6.34375 7.90625 -6.550781 8.40625 -6.96875 C 8.90625 -7.394531 9.15625 -7.953125 9.15625 -8.640625 C 9.15625 -9.335938 8.90625 -9.894531 8.40625 -10.3125 C 7.90625 -10.726562 7.253906 -10.9375 6.453125 -10.9375 Z M 6.453125 -10.9375 "/></g></g></g><g fill="#000000" fill-opacity="1"><g transform="translate(1.835933, 40.806797)"><g><path d="M 8.375 1.390625 L 8.375 2.375 L -0.015625 2.375 L -0.015625 1.390625 Z M 8.375 1.390625 "/></g></g></g><g fill="#000000" fill-opacity="1"><g transform="translate(10.183549, 40.806797)"><g><path d="M 8.375 1.390625 L 8.375 2.375 L -0.015625 2.375 L -0.015625 1.390625 Z M 8.375 1.390625 "/></g></g></g><g fill="#000000" fill-opacity="1"><g transform="translate(18.531165, 40.806797)"><g><path d="M 8.375 1.390625 L 8.375 2.375 L -0.015625 2.375 L -0.015625 1.390625 Z M 8.375 1.390625 "/></g></g></g><g fill="#000000" fill-opacity="1"><g transform="translate(26.878781, 40.806797)"><g><path d="M 8.375 1.390625 L 8.375 2.375 L -0.015625 2.375 L -0.015625 1.390625 Z M 8.375 1.390625 "/></g></g></g><g fill="#000000" fill-opacity="1"><g transform="translate(35.226397, 40.806797)"><g><path d="M 8.375 1.390625 L 8.375 2.375 L -0.015625 2.375 L -0.015625 1.390625 Z M 8.375 1.390625 "/></g></g></g><g fill="#000000" fill-opacity="1"><g transform="translate(43.574013, 40.806797)"><g><path d="M 8.375 1.390625 L 8.375 2.375 L -0.015625 2.375 L -0.015625 1.390625 Z M 8.375 1.390625 "/></g></g></g><g fill="#000000" fill-opacity="1"><g transform="translate(51.921629, 40.806797)"><g><path d="M 8.375 1.390625 L 8.375 2.375 L -0.015625 2.375 L -0.015625 1.390625 Z M 8.375 1.390625 "/></g></g></g><g fill="#000000" fill-opacity="1"><g transform="translate(60.269245, 40.806797)"><g><path d="M 8.375 1.390625 L 8.375 2.375 L -0.015625 2.375 L -0.015625 1.390625 Z M 8.375 1.390625 "/></g></g></g><g fill="#000000" fill-opacity="1"><g transform="translate(68.616861, 40.806797)"><g><path d="M 8.375 1.390625 L 8.375 2.375 L -0.015625 2.375 L -0.015625 1.390625 Z M 8.375 1.390625 "/></g></g></g><g fill="#000000" fill-opacity="1"><g transform="translate(76.964477, 40.806797)"><g><path d="M 8.375 1.390625 L 8.375 2.375 L -0.015625 2.375 L -0.015625 1.390625 Z M 8.375 1.390625 "/></g></g></g><g fill="#000000" fill-opacity="1"><g transform="translate(85.312093, 40.806797)"><g><path d="M 8.375 1.390625 L 8.375 2.375 L -0.015625 2.375 L -0.015625 1.390625 Z M 8.375 1.390625 "/></g></g></g><g fill="#000000" fill-opacity="1"><g transform="translate(93.659709, 40.806797)"><g><path d="M 8.375 1.390625 L 8.375 2.375 L -0.015625 2.375 L -0.015625 1.390625 Z M 8.375 1.390625 "/></g></g></g><g fill="#000000" fill-opacity="1"><g transform="translate(102.007325, 40.806797)"><g><path d="M 8.375 1.390625 L 8.375 2.375 L -0.015625 2.375 L -0.015625 1.390625 Z M 8.375 1.390625 "/></g></g></g><g fill="#000000" fill-opacity="1"><g transform="translate(110.354941, 40.806797)"><g><path d="M 8.375 1.390625 L 8.375 2.375 L -0.015625 2.375 L -0.015625 1.390625 Z M 8.375 1.390625 "/></g></g></g><g fill="#000000" fill-opacity="1"><g transform="translate(118.702557, 40.806797)"><g><path d="M 8.375 1.390625 L 8.375 2.375 L -0.015625 2.375 L -0.015625 1.390625 Z M 8.375 1.390625 "/></g></g></g><g fill="#000000" fill-opacity="1"><g transform="translate(127.050173, 40.806797)"><g><path d="M 8.375 1.390625 L 8.375 2.375 L -0.015625 2.375 L -0.015625 1.390625 Z M 8.375 1.390625 "/></g></g></g></g></g></g></g></svg>