<svg xmlns="http://www.w3.org/2000/svg" xmlns:xlink="http://www.w3.org/1999/xlink" width="583" zoomAndPan="magnify" viewBox="0 0 438 300.000006" height="450" preserveAspectRatio="xMidYMid meet" version="1.0"><defs><g/><clipPath id="4470019406"><path d="M 56.882812 63.484375 L 380.554688 63.484375 L 380.554688 290 L 56.882812 290 Z M 56.882812 63.484375 " clip-rule="nonzero"/></clipPath><clipPath id="9b337faeea"><path d="M 56.882812 63.484375 L 380.554688 63.484375 L 380.554688 290.726562 L 56.882812 290.726562 Z M 56.882812 63.484375 " clip-rule="nonzero"/></clipPath><clipPath id="bb878d3832"><rect x="0" width="34" y="0" height="22"/></clipPath><clipPath id="510ead0567"><rect x="0" width="40" y="0" height="23"/></clipPath><clipPath id="ad254c940e"><path d="M 0.40625 6 L 11 6 L 11 18 L 0.40625 18 Z M 0.40625 6 " clip-rule="nonzero"/></clipPath><clipPath id="a1b149446f"><rect x="0" width="33" y="0" height="23"/></clipPath><clipPath id="ed36828887"><rect x="0" width="37" y="0" height="23"/></clipPath><clipPath id="f2a60110c3"><rect x="0" width="35" y="0" height="23"/></clipPath><clipPath id="9481866460"><rect x="0" width="26" y="0" height="23"/></clipPath><clipPath id="6153a3a3ed"><rect x="0" width="30" y="0" height="23"/></clipPath></defs><g clip-path="url(#4470019406)"><path fill="#000000" d="M 57.242188 64.199219 L 57.242188 289.417969 M 103.351562 64.199219 L 103.351562 289.417969 M 149.460938 64.199219 L 149.460938 289.417969 M 195.570312 64.199219 L 195.570312 289.417969 M 241.679688 64.199219 L 241.679688 289.417969 M 287.792969 64.199219 L 287.792969 289.417969 M 333.902344 64.199219 L 333.902344 289.417969 M 380.011719 64.199219 L 380.011719 289.417969 M 56.882812 63.839844 L 380.367188 63.839844 M 56.882812 109.027344 L 380.367188 109.027344 M 56.882812 154.214844 L 380.367188 154.214844 M 56.882812 199.402344 L 380.367188 199.402344 M 56.882812 244.585938 L 380.367188 244.585938 M 56.882812 289.773438 L 380.367188 289.773438 " fill-opacity="1" fill-rule="nonzero"/></g><g clip-path="url(#9b337faeea)"><path stroke-linecap="butt" transform="matrix(0.747508, 0, 0, 0.747508, 56.883484, 63.48305)" fill="none" stroke-linejoin="miter" d="M 0.479866 0.958075 L 0.479866 302.250721 M 62.163965 0.958075 L 62.163965 302.250721 M 123.848063 0.958075 L 123.848063 302.250721 M 185.532162 0.958075 L 185.532162 302.250721 M 247.21626 0.958075 L 247.21626 302.250721 M 308.905585 0.958075 L 308.905585 302.250721 M 370.589683 0.958075 L 370.589683 302.250721 M 432.273782 0.958075 L 432.273782 302.250721 M -0.000897766 0.477311 L 432.74932 0.477311 M -0.000897766 60.928146 L 432.74932 60.928146 M -0.000897766 121.378981 L 432.74932 121.378981 M -0.000897766 181.829815 L 432.74932 181.829815 M -0.000897766 242.275424 L 432.74932 242.275424 M -0.000897766 302.726259 L 432.74932 302.726259 " stroke="#000000" stroke-width="0.956328" stroke-opacity="1" stroke-miterlimit="4"/></g><g transform="matrix(1, 0, 0, 1, 65, 44)"><g clip-path="url(#bb878d3832)"><g fill="#000000" fill-opacity="1"><g transform="translate(0.992269, 16.457273)"><g><path d="M 0.171875 -1.875 L 0.96875 -2.71875 C 1.53125 -2.113281 2.132812 -1.65625 2.78125 -1.34375 C 3.425781 -1.039062 4.101562 -0.890625 4.8125 -0.890625 C 5.664062 -0.890625 6.367188 -1.09375 6.921875 -1.5 C 7.472656 -1.90625 7.75 -2.425781 7.75 -3.0625 C 7.75 -3.625 7.550781 -4.054688 7.15625 -4.359375 C 6.769531 -4.660156 6.128906 -4.882812 5.234375 -5.03125 L 3.65625 -5.28125 C 2.59375 -5.445312 1.8125 -5.753906 1.3125 -6.203125 C 0.8125 -6.660156 0.5625 -7.28125 0.5625 -8.0625 C 0.5625 -8.96875 0.914062 -9.703125 1.625 -10.265625 C 2.34375 -10.828125 3.273438 -11.109375 4.421875 -11.109375 C 5.179688 -11.109375 5.9375 -10.984375 6.6875 -10.734375 C 7.4375 -10.484375 8.125 -10.125 8.75 -9.65625 L 8.0625 -8.71875 C 7.457031 -9.164062 6.847656 -9.503906 6.234375 -9.734375 C 5.617188 -9.960938 5 -10.078125 4.375 -10.078125 C 3.59375 -10.078125 2.957031 -9.894531 2.46875 -9.53125 C 1.976562 -9.175781 1.734375 -8.71875 1.734375 -8.15625 C 1.734375 -7.632812 1.90625 -7.238281 2.25 -6.96875 C 2.601562 -6.695312 3.175781 -6.5 3.96875 -6.375 L 5.53125 -6.125 C 6.71875 -5.925781 7.585938 -5.585938 8.140625 -5.109375 C 8.691406 -4.628906 8.96875 -3.96875 8.96875 -3.125 C 8.96875 -2.632812 8.863281 -2.1875 8.65625 -1.78125 C 8.457031 -1.382812 8.171875 -1.039062 7.796875 -0.75 C 7.421875 -0.46875 6.972656 -0.242188 6.453125 -0.078125 C 5.941406 0.078125 5.378906 0.15625 4.765625 0.15625 C 3.898438 0.15625 3.066406 -0.015625 2.265625 -0.359375 C 1.460938 -0.710938 0.765625 -1.21875 0.171875 -1.875 Z M 0.171875 -1.875 "/></g></g></g><g fill="#000000" fill-opacity="1"><g transform="translate(10.396971, 16.457273)"><g><path d="M 10.046875 -4.640625 C 10.046875 -3.171875 9.632812 -2 8.8125 -1.125 C 7.988281 -0.257812 6.890625 0.171875 5.515625 0.171875 C 4.128906 0.171875 3.023438 -0.257812 2.203125 -1.125 C 1.390625 -1.988281 0.984375 -3.160156 0.984375 -4.640625 L 0.984375 -10.96875 L 2.1875 -10.96875 L 2.1875 -4.640625 C 2.1875 -3.523438 2.488281 -2.628906 3.09375 -1.953125 C 3.707031 -1.273438 4.515625 -0.9375 5.515625 -0.9375 C 6.515625 -0.9375 7.316406 -1.273438 7.921875 -1.953125 C 8.535156 -2.628906 8.84375 -3.523438 8.84375 -4.640625 L 8.84375 -10.96875 L 10.046875 -10.96875 Z M 10.046875 -4.640625 "/></g></g></g><g fill="#000000" fill-opacity="1"><g transform="translate(21.431823, 16.457273)"><g><path d="M 1.203125 -10.96875 L 2.40625 -10.96875 L 9.015625 -2.0625 L 9.015625 -10.96875 L 10.15625 -10.96875 L 10.15625 0 L 9.09375 0 L 2.34375 -9.140625 L 2.34375 0 L 1.203125 0 Z M 1.203125 -10.96875 "/></g></g></g></g></g><g transform="matrix(1, 0, 0, 1, 107, 44)"><g clip-path="url(#510ead0567)"><g fill="#000000" fill-opacity="1"><g transform="translate(1.435739, 17.438786)"><g><path d="M 6.765625 -0.796875 L 2.375 -9.765625 L 2.375 0 L 1.234375 0 L 1.234375 -11.1875 L 2.953125 -11.1875 L 6.78125 -3.25 L 10.578125 -11.1875 L 12.3125 -11.1875 L 12.3125 0 L 11.140625 0 L 11.140625 -9.78125 Z M 6.765625 -0.796875 "/></g></g></g><g fill="#000000" fill-opacity="1"><g transform="translate(14.974756, 17.438786)"><g><path d="M 12.234375 -5.59375 C 12.234375 -4.789062 12.082031 -4.035156 11.78125 -3.328125 C 11.476562 -2.617188 11.066406 -2.003906 10.546875 -1.484375 C 10.035156 -0.972656 9.425781 -0.566406 8.71875 -0.265625 C 8.019531 0.0234375 7.269531 0.171875 6.46875 0.171875 C 5.675781 0.171875 4.925781 0.0234375 4.21875 -0.265625 C 3.507812 -0.566406 2.894531 -0.972656 2.375 -1.484375 C 1.851562 -2.003906 1.441406 -2.617188 1.140625 -3.328125 C 0.847656 -4.035156 0.703125 -4.789062 0.703125 -5.59375 C 0.703125 -6.394531 0.847656 -7.148438 1.140625 -7.859375 C 1.441406 -8.566406 1.851562 -9.175781 2.375 -9.6875 C 2.894531 -10.207031 3.507812 -10.613281 4.21875 -10.90625 C 4.925781 -11.207031 5.675781 -11.359375 6.46875 -11.359375 C 7.269531 -11.359375 8.019531 -11.207031 8.71875 -10.90625 C 9.425781 -10.613281 10.035156 -10.207031 10.546875 -9.6875 C 11.066406 -9.175781 11.476562 -8.566406 11.78125 -7.859375 C 12.082031 -7.148438 12.234375 -6.394531 12.234375 -5.59375 Z M 10.984375 -5.59375 C 10.984375 -6.238281 10.863281 -6.847656 10.625 -7.421875 C 10.394531 -7.992188 10.078125 -8.484375 9.671875 -8.890625 C 9.273438 -9.304688 8.800781 -9.632812 8.25 -9.875 C 7.695312 -10.113281 7.101562 -10.234375 6.46875 -10.234375 C 5.832031 -10.234375 5.238281 -10.113281 4.6875 -9.875 C 4.132812 -9.632812 3.65625 -9.304688 3.25 -8.890625 C 2.851562 -8.484375 2.535156 -7.992188 2.296875 -7.421875 C 2.066406 -6.847656 1.953125 -6.238281 1.953125 -5.59375 C 1.953125 -4.945312 2.066406 -4.335938 2.296875 -3.765625 C 2.535156 -3.203125 2.851562 -2.710938 3.25 -2.296875 C 3.65625 -1.878906 4.132812 -1.550781 4.6875 -1.3125 C 5.238281 -1.070312 5.832031 -0.953125 6.46875 -0.953125 C 7.101562 -0.953125 7.695312 -1.070312 8.25 -1.3125 C 8.800781 -1.550781 9.273438 -1.878906 9.671875 -2.296875 C 10.078125 -2.710938 10.394531 -3.203125 10.625 -3.765625 C 10.863281 -4.335938 10.984375 -4.945312 10.984375 -5.59375 Z M 10.984375 -5.59375 "/></g></g></g><g fill="#000000" fill-opacity="1"><g transform="translate(27.906355, 17.438786)"><g><path d="M 1.234375 -11.1875 L 2.46875 -11.1875 L 9.1875 -2.109375 L 9.1875 -11.1875 L 10.359375 -11.1875 L 10.359375 0 L 9.265625 0 L 2.390625 -9.3125 L 2.390625 0 L 1.234375 0 Z M 1.234375 -11.1875 "/></g></g></g></g></g><g transform="matrix(1, 0, 0, 1, 157, 44)"><g clip-path="url(#a1b149446f)"><g clip-path="url(#ad254c940e)"><g fill="#000000" fill-opacity="1"><g transform="translate(0.694374, 17.438786)"><g><path d="M 0.265625 -10.09375 L 0.265625 -11.1875 L 9.59375 -11.1875 L 9.59375 -10.09375 L 5.546875 -10.09375 L 5.546875 0 L 4.3125 0 L 4.3125 -10.09375 Z M 0.265625 -10.09375 "/></g></g></g></g><g fill="#000000" fill-opacity="1"><g transform="translate(10.556917, 17.438786)"><g><path d="M 10.25 -4.734375 C 10.25 -3.242188 9.828125 -2.050781 8.984375 -1.15625 C 8.148438 -0.269531 7.03125 0.171875 5.625 0.171875 C 4.207031 0.171875 3.082031 -0.269531 2.25 -1.15625 C 1.414062 -2.039062 1 -3.234375 1 -4.734375 L 1 -11.1875 L 2.234375 -11.1875 L 2.234375 -4.734375 C 2.234375 -3.585938 2.539062 -2.671875 3.15625 -1.984375 C 3.78125 -1.296875 4.601562 -0.953125 5.625 -0.953125 C 6.644531 -0.953125 7.460938 -1.296875 8.078125 -1.984375 C 8.703125 -2.671875 9.015625 -3.585938 9.015625 -4.734375 L 9.015625 -11.1875 L 10.25 -11.1875 Z M 10.25 -4.734375 "/></g></g></g><g fill="#000000" fill-opacity="1"><g transform="translate(21.810123, 17.438786)"><g><path d="M 1.234375 0 L 1.234375 -11.1875 L 9.234375 -11.1875 L 9.234375 -10.109375 L 2.46875 -10.109375 L 2.46875 -6.1875 L 6.890625 -6.1875 L 6.890625 -5.109375 L 2.46875 -5.109375 L 2.46875 -1.09375 L 9.296875 -1.09375 L 9.296875 0 Z M 1.234375 0 "/></g></g></g></g></g><g transform="matrix(1, 0, 0, 1, 200, 44)"><g clip-path="url(#ed36828887)"><g fill="#000000" fill-opacity="1"><g transform="translate(0.678649, 17.438786)"><g><path d="M 4.21875 0 L 2.96875 0 L 0.5625 -11.1875 L 1.8125 -11.1875 L 3.703125 -1.953125 L 6.46875 -11.1875 L 7.671875 -11.1875 L 10.4375 -1.984375 L 12.359375 -11.1875 L 13.546875 -11.1875 L 11.140625 0 L 9.890625 0 L 7.0625 -9.484375 Z M 4.21875 0 "/></g></g></g><g fill="#000000" fill-opacity="1"><g transform="translate(14.777128, 17.438786)"><g><path d="M 1.234375 0 L 1.234375 -11.1875 L 9.234375 -11.1875 L 9.234375 -10.109375 L 2.46875 -10.109375 L 2.46875 -6.1875 L 6.890625 -6.1875 L 6.890625 -5.109375 L 2.46875 -5.109375 L 2.46875 -1.09375 L 9.296875 -1.09375 L 9.296875 0 Z M 1.234375 0 "/></g></g></g><g fill="#000000" fill-opacity="1"><g transform="translate(24.62368, 17.438786)"><g><path d="M 1.234375 0 L 1.234375 -11.1875 L 4.921875 -11.1875 C 5.765625 -11.1875 6.546875 -11.046875 7.265625 -10.765625 C 7.992188 -10.484375 8.617188 -10.097656 9.140625 -9.609375 C 9.660156 -9.117188 10.066406 -8.53125 10.359375 -7.84375 C 10.660156 -7.15625 10.8125 -6.40625 10.8125 -5.59375 C 10.8125 -4.78125 10.660156 -4.03125 10.359375 -3.34375 C 10.066406 -2.65625 9.660156 -2.066406 9.140625 -1.578125 C 8.628906 -1.085938 8.007812 -0.703125 7.28125 -0.421875 C 6.5625 -0.140625 5.773438 0 4.921875 0 Z M 4.984375 -10.0625 L 2.46875 -10.0625 L 2.46875 -1.125 L 4.984375 -1.125 C 5.628906 -1.125 6.234375 -1.238281 6.796875 -1.46875 C 7.359375 -1.695312 7.84375 -2.007812 8.25 -2.40625 C 8.65625 -2.800781 8.972656 -3.273438 9.203125 -3.828125 C 9.441406 -4.378906 9.5625 -4.96875 9.5625 -5.59375 C 9.5625 -6.21875 9.441406 -6.804688 9.203125 -7.359375 C 8.972656 -7.910156 8.65625 -8.382812 8.25 -8.78125 C 7.84375 -9.175781 7.359375 -9.488281 6.796875 -9.71875 C 6.234375 -9.945312 5.628906 -10.0625 4.984375 -10.0625 Z M 4.984375 -10.0625 "/></g></g></g></g></g><g transform="matrix(1, 0, 0, 1, 246, 44)"><g clip-path="url(#f2a60110c3)"><g fill="#000000" fill-opacity="1"><g transform="translate(1.404242, 17.438786)"><g><path d="M 0.265625 -10.09375 L 0.265625 -11.1875 L 9.59375 -11.1875 L 9.59375 -10.09375 L 5.546875 -10.09375 L 5.546875 0 L 4.3125 0 L 4.3125 -10.09375 Z M 0.265625 -10.09375 "/></g></g></g><g fill="#000000" fill-opacity="1"><g transform="translate(11.266785, 17.438786)"><g><path d="M 1.234375 0 L 1.234375 -11.1875 L 2.46875 -11.1875 L 2.46875 -6.1875 L 8.96875 -6.1875 L 8.96875 -11.1875 L 10.203125 -11.1875 L 10.203125 0 L 8.96875 0 L 8.96875 -5.078125 L 2.46875 -5.078125 L 2.46875 0 Z M 1.234375 0 "/></g></g></g><g fill="#000000" fill-opacity="1"><g transform="translate(22.695826, 17.438786)"><g><path d="M 10.25 -4.734375 C 10.25 -3.242188 9.828125 -2.050781 8.984375 -1.15625 C 8.148438 -0.269531 7.03125 0.171875 5.625 0.171875 C 4.207031 0.171875 3.082031 -0.269531 2.25 -1.15625 C 1.414062 -2.039062 1 -3.234375 1 -4.734375 L 1 -11.1875 L 2.234375 -11.1875 L 2.234375 -4.734375 C 2.234375 -3.585938 2.539062 -2.671875 3.15625 -1.984375 C 3.78125 -1.296875 4.601562 -0.953125 5.625 -0.953125 C 6.644531 -0.953125 7.460938 -1.296875 8.078125 -1.984375 C 8.703125 -2.671875 9.015625 -3.585938 9.015625 -4.734375 L 9.015625 -11.1875 L 10.25 -11.1875 Z M 10.25 -4.734375 "/></g></g></g></g></g><g transform="matrix(1, 0, 0, 1, 296, 44)"><g clip-path="url(#9481866460)"><g fill="#000000" fill-opacity="1"><g transform="translate(1.286556, 17.438786)"><g><path d="M 1.234375 0 L 1.234375 -11.1875 L 9.234375 -11.1875 L 9.234375 -10.109375 L 2.46875 -10.109375 L 2.46875 -6.109375 L 6.90625 -6.109375 L 6.90625 -5.03125 L 2.46875 -5.03125 L 2.46875 0 Z M 1.234375 0 "/></g></g></g><g fill="#000000" fill-opacity="1"><g transform="translate(10.989248, 17.438786)"><g><path d="M 1.234375 0 L 1.234375 -11.1875 L 6.03125 -11.1875 C 7.113281 -11.1875 7.988281 -10.890625 8.65625 -10.296875 C 9.332031 -9.710938 9.671875 -8.9375 9.671875 -7.96875 C 9.671875 -7.238281 9.453125 -6.609375 9.015625 -6.078125 C 8.585938 -5.546875 8.007812 -5.175781 7.28125 -4.96875 L 9.796875 0 L 8.4375 0 L 6.046875 -4.8125 L 2.46875 -4.8125 L 2.46875 0 Z M 5.953125 -10.09375 L 2.46875 -10.09375 L 2.46875 -5.84375 L 5.953125 -5.84375 C 6.691406 -5.84375 7.289062 -6.035156 7.75 -6.421875 C 8.207031 -6.816406 8.4375 -7.332031 8.4375 -7.96875 C 8.4375 -8.613281 8.207031 -9.128906 7.75 -9.515625 C 7.289062 -9.898438 6.691406 -10.09375 5.953125 -10.09375 Z M 5.953125 -10.09375 "/></g></g></g><g fill="#000000" fill-opacity="1"><g transform="translate(21.299357, 17.438786)"><g><path d="M 1.234375 0 L 1.234375 -11.1875 L 2.46875 -11.1875 L 2.46875 0 Z M 1.234375 0 "/></g></g></g></g></g><g transform="matrix(1, 0, 0, 1, 341, 44)"><g clip-path="url(#6153a3a3ed)"><g fill="#000000" fill-opacity="1"><g transform="translate(1.035391, 16.935097)"><g><path d="M 0.171875 -1.921875 L 0.984375 -2.765625 C 1.566406 -2.160156 2.179688 -1.695312 2.828125 -1.375 C 3.484375 -1.0625 4.175781 -0.90625 4.90625 -0.90625 C 5.78125 -0.90625 6.5 -1.113281 7.0625 -1.53125 C 7.625 -1.945312 7.90625 -2.472656 7.90625 -3.109375 C 7.90625 -3.691406 7.707031 -4.132812 7.3125 -4.4375 C 6.914062 -4.75 6.257812 -4.976562 5.34375 -5.125 L 3.71875 -5.390625 C 2.644531 -5.554688 1.851562 -5.867188 1.34375 -6.328125 C 0.832031 -6.796875 0.578125 -7.425781 0.578125 -8.21875 C 0.578125 -9.144531 0.9375 -9.894531 1.65625 -10.46875 C 2.382812 -11.039062 3.332031 -11.328125 4.5 -11.328125 C 5.28125 -11.328125 6.050781 -11.195312 6.8125 -10.9375 C 7.582031 -10.6875 8.285156 -10.320312 8.921875 -9.84375 L 8.21875 -8.890625 C 7.613281 -9.347656 6.992188 -9.691406 6.359375 -9.921875 C 5.734375 -10.160156 5.097656 -10.28125 4.453125 -10.28125 C 3.660156 -10.28125 3.015625 -10.09375 2.515625 -9.71875 C 2.023438 -9.351562 1.78125 -8.882812 1.78125 -8.3125 C 1.78125 -7.789062 1.953125 -7.390625 2.296875 -7.109375 C 2.648438 -6.835938 3.234375 -6.632812 4.046875 -6.5 L 5.640625 -6.25 C 6.859375 -6.050781 7.742188 -5.703125 8.296875 -5.203125 C 8.859375 -4.710938 9.140625 -4.039062 9.140625 -3.1875 C 9.140625 -2.695312 9.035156 -2.242188 8.828125 -1.828125 C 8.617188 -1.421875 8.328125 -1.066406 7.953125 -0.765625 C 7.578125 -0.472656 7.125 -0.242188 6.59375 -0.078125 C 6.0625 0.078125 5.484375 0.15625 4.859375 0.15625 C 3.972656 0.15625 3.125 -0.0195312 2.3125 -0.375 C 1.5 -0.726562 0.785156 -1.242188 0.171875 -1.921875 Z M 0.171875 -1.921875 "/></g></g></g><g fill="#000000" fill-opacity="1"><g transform="translate(10.466327, 16.935097)"><g><path d="M 0.0625 0 L 4.71875 -11.1875 L 6.203125 -11.1875 L 10.796875 0 L 9.453125 0 L 8.046875 -3.515625 L 2.765625 -3.515625 L 1.34375 0 Z M 3.203125 -4.578125 L 7.609375 -4.578125 L 5.421875 -10.03125 Z M 3.203125 -4.578125 "/></g></g></g><g fill="#000000" fill-opacity="1"><g transform="translate(19.273629, 16.935097)"><g><path d="M 0.265625 -10.09375 L 0.265625 -11.1875 L 9.59375 -11.1875 L 9.59375 -10.09375 L 5.546875 -10.09375 L 5.546875 0 L 4.3125 0 L 4.3125 -10.09375 Z M 0.265625 -10.09375 "/></g></g></g></g></g></svg>