<svg xmlns="http://www.w3.org/2000/svg" xmlns:xlink="http://www.w3.org/1999/xlink" width="583" zoomAndPan="magnify" viewBox="0 0 438 300.000006" height="450" preserveAspectRatio="xMidYMid meet" version="1.0"><defs><g/><clipPath id="29d1eddf7c"><rect x="0" width="302" y="0" height="54"/></clipPath><clipPath id="a6acfd8ddc"><path d="M 63 127.300781 L 92 127.300781 L 92 155.703125 L 63 155.703125 Z M 63 127.300781 " clip-rule="nonzero"/></clipPath><clipPath id="299e3f6180"><path d="M 103 154 L 374.664062 154 L 374.664062 155.703125 L 103 155.703125 Z M 103 154 " clip-rule="nonzero"/></clipPath><clipPath id="2fccf6ff68"><path d="M 63 194.546875 L 92 194.546875 L 92 222.953125 L 63 222.953125 Z M 63 194.546875 " clip-rule="nonzero"/></clipPath><clipPath id="95a7bbdd87"><path d="M 103 221 L 374.664062 221 L 374.664062 222.953125 L 103 222.953125 Z M 103 221 " clip-rule="nonzero"/></clipPath><clipPath id="fa4f3d9e34"><path d="M 63 261.796875 L 92 261.796875 L 92 290.203125 L 63 290.203125 Z M 63 261.796875 " clip-rule="nonzero"/></clipPath><clipPath id="b29e4cda1e"><path d="M 103 288 L 374.664062 288 L 374.664062 290.203125 L 103 290.203125 Z M 103 288 " clip-rule="nonzero"/></clipPath></defs><g transform="matrix(1, 0, 0, 1, 70, 43)"><g clip-path="url(#29d1eddf7c)"><g fill="#000000" fill-opacity="1"><g transform="translate(1.207007, 40.93715)"><g><path d="M 0.671875 -25.1875 L 0.671875 -27.9375 L 23.9375 -27.9375 L 23.9375 -25.1875 L 13.84375 -25.1875 L 13.84375 0 L 10.78125 0 L 10.78125 -25.1875 Z M 0.671875 -25.1875 "/></g></g></g><g fill="#000000" fill-opacity="1"><g transform="translate(23.75609, 40.93715)"><g><path d="M 30.53125 -13.96875 C 30.53125 -11.96875 30.15625 -10.082031 29.40625 -8.3125 C 28.664062 -6.550781 27.648438 -5.023438 26.359375 -3.734375 C 25.066406 -2.441406 23.539062 -1.421875 21.78125 -0.671875 C 20.03125 0.0664062 18.15625 0.4375 16.15625 0.4375 C 14.164062 0.4375 12.285156 0.0664062 10.515625 -0.671875 C 8.742188 -1.421875 7.210938 -2.441406 5.921875 -3.734375 C 4.628906 -5.023438 3.609375 -6.550781 2.859375 -8.3125 C 2.117188 -10.082031 1.75 -11.96875 1.75 -13.96875 C 1.75 -15.957031 2.117188 -17.835938 2.859375 -19.609375 C 3.609375 -21.378906 4.628906 -22.910156 5.921875 -24.203125 C 7.210938 -25.492188 8.742188 -26.507812 10.515625 -27.25 C 12.285156 -28 14.164062 -28.375 16.15625 -28.375 C 18.15625 -28.375 20.03125 -28 21.78125 -27.25 C 23.539062 -26.507812 25.066406 -25.492188 26.359375 -24.203125 C 27.648438 -22.910156 28.664062 -21.378906 29.40625 -19.609375 C 30.15625 -17.835938 30.53125 -15.957031 30.53125 -13.96875 Z M 27.421875 -13.96875 C 27.421875 -15.59375 27.125 -17.113281 26.53125 -18.53125 C 25.945312 -19.957031 25.15625 -21.179688 24.15625 -22.203125 C 23.164062 -23.234375 21.976562 -24.046875 20.59375 -24.640625 C 19.207031 -25.242188 17.726562 -25.546875 16.15625 -25.546875 C 14.5625 -25.546875 13.070312 -25.242188 11.6875 -24.640625 C 10.3125 -24.046875 9.125 -23.234375 8.125 -22.203125 C 7.125 -21.179688 6.332031 -19.957031 5.75 -18.53125 C 5.164062 -17.113281 4.875 -15.59375 4.875 -13.96875 C 4.875 -12.34375 5.164062 -10.820312 5.75 -9.40625 C 6.332031 -8 7.125 -6.773438 8.125 -5.734375 C 9.125 -4.703125 10.3125 -3.882812 11.6875 -3.28125 C 13.070312 -2.6875 14.5625 -2.390625 16.15625 -2.390625 C 17.726562 -2.390625 19.207031 -2.6875 20.59375 -3.28125 C 21.976562 -3.882812 23.164062 -4.703125 24.15625 -5.734375 C 25.15625 -6.773438 25.945312 -8 26.53125 -9.40625 C 27.125 -10.820312 27.421875 -12.34375 27.421875 -13.96875 Z M 27.421875 -13.96875 "/></g></g></g><g fill="#000000" fill-opacity="1"><g transform="translate(56.043429, 40.93715)"><g><path d="M 3.078125 0 L 3.078125 -27.9375 L 15.203125 -27.9375 C 17.921875 -27.9375 20.101562 -27.195312 21.75 -25.71875 C 23.394531 -24.238281 24.21875 -22.289062 24.21875 -19.875 C 24.21875 -17.445312 23.382812 -15.488281 21.71875 -14 C 20.0625 -12.507812 17.890625 -11.765625 15.203125 -11.765625 L 6.140625 -11.765625 L 6.140625 0 Z M 14.96875 -25.1875 L 6.140625 -25.1875 L 6.140625 -14.453125 L 14.96875 -14.453125 C 16.851562 -14.453125 18.351562 -14.9375 19.46875 -15.90625 C 20.59375 -16.875 21.15625 -18.179688 21.15625 -19.828125 C 21.15625 -21.484375 20.59375 -22.789062 19.46875 -23.75 C 18.351562 -24.707031 16.851562 -25.1875 14.96875 -25.1875 Z M 14.96875 -25.1875 "/></g></g></g><g fill="#000000" fill-opacity="1"><g transform="translate(81.865315, 40.93715)"><g/></g></g><g fill="#000000" fill-opacity="1"><g transform="translate(90.446003, 40.93715)"><g><path d="M 3.078125 0 L 3.078125 -27.9375 L 15.203125 -27.9375 C 17.921875 -27.9375 20.101562 -27.195312 21.75 -25.71875 C 23.394531 -24.238281 24.21875 -22.289062 24.21875 -19.875 C 24.21875 -17.445312 23.382812 -15.488281 21.71875 -14 C 20.0625 -12.507812 17.890625 -11.765625 15.203125 -11.765625 L 6.140625 -11.765625 L 6.140625 0 Z M 14.96875 -25.1875 L 6.140625 -25.1875 L 6.140625 -14.453125 L 14.96875 -14.453125 C 16.851562 -14.453125 18.351562 -14.9375 19.46875 -15.90625 C 20.59375 -16.875 21.15625 -18.179688 21.15625 -19.828125 C 21.15625 -21.484375 20.59375 -22.789062 19.46875 -23.75 C 18.351562 -24.707031 16.851562 -25.1875 14.96875 -25.1875 Z M 14.96875 -25.1875 "/></g></g></g><g fill="#000000" fill-opacity="1"><g transform="translate(116.267889, 40.93715)"><g><path d="M 3.078125 0 L 3.078125 -27.9375 L 15.046875 -27.9375 C 17.753906 -27.9375 19.945312 -27.195312 21.625 -25.71875 C 23.300781 -24.238281 24.140625 -22.300781 24.140625 -19.90625 C 24.140625 -18.070312 23.597656 -16.488281 22.515625 -15.15625 C 21.441406 -13.832031 20.003906 -12.914062 18.203125 -12.40625 L 24.46875 0 L 21.078125 0 L 15.078125 -12.015625 L 6.140625 -12.015625 L 6.140625 0 Z M 14.84375 -25.1875 L 6.140625 -25.1875 L 6.140625 -14.609375 L 14.84375 -14.609375 C 16.707031 -14.609375 18.210938 -15.09375 19.359375 -16.0625 C 20.503906 -17.03125 21.078125 -18.3125 21.078125 -19.90625 C 21.078125 -21.507812 20.503906 -22.789062 19.359375 -23.75 C 18.210938 -24.707031 16.707031 -25.1875 14.84375 -25.1875 Z M 14.84375 -25.1875 "/></g></g></g><g fill="#000000" fill-opacity="1"><g transform="translate(142.009955, 40.93715)"><g><path d="M 3.078125 0 L 3.078125 -27.9375 L 6.140625 -27.9375 L 6.140625 0 Z M 3.078125 0 "/></g></g></g><g fill="#000000" fill-opacity="1"><g transform="translate(151.229209, 40.93715)"><g><path d="M 30.53125 -13.96875 C 30.53125 -11.96875 30.15625 -10.082031 29.40625 -8.3125 C 28.664062 -6.550781 27.648438 -5.023438 26.359375 -3.734375 C 25.066406 -2.441406 23.539062 -1.421875 21.78125 -0.671875 C 20.03125 0.0664062 18.15625 0.4375 16.15625 0.4375 C 14.164062 0.4375 12.285156 0.0664062 10.515625 -0.671875 C 8.742188 -1.421875 7.210938 -2.441406 5.921875 -3.734375 C 4.628906 -5.023438 3.609375 -6.550781 2.859375 -8.3125 C 2.117188 -10.082031 1.75 -11.96875 1.75 -13.96875 C 1.75 -15.957031 2.117188 -17.835938 2.859375 -19.609375 C 3.609375 -21.378906 4.628906 -22.910156 5.921875 -24.203125 C 7.210938 -25.492188 8.742188 -26.507812 10.515625 -27.25 C 12.285156 -28 14.164062 -28.375 16.15625 -28.375 C 18.15625 -28.375 20.03125 -28 21.78125 -27.25 C 23.539062 -26.507812 25.066406 -25.492188 26.359375 -24.203125 C 27.648438 -22.910156 28.664062 -21.378906 29.40625 -19.609375 C 30.15625 -17.835938 30.53125 -15.957031 30.53125 -13.96875 Z M 27.421875 -13.96875 C 27.421875 -15.59375 27.125 -17.113281 26.53125 -18.53125 C 25.945312 -19.957031 25.15625 -21.179688 24.15625 -22.203125 C 23.164062 -23.234375 21.976562 -24.046875 20.59375 -24.640625 C 19.207031 -25.242188 17.726562 -25.546875 16.15625 -25.546875 C 14.5625 -25.546875 13.070312 -25.242188 11.6875 -24.640625 C 10.3125 -24.046875 9.125 -23.234375 8.125 -22.203125 C 7.125 -21.179688 6.332031 -19.957031 5.75 -18.53125 C 5.164062 -17.113281 4.875 -15.59375 4.875 -13.96875 C 4.875 -12.34375 5.164062 -10.820312 5.75 -9.40625 C 6.332031 -8 7.125 -6.773438 8.125 -5.734375 C 9.125 -4.703125 10.3125 -3.882812 11.6875 -3.28125 C 13.070312 -2.6875 14.5625 -2.390625 16.15625 -2.390625 C 17.726562 -2.390625 19.207031 -2.6875 20.59375 -3.28125 C 21.976562 -3.882812 23.164062 -4.703125 24.15625 -5.734375 C 25.15625 -6.773438 25.945312 -8 26.53125 -9.40625 C 27.125 -10.820312 27.421875 -12.34375 27.421875 -13.96875 Z M 27.421875 -13.96875 "/></g></g></g><g fill="#000000" fill-opacity="1"><g transform="translate(183.516539, 40.93715)"><g><path d="M 3.078125 0 L 3.078125 -27.9375 L 15.046875 -27.9375 C 17.753906 -27.9375 19.945312 -27.195312 21.625 -25.71875 C 23.300781 -24.238281 24.140625 -22.300781 24.140625 -19.90625 C 24.140625 -18.070312 23.597656 -16.488281 22.515625 -15.15625 C 21.441406 -13.832031 20.003906 -12.914062 18.203125 -12.40625 L 24.46875 0 L 21.078125 0 L 15.078125 -12.015625 L 6.140625 -12.015625 L 6.140625 0 Z M 14.84375 -25.1875 L 6.140625 -25.1875 L 6.140625 -14.609375 L 14.84375 -14.609375 C 16.707031 -14.609375 18.210938 -15.09375 19.359375 -16.0625 C 20.503906 -17.03125 21.078125 -18.3125 21.078125 -19.90625 C 21.078125 -21.507812 20.503906 -22.789062 19.359375 -23.75 C 18.210938 -24.707031 16.707031 -25.1875 14.84375 -25.1875 Z M 14.84375 -25.1875 "/></g></g></g><g fill="#000000" fill-opacity="1"><g transform="translate(209.258614, 40.93715)"><g><path d="M 3.078125 0 L 3.078125 -27.9375 L 6.140625 -27.9375 L 6.140625 0 Z M 3.078125 0 "/></g></g></g><g fill="#000000" fill-opacity="1"><g transform="translate(218.477867, 40.93715)"><g><path d="M 0.671875 -25.1875 L 0.671875 -27.9375 L 23.9375 -27.9375 L 23.9375 -25.1875 L 13.84375 -25.1875 L 13.84375 0 L 10.78125 0 L 10.78125 -25.1875 Z M 0.671875 -25.1875 "/></g></g></g><g fill="#000000" fill-opacity="1"><g transform="translate(243.102451, 40.93715)"><g><path d="M 3.078125 0 L 3.078125 -27.9375 L 6.140625 -27.9375 L 6.140625 0 Z M 3.078125 0 "/></g></g></g><g fill="#000000" fill-opacity="1"><g transform="translate(252.321705, 40.93715)"><g><path d="M 3.078125 0 L 3.078125 -27.9375 L 23.0625 -27.9375 L 23.0625 -25.21875 L 6.140625 -25.21875 L 6.140625 -15.4375 L 17.203125 -15.4375 L 17.203125 -12.765625 L 6.140625 -12.765625 L 6.140625 -2.71875 L 23.21875 -2.71875 L 23.21875 0 Z M 3.078125 0 "/></g></g></g><g fill="#000000" fill-opacity="1"><g transform="translate(276.906387, 40.93715)"><g><path d="M 0.4375 -4.78125 L 2.46875 -6.90625 C 3.90625 -5.382812 5.441406 -4.234375 7.078125 -3.453125 C 8.710938 -2.671875 10.4375 -2.28125 12.25 -2.28125 C 14.4375 -2.28125 16.234375 -2.796875 17.640625 -3.828125 C 19.046875 -4.867188 19.75 -6.1875 19.75 -7.78125 C 19.75 -9.21875 19.25 -10.320312 18.25 -11.09375 C 17.257812 -11.863281 15.617188 -12.4375 13.328125 -12.8125 L 9.296875 -13.453125 C 6.609375 -13.878906 4.625 -14.671875 3.34375 -15.828125 C 2.070312 -16.984375 1.4375 -18.546875 1.4375 -20.515625 C 1.4375 -22.828125 2.335938 -24.703125 4.140625 -26.140625 C 5.953125 -27.578125 8.320312 -28.296875 11.25 -28.296875 C 13.195312 -28.296875 15.125 -27.972656 17.03125 -27.328125 C 18.945312 -26.691406 20.691406 -25.773438 22.265625 -24.578125 L 20.515625 -22.1875 C 18.992188 -23.332031 17.445312 -24.195312 15.875 -24.78125 C 14.3125 -25.363281 12.734375 -25.65625 11.140625 -25.65625 C 9.140625 -25.65625 7.519531 -25.195312 6.28125 -24.28125 C 5.039062 -23.363281 4.421875 -22.1875 4.421875 -20.75 C 4.421875 -19.445312 4.859375 -18.445312 5.734375 -17.75 C 6.617188 -17.0625 8.070312 -16.554688 10.09375 -16.234375 L 14.09375 -15.609375 C 17.125 -15.097656 19.335938 -14.226562 20.734375 -13 C 22.128906 -11.78125 22.828125 -10.09375 22.828125 -7.9375 C 22.828125 -6.71875 22.566406 -5.59375 22.046875 -4.5625 C 21.523438 -3.539062 20.789062 -2.664062 19.84375 -1.9375 C 18.90625 -1.207031 17.773438 -0.632812 16.453125 -0.21875 C 15.140625 0.195312 13.695312 0.40625 12.125 0.40625 C 9.914062 0.40625 7.796875 -0.0390625 5.765625 -0.9375 C 3.734375 -1.832031 1.957031 -3.113281 0.4375 -4.78125 Z M 0.4375 -4.78125 "/></g></g></g></g></g><g clip-path="url(#a6acfd8ddc)"><path fill="#000000" d="M 91.628906 127.984375 C 91.628906 127.597656 91.316406 127.285156 90.929688 127.285156 L 64.019531 127.285156 C 63.632812 127.285156 63.316406 127.597656 63.316406 127.984375 L 63.316406 154.863281 C 63.316406 155.25 63.632812 155.5625 64.019531 155.5625 L 90.929688 155.5625 C 91.316406 155.5625 91.628906 155.25 91.628906 154.863281 Z M 90.230469 128.683594 L 90.230469 154.164062 C 90.230469 154.164062 64.71875 154.164062 64.71875 154.164062 C 64.71875 154.164062 64.71875 128.683594 64.71875 128.683594 Z M 90.230469 128.683594 " fill-opacity="1" fill-rule="evenodd"/></g><g clip-path="url(#299e3f6180)"><path fill="#000000" d="M 104.386719 155.6875 L 373.5 155.6875 C 373.957031 155.6875 374.328125 155.316406 374.328125 154.863281 C 374.328125 154.40625 373.957031 154.039062 373.5 154.039062 L 104.386719 154.039062 C 103.933594 154.039062 103.5625 154.40625 103.5625 154.863281 C 103.5625 155.316406 103.933594 155.6875 104.386719 155.6875 Z M 104.386719 155.6875 " fill-opacity="1" fill-rule="evenodd"/></g><g clip-path="url(#2fccf6ff68)"><path fill="#000000" d="M 91.628906 195.234375 C 91.628906 194.847656 91.316406 194.535156 90.929688 194.535156 L 64.019531 194.535156 C 63.632812 194.535156 63.316406 194.847656 63.316406 195.234375 L 63.316406 222.113281 C 63.316406 222.5 63.632812 222.8125 64.019531 222.8125 L 90.929688 222.8125 C 91.316406 222.8125 91.628906 222.5 91.628906 222.113281 Z M 90.230469 195.933594 L 90.230469 221.410156 C 90.230469 221.410156 64.71875 221.410156 64.71875 221.410156 C 64.71875 221.410156 64.71875 195.933594 64.71875 195.933594 Z M 90.230469 195.933594 " fill-opacity="1" fill-rule="evenodd"/></g><g clip-path="url(#95a7bbdd87)"><path fill="#000000" d="M 104.386719 222.9375 L 373.5 222.9375 C 373.957031 222.9375 374.328125 222.566406 374.328125 222.113281 C 374.328125 221.65625 373.957031 221.285156 373.5 221.285156 L 104.386719 221.285156 C 103.933594 221.285156 103.5625 221.65625 103.5625 222.113281 C 103.5625 222.566406 103.933594 222.9375 104.386719 222.9375 Z M 104.386719 222.9375 " fill-opacity="1" fill-rule="evenodd"/></g><g clip-path="url(#fa4f3d9e34)"><path fill="#000000" d="M 91.628906 262.480469 C 91.628906 262.097656 91.316406 261.78125 90.929688 261.78125 L 64.019531 261.78125 C 63.632812 261.78125 63.316406 262.097656 63.316406 262.480469 L 63.316406 289.359375 C 63.316406 289.746094 63.632812 290.0625 64.019531 290.0625 L 90.929688 290.0625 C 91.316406 290.0625 91.628906 289.746094 91.628906 289.359375 Z M 90.230469 263.183594 L 90.230469 288.660156 C 90.230469 288.660156 64.71875 288.660156 64.71875 288.660156 C 64.71875 288.660156 64.71875 263.183594 64.71875 263.183594 Z M 90.230469 263.183594 " fill-opacity="1" fill-rule="evenodd"/></g><g clip-path="url(#b29e4cda1e)"><path fill="#000000" d="M 104.386719 290.1875 L 373.5 290.1875 C 373.957031 290.1875 374.328125 289.816406 374.328125 289.359375 C 374.328125 288.90625 373.957031 288.535156 373.5 288.535156 L 104.386719 288.535156 C 103.933594 288.535156 103.5625 288.90625 103.5625 289.359375 C 103.5625 289.816406 103.933594 290.1875 104.386719 290.1875 Z M 104.386719 290.1875 " fill-opacity="1" fill-rule="evenodd"/></g></svg>