<svg xmlns="http://www.w3.org/2000/svg" xmlns:xlink="http://www.w3.org/1999/xlink" width="583" zoomAndPan="magnify" viewBox="0 0 438 300.000006" height="450" preserveAspectRatio="xMidYMid meet" version="1.0"><defs><g/><clipPath id="dd30f208b7"><path d="M 56.476562 33.636719 L 380.773438 33.636719 L 380.773438 283.738281 L 56.476562 283.738281 Z M 56.476562 33.636719 " clip-rule="nonzero"/></clipPath><clipPath id="4b81cf937e"><rect x="0" width="176" y="0" height="36"/></clipPath></defs><g clip-path="url(#dd30f208b7)"><path stroke-linecap="butt" transform="matrix(0.747508, 0, 0, 0.747508, 56.477088, 33.637883)" fill="none" stroke-linejoin="miter" d="M -0.0007028 -0.0015575 L 433.836432 -0.0015575 L 433.836432 334.578741 L -0.0007028 334.578741 Z M -0.0007028 -0.0015575 " stroke="#000000" stroke-width="4" stroke-opacity="1" stroke-miterlimit="4"/></g><path stroke-linecap="butt" transform="matrix(0.747508, 0.000000000000000147, -0.000000000000000147, 0.747508, 56.474311, 74.133093)" fill="none" stroke-linejoin="miter" d="M -0.00221329 0.997732 L 433.8454 0.997732 " stroke="#000000" stroke-width="2" stroke-opacity="1" stroke-miterlimit="4"/><g transform="matrix(1, 0, 0, 1, 61, 36)"><g clip-path="url(#4b81cf937e)"><g fill="#000000" fill-opacity="1"><g transform="translate(0.772141, 27.032558)"><g><path d="M 6.984375 0 L 4.921875 0 L 0.921875 -18.546875 L 3 -18.546875 L 6.140625 -3.234375 L 10.71875 -18.546875 L 12.71875 -18.546875 L 17.296875 -3.28125 L 20.46875 -18.546875 L 22.453125 -18.546875 L 18.453125 0 L 16.390625 0 L 11.703125 -15.703125 Z M 6.984375 0 "/></g></g></g><g fill="#000000" fill-opacity="1"><g transform="translate(24.130598, 27.032558)"><g><path d="M 20.265625 -9.265625 C 20.265625 -7.941406 20.015625 -6.691406 19.515625 -5.515625 C 19.023438 -4.347656 18.347656 -3.332031 17.484375 -2.46875 C 16.628906 -1.613281 15.617188 -0.9375 14.453125 -0.4375 C 13.296875 0.0507812 12.050781 0.296875 10.71875 0.296875 C 9.394531 0.296875 8.144531 0.0507812 6.96875 -0.4375 C 5.800781 -0.9375 4.789062 -1.613281 3.9375 -2.46875 C 3.082031 -3.332031 2.40625 -4.347656 1.90625 -5.515625 C 1.414062 -6.691406 1.171875 -7.941406 1.171875 -9.265625 C 1.171875 -10.585938 1.414062 -11.835938 1.90625 -13.015625 C 2.40625 -14.191406 3.082031 -15.207031 3.9375 -16.0625 C 4.789062 -16.914062 5.800781 -17.585938 6.96875 -18.078125 C 8.144531 -18.578125 9.394531 -18.828125 10.71875 -18.828125 C 12.050781 -18.828125 13.296875 -18.578125 14.453125 -18.078125 C 15.617188 -17.585938 16.628906 -16.914062 17.484375 -16.0625 C 18.347656 -15.207031 19.023438 -14.191406 19.515625 -13.015625 C 20.015625 -11.835938 20.265625 -10.585938 20.265625 -9.265625 Z M 18.1875 -9.265625 C 18.1875 -10.347656 17.992188 -11.359375 17.609375 -12.296875 C 17.222656 -13.242188 16.695312 -14.054688 16.03125 -14.734375 C 15.375 -15.421875 14.582031 -15.960938 13.65625 -16.359375 C 12.738281 -16.753906 11.757812 -16.953125 10.71875 -16.953125 C 9.664062 -16.953125 8.675781 -16.753906 7.75 -16.359375 C 6.832031 -15.960938 6.039062 -15.421875 5.375 -14.734375 C 4.71875 -14.054688 4.195312 -13.242188 3.8125 -12.296875 C 3.425781 -11.359375 3.234375 -10.347656 3.234375 -9.265625 C 3.234375 -8.191406 3.425781 -7.1875 3.8125 -6.25 C 4.195312 -5.3125 4.71875 -4.5 5.375 -3.8125 C 6.039062 -3.125 6.832031 -2.582031 7.75 -2.1875 C 8.675781 -1.789062 9.664062 -1.59375 10.71875 -1.59375 C 11.757812 -1.59375 12.738281 -1.789062 13.65625 -2.1875 C 14.582031 -2.582031 15.375 -3.125 16.03125 -3.8125 C 16.695312 -4.5 17.222656 -5.3125 17.609375 -6.25 C 17.992188 -7.1875 18.1875 -8.191406 18.1875 -9.265625 Z M 18.1875 -9.265625 "/></g></g></g><g fill="#000000" fill-opacity="1"><g transform="translate(45.555759, 27.032558)"><g><path d="M 2.046875 0 L 2.046875 -18.546875 L 9.984375 -18.546875 C 11.785156 -18.546875 13.238281 -18.050781 14.34375 -17.0625 C 15.457031 -16.082031 16.015625 -14.800781 16.015625 -13.21875 C 16.015625 -12 15.65625 -10.945312 14.9375 -10.0625 C 14.226562 -9.175781 13.273438 -8.566406 12.078125 -8.234375 L 16.234375 0 L 13.984375 0 L 10.015625 -7.96875 L 4.078125 -7.96875 L 4.078125 0 Z M 9.859375 -16.71875 L 4.078125 -16.71875 L 4.078125 -9.6875 L 9.859375 -9.6875 C 11.085938 -9.6875 12.082031 -10.007812 12.84375 -10.65625 C 13.601562 -11.300781 13.984375 -12.15625 13.984375 -13.21875 C 13.984375 -14.28125 13.601562 -15.128906 12.84375 -15.765625 C 12.082031 -16.398438 11.085938 -16.71875 9.859375 -16.71875 Z M 9.859375 -16.71875 "/></g></g></g><g fill="#000000" fill-opacity="1"><g transform="translate(62.637628, 27.032558)"><g><path d="M 2.046875 0 L 2.046875 -18.546875 L 4.078125 -18.546875 L 4.078125 -9.75 L 13.671875 -18.546875 L 16.34375 -18.546875 L 6.28125 -9.453125 L 16.546875 0 L 13.6875 0 L 4.078125 -8.90625 L 4.078125 0 Z M 2.046875 0 "/></g></g></g><g fill="#000000" fill-opacity="1"><g transform="translate(78.977954, 27.032558)"><g/></g></g><g fill="#000000" fill-opacity="1"><g transform="translate(84.67191, 27.032558)"><g><path d="M 0.453125 -16.71875 L 0.453125 -18.546875 L 15.890625 -18.546875 L 15.890625 -16.71875 L 9.1875 -16.71875 L 9.1875 0 L 7.15625 0 L 7.15625 -16.71875 Z M 0.453125 -16.71875 "/></g></g></g><g fill="#000000" fill-opacity="1"><g transform="translate(101.012237, 27.032558)"><g><path d="M 20.265625 -9.265625 C 20.265625 -7.941406 20.015625 -6.691406 19.515625 -5.515625 C 19.023438 -4.347656 18.347656 -3.332031 17.484375 -2.46875 C 16.628906 -1.613281 15.617188 -0.9375 14.453125 -0.4375 C 13.296875 0.0507812 12.050781 0.296875 10.71875 0.296875 C 9.394531 0.296875 8.144531 0.0507812 6.96875 -0.4375 C 5.800781 -0.9375 4.789062 -1.613281 3.9375 -2.46875 C 3.082031 -3.332031 2.40625 -4.347656 1.90625 -5.515625 C 1.414062 -6.691406 1.171875 -7.941406 1.171875 -9.265625 C 1.171875 -10.585938 1.414062 -11.835938 1.90625 -13.015625 C 2.40625 -14.191406 3.082031 -15.207031 3.9375 -16.0625 C 4.789062 -16.914062 5.800781 -17.585938 6.96875 -18.078125 C 8.144531 -18.578125 9.394531 -18.828125 10.71875 -18.828125 C 12.050781 -18.828125 13.296875 -18.578125 14.453125 -18.078125 C 15.617188 -17.585938 16.628906 -16.914062 17.484375 -16.0625 C 18.347656 -15.207031 19.023438 -14.191406 19.515625 -13.015625 C 20.015625 -11.835938 20.265625 -10.585938 20.265625 -9.265625 Z M 18.1875 -9.265625 C 18.1875 -10.347656 17.992188 -11.359375 17.609375 -12.296875 C 17.222656 -13.242188 16.695312 -14.054688 16.03125 -14.734375 C 15.375 -15.421875 14.582031 -15.960938 13.65625 -16.359375 C 12.738281 -16.753906 11.757812 -16.953125 10.71875 -16.953125 C 9.664062 -16.953125 8.675781 -16.753906 7.75 -16.359375 C 6.832031 -15.960938 6.039062 -15.421875 5.375 -14.734375 C 4.71875 -14.054688 4.195312 -13.242188 3.8125 -12.296875 C 3.425781 -11.359375 3.234375 -10.347656 3.234375 -9.265625 C 3.234375 -8.191406 3.425781 -7.1875 3.8125 -6.25 C 4.195312 -5.3125 4.71875 -4.5 5.375 -3.8125 C 6.039062 -3.125 6.832031 -2.582031 7.75 -2.1875 C 8.675781 -1.789062 9.664062 -1.59375 10.71875 -1.59375 C 11.757812 -1.59375 12.738281 -1.789062 13.65625 -2.1875 C 14.582031 -2.582031 15.375 -3.125 16.03125 -3.8125 C 16.695312 -4.5 17.222656 -5.3125 17.609375 -6.25 C 17.992188 -7.1875 18.1875 -8.191406 18.1875 -9.265625 Z M 18.1875 -9.265625 "/></g></g></g><g fill="#000000" fill-opacity="1"><g transform="translate(122.437397, 27.032558)"><g><path d="M 1.296875 -8.3125 L 10.546875 -8.3125 L 10.546875 -6.5625 L 1.296875 -6.5625 Z M 1.296875 -8.3125 "/></g></g></g><g fill="#000000" fill-opacity="1"><g transform="translate(134.275529, 27.032558)"><g><path d="M 2.046875 0 L 2.046875 -18.546875 L 8.15625 -18.546875 C 9.550781 -18.546875 10.847656 -18.3125 12.046875 -17.84375 C 13.242188 -17.375 14.273438 -16.734375 15.140625 -15.921875 C 16.015625 -15.109375 16.691406 -14.128906 17.171875 -12.984375 C 17.660156 -11.847656 17.90625 -10.609375 17.90625 -9.265625 C 17.90625 -7.921875 17.660156 -6.679688 17.171875 -5.546875 C 16.691406 -4.410156 16.019531 -3.4375 15.15625 -2.625 C 14.300781 -1.8125 13.273438 -1.171875 12.078125 -0.703125 C 10.878906 -0.234375 9.570312 0 8.15625 0 Z M 8.265625 -16.6875 L 4.078125 -16.6875 L 4.078125 -1.859375 L 8.265625 -1.859375 C 9.328125 -1.859375 10.320312 -2.046875 11.25 -2.421875 C 12.1875 -2.804688 12.988281 -3.328125 13.65625 -3.984375 C 14.332031 -4.648438 14.863281 -5.4375 15.25 -6.34375 C 15.644531 -7.25 15.84375 -8.222656 15.84375 -9.265625 C 15.84375 -10.304688 15.644531 -11.28125 15.25 -12.1875 C 14.863281 -13.101562 14.332031 -13.890625 13.65625 -14.546875 C 12.988281 -15.210938 12.1875 -15.734375 11.25 -16.109375 C 10.320312 -16.492188 9.328125 -16.6875 8.265625 -16.6875 Z M 8.265625 -16.6875 "/></g></g></g><g fill="#000000" fill-opacity="1"><g transform="translate(153.343658, 27.032558)"><g><path d="M 20.265625 -9.265625 C 20.265625 -7.941406 20.015625 -6.691406 19.515625 -5.515625 C 19.023438 -4.347656 18.347656 -3.332031 17.484375 -2.46875 C 16.628906 -1.613281 15.617188 -0.9375 14.453125 -0.4375 C 13.296875 0.0507812 12.050781 0.296875 10.71875 0.296875 C 9.394531 0.296875 8.144531 0.0507812 6.96875 -0.4375 C 5.800781 -0.9375 4.789062 -1.613281 3.9375 -2.46875 C 3.082031 -3.332031 2.40625 -4.347656 1.90625 -5.515625 C 1.414062 -6.691406 1.171875 -7.941406 1.171875 -9.265625 C 1.171875 -10.585938 1.414062 -11.835938 1.90625 -13.015625 C 2.40625 -14.191406 3.082031 -15.207031 3.9375 -16.0625 C 4.789062 -16.914062 5.800781 -17.585938 6.96875 -18.078125 C 8.144531 -18.578125 9.394531 -18.828125 10.71875 -18.828125 C 12.050781 -18.828125 13.296875 -18.578125 14.453125 -18.078125 C 15.617188 -17.585938 16.628906 -16.914062 17.484375 -16.0625 C 18.347656 -15.207031 19.023438 -14.191406 19.515625 -13.015625 C 20.015625 -11.835938 20.265625 -10.585938 20.265625 -9.265625 Z M 18.1875 -9.265625 C 18.1875 -10.347656 17.992188 -11.359375 17.609375 -12.296875 C 17.222656 -13.242188 16.695312 -14.054688 16.03125 -14.734375 C 15.375 -15.421875 14.582031 -15.960938 13.65625 -16.359375 C 12.738281 -16.753906 11.757812 -16.953125 10.71875 -16.953125 C 9.664062 -16.953125 8.675781 -16.753906 7.75 -16.359375 C 6.832031 -15.960938 6.039062 -15.421875 5.375 -14.734375 C 4.71875 -14.054688 4.195312 -13.242188 3.8125 -12.296875 C 3.425781 -11.359375 3.234375 -10.347656 3.234375 -9.265625 C 3.234375 -8.191406 3.425781 -7.1875 3.8125 -6.25 C 4.195312 -5.3125 4.71875 -4.5 5.375 -3.8125 C 6.039062 -3.125 6.832031 -2.582031 7.75 -2.1875 C 8.675781 -1.789062 9.664062 -1.59375 10.71875 -1.59375 C 11.757812 -1.59375 12.738281 -1.789062 13.65625 -2.1875 C 14.582031 -2.582031 15.375 -3.125 16.03125 -3.8125 C 16.695312 -4.5 17.222656 -5.3125 17.609375 -6.25 C 17.992188 -7.1875 18.1875 -8.191406 18.1875 -9.265625 Z M 18.1875 -9.265625 "/></g></g></g></g></g></svg>